  0
SECTION
  2
HEADER
  9
$ACADVER
  1
AC1015
  9
$ACADMAINTVER
 70
     6
  9
$DWGCODEPAGE
  3
ANSI_936
  9
$INSBASE
 10
0.0
 20
0.0
 30
0.0
  9
$EXTMIN
 10
-1.0913495279
 20
-1.0913495279
 30
0.0
  9
$EXTMAX
 10
1.0913495279
 20
1.0913495279
 30
0.0
  9
$LIMMIN
 10
0.0
 20
0.0
  9
$LIMMAX
 10
12.0
 20
9.0
  9
$ORTHOMODE
 70
     0
  9
$REGENMODE
 70
     1
  9
$FILLMODE
 70
     1
  9
$QTEXTMODE
 70
     0
  9
$MIRRTEXT
 70
     1
  9
$LTSCALE
 40
1.0
  9
$ATTMODE
 70
     1
  9
$TEXTSIZE
 40
0.125
  9
$TRACEWID
 40
0.05
  9
$TEXTSTYLE
  7
Standard
  9
$CLAYER
  8
0
  9
$CELTYPE
  6
ByLayer
  9
$CECOLOR
 62
   256
  9
$CELTSCALE
 40
1.0
  9
$DISPSILH
 70
     0
  9
$DIMSCALE
 40
1.0
  9
$DIMASZ
 40
0.125
  9
$DIMEXO
 40
0.0
  9
$DIMDLI
 40
0.38
  9
$DIMRND
 40
0.0
  9
$DIMDLE
 40
0.0
  9
$DIMEXE
 40
0.125
  9
$DIMTP
 40
0.0
  9
$DIMTM
 40
0.0
  9
$DIMTXT
 40
0.125
  9
$DIMCEN
 40
0.09
  9
$DIMTSZ
 40
0.0
  9
$DIMTOL
 70
     0
  9
$DIMLIM
 70
     0
  9
$DIMTIH
 70
     1
  9
$DIMTOH
 70
     1
  9
$DIMSE1
 70
     0
  9
$DIMSE2
 70
     0
  9
$DIMTAD
 70
     0
  9
$DIMZIN
 70
     0
  9
$DIMBLK
  1

  9
$DIMASO
 70
     1
  9
$DIMSHO
 70
     1
  9
$DIMPOST
  1

  9
$DIMAPOST
  1

  9
$DIMALT
 70
     0
  9
$DIMALTD
 70
     2
  9
$DIMALTF
 40
25.4
  9
$DIMLFAC
 40
1.0
  9
$DIMTOFL
 70
     0
  9
$DIMTVP
 40
0.0
  9
$DIMTIX
 70
     0
  9
$DIMSOXD
 70
     0
  9
$DIMSAH
 70
     0
  9
$DIMBLK1
  1

  9
$DIMBLK2
  1

  9
$DIMSTYLE
  2
Standard
  9
$DIMCLRD
 70
     0
  9
$DIMCLRE
 70
     0
  9
$DIMCLRT
 70
     0
  9
$DIMTFAC
 40
1.0
  9
$DIMGAP
 40
0.06
  9
$DIMJUST
 70
     0
  9
$DIMSD1
 70
     0
  9
$DIMSD2
 70
     0
  9
$DIMTOLJ
 70
     1
  9
$DIMTZIN
 70
     0
  9
$DIMALTZ
 70
     0
  9
$DIMALTTZ
 70
     0
  9
$DIMUPT
 70
     0
  9
$DIMDEC
 70
     4
  9
$DIMTDEC
 70
     4
  9
$DIMALTU
 70
     2
  9
$DIMALTTD
 70
     2
  9
$DIMTXSTY
  7
Standard
  9
$DIMAUNIT
 70
     0
  9
$DIMADEC
 70
     4
  9
$DIMALTRND
 40
0.0
  9
$DIMAZIN
 70
     0
  9
$DIMDSEP
 70
    46
  9
$DIMATFIT
 70
     3
  9
$DIMFRAC
 70
     0
  9
$DIMLDRBLK
  1

  9
$DIMLUNIT
 70
     2
  9
$DIMLWD
 70
    -2
  9
$DIMLWE
 70
    -2
  9
$DIMTMOVE
 70
     0
  9
$LUNITS
 70
     2
  9
$LUPREC
 70
     6
  9
$SKETCHINC
 40
0.1
  9
$FILLETRAD
 40
0.0
  9
$AUNITS
 70
     0
  9
$AUPREC
 70
     2
  9
$MENU
  1
.
  9
$ELEVATION
 40
0.0
  9
$PELEVATION
 40
0.0
  9
$THICKNESS
 40
0.0
  9
$LIMCHECK
 70
     0
  9
$CHAMFERA
 40
0.0
  9
$CHAMFERB
 40
0.0
  9
$CHAMFERC
 40
0.0
  9
$CHAMFERD
 40
0.0
  9
$SKPOLY
 70
     0
  9
$TDCREATE
 40
2460483.627130764
  9
$TDUCREATE
 40
2460483.918797431
  9
$TDUPDATE
 40
2460483.627162176
  9
$TDUUPDATE
 40
2460483.918828843
  9
$TDINDWG
 40
0.0000000116
  9
$TDUSRTIMER
 40
0.0000000116
  9
$USRTIMER
 70
     1
  9
$ANGBASE
 50
0.0
  9
$ANGDIR
 70
     0
  9
$PDMODE
 70
     0
  9
$PDSIZE
 40
-1.0
  9
$PLINEWID
 40
0.0
  9
$SPLFRAME
 70
     0
  9
$SPLINETYPE
 70
     6
  9
$SPLINESEGS
 70
     8
  9
$HANDSEED
  5
10B
  9
$SURFTAB1
 70
     6
  9
$SURFTAB2
 70
     6
  9
$SURFTYPE
 70
     6
  9
$SURFU
 70
     6
  9
$SURFV
 70
     6
  9
$UCSBASE
  2

  9
$UCSNAME
  2

  9
$UCSORG
 10
0.0
 20
0.0
 30
0.0
  9
$UCSXDIR
 10
1.0
 20
0.0
 30
0.0
  9
$UCSYDIR
 10
0.0
 20
1.0
 30
0.0
  9
$UCSORTHOREF
  2

  9
$UCSORTHOVIEW
 70
     0
  9
$UCSORGTOP
 10
0.0
 20
0.0
 30
0.0
  9
$UCSORGBOTTOM
 10
0.0
 20
0.0
 30
0.0
  9
$UCSORGLEFT
 10
0.0
 20
0.0
 30
0.0
  9
$UCSORGRIGHT
 10
0.0
 20
0.0
 30
0.0
  9
$UCSORGFRONT
 10
0.0
 20
0.0
 30
0.0
  9
$UCSORGBACK
 10
0.0
 20
0.0
 30
0.0
  9
$PUCSBASE
  2

  9
$PUCSNAME
  2

  9
$PUCSORG
 10
0.0
 20
0.0
 30
0.0
  9
$PUCSXDIR
 10
1.0
 20
0.0
 30
0.0
  9
$PUCSYDIR
 10
0.0
 20
1.0
 30
0.0
  9
$PUCSORTHOREF
  2

  9
$PUCSORTHOVIEW
 70
     0
  9
$PUCSORGTOP
 10
0.0
 20
0.0
 30
0.0
  9
$PUCSORGBOTTOM
 10
0.0
 20
0.0
 30
0.0
  9
$PUCSORGLEFT
 10
0.0
 20
0.0
 30
0.0
  9
$PUCSORGRIGHT
 10
0.0
 20
0.0
 30
0.0
  9
$PUCSORGFRONT
 10
0.0
 20
0.0
 30
0.0
  9
$PUCSORGBACK
 10
0.0
 20
0.0
 30
0.0
  9
$USERI1
 70
     0
  9
$USERI2
 70
     0
  9
$USERI3
 70
     0
  9
$USERI4
 70
     0
  9
$USERI5
 70
     0
  9
$USERR1
 40
0.0
  9
$USERR2
 40
0.0
  9
$USERR3
 40
0.0
  9
$USERR4
 40
0.0
  9
$USERR5
 40
0.0
  9
$WORLDVIEW
 70
     1
  9
$SHADEDGE
 70
     3
  9
$SHADEDIF
 70
    70
  9
$TILEMODE
 70
     1
  9
$MAXACTVP
 70
    64
  9
$PINSBASE
 10
0.0
 20
0.0
 30
0.0
  9
$PLIMCHECK
 70
     0
  9
$PEXTMIN
 10
1.0000000000E+20
 20
1.0000000000E+20
 30
1.0000000000E+20
  9
$PEXTMAX
 10
-1.0000000000E+20
 20
-1.0000000000E+20
 30
-1.0000000000E+20
  9
$PLIMMIN
 10
0.0
 20
0.0
  9
$PLIMMAX
 10
12.0
 20
9.0
  9
$UNITMODE
 70
     0
  9
$VISRETAIN
 70
     1
  9
$PLINEGEN
 70
     0
  9
$PSLTSCALE
 70
     1
  9
$TREEDEPTH
 70
  3020
  9
$CMLSTYLE
  2
Standard
  9
$CMLJUST
 70
     0
  9
$CMLSCALE
 40
1.0
  9
$PROXYGRAPHICS
 70
     1
  9
$MEASUREMENT
 70
     0
  9
$CELWEIGHT
370
    -1
  9
$ENDCAPS
280
     0
  9
$JOINSTYLE
280
     0
  9
$LWDISPLAY
290
     1
  9
$INSUNITS
 70
     1
  9
$HYPERLINKBASE
  1

  9
$STYLESHEET
  1

  9
$XEDIT
290
     1
  9
$CEPSNTYPE
380
     0
  9
$PSTYLEMODE
290
     1
  9
$FINGERPRINTGUID
  2
{c95ff8d5-0767-4bdd-a6e3-0129e1547c6b}
  9
$VERSIONGUID
  2
{FAEB1C32-E019-11D5-929B-00C0DF256EC4}
  9
$EXTNAMES
290
     1
  9
$PSVPSCALE
 40
0.0
  9
$OLESTARTUP
290
     0
  0
ENDSEC
  0
SECTION
  2
CLASSES
  0
CLASS
  1
ACDBDICTIONARYWDFLT
  2
AcDbDictionaryWithDefault
  3
ObjectDBX Classes
 90
        0
280
     0
281
     0
  0
CLASS
  1
VISUALSTYLE
  2
AcDbVisualStyle
  3
ObjectDBX Classes
 90
     4095
280
     0
281
     0
  0
CLASS
  1
MATERIAL
  2
AcDbMaterial
  3
ObjectDBX Classes
 90
     1153
280
     0
281
     0
  0
CLASS
  1
SCALE
  2
AcDbScale
  3
ObjectDBX Classes
 90
     1153
280
     0
281
     0
  0
CLASS
  1
TABLESTYLE
  2
AcDbTableStyle
  3
ObjectDBX Classes
 90
     4095
280
     0
281
     0
  0
CLASS
  1
MLEADERSTYLE
  2
AcDbMLeaderStyle
  3
ACDB_MLEADERSTYLE_CLASS
 90
     4095
280
     0
281
     0
  0
CLASS
  1
SUN
  2
AcDbSun
  3
SCENEOE
 90
     1153
280
     0
281
     0
  0
CLASS
  1
ACDBPLACEHOLDER
  2
AcDbPlaceHolder
  3
ObjectDBX Classes
 90
        0
280
     0
281
     0
  0
CLASS
  1
LAYOUT
  2
AcDbLayout
  3
ObjectDBX Classes
 90
        0
280
     0
281
     0
  0
ENDSEC
  0
SECTION
  2
TABLES
  0
TABLE
  2
VPORT
  5
8
330
0
100
AcDbSymbolTable
 70
     1
  0
VPORT
  5
29
330
8
100
AcDbSymbolTableRecord
100
AcDbViewportTableRecord
  2
*Active
 70
     0
 10
0.0
 20
0.0
 11
1.0
 21
1.0
 12
0.0
 22
0.0
 13
0.0
 23
0.0
 14
0.5
 24
0.5
 15
0.5
 25
0.5
 16
0.0
 26
0.0
 36
1.0
 17
0.0
 27
0.0
 37
0.0
 40
2.2263530369
 41
1.0
 42
50.0
 43
0.0
 44
0.0
 50
0.0
 51
0.0
 71
     0
 72
   100
 73
     1
 74
     3
 75
     0
 76
     0
 77
     0
 78
     0
281
     0
 65
     1
110
0.0
120
0.0
130
0.0
111
1.0
121
0.0
131
0.0
112
0.0
122
1.0
132
0.0
 79
     0
146
0.0
  0
ENDTAB
  0
TABLE
  2
LTYPE
  5
5
330
0
100
AcDbSymbolTable
 70
     6
  0
LTYPE
  5
14
330
5
100
AcDbSymbolTableRecord
100
AcDbLinetypeTableRecord
  2
ByBlock
 70
     0
  3

 72
    65
 73
     0
 40
0.0
  0
LTYPE
  5
15
330
5
100
AcDbSymbolTableRecord
100
AcDbLinetypeTableRecord
  2
ByLayer
 70
     0
  3

 72
    65
 73
     0
 40
0.0
  0
LTYPE
  5
16
330
5
100
AcDbSymbolTableRecord
100
AcDbLinetypeTableRecord
  2
Continuous
 70
     0
  3
Solid line
 72
    65
 73
     0
 40
0.0
  0
LTYPE
  5
5E
330
5
100
AcDbSymbolTableRecord
100
AcDbLinetypeTableRecord
  2
HIDDEN
 70
     0
  3
Hidden __ __ __ __ __ __ __ __ __ __ __ __ __ __
 72
    65
 73
     2
 40
0.075
 49
0.05
 74
     0
 49
-0.025
 74
     0
  0
LTYPE
  5
5F
330
5
100
AcDbSymbolTableRecord
100
AcDbLinetypeTableRecord
  2
PHANTOM
 70
     0
  3
Phantom ______  __  __  ______  __  __  ______
 72
    65
 73
     6
 40
0.5
 49
0.25
 74
     0
 49
-0.05
 74
     0
 49
0.05
 74
     0
 49
-0.05
 74
     0
 49
0.05
 74
     0
 49
-0.05
 74
     0
  0
LTYPE
  5
60
330
5
100
AcDbSymbolTableRecord
100
AcDbLinetypeTableRecord
  2
CENTER
 70
     0
  3
Center ____ _ ____ _ ____ _ ____ _ ____ _ ____
 72
    65
 73
     4
 40
0.4
 49
0.25
 74
     0
 49
-0.05
 74
     0
 49
0.05
 74
     0
 49
-0.05
 74
     0
  0
LTYPE
  5
61
330
5
100
AcDbSymbolTableRecord
100
AcDbLinetypeTableRecord
  2
CENTERX2
 70
     0
  3
Center (2x) ________  __  ________  __  _____
 72
    65
 73
     4
 40
0.8
 49
0.5
 74
     0
 49
-0.1
 74
     0
 49
0.1
 74
     0
 49
-0.1
 74
     0
  0
LTYPE
  5
62
330
5
100
AcDbSymbolTableRecord
100
AcDbLinetypeTableRecord
  2
DOT2
 70
     0
  3
Dot (.5x) ........................................
 72
    65
 73
     2
 40
0.025
 49
0.0
 74
     0
 49
-0.025
 74
     0
  0
ENDTAB
  0
TABLE
  2
LAYER
  5
2
330
0
100
AcDbSymbolTable
 70
     1
  0
LAYER
  5
10
330
2
100
AcDbSymbolTableRecord
100
AcDbLayerTableRecord
  2
0
 70
     0
 62
     7
  6
Continuous
370
    -3
390
F
  0
ENDTAB
  0
TABLE
  2
STYLE
  5
3
330
0
100
AcDbSymbolTable
 70
     2
  0
STYLE
  5
11
330
3
100
AcDbSymbolTableRecord
100
AcDbTextStyleTableRecord
  2
Standard
 70
     0
 40
0.0
 41
1.0
 50
0.0
 71
     0
 42
0.125
  3
txt
  4

  0
STYLE
  5
107
330
3
100
AcDbSymbolTableRecord
100
AcDbTextStyleTableRecord
  2
SLDTEXTSTYLE0
 70
     0
 40
0.0
 41
0.7
 50
0.0
 71
     0
 42
0.125
  3
TXT
  4

  0
ENDTAB
  0
TABLE
  2
VIEW
  5
6
330
0
100
AcDbSymbolTable
 70
     0
  0
ENDTAB
  0
TABLE
  2
UCS
  5
7
330
0
100
AcDbSymbolTable
 70
     0
  0
ENDTAB
  0
TABLE
  2
APPID
  5
9
330
0
100
AcDbSymbolTable
 70
     1
  0
APPID
  5
12
330
9
100
AcDbSymbolTableRecord
100
AcDbRegAppTableRecord
  2
ACAD
 70
     0
  0
ENDTAB
  0
TABLE
  2
DIMSTYLE
  5
A
330
0
100
AcDbSymbolTable
 70
     1
100
AcDbDimStyleTable
  0
DIMSTYLE
105
27
330
A
100
AcDbSymbolTableRecord
100
AcDbDimStyleTableRecord
  2
Standard
 70
     0
178
     0
340
11
  0
ENDTAB
  0
TABLE
  2
BLOCK_RECORD
  5
1
330
0
100
AcDbSymbolTable
 70
     1
  0
BLOCK_RECORD
  5
1F
330
1
100
AcDbSymbolTableRecord
100
AcDbBlockTableRecord
  2
*Model_Space
340
22
  0
BLOCK_RECORD
  5
1B
330
1
100
AcDbSymbolTableRecord
100
AcDbBlockTableRecord
  2
*Paper_Space
340
1E
  0
BLOCK_RECORD
  5
23
330
1
100
AcDbSymbolTableRecord
100
AcDbBlockTableRecord
  2
*Paper_Space0
340
26
  0
ENDTAB
  0
ENDSEC
  0
SECTION
  2
BLOCKS
  0
BLOCK
  5
20
330
1F
100
AcDbEntity
  8
0
100
AcDbBlockBegin
  2
*Model_Space
 70
     0
 10
0.0
 20
0.0
 30
0.0
  3
*Model_Space
  1

  0
ENDBLK
  5
21
330
1F
100
AcDbEntity
  8
0
100
AcDbBlockEnd
  0
BLOCK
  5
1C
330
1B
100
AcDbEntity
 67
     1
  8
0
100
AcDbBlockBegin
  2
*Paper_Space
 70
     0
 10
0.0
 20
0.0
 30
0.0
  3
*Paper_Space
  1

  0
ENDBLK
  5
1D
330
1B
100
AcDbEntity
 67
     1
  8
0
100
AcDbBlockEnd
  0
BLOCK
  5
24
330
23
100
AcDbEntity
  8
0
100
AcDbBlockBegin
  2
*Paper_Space0
 70
     0
 10
0.0
 20
0.0
 30
0.0
  3
*Paper_Space0
  1

  0
ENDBLK
  5
25
330
23
100
AcDbEntity
  8
0
100
AcDbBlockEnd
  0
ENDSEC
  0
SECTION
  2
ENTITIES
  0
CIRCLE
  5
63
330
1F
100
AcDbEntity
  8
0
  6
Continuous
 62
     7
370
    25
100
AcDbCircle
 10
0.0
 20
0.0
 30
0.0
 40
0.125
  0
CIRCLE
  5
64
330
1F
100
AcDbEntity
  8
0
  6
Continuous
 62
     7
370
    25
100
AcDbCircle
 10
0.375
 20
0.0
 30
0.0
 40
0.06889764
  0
CIRCLE
  5
65
330
1F
100
AcDbEntity
  8
0
  6
Continuous
 62
     7
370
    25
100
AcDbCircle
 10
-0.1875
 20
-0.3247595264
 30
0.0
 40
0.06889764
  0
CIRCLE
  5
66
330
1F
100
AcDbEntity
  8
0
  6
Continuous
 62
     7
370
    25
100
AcDbCircle
 10
-0.1875
 20
0.3247595264
 30
0.0
 40
0.06889764
  0
SPLINE
  5
67
330
1F
100
AcDbEntity
  8
0
  6
Continuous
 62
     7
370
    25
100
AcDbSpline
210
0.0
220
0.0
230
1.0
 70
     8
 71
     4
 72
    33
 73
    28
 74
     0
 42
0.00000001
 43
0.00000001
 40
0.0
 40
0.0
 40
0.0
 40
0.0
 40
0.0
 40
0.0547325071358687
 40
0.1094648323958114
 40
0.1641972265332902
 40
0.218929527327781
 40
0.2736619322717505
 40
0.3283942989418998
 40
0.3831266325335516
 40
0.4378589777611303
 40
0.4925912537377363
 40
0.5473235627059715
 40
0.602055882357345
 40
0.6527835693922746
 40
0.6801499013560994
 40
0.707515958888546
 40
0.734882060605584
 40
0.762248418705425
 40
0.7896147385966745
 40
0.8169803889820896
 40
0.8442360652301482
 40
0.8624807749416443
 40
0.8805590943148656
 40
0.8940072263479714
 40
0.9037141659026319
 40
0.9090909145836479
 40
0.9090909145836479
 40
0.9090909145836479
 40
0.9090909145836479
 40
0.9090909145836479
 10
0.7528658676025929
 20
-0.8019931330112142
 30
0.0
 10
0.7505717137010907
 20
-0.8013574056075857
 30
0.0
 10
0.7461018192212936
 20
-0.8000855795723257
 30
0.0
 10
0.7369658014713509
 20
-0.7974030927788983
 30
0.0
 10
0.728275878777127
 20
-0.7945853484402052
 30
0.0
 10
0.7175791105511189
 20
-0.7909957991927382
 30
0.0
 10
0.7082059864146055
 20
-0.7875495491845461
 30
0.0
 10
0.6981519409829242
 20
-0.7836824764640009
 30
0.0
 10
0.6886471769526346
 20
-0.7797258123517695
 30
0.0
 10
0.6789571188177627
 20
-0.7754650732135184
 30
0.0
 10
0.6695472437156615
 20
-0.7710167217736683
 30
0.0
 10
0.6601498324901293
 20
-0.7662919962320005
 30
0.0
 10
0.6511253529980977
 20
-0.7614176905139832
 30
0.0
 10
0.6433369278110407
 20
-0.7569221428265857
 30
0.0
 10
0.6368139616832919
 20
-0.7529147574914121
 30
0.0
 10
0.6314697996269708
 20
-0.7494662806628889
 30
0.0
 10
0.6271265695905928
 20
-0.7465439705796275
 30
0.0
 10
0.6228381918226344
 20
-0.7435335898285144
 30
0.0
 10
0.618619317985856
 20
-0.7404314681443681
 30
0.0
 10
0.6144776055237275
 20
-0.7372324140372927
 30
0.0
 10
0.6107622010497002
 20
-0.73420011593971
 30
0.0
 10
0.6074664668886591
 20
-0.7313577197750135
 30
0.0
 10
0.6047455483485162
 20
-0.7288718089618168
 30
0.0
 10
0.6026954292752098
 20
-0.7268973512700981
 30
0.0
 10
0.6011357224156412
 20
-0.7253032940213563
 30
0.0
 10
0.6002062790442915
 20
-0.7243030258073304
 30
0.0
 10
0.5997309407184985
 20
-0.7237600141129141
 30
0.0
 10
0.5995642541587306
 20
-0.7235640446391557
 30
0.0
  0
ARC
  5
68
330
1F
100
AcDbEntity
  8
0
  6
Continuous
 62
     7
370
    25
100
AcDbCircle
 10
0.0
 20
0.0
 30
0.0
 40
1.099999999999552
100
AcDbArc
 50
313.1902868007
 51
316.8097131993
  0
SPLINE
  5
69
330
1F
100
AcDbEntity
  8
0
  6
Continuous
 62
     7
370
    25
100
AcDbSpline
210
0.0
220
0.0
230
1.0
 70
     8
 71
     4
 72
    33
 73
    28
 74
     0
 42
0.00000001
 43
0.00000001
 40
0.0
 40
0.0
 40
0.0
 40
0.0
 40
0.0
 40
0.005376748681016
 40
0.0150836882356765
 40
0.0285318202687823
 40
0.0466101396420035
 40
0.0648548493534998
 40
0.0921105256015583
 40
0.1194761759869733
 40
0.1468424958782228
 40
0.1742088539780639
 40
0.2015749556951018
 40
0.2289410132275484
 40
0.2563073451913733
 40
0.307035032226303
 40
0.3617673518776764
 40
0.4164996608459116
 40
0.4712319368225176
 40
0.5259642820500963
 40
0.5806966156417481
 40
0.6354289823118974
 40
0.6901613872558668
 40
0.7448936880503577
 40
0.7996260821878365
 40
0.8543584074477791
 40
0.9090909145836479
 40
0.9090909145836479
 40
0.9090909145836479
 40
0.9090909145836479
 40
0.9090909145836479
 10
0.7235640446391538
 20
-0.5995642541587333
 30
0.0
 10
0.723760014112912
 20
-0.5997309407185014
 30
0.0
 10
0.7243030258073284
 20
-0.6002062790442942
 30
0.0
 10
0.7253032940213544
 20
-0.601135722415644
 30
0.0
 10
0.726897351270096
 20
-0.6026954292752126
 30
0.0
 10
0.7288718089618149
 20
-0.604745548348519
 30
0.0
 10
0.7313577197750115
 20
-0.6074664668886619
 30
0.0
 10
0.734200115939708
 20
-0.6107622010497031
 30
0.0
 10
0.7372324140372908
 20
-0.6144776055237302
 30
0.0
 10
0.7404314681443662
 20
-0.6186193179858588
 30
0.0
 10
0.7435335898285125
 20
-0.6228381918226372
 30
0.0
 10
0.7465439705796255
 20
-0.6271265695905954
 30
0.0
 10
0.7494662806628868
 20
-0.6314697996269736
 30
0.0
 10
0.7529147574914099
 20
-0.6368139616832947
 30
0.0
 10
0.7569221428265838
 20
-0.6433369278110435
 30
0.0
 10
0.7614176905139811
 20
-0.6511253529981006
 30
0.0
 10
0.7662919962319984
 20
-0.6601498324901323
 30
0.0
 10
0.7710167217736661
 20
-0.6695472437156645
 30
0.0
 10
0.7754650732135162
 20
-0.6789571188177655
 30
0.0
 10
0.7797258123517672
 20
-0.6886471769526376
 30
0.0
 10
0.7836824764639988
 20
-0.6981519409829271
 30
0.0
 10
0.7875495491845439
 20
-0.7082059864146083
 30
0.0
 10
0.7909957991927358
 20
-0.7175791105511219
 30
0.0
 10
0.7945853484402028
 20
-0.7282758787771298
 30
0.0
 10
0.7974030927788959
 20
-0.7369658014713539
 30
0.0
 10
0.8000855795723233
 20
-0.7461018192212965
 30
0.0
 10
0.8013574056075834
 20
-0.7505717137010937
 30
0.0
 10
0.8019931330112116
 20
-0.7528658676025958
 30
0.0
  0
LINE
  5
6A
330
1F
100
AcDbEntity
  8
0
  6
Continuous
 62
     7
370
    25
100
AcDbLine
 10
0.6991074366
 20
-0.5792988636
 30
0.0
 11
0.7235640446
 21
-0.5995642542
 31
0.0
  0
ARC
  5
6B
330
1F
100
AcDbEntity
  8
0
  6
Continuous
 62
     7
370
    25
100
AcDbCircle
 10
0.720514099
 20
-0.5534649499
 30
0.0
 40
0.0335505035831419
100
AcDbArc
 50
142.4702296547
 51
230.3539582918
  0
ARC
  5
6C
330
1F
100
AcDbEntity
  8
0
  6
Continuous
 62
     7
370
    25
100
AcDbCircle
 10
0.0
 20
0.0
 30
0.0
 40
0.8750000000000003
100
AcDbArc
 50
322.4702296547
 51
325.5297703453
  0
ARC
  5
6D
330
1F
100
AcDbEntity
  8
0
  6
Continuous
 62
     7
370
    25
100
AcDbCircle
 10
0.7490275484
 20
-0.5142195536
 30
0.0
 40
0.0335505035831419
100
AcDbArc
 50
57.6460417082
 51
145.5297703453
  0
LINE
  5
6E
330
1F
100
AcDbEntity
  8
0
  6
Continuous
 62
     7
370
    25
100
AcDbLine
 10
0.7938130772
 20
-0.5028747559
 30
0.0
 11
0.7669820379
 21
-0.4858774895
 31
0.0
  0
SPLINE
  5
6F
330
1F
100
AcDbEntity
  8
0
  6
Continuous
 62
     7
370
    25
100
AcDbSpline
210
0.0
220
0.0
230
1.0
 70
     8
 71
     4
 72
    33
 73
    28
 74
     0
 42
0.00000001
 43
0.00000001
 40
0.0
 40
0.0
 40
0.0
 40
0.0
 40
0.0
 40
0.0547325071358687
 40
0.1094648323958114
 40
0.1641972265332902
 40
0.218929527327781
 40
0.2736619322717505
 40
0.3283942989418998
 40
0.3831266325335516
 40
0.4378589777611303
 40
0.4925912537377363
 40
0.5473235627059715
 40
0.602055882357345
 40
0.6527835693922746
 40
0.6801499013560994
 40
0.707515958888546
 40
0.734882060605584
 40
0.762248418705425
 40
0.7896147385966745
 40
0.8169803889820896
 40
0.8442360652301482
 40
0.8624807749416443
 40
0.8805590943148656
 40
0.8940072263479714
 40
0.9037141659026319
 40
0.9090909145836479
 40
0.9090909145836479
 40
0.9090909145836479
 40
0.9090909145836479
 40
0.9090909145836479
 10
0.9638474967521237
 20
-0.5300924476002401
 30
0.0
 10
0.9614691761632052
 20
-0.5301967674537076
 30
0.0
 10
0.9568250380322586
 20
-0.5303684623725998
 30
0.0
 10
0.9473072348118319
 20
-0.5306404505734784
 30
0.0
 10
0.938171896320929
 20
-0.5306459502512304
 30
0.0
 10
0.926889433476672
 20
-0.530537569215591
 30
0.0
 10
0.9169101128692014
 20
-0.5301564453370864
 30
0.0
 10
0.9061531562571413
 20
-0.5295855115278321
 30
0.0
 10
0.8958909120385735
 20
-0.5287596339539862
 30
0.0
 10
0.8853584783038067
 20
-0.5277018228724754
 30
0.0
 10
0.8750345390785639
 20
-0.5263790005703299
 30
0.0
 10
0.8646370494100836
 20
-0.52478947932804
 30
0.0
 10
0.8545480160803687
 20
-0.5229424566409309
 30
0.0
 10
0.8457515829201118
 20
-0.5210736924607344
 30
0.0
 10
0.8383095233071661
 20
-0.5192781499116184
 30
0.0
 10
0.8321612852146428
 20
-0.5176498904486556
 30
0.0
 10
0.8271275845082154
 20
-0.5162127402930554
 30
0.0
 10
0.8221188360760304
 20
-0.5146748796717786
 30
0.0
 10
0.817147840303115
 20
-0.5130282903424191
 30
0.0
 10
0.8122202755923755
 20
-0.5112656686245165
 30
0.0
 10
0.8077496843125159
 20
-0.5095299048829122
 30
0.0
 10
0.8037369061430437
 20
-0.5078450633532889
 30
0.0
 10
0.8003809701473543
 20
-0.5063216317446837
 30
0.0
 10
0.7978210500620899
 20
-0.5050773325249694
 30
0.0
 10
0.7958450899099191
 20
-0.504043269917056
 30
0.0
 10
0.7946520368580025
 20
-0.5033791721111198
 30
0.0
 10
0.7940321634040934
 20
-0.5030096249214685
 30
0.0
 10
0.7938130771674771
 20
-0.5028747558561579
 30
0.0
  0
ARC
  5
70
330
1F
100
AcDbEntity
  8
0
  6
Continuous
 62
     7
370
    25
100
AcDbCircle
 10
0.0
 20
0.0
 30
0.0
 40
1.099999999999552
100
AcDbArc
 50
331.1902868007
 51
334.8097131993
  0
SPLINE
  5
71
330
1F
100
AcDbEntity
  8
0
  6
Continuous
 62
     7
370
    25
100
AcDbSpline
210
0.0
220
0.0
230
1.0
 70
     8
 71
     4
 72
    33
 73
    28
 74
     0
 42
0.00000001
 43
0.00000001
 40
0.0
 40
0.0
 40
0.0
 40
0.0
 40
0.0
 40
0.005376748681016
 40
0.0150836882356765
 40
0.0285318202687823
 40
0.0466101396420035
 40
0.0648548493534998
 40
0.0921105256015583
 40
0.1194761759869733
 40
0.1468424958782228
 40
0.1742088539780639
 40
0.2015749556951018
 40
0.2289410132275484
 40
0.2563073451913733
 40
0.307035032226303
 40
0.3617673518776764
 40
0.4164996608459116
 40
0.4712319368225176
 40
0.5259642820500963
 40
0.5806966156417481
 40
0.6354289823118974
 40
0.6901613872558668
 40
0.7448936880503577
 40
0.7996260821878365
 40
0.8543584074477791
 40
0.9090909145836479
 40
0.9090909145836479
 40
0.9090909145836479
 40
0.9090909145836479
 40
0.9090909145836479
 10
0.8734258433657336
 20
-0.3466259045431347
 30
0.0
 10
0.8736637303904486
 20
-0.346723874984211
 30
0.0
 10
0.8743270528215955
 20
-0.3470081487546821
 30
0.0
 10
0.8755655782216438
 20
-0.3475830020524645
 30
0.0
 10
0.8775635926812572
 20
-0.3485737806448998
 30
0.0
 10
0.8800749351692594
 20
-0.3499134187673333
 30
0.0
 10
0.8832799869162926
 20
-0.3517329773874663
 30
0.0
 10
0.8870017041753235
 20
-0.3539890581176637
 30
0.0
 10
0.8910337141638298
 20
-0.3565855861091956
 30
0.0
 10
0.895356054954957
 20
-0.3595360266499125
 30
0.0
 10
0.8996100517096932
 20
-0.3625898057847876
 30
0.0
 10
0.9037982755481675
 20
-0.3657380365937063
 30
0.0
 10
0.9079196894872089
 20
-0.3689656503430115
 30
0.0
 10
0.9128508227423656
 20
-0.3729826125460912
 30
0.0
 10
0.9186777800658948
 20
-0.3779479718158816
 30
0.0
 10
0.9253600557305283
 20
-0.3839660037072807
 30
0.0
 10
0.9327845134744893
 20
-0.391042550431703
 30
0.0
 10
0.940181954260418
 20
-0.398519999127918
 30
0.0
 10
0.9473203992055531
 20
-0.4060947059694288
 30
0.0
 10
0.9543669955673774
 20
-0.4139938580995596
 30
0.0
 10
0.9610671403669895
 20
-0.4218107494147013
 30
0.0
 10
0.9678518159774583
 20
-0.4301777236484971
 30
0.0
 10
0.9740258491531003
 20
-0.4380271446171755
 30
0.0
 10
0.9807451965221925
 20
-0.4470911440222063
 30
0.0
 10
0.9861103644290801
 20
-0.4544850207401891
 30
0.0
 10
0.9914847457194883
 20
-0.4623449559479049
 30
0.0
 10
0.9940755975152362
 20
-0.4662030623612838
 30
0.0
 10
0.9953891427483201
 20
-0.4681884818071804
 30
0.0
  0
LINE
  5
72
330
1F
100
AcDbEntity
  8
0
  6
Continuous
 62
     7
370
    25
100
AcDbLine
 10
0.8439038768
 20
-0.3349098803
 30
0.0
 11
0.8734258434
 21
-0.3466259045
 31
0.0
  0
ARC
  5
73
330
1F
100
AcDbEntity
  8
0
  6
Continuous
 62
     7
370
    25
100
AcDbCircle
 10
0.8562797042
 20
-0.3037253459
 30
0.0
 40
0.0335505035831422
100
AcDbArc
 50
160.4702296547
 51
248.3539582918
  0
ARC
  5
74
330
1F
100
AcDbEntity
  8
0
  6
Continuous
 62
     7
370
    25
100
AcDbCircle
 10
0.0
 20
0.0
 30
0.0
 40
0.8750000000000003
100
AcDbArc
 50
340.4702296547
 51
343.5297703453
  0
ARC
  5
75
330
1F
100
AcDbEntity
  8
0
  6
Continuous
 62
     7
370
    25
100
AcDbCircle
 10
0.8712701117
 20
-0.2575896155
 30
0.0
 40
0.033550503583142
100
AcDbArc
 50
75.6460417082
 51
163.5297703453
  0
LINE
  5
76
330
1F
100
AcDbEntity
  8
0
  6
Continuous
 62
     7
370
    25
100
AcDbLine
 10
0.9103579454
 20
-0.2329605822
 30
0.0
 11
0.8795876665
 21
-0.2250864684
 31
0.0
  0
SPLINE
  5
77
330
1F
100
AcDbEntity
  8
0
  6
Continuous
 62
     7
370
    25
100
AcDbSpline
210
0.0
220
0.0
230
1.0
 70
     8
 71
     4
 72
    33
 73
    28
 74
     0
 42
0.00000001
 43
0.00000001
 40
0.0
 40
0.0
 40
0.0
 40
0.0
 40
0.0
 40
0.0547325071358687
 40
0.1094648323958114
 40
0.1641972265332902
 40
0.218929527327781
 40
0.2736619322717505
 40
0.3283942989418998
 40
0.3831266325335516
 40
0.4378589777611303
 40
0.4925912537377363
 40
0.5473235627059715
 40
0.602055882357345
 40
0.6527835693922746
 40
0.6801499013560994
 40
0.707515958888546
 40
0.734882060605584
 40
0.762248418705425
 40
0.7896147385966745
 40
0.8169803889820896
 40
0.8442360652301482
 40
0.8624807749416443
 40
0.8805590943148656
 40
0.8940072263479714
 40
0.9037141659026319
 40
0.9090909145836479
 40
0.9090909145836479
 40
0.9090909145836479
 40
0.9090909145836479
 40
0.9090909145836479
 10
1.080481017399165
 20
-0.2063026200468966
 30
0.0
 10
1.078251336712807
 20
-0.2071367756033637
 30
0.0
 10
1.073887555528581
 20
-0.208735184781478
 30
0.0
 10
1.06491963573132
 20
-0.2119350238765074
 30
0.0
 10
1.056233112024874
 20
-0.2147632292239276
 30
0.0
 10
1.045469360635105
 20
-0.2181466254910192
 30
0.0
 10
1.035860688987751
 20
-0.2208679348028763
 30
0.0
 10
1.025453787056624
 20
-0.2236490268840922
 30
0.0
 10
1.015438602615152
 20
-0.2260347784997877
 30
0.0
 10
1.00509478127823
 20
-0.2282834413938785
 30
0.0
 10
0.9948673570323266
 20
-0.2302156352930167
 30
0.0
 10
0.9844875676532194
 20
-0.2319169117641457
 30
0.0
 10
0.9743215653625621
 20
-0.2332779715575228
 30
0.0
 10
0.9653781803951853
 20
-0.2342189185429306
 30
0.0
 10
0.9577455079438361
 20
-0.2348109789948602
 30
0.0
 10
0.9513950261969004
 20
-0.2351623222784434
 30
0.0
 10
0.9461635885174241
 20
-0.2353510103209484
 30
0.0
 10
0.9409247606155569
 20
-0.2354362063420235
 30
0.0
 10
0.9356882386077214
 20
-0.235406329003471
 30
0.0
 10
0.9304571660146203
 20
-0.2352526773693971
 30
0.0
 10
0.925669000551842
 20
-0.2349833566325766
 30
0.0
 10
0.9213319770598363
 20
-0.2346209937659274
 30
0.0
 10
0.9176695260060393
 20
-0.234209165462136
 30
0.0
 10
0.9148503877227746
 20
-0.2338168253915942
 30
0.0
 10
0.9126515950250199
 20
-0.2334439786773094
 30
0.0
 10
0.9113117166377476
 20
-0.2331810577997497
 30
0.0
 10
0.9106079855883032
 20
-0.233021148968573
 30
0.0
 10
0.9103579453621423
 20
-0.2329605822355109
 30
0.0
  0
ARC
  5
78
330
1F
100
AcDbEntity
  8
0
  6
Continuous
 62
     7
370
    25
100
AcDbCircle
 10
0.0
 20
0.0
 30
0.0
 40
1.099999999999552
100
AcDbArc
 50
349.1902868007
 51
352.8097131993
  0
SPLINE
  5
79
330
1F
100
AcDbEntity
  8
0
  6
Continuous
 62
     7
370
    25
100
AcDbSpline
210
0.0
220
0.0
230
1.0
 70
     8
 71
     4
 72
    33
 73
    28
 74
     0
 42
0.00000001
 43
0.00000001
 40
0.0
 40
0.0
 40
0.0
 40
0.0
 40
0.0
 40
0.005376748681016
 40
0.0150836882356765
 40
0.0285318202687823
 40
0.0466101396420035
 40
0.0648548493534998
 40
0.0921105256015583
 40
0.1194761759869733
 40
0.1468424958782228
 40
0.1742088539780639
 40
0.2015749556951018
 40
0.2289410132275484
 40
0.2563073451913733
 40
0.307035032226303
 40
0.3617673518776764
 40
0.4164996608459116
 40
0.4712319368225176
 40
0.5259642820500963
 40
0.5806966156417481
 40
0.6354289823118974
 40
0.6901613872558668
 40
0.7448936880503577
 40
0.7996260821878365
 40
0.8543584074477791
 40
0.9090909145836479
 40
0.9090909145836479
 40
0.9090909145836479
 40
0.9090909145836479
 40
0.9090909145836479
 10
0.9377906350279879
 20
-0.0597573963061669
 30
0.0
 10
0.9380471535642241
 20
-0.0597770605991785
 30
0.0
 10
0.9387658561109017
 20
-0.0598424431170224
 30
0.0
 10
0.9401214032015022
 20
-0.0600064356952121
 30
0.0
 10
0.9423277952956945
 20
-0.060331301708726
 30
0.0
 10
0.9451301948797024
 20
-0.0608293257670554
 30
0.0
 10
0.9487406547646642
 20
-0.0615694133918295
 30
0.0
 10
0.9529773855019863
 20
-0.0625649997902725
 30
0.0
 10
0.9576144261510762
 20
-0.0637884850484236
 30
0.0
 10
0.9626369527941003
 20
-0.0652588439906755
 30
0.0
 10
0.9676264137777346
 20
-0.0668486032449952
 30
0.0
 10
0.972582508173189
 20
-0.0685485163282837
 30
0.0
 10
0.9774995932560775
 20
-0.0703445724686267
 30
0.0
 10
0.9834306892576274
 20
-0.072641126570206
 30
0.0
 10
0.990506835387886
 20
-0.0755628350210187
 30
0.0
 10
0.998721731329549
 20
-0.0792213867251361
 30
0.0
 10
1.007969583446236
 20
-0.0836572989833624
 30
0.0
 10
1.017315626431298
 20
-0.088482840373426
 30
0.0
 10
1.026445404154018
 20
-0.0934809138726136
 30
0.0
 10
1.035588087790996
 20
-0.0988159359508769
 30
0.0
 10
1.044375856422349
 20
-0.1041797827654603
 30
0.0
 10
1.053414003602375
 20
-0.1100406680672293
 30
0.0
 10
1.061711462561216
 20
-0.1155980298535266
 30
0.0
 10
1.070902871515001
 20
-0.1221420130232184
 30
0.0
 10
1.078290282974034
 20
-0.1275160795956358
 30
0.0
 10
1.085830476875202
 20
-0.1333305470396046
 30
0.0
 10
1.089486743806144
 20
-0.1361992070498157
 30
0.0
 10
1.091349527909261
 20
-0.1376815453515117
 30
0.0
  0
LINE
  5
7A
330
1F
100
AcDbEntity
  8
0
  6
Continuous
 62
     7
370
    25
100
AcDbLine
 10
0.9060931258
 20
-0.0577375845
 30
0.0
 11
0.937790635
 21
-0.0597573963
 31
0.0
  0
ARC
  5
7B
330
1F
100
AcDbEntity
  8
0
  6
Continuous
 62
     7
370
    25
100
AcDbCircle
 10
0.908226686
 20
-0.0242549888
 30
0.0
 40
0.0335505035831421
100
AcDbArc
 50
178.4702296547
 51
266.3539582918
  0
ARC
  5
7C
330
1F
100
AcDbEntity
  8
0
  6
Continuous
 62
     7
370
    25
100
AcDbCircle
 10
0.0
 20
0.0
 30
0.0
 40
0.8750000000000003
100
AcDbArc
 50
358.4702296547
 51
1.5297703453
  0
ARC
  5
7D
330
1F
100
AcDbEntity
  8
0
  6
Continuous
 62
     7
370
    25
100
AcDbCircle
 10
0.908226686
 20
0.0242549888
 30
0.0
 40
0.0335505035831421
100
AcDbArc
 50
93.6460417082
 51
181.5297703453
  0
LINE
  5
7E
330
1F
100
AcDbEntity
  8
0
  6
Continuous
 62
     7
370
    25
100
AcDbLine
 10
0.937790635
 20
0.0597573963
 30
0.0
 11
0.9060931258
 21
0.0577375845
 31
0.0
  0
SPLINE
  5
7F
330
1F
100
AcDbEntity
  8
0
  6
Continuous
 62
     7
370
    25
100
AcDbSpline
210
0.0
220
0.0
230
1.0
 70
     8
 71
     4
 72
    33
 73
    28
 74
     0
 42
0.00000001
 43
0.00000001
 40
0.0
 40
0.0
 40
0.0
 40
0.0
 40
0.0
 40
0.0547325071358687
 40
0.1094648323958114
 40
0.1641972265332902
 40
0.218929527327781
 40
0.2736619322717505
 40
0.3283942989418998
 40
0.3831266325335516
 40
0.4378589777611303
 40
0.4925912537377363
 40
0.5473235627059715
 40
0.602055882357345
 40
0.6527835693922746
 40
0.6801499013560994
 40
0.707515958888546
 40
0.734882060605584
 40
0.762248418705425
 40
0.7896147385966745
 40
0.8169803889820896
 40
0.8442360652301482
 40
0.8624807749416443
 40
0.8805590943148656
 40
0.8940072263479714
 40
0.9037141659026319
 40
0.9090909145836479
 40
0.9090909145836479
 40
0.9090909145836479
 40
0.9090909145836479
 40
0.9090909145836479
 10
1.091349527909261
 20
0.1376815453515117
 30
0.0
 10
1.089486743806144
 20
0.1361992070498157
 30
0.0
 10
1.085830476875202
 20
0.1333305470396046
 30
0.0
 10
1.078290282974034
 20
0.1275160795956358
 30
0.0
 10
1.070902871515001
 20
0.1221420130232184
 30
0.0
 10
1.061711462561216
 20
0.1155980298535266
 30
0.0
 10
1.053414003602375
 20
0.1100406680672292
 30
0.0
 10
1.044375856422349
 20
0.1041797827654603
 30
0.0
 10
1.035588087790996
 20
0.0988159359508769
 30
0.0
 10
1.026445404154018
 20
0.0934809138726136
 30
0.0
 10
1.017315626431298
 20
0.088482840373426
 30
0.0
 10
1.007969583446236
 20
0.0836572989833623
 30
0.0
 10
0.998721731329549
 20
0.0792213867251361
 30
0.0
 10
0.990506835387886
 20
0.0755628350210187
 30
0.0
 10
0.9834306892576274
 20
0.072641126570206
 30
0.0
 10
0.9774995932560775
 20
0.0703445724686267
 30
0.0
 10
0.972582508173189
 20
0.0685485163282837
 30
0.0
 10
0.9676264137777346
 20
0.0668486032449952
 30
0.0
 10
0.9626369527941003
 20
0.0652588439906754
 30
0.0
 10
0.9576144261510762
 20
0.0637884850484236
 30
0.0
 10
0.9529773855019863
 20
0.0625649997902725
 30
0.0
 10
0.9487406547646642
 20
0.0615694133918294
 30
0.0
 10
0.9451301948797024
 20
0.0608293257670554
 30
0.0
 10
0.9423277952956945
 20
0.060331301708726
 30
0.0
 10
0.9401214032015022
 20
0.0600064356952121
 30
0.0
 10
0.9387658561109017
 20
0.0598424431170224
 30
0.0
 10
0.9380471535642241
 20
0.0597770605991785
 30
0.0
 10
0.9377906350279879
 20
0.0597573963061669
 30
0.0
  0
ARC
  5
80
330
1F
100
AcDbEntity
  8
0
  6
Continuous
 62
     7
370
    25
100
AcDbCircle
 10
0.0
 20
0.0
 30
0.0
 40
1.099999999999552
100
AcDbArc
 50
7.1902868007
 51
10.8097131993
  0
SPLINE
  5
81
330
1F
100
AcDbEntity
  8
0
  6
Continuous
 62
     7
370
    25
100
AcDbSpline
210
0.0
220
0.0
230
1.0
 70
     8
 71
     4
 72
    33
 73
    28
 74
     0
 42
0.00000001
 43
0.00000001
 40
0.0
 40
0.0
 40
0.0
 40
0.0
 40
0.0
 40
0.005376748681016
 40
0.0150836882356765
 40
0.0285318202687823
 40
0.0466101396420035
 40
0.0648548493534998
 40
0.0921105256015583
 40
0.1194761759869733
 40
0.1468424958782228
 40
0.1742088539780639
 40
0.2015749556951018
 40
0.2289410132275484
 40
0.2563073451913733
 40
0.307035032226303
 40
0.3617673518776764
 40
0.4164996608459116
 40
0.4712319368225176
 40
0.5259642820500963
 40
0.5806966156417481
 40
0.6354289823118974
 40
0.6901613872558668
 40
0.7448936880503577
 40
0.7996260821878365
 40
0.8543584074477791
 40
0.9090909145836479
 40
0.9090909145836479
 40
0.9090909145836479
 40
0.9090909145836479
 40
0.9090909145836479
 10
0.9103579453621453
 20
0.2329605822354982
 30
0.0
 10
0.9106079855883062
 20
0.2330211489685604
 30
0.0
 10
0.9113117166377507
 20
0.2331810577997371
 30
0.0
 10
0.9126515950250232
 20
0.2334439786772968
 30
0.0
 10
0.9148503877227776
 20
0.2338168253915814
 30
0.0
 10
0.9176695260060423
 20
0.2342091654621232
 30
0.0
 10
0.9213319770598394
 20
0.2346209937659146
 30
0.0
 10
0.925669000551845
 20
0.2349833566325637
 30
0.0
 10
0.9304571660146234
 20
0.2352526773693841
 30
0.0
 10
0.9356882386077244
 20
0.2354063290034581
 30
0.0
 10
0.94092476061556
 20
0.2354362063420104
 30
0.0
 10
0.9461635885174272
 20
0.2353510103209352
 30
0.0
 10
0.9513950261969034
 20
0.2351623222784302
 30
0.0
 10
0.9577455079438392
 20
0.2348109789948469
 30
0.0
 10
0.9653781803951883
 20
0.2342189185429172
 30
0.0
 10
0.9743215653625652
 20
0.2332779715575092
 30
0.0
 10
0.9844875676532224
 20
0.231916911764132
 30
0.0
 10
0.9948673570323296
 20
0.2302156352930029
 30
0.0
 10
1.005094781278233
 20
0.2282834413938646
 30
0.0
 10
1.015438602615155
 20
0.2260347784997736
 30
0.0
 10
1.025453787056628
 20
0.2236490268840781
 30
0.0
 10
1.035860688987754
 20
0.2208679348028619
 30
0.0
 10
1.045469360635108
 20
0.2181466254910047
 30
0.0
 10
1.056233112024877
 20
0.214763229223913
 30
0.0
 10
1.064919635731323
 20
0.2119350238764927
 30
0.0
 10
1.073887555528583
 20
0.2087351847814632
 30
0.0
 10
1.078251336712809
 20
0.2071367756033488
 30
0.0
 10
1.080481017399167
 20
0.2063026200468816
 30
0.0
  0
LINE
  5
82
330
1F
100
AcDbEntity
  8
0
  6
Continuous
 62
     7
370
    25
100
AcDbLine
 10
0.8795876665
 20
0.2250864684
 30
0.0
 11
0.9103579454
 21
0.2329605822
 31
0.0
  0
ARC
  5
83
330
1F
100
AcDbEntity
  8
0
  6
Continuous
 62
     7
370
    25
100
AcDbCircle
 10
0.8712701117
 20
0.2575896155
 30
0.0
 40
0.0335505035831421
100
AcDbArc
 50
196.4702296547
 51
284.3539582918
  0
ARC
  5
84
330
1F
100
AcDbEntity
  8
0
  6
Continuous
 62
     7
370
    25
100
AcDbCircle
 10
0.0
 20
0.0
 30
0.0
 40
0.8750000000000002
100
AcDbArc
 50
16.4702296547
 51
19.5297703453
  0
ARC
  5
85
330
1F
100
AcDbEntity
  8
0
  6
Continuous
 62
     7
370
    25
100
AcDbCircle
 10
0.8562797042
 20
0.3037253459
 30
0.0
 40
0.033550503583142
100
AcDbArc
 50
111.6460417082
 51
199.5297703453
  0
LINE
  5
86
330
1F
100
AcDbEntity
  8
0
  6
Continuous
 62
     7
370
    25
100
AcDbLine
 10
0.8734258434
 20
0.3466259045
 30
0.0
 11
0.8439038768
 21
0.3349098803
 31
0.0
  0
SPLINE
  5
87
330
1F
100
AcDbEntity
  8
0
  6
Continuous
 62
     7
370
    25
100
AcDbSpline
210
0.0
220
0.0
230
1.0
 70
     8
 71
     4
 72
    33
 73
    28
 74
     0
 42
0.00000001
 43
0.00000001
 40
0.0
 40
0.0
 40
0.0
 40
0.0
 40
0.0
 40
0.0547325071358687
 40
0.1094648323958114
 40
0.1641972265332902
 40
0.218929527327781
 40
0.2736619322717505
 40
0.3283942989418998
 40
0.3831266325335516
 40
0.4378589777611303
 40
0.4925912537377363
 40
0.5473235627059715
 40
0.602055882357345
 40
0.6527835693922746
 40
0.6801499013560994
 40
0.707515958888546
 40
0.734882060605584
 40
0.762248418705425
 40
0.7896147385966745
 40
0.8169803889820896
 40
0.8442360652301482
 40
0.8624807749416443
 40
0.8805590943148656
 40
0.8940072263479714
 40
0.9037141659026319
 40
0.9090909145836479
 40
0.9090909145836479
 40
0.9090909145836479
 40
0.9090909145836479
 40
0.9090909145836479
 10
0.9953891427483265
 20
0.4681884818071667
 30
0.0
 10
0.9940755975152425
 20
0.46620306236127
 30
0.0
 10
0.9914847457194946
 20
0.4623449559478912
 30
0.0
 10
0.9861103644290862
 20
0.4544850207401755
 30
0.0
 10
0.9807451965221985
 20
0.4470911440221926
 30
0.0
 10
0.9740258491531061
 20
0.438027144617162
 30
0.0
 10
0.9678518159774642
 20
0.4301777236484836
 30
0.0
 10
0.9610671403669953
 20
0.4218107494146879
 30
0.0
 10
0.9543669955673828
 20
0.4139938580995463
 30
0.0
 10
0.9473203992055584
 20
0.4060947059694157
 30
0.0
 10
0.9401819542604231
 20
0.3985199991279049
 30
0.0
 10
0.9327845134744944
 20
0.3910425504316901
 30
0.0
 10
0.9253600557305333
 20
0.3839660037072679
 30
0.0
 10
0.9186777800658997
 20
0.3779479718158688
 30
0.0
 10
0.9128508227423706
 20
0.3729826125460785
 30
0.0
 10
0.9079196894872138
 20
0.3689656503429988
 30
0.0
 10
0.9037982755481724
 20
0.3657380365936937
 30
0.0
 10
0.8996100517096981
 20
0.362589805784775
 30
0.0
 10
0.8953560549549618
 20
0.3595360266499
 30
0.0
 10
0.8910337141638347
 20
0.3565855861091832
 30
0.0
 10
0.8870017041753282
 20
0.3539890581176513
 30
0.0
 10
0.8832799869162974
 20
0.3517329773874541
 30
0.0
 10
0.8800749351692639
 20
0.3499134187673211
 30
0.0
 10
0.8775635926812618
 20
0.3485737806448875
 30
0.0
 10
0.8755655782216486
 20
0.3475830020524524
 30
0.0
 10
0.8743270528216001
 20
0.34700814875467
 30
0.0
 10
0.8736637303904533
 20
0.3467238749841988
 30
0.0
 10
0.8734258433657383
 20
0.3466259045431226
 30
0.0
  0
ARC
  5
88
330
1F
100
AcDbEntity
  8
0
  6
Continuous
 62
     7
370
    25
100
AcDbCircle
 10
0.0
 20
0.0
 30
0.0
 40
1.099999999999552
100
AcDbArc
 50
25.1902868007
 51
28.8097131993
  0
SPLINE
  5
89
330
1F
100
AcDbEntity
  8
0
  6
Continuous
 62
     7
370
    25
100
AcDbSpline
210
0.0
220
0.0
230
1.0
 70
     8
 71
     4
 72
    33
 73
    28
 74
     0
 42
0.00000001
 43
0.00000001
 40
0.0
 40
0.0
 40
0.0
 40
0.0
 40
0.0
 40
0.005376748681016
 40
0.0150836882356765
 40
0.0285318202687823
 40
0.0466101396420035
 40
0.0648548493534998
 40
0.0921105256015583
 40
0.1194761759869733
 40
0.1468424958782228
 40
0.1742088539780639
 40
0.2015749556951018
 40
0.2289410132275484
 40
0.2563073451913733
 40
0.307035032226303
 40
0.3617673518776764
 40
0.4164996608459116
 40
0.4712319368225176
 40
0.5259642820500963
 40
0.5806966156417481
 40
0.6354289823118974
 40
0.6901613872558668
 40
0.7448936880503577
 40
0.7996260821878365
 40
0.8543584074477791
 40
0.9090909145836479
 40
0.9090909145836479
 40
0.9090909145836479
 40
0.9090909145836479
 40
0.9090909145836479
 10
0.7938130771674842
 20
0.5028747558561463
 30
0.0
 10
0.7940321634041005
 20
0.5030096249214568
 30
0.0
 10
0.7946520368580096
 20
0.5033791721111083
 30
0.0
 10
0.7958450899099262
 20
0.5040432699170443
 30
0.0
 10
0.797821050062097
 20
0.5050773325249577
 30
0.0
 10
0.8003809701473614
 20
0.5063216317446719
 30
0.0
 10
0.8037369061430509
 20
0.5078450633532772
 30
0.0
 10
0.807749684312523
 20
0.5095299048829004
 30
0.0
 10
0.8122202755923827
 20
0.5112656686245046
 30
0.0
 10
0.8171478403031222
 20
0.5130282903424073
 30
0.0
 10
0.8221188360760376
 20
0.5146748796717665
 30
0.0
 10
0.8271275845082229
 20
0.5162127402930432
 30
0.0
 10
0.8321612852146503
 20
0.5176498904486434
 30
0.0
 10
0.8383095233071736
 20
0.5192781499116061
 30
0.0
 10
0.8457515829201192
 20
0.521073692460722
 30
0.0
 10
0.854548016080376
 20
0.5229424566409183
 30
0.0
 10
0.864637049410091
 20
0.5247894793280273
 30
0.0
 10
0.8750345390785714
 20
0.5263790005703171
 30
0.0
 10
0.8853584783038141
 20
0.5277018228724624
 30
0.0
 10
0.895890912038581
 20
0.5287596339539731
 30
0.0
 10
0.9061531562571488
 20
0.5295855115278187
 30
0.0
 10
0.9169101128692089
 20
0.530156445337073
 30
0.0
 10
0.9268894334766795
 20
0.5305375692155773
 30
0.0
 10
0.9381718963209364
 20
0.5306459502512166
 30
0.0
 10
0.9473072348118392
 20
0.5306404505734645
 30
0.0
 10
0.9568250380322658
 20
0.5303684623725857
 30
0.0
 10
0.9614691761632125
 20
0.5301967674536936
 30
0.0
 10
0.963847496752131
 20
0.5300924476002259
 30
0.0
  0
LINE
  5
8A
330
1F
100
AcDbEntity
  8
0
  6
Continuous
 62
     7
370
    25
100
AcDbLine
 10
0.7669820379
 20
0.4858774895
 30
0.0
 11
0.7938130772
 21
0.5028747559
 31
0.0
  0
ARC
  5
8B
330
1F
100
AcDbEntity
  8
0
  6
Continuous
 62
     7
370
    25
100
AcDbCircle
 10
0.7490275484
 20
0.5142195536
 30
0.0
 40
0.0335505035831423
100
AcDbArc
 50
214.4702296547
 51
302.3539582918
  0
ARC
  5
8C
330
1F
100
AcDbEntity
  8
0
  6
Continuous
 62
     7
370
    25
100
AcDbCircle
 10
0.0
 20
0.0
 30
0.0
 40
0.8750000000000002
100
AcDbArc
 50
34.4702296547
 51
37.5297703453
  0
ARC
  5
8D
330
1F
100
AcDbEntity
  8
0
  6
Continuous
 62
     7
370
    25
100
AcDbCircle
 10
0.720514099
 20
0.5534649499
 30
0.0
 40
0.0335505035831422
100
AcDbArc
 50
129.6460417082
 51
217.5297703453
  0
LINE
  5
8E
330
1F
100
AcDbEntity
  8
0
  6
Continuous
 62
     7
370
    25
100
AcDbLine
 10
0.7235640446
 20
0.5995642542
 30
0.0
 11
0.6991074366
 21
0.5792988636
 31
0.0
  0
SPLINE
  5
8F
330
1F
100
AcDbEntity
  8
0
  6
Continuous
 62
     7
370
    25
100
AcDbSpline
210
0.0
220
0.0
230
1.0
 70
     8
 71
     4
 72
    33
 73
    28
 74
     0
 42
0.00000001
 43
0.00000001
 40
0.0
 40
0.0
 40
0.0
 40
0.0
 40
0.0
 40
0.0547325071358687
 40
0.1094648323958114
 40
0.1641972265332902
 40
0.218929527327781
 40
0.2736619322717505
 40
0.3283942989418998
 40
0.3831266325335516
 40
0.4378589777611303
 40
0.4925912537377363
 40
0.5473235627059715
 40
0.602055882357345
 40
0.6527835693922746
 40
0.6801499013560994
 40
0.707515958888546
 40
0.734882060605584
 40
0.762248418705425
 40
0.7896147385966745
 40
0.8169803889820896
 40
0.8442360652301482
 40
0.8624807749416443
 40
0.8805590943148656
 40
0.8940072263479714
 40
0.9037141659026319
 40
0.9090909145836479
 40
0.9090909145836479
 40
0.9090909145836479
 40
0.9090909145836479
 40
0.9090909145836479
 10
0.8019931330112224
 20
0.7528658676025841
 30
0.0
 10
0.8013574056075938
 20
0.7505717137010818
 30
0.0
 10
0.800085579572334
 20
0.7461018192212848
 30
0.0
 10
0.7974030927789062
 20
0.7369658014713422
 30
0.0
 10
0.7945853484402133
 20
0.7282758787771181
 30
0.0
 10
0.7909957991927461
 20
0.7175791105511101
 30
0.0
 10
0.7875495491845539
 20
0.7082059864145968
 30
0.0
 10
0.7836824764640088
 20
0.6981519409829157
 30
0.0
 10
0.7797258123517771
 20
0.6886471769526261
 30
0.0
 10
0.7754650732135258
 20
0.6789571188177541
 30
0.0
 10
0.7710167217736755
 20
0.6695472437156532
 30
0.0
 10
0.7662919962320078
 20
0.6601498324901209
 30
0.0
 10
0.7614176905139903
 20
0.6511253529980894
 30
0.0
 10
0.7569221428265928
 20
0.6433369278110324
 30
0.0
 10
0.7529147574914189
 20
0.6368139616832837
 30
0.0
 10
0.749466280662896
 20
0.6314697996269625
 30
0.0
 10
0.7465439705796345
 20
0.6271265695905845
 30
0.0
 10
0.7435335898285214
 20
0.6228381918226262
 30
0.0
 10
0.740431468144375
 20
0.6186193179858479
 30
0.0
 10
0.7372324140372993
 20
0.6144776055237194
 30
0.0
 10
0.7342001159397167
 20
0.6107622010496923
 30
0.0
 10
0.7313577197750202
 20
0.6074664668886511
 30
0.0
 10
0.7288718089618234
 20
0.6047455483485082
 30
0.0
 10
0.7268973512701045
 20
0.6026954292752019
 30
0.0
 10
0.7253032940213628
 20
0.6011357224156333
 30
0.0
 10
0.724303025807337
 20
0.6002062790442836
 30
0.0
 10
0.7237600141129207
 20
0.5997309407184906
 30
0.0
 10
0.7235640446391622
 20
0.5995642541587226
 30
0.0
  0
ARC
  5
90
330
1F
100
AcDbEntity
  8
0
  6
Continuous
 62
     7
370
    25
100
AcDbCircle
 10
0.0
 20
0.0
 30
0.0
 40
1.099999999999552
100
AcDbArc
 50
43.1902868007
 51
46.8097131993
  0
SPLINE
  5
91
330
1F
100
AcDbEntity
  8
0
  6
Continuous
 62
     7
370
    25
100
AcDbSpline
210
0.0
220
0.0
230
1.0
 70
     8
 71
     4
 72
    33
 73
    28
 74
     0
 42
0.00000001
 43
0.00000001
 40
0.0
 40
0.0
 40
0.0
 40
0.0
 40
0.0
 40
0.005376748681016
 40
0.0150836882356765
 40
0.0285318202687823
 40
0.0466101396420035
 40
0.0648548493534998
 40
0.0921105256015583
 40
0.1194761759869733
 40
0.1468424958782228
 40
0.1742088539780639
 40
0.2015749556951018
 40
0.2289410132275484
 40
0.2563073451913733
 40
0.307035032226303
 40
0.3617673518776764
 40
0.4164996608459116
 40
0.4712319368225176
 40
0.5259642820500963
 40
0.5806966156417481
 40
0.6354289823118974
 40
0.6901613872558668
 40
0.7448936880503577
 40
0.7996260821878365
 40
0.8543584074477791
 40
0.9090909145836479
 40
0.9090909145836479
 40
0.9090909145836479
 40
0.9090909145836479
 40
0.9090909145836479
 10
0.5995642541587409
 20
0.7235640446391471
 30
0.0
 10
0.5997309407185091
 20
0.7237600141129055
 30
0.0
 10
0.6002062790443019
 20
0.7243030258073218
 30
0.0
 10
0.6011357224156517
 20
0.7253032940213477
 30
0.0
 10
0.6026954292752204
 20
0.7268973512700894
 30
0.0
 10
0.6047455483485268
 20
0.728871808961808
 30
0.0
 10
0.6074664668886697
 20
0.7313577197750049
 30
0.0
 10
0.6107622010497109
 20
0.7342001159397011
 30
0.0
 10
0.6144776055237382
 20
0.7372324140372839
 30
0.0
 10
0.6186193179858667
 20
0.7404314681443592
 30
0.0
 10
0.6228381918226451
 20
0.7435335898285056
 30
0.0
 10
0.6271265695906035
 20
0.7465439705796185
 30
0.0
 10
0.6314697996269816
 20
0.7494662806628799
 30
0.0
 10
0.6368139616833027
 20
0.7529147574914028
 30
0.0
 10
0.6433369278110516
 20
0.7569221428265765
 30
0.0
 10
0.6511253529981088
 20
0.7614176905139739
 30
0.0
 10
0.6601498324901404
 20
0.7662919962319912
 30
0.0
 10
0.6695472437156728
 20
0.7710167217736587
 30
0.0
 10
0.6789571188177738
 20
0.7754650732135085
 30
0.0
 10
0.6886471769526459
 20
0.7797258123517595
 30
0.0
 10
0.6981519409829355
 20
0.783682476463991
 30
0.0
 10
0.7082059864146166
 20
0.787549549184536
 30
0.0
 10
0.7175791105511303
 20
0.7909957991927278
 30
0.0
 10
0.7282758787771383
 20
0.7945853484401947
 30
0.0
 10
0.7369658014713624
 20
0.7974030927788877
 30
0.0
 10
0.7461018192213049
 20
0.800085579572315
 30
0.0
 10
0.7505717137011021
 20
0.8013574056075748
 30
0.0
 10
0.7528658676026042
 20
0.8019931330112031
 30
0.0
  0
LINE
  5
92
330
1F
100
AcDbEntity
  8
0
  6
Continuous
 62
     7
370
    25
100
AcDbLine
 10
0.5792988636
 20
0.6991074366
 30
0.0
 11
0.5995642542
 21
0.7235640446
 31
0.0
  0
ARC
  5
93
330
1F
100
AcDbEntity
  8
0
  6
Continuous
 62
     7
370
    25
100
AcDbCircle
 10
0.5534649499
 20
0.720514099
 30
0.0
 40
0.033550503583142
100
AcDbArc
 50
232.4702296547
 51
320.3539582918
  0
ARC
  5
94
330
1F
100
AcDbEntity
  8
0
  6
Continuous
 62
     7
370
    25
100
AcDbCircle
 10
0.0
 20
0.0
 30
0.0
 40
0.8750000000000002
100
AcDbArc
 50
52.4702296547
 51
55.5297703453
  0
ARC
  5
95
330
1F
100
AcDbEntity
  8
0
  6
Continuous
 62
     7
370
    25
100
AcDbCircle
 10
0.5142195536
 20
0.7490275484
 30
0.0
 40
0.0335505035831422
100
AcDbArc
 50
147.6460417082
 51
235.5297703453
  0
LINE
  5
96
330
1F
100
AcDbEntity
  8
0
  6
Continuous
 62
     7
370
    25
100
AcDbLine
 10
0.5028747559
 20
0.7938130772
 30
0.0
 11
0.4858774895
 21
0.7669820379
 31
0.0
  0
SPLINE
  5
97
330
1F
100
AcDbEntity
  8
0
  6
Continuous
 62
     7
370
    25
100
AcDbSpline
210
0.0
220
0.0
230
1.0
 70
     8
 71
     4
 72
    33
 73
    28
 74
     0
 42
0.00000001
 43
0.00000001
 40
0.0
 40
0.0
 40
0.0
 40
0.0
 40
0.0
 40
0.0547325071358687
 40
0.1094648323958114
 40
0.1641972265332902
 40
0.218929527327781
 40
0.2736619322717505
 40
0.3283942989418998
 40
0.3831266325335516
 40
0.4378589777611303
 40
0.4925912537377363
 40
0.5473235627059715
 40
0.602055882357345
 40
0.6527835693922746
 40
0.6801499013560994
 40
0.707515958888546
 40
0.734882060605584
 40
0.762248418705425
 40
0.7896147385966745
 40
0.8169803889820896
 40
0.8442360652301482
 40
0.8624807749416443
 40
0.8805590943148656
 40
0.8940072263479714
 40
0.9037141659026319
 40
0.9090909145836479
 40
0.9090909145836479
 40
0.9090909145836479
 40
0.9090909145836479
 40
0.9090909145836479
 10
0.5300924476002504
 20
0.9638474967521178
 30
0.0
 10
0.5301967674537179
 20
0.9614691761631989
 30
0.0
 10
0.5303684623726101
 20
0.9568250380322526
 30
0.0
 10
0.5306404505734886
 20
0.9473072348118259
 30
0.0
 10
0.5306459502512405
 20
0.9381718963209231
 30
0.0
 10
0.5305375692156009
 20
0.9268894334766661
 30
0.0
 10
0.5301564453370962
 20
0.9169101128691954
 30
0.0
 10
0.5295855115278418
 20
0.9061531562571354
 30
0.0
 10
0.5287596339539958
 20
0.8958909120385675
 30
0.0
 10
0.5277018228724848
 20
0.8853584783038007
 30
0.0
 10
0.5263790005703393
 20
0.875034539078558
 30
0.0
 10
0.5247894793280492
 20
0.8646370494100778
 30
0.0
 10
0.52294245664094
 20
0.8545480160803628
 30
0.0
 10
0.5210736924607435
 20
0.845751582920106
 30
0.0
 10
0.5192781499116274
 20
0.8383095233071604
 30
0.0
 10
0.5176498904486645
 20
0.832161285214637
 30
0.0
 10
0.5162127402930643
 20
0.8271275845082099
 30
0.0
 10
0.5146748796717874
 20
0.8221188360760247
 30
0.0
 10
0.513028290342428
 20
0.8171478403031092
 30
0.0
 10
0.5112656686245252
 20
0.8122202755923698
 30
0.0
 10
0.5095299048829209
 20
0.8077496843125102
 30
0.0
 10
0.5078450633532976
 20
0.8037369061430382
 30
0.0
 10
0.5063216317446922
 20
0.8003809701473485
 30
0.0
 10
0.5050773325249779
 20
0.7978210500620843
 30
0.0
 10
0.5040432699170645
 20
0.7958450899099134
 30
0.0
 10
0.5033791721111284
 20
0.7946520368579969
 30
0.0
 10
0.503009624921477
 20
0.7940321634040877
 30
0.0
 10
0.5028747558561665
 20
0.7938130771674714
 30
0.0
  0
ARC
  5
98
330
1F
100
AcDbEntity
  8
0
  6
Continuous
 62
     7
370
    25
100
AcDbCircle
 10
0.0
 20
0.0
 30
0.0
 40
1.099999999999552
100
AcDbArc
 50
61.1902868007
 51
64.8097131993
  0
SPLINE
  5
99
330
1F
100
AcDbEntity
  8
0
  6
Continuous
 62
     7
370
    25
100
AcDbSpline
210
0.0
220
0.0
230
1.0
 70
     8
 71
     4
 72
    33
 73
    28
 74
     0
 42
0.00000001
 43
0.00000001
 40
0.0
 40
0.0
 40
0.0
 40
0.0
 40
0.0
 40
0.005376748681016
 40
0.0150836882356765
 40
0.0285318202687823
 40
0.0466101396420035
 40
0.0648548493534998
 40
0.0921105256015583
 40
0.1194761759869733
 40
0.1468424958782228
 40
0.1742088539780639
 40
0.2015749556951018
 40
0.2289410132275484
 40
0.2563073451913733
 40
0.307035032226303
 40
0.3617673518776764
 40
0.4164996608459116
 40
0.4712319368225176
 40
0.5259642820500963
 40
0.5806966156417481
 40
0.6354289823118974
 40
0.6901613872558668
 40
0.7448936880503577
 40
0.7996260821878365
 40
0.8543584074477791
 40
0.9090909145836479
 40
0.9090909145836479
 40
0.9090909145836479
 40
0.9090909145836479
 40
0.9090909145836479
 10
0.346625904543144
 20
0.8734258433657298
 30
0.0
 10
0.3467238749842202
 20
0.8736637303904449
 30
0.0
 10
0.3470081487546913
 20
0.8743270528215916
 30
0.0
 10
0.3475830020524738
 20
0.8755655782216402
 30
0.0
 10
0.348573780644909
 20
0.8775635926812534
 30
0.0
 10
0.3499134187673427
 20
0.8800749351692554
 30
0.0
 10
0.3517329773874757
 20
0.8832799869162887
 30
0.0
 10
0.3539890581176731
 20
0.8870017041753195
 30
0.0
 10
0.356585586109205
 20
0.8910337141638259
 30
0.0
 10
0.359536026649922
 20
0.8953560549549531
 30
0.0
 10
0.362589805784797
 20
0.8996100517096892
 30
0.0
 10
0.3657380365937158
 20
0.9037982755481635
 30
0.0
 10
0.3689656503430211
 20
0.9079196894872048
 30
0.0
 10
0.3729826125461008
 20
0.9128508227423614
 30
0.0
 10
0.3779479718158912
 20
0.9186777800658905
 30
0.0
 10
0.3839660037072905
 20
0.9253600557305239
 30
0.0
 10
0.3910425504317129
 20
0.9327845134744849
 30
0.0
 10
0.3985199991279279
 20
0.9401819542604134
 30
0.0
 10
0.4060947059694388
 20
0.9473203992055486
 30
0.0
 10
0.4139938580995697
 20
0.9543669955673727
 30
0.0
 10
0.4218107494147115
 20
0.9610671403669848
 30
0.0
 10
0.4301777236485073
 20
0.9678518159774536
 30
0.0
 10
0.4380271446171858
 20
0.9740258491530954
 30
0.0
 10
0.4470911440222166
 20
0.9807451965221875
 30
0.0
 10
0.4544850207401996
 20
0.986110364429075
 30
0.0
 10
0.4623449559479153
 20
0.9914847457194832
 30
0.0
 10
0.4662030623612943
 20
0.9940755975152311
 30
0.0
 10
0.4681884818071909
 20
0.9953891427483149
 30
0.0
  0
LINE
  5
9A
330
1F
100
AcDbEntity
  8
0
  6
Continuous
 62
     7
370
    25
100
AcDbLine
 10
0.3349098803
 20
0.8439038768
 30
0.0
 11
0.3466259045
 21
0.8734258434
 31
0.0
  0
ARC
  5
9B
330
1F
100
AcDbEntity
  8
0
  6
Continuous
 62
     7
370
    25
100
AcDbCircle
 10
0.3037253459
 20
0.8562797042
 30
0.0
 40
0.033550503583142
100
AcDbArc
 50
250.4702296547
 51
338.3539582918
  0
ARC
  5
9C
330
1F
100
AcDbEntity
  8
0
  6
Continuous
 62
     7
370
    25
100
AcDbCircle
 10
0.0
 20
0.0
 30
0.0
 40
0.8750000000000002
100
AcDbArc
 50
70.4702296547
 51
73.5297703453
  0
ARC
  5
9D
330
1F
100
AcDbEntity
  8
0
  6
Continuous
 62
     7
370
    25
100
AcDbCircle
 10
0.2575896155
 20
0.8712701117
 30
0.0
 40
0.033550503583142
100
AcDbArc
 50
165.6460417082
 51
253.5297703453
  0
LINE
  5
9E
330
1F
100
AcDbEntity
  8
0
  6
Continuous
 62
     7
370
    25
100
AcDbLine
 10
0.2329605822
 20
0.9103579454
 30
0.0
 11
0.2250864684
 21
0.8795876665
 31
0.0
  0
SPLINE
  5
9F
330
1F
100
AcDbEntity
  8
0
  6
Continuous
 62
     7
370
    25
100
AcDbSpline
210
0.0
220
0.0
230
1.0
 70
     8
 71
     4
 72
    33
 73
    28
 74
     0
 42
0.00000001
 43
0.00000001
 40
0.0
 40
0.0
 40
0.0
 40
0.0
 40
0.0
 40
0.0547325071358687
 40
0.1094648323958114
 40
0.1641972265332902
 40
0.218929527327781
 40
0.2736619322717505
 40
0.3283942989418998
 40
0.3831266325335516
 40
0.4378589777611303
 40
0.4925912537377363
 40
0.5473235627059715
 40
0.602055882357345
 40
0.6527835693922746
 40
0.6801499013560994
 40
0.707515958888546
 40
0.734882060605584
 40
0.762248418705425
 40
0.7896147385966745
 40
0.8169803889820896
 40
0.8442360652301482
 40
0.8624807749416443
 40
0.8805590943148656
 40
0.8940072263479714
 40
0.9037141659026319
 40
0.9090909145836479
 40
0.9090909145836479
 40
0.9090909145836479
 40
0.9090909145836479
 40
0.9090909145836479
 10
0.2063026200469081
 20
1.080481017399162
 30
0.0
 10
0.2071367756033751
 20
1.078251336712805
 30
0.0
 10
0.2087351847814894
 20
1.073887555528579
 30
0.0
 10
0.2119350238765187
 20
1.064919635731318
 30
0.0
 10
0.2147632292239388
 20
1.056233112024872
 30
0.0
 10
0.2181466254910303
 20
1.045469360635102
 30
0.0
 10
0.2208679348028872
 20
1.035860688987749
 30
0.0
 10
0.2236490268841032
 20
1.025453787056622
 30
0.0
 10
0.2260347784997984
 20
1.015438602615149
 30
0.0
 10
0.2282834413938891
 20
1.005094781278228
 30
0.0
 10
0.2302156352930272
 20
0.9948673570323241
 30
0.0
 10
0.2319169117641561
 20
0.9844875676532167
 30
0.0
 10
0.233277971557533
 20
0.9743215653625593
 30
0.0
 10
0.2342189185429409
 20
0.9653781803951828
 30
0.0
 10
0.2348109789948703
 20
0.9577455079438334
 30
0.0
 10
0.2351623222784535
 20
0.9513950261968976
 30
0.0
 10
0.2353510103209584
 20
0.9461635885174217
 30
0.0
 10
0.2354362063420334
 20
0.9409247606155541
 30
0.0
 10
0.235406329003481
 20
0.9356882386077187
 30
0.0
 10
0.2352526773694069
 20
0.9304571660146177
 30
0.0
 10
0.2349833566325863
 20
0.9256690005518393
 30
0.0
 10
0.2346209937659371
 20
0.9213319770598336
 30
0.0
 10
0.2342091654621457
 20
0.9176695260060368
 30
0.0
 10
0.2338168253916039
 20
0.9148503877227718
 30
0.0
 10
0.2334439786773191
 20
0.9126515950250175
 30
0.0
 10
0.2331810577997594
 20
0.911311716637745
 30
0.0
 10
0.2330211489685826
 20
0.9106079855883005
 30
0.0
 10
0.2329605822355205
 20
0.9103579453621397
 30
0.0
  0
ARC
  5
A0
330
1F
100
AcDbEntity
  8
0
  6
Continuous
 62
     7
370
    25
100
AcDbCircle
 10
0.0
 20
0.0
 30
0.0
 40
1.099999999999552
100
AcDbArc
 50
79.1902868007
 51
82.8097131993
  0
SPLINE
  5
A1
330
1F
100
AcDbEntity
  8
0
  6
Continuous
 62
     7
370
    25
100
AcDbSpline
210
0.0
220
0.0
230
1.0
 70
     8
 71
     4
 72
    33
 73
    28
 74
     0
 42
0.00000001
 43
0.00000001
 40
0.0
 40
0.0
 40
0.0
 40
0.0
 40
0.0
 40
0.005376748681016
 40
0.0150836882356765
 40
0.0285318202687823
 40
0.0466101396420035
 40
0.0648548493534998
 40
0.0921105256015583
 40
0.1194761759869733
 40
0.1468424958782228
 40
0.1742088539780639
 40
0.2015749556951018
 40
0.2289410132275484
 40
0.2563073451913733
 40
0.307035032226303
 40
0.3617673518776764
 40
0.4164996608459116
 40
0.4712319368225176
 40
0.5259642820500963
 40
0.5806966156417481
 40
0.6354289823118974
 40
0.6901613872558668
 40
0.7448936880503577
 40
0.7996260821878365
 40
0.8543584074477791
 40
0.9090909145836479
 40
0.9090909145836479
 40
0.9090909145836479
 40
0.9090909145836479
 40
0.9090909145836479
 10
0.0597573963061767
 20
0.9377906350279872
 30
0.0
 10
0.0597770605991883
 20
0.9380471535642234
 30
0.0
 10
0.0598424431170322
 20
0.938765856110901
 30
0.0
 10
0.0600064356952219
 20
0.9401214032015015
 30
0.0
 10
0.0603313017087359
 20
0.9423277952956939
 30
0.0
 10
0.0608293257670653
 20
0.9451301948797017
 30
0.0
 10
0.0615694133918394
 20
0.9487406547646635
 30
0.0
 10
0.0625649997902825
 20
0.9529773855019856
 30
0.0
 10
0.0637884850484337
 20
0.9576144261510755
 30
0.0
 10
0.0652588439906855
 20
0.9626369527940997
 30
0.0
 10
0.0668486032450053
 20
0.967626413777734
 30
0.0
 10
0.0685485163282939
 20
0.9725825081731884
 30
0.0
 10
0.0703445724686369
 20
0.9774995932560768
 30
0.0
 10
0.0726411265702163
 20
0.9834306892576267
 30
0.0
 10
0.0755628350210291
 20
0.9905068353878852
 30
0.0
 10
0.0792213867251465
 20
0.9987217313295481
 30
0.0
 10
0.0836572989833729
 20
1.007969583446235
 30
0.0
 10
0.0884828403734366
 20
1.017315626431297
 30
0.0
 10
0.0934809138726243
 20
1.026445404154017
 30
0.0
 10
0.0988159359508877
 20
1.035588087790995
 30
0.0
 10
0.1041797827654712
 20
1.044375856422348
 30
0.0
 10
0.1100406680672403
 20
1.053414003602374
 30
0.0
 10
0.1155980298535377
 20
1.061711462561215
 30
0.0
 10
0.1221420130232296
 20
1.070902871515
 30
0.0
 10
0.1275160795956471
 20
1.078290282974033
 30
0.0
 10
0.133330547039616
 20
1.0858304768752
 30
0.0
 10
0.1361992070498271
 20
1.089486743806142
 30
0.0
 10
0.1376815453515231
 20
1.09134952790926
 30
0.0
  0
LINE
  5
A2
330
1F
100
AcDbEntity
  8
0
  6
Continuous
 62
     7
370
    25
100
AcDbLine
 10
0.0577375845
 20
0.9060931258
 30
0.0
 11
0.0597573963
 21
0.937790635
 31
0.0
  0
ARC
  5
A3
330
1F
100
AcDbEntity
  8
0
  6
Continuous
 62
     7
370
    25
100
AcDbCircle
 10
0.0242549888
 20
0.908226686
 30
0.0
 40
0.0335505035831421
100
AcDbArc
 50
268.4702296547
 51
356.3539582918
  0
ARC
  5
A4
330
1F
100
AcDbEntity
  8
0
  6
Continuous
 62
     7
370
    25
100
AcDbCircle
 10
0.0
 20
0.0
 30
0.0
 40
0.8750000000000002
100
AcDbArc
 50
88.4702296547
 51
91.5297703453
  0
ARC
  5
A5
330
1F
100
AcDbEntity
  8
0
  6
Continuous
 62
     7
370
    25
100
AcDbCircle
 10
-0.0242549888
 20
0.908226686
 30
0.0
 40
0.0335505035831422
100
AcDbArc
 50
183.6460417082
 51
271.5297703453
  0
LINE
  5
A6
330
1F
100
AcDbEntity
  8
0
  6
Continuous
 62
     7
370
    25
100
AcDbLine
 10
-0.0597573963
 20
0.937790635
 30
0.0
 11
-0.0577375845
 21
0.9060931258
 31
0.0
  0
SPLINE
  5
A7
330
1F
100
AcDbEntity
  8
0
  6
Continuous
 62
     7
370
    25
100
AcDbSpline
210
0.0
220
0.0
230
1.0
 70
     8
 71
     4
 72
    33
 73
    28
 74
     0
 42
0.00000001
 43
0.00000001
 40
0.0
 40
0.0
 40
0.0
 40
0.0
 40
0.0
 40
0.0547325071358687
 40
0.1094648323958114
 40
0.1641972265332902
 40
0.218929527327781
 40
0.2736619322717505
 40
0.3283942989418998
 40
0.3831266325335516
 40
0.4378589777611303
 40
0.4925912537377363
 40
0.5473235627059715
 40
0.602055882357345
 40
0.6527835693922746
 40
0.6801499013560994
 40
0.707515958888546
 40
0.734882060605584
 40
0.762248418705425
 40
0.7896147385966745
 40
0.8169803889820896
 40
0.8442360652301482
 40
0.8624807749416443
 40
0.8805590943148656
 40
0.8940072263479714
 40
0.9037141659026319
 40
0.9090909145836479
 40
0.9090909145836479
 40
0.9090909145836479
 40
0.9090909145836479
 40
0.9090909145836479
 10
-0.1376815453515003
 20
1.091349527909263
 30
0.0
 10
-0.1361992070498043
 20
1.089486743806145
 30
0.0
 10
-0.1333305470395932
 20
1.085830476875203
 30
0.0
 10
-0.1275160795956245
 20
1.078290282974035
 30
0.0
 10
-0.1221420130232072
 20
1.070902871515002
 30
0.0
 10
-0.1155980298535155
 20
1.061711462561217
 30
0.0
 10
-0.1100406680672182
 20
1.053414003602376
 30
0.0
 10
-0.1041797827654493
 20
1.04437585642235
 30
0.0
 10
-0.098815935950866
 20
1.035588087790997
 30
0.0
 10
-0.0934809138726028
 20
1.026445404154019
 30
0.0
 10
-0.0884828403734153
 20
1.017315626431299
 30
0.0
 10
-0.0836572989833518
 20
1.007969583446237
 30
0.0
 10
-0.0792213867251256
 20
0.9987217313295498
 30
0.0
 10
-0.0755628350210083
 20
0.9905068353878869
 30
0.0
 10
-0.0726411265701957
 20
0.9834306892576283
 30
0.0
 10
-0.0703445724686164
 20
0.9774995932560782
 30
0.0
 10
-0.0685485163282735
 20
0.9725825081731898
 30
0.0
 10
-0.0668486032449851
 20
0.9676264137777353
 30
0.0
 10
-0.0652588439906654
 20
0.962636952794101
 30
0.0
 10
-0.0637884850484136
 20
0.957614426151077
 30
0.0
 10
-0.0625649997902625
 20
0.952977385501987
 30
0.0
 10
-0.0615694133918195
 20
0.9487406547646648
 30
0.0
 10
-0.0608293257670455
 20
0.9451301948797031
 30
0.0
 10
-0.0603313017087161
 20
0.9423277952956952
 30
0.0
 10
-0.0600064356952022
 20
0.9401214032015028
 30
0.0
 10
-0.0598424431170125
 20
0.9387658561109024
 30
0.0
 10
-0.0597770605991686
 20
0.9380471535642247
 30
0.0
 10
-0.059757396306157
 20
0.9377906350279885
 30
0.0
  0
ARC
  5
A8
330
1F
100
AcDbEntity
  8
0
  6
Continuous
 62
     7
370
    25
100
AcDbCircle
 10
0.0
 20
0.0
 30
0.0
 40
1.099999999999552
100
AcDbArc
 50
97.1902868007
 51
100.8097131993
  0
SPLINE
  5
A9
330
1F
100
AcDbEntity
  8
0
  6
Continuous
 62
     7
370
    25
100
AcDbSpline
210
0.0
220
0.0
230
1.0
 70
     8
 71
     4
 72
    33
 73
    28
 74
     0
 42
0.00000001
 43
0.00000001
 40
0.0
 40
0.0
 40
0.0
 40
0.0
 40
0.0
 40
0.005376748681016
 40
0.0150836882356765
 40
0.0285318202687823
 40
0.0466101396420035
 40
0.0648548493534998
 40
0.0921105256015583
 40
0.1194761759869733
 40
0.1468424958782228
 40
0.1742088539780639
 40
0.2015749556951018
 40
0.2289410132275484
 40
0.2563073451913733
 40
0.307035032226303
 40
0.3617673518776764
 40
0.4164996608459116
 40
0.4712319368225176
 40
0.5259642820500963
 40
0.5806966156417481
 40
0.6354289823118974
 40
0.6901613872558668
 40
0.7448936880503577
 40
0.7996260821878365
 40
0.8543584074477791
 40
0.9090909145836479
 40
0.9090909145836479
 40
0.9090909145836479
 40
0.9090909145836479
 40
0.9090909145836479
 10
-0.2329605822355015
 20
0.9103579453621444
 30
0.0
 10
-0.2330211489685635
 20
0.9106079855883054
 30
0.0
 10
-0.2331810577997402
 20
0.9113117166377499
 30
0.0
 10
-0.2334439786772999
 20
0.9126515950250222
 30
0.0
 10
-0.2338168253915847
 20
0.9148503877227766
 30
0.0
 10
-0.2342091654621264
 20
0.9176695260060417
 30
0.0
 10
-0.2346209937659178
 20
0.9213319770598386
 30
0.0
 10
-0.2349833566325669
 20
0.9256690005518442
 30
0.0
 10
-0.2352526773693874
 20
0.9304571660146225
 30
0.0
 10
-0.2354063290034613
 20
0.9356882386077235
 30
0.0
 10
-0.2354362063420137
 20
0.9409247606155592
 30
0.0
 10
-0.2353510103209386
 20
0.9461635885174265
 30
0.0
 10
-0.2351623222784335
 20
0.9513950261969025
 30
0.0
 10
-0.2348109789948503
 20
0.9577455079438384
 30
0.0
 10
-0.2342189185429206
 20
0.9653781803951875
 30
0.0
 10
-0.2332779715575126
 20
0.9743215653625644
 30
0.0
 10
-0.2319169117641355
 20
0.9844875676532215
 30
0.0
 10
-0.2302156352930063
 20
0.9948673570323289
 30
0.0
 10
-0.2282834413938681
 20
1.005094781278232
 30
0.0
 10
-0.2260347784997771
 20
1.015438602615154
 30
0.0
 10
-0.2236490268840816
 20
1.025453787056627
 30
0.0
 10
-0.2208679348028656
 20
1.035860688987754
 30
0.0
 10
-0.2181466254910083
 20
1.045469360635107
 30
0.0
 10
-0.2147632292239167
 20
1.056233112024876
 30
0.0
 10
-0.2119350238764964
 20
1.064919635731322
 30
0.0
 10
-0.2087351847814669
 20
1.073887555528583
 30
0.0
 10
-0.2071367756033525
 20
1.078251336712809
 30
0.0
 10
-0.2063026200468855
 20
1.080481017399167
 30
0.0
  0
LINE
  5
AA
330
1F
100
AcDbEntity
  8
0
  6
Continuous
 62
     7
370
    25
100
AcDbLine
 10
-0.2250864684
 20
0.8795876665
 30
0.0
 11
-0.2329605822
 21
0.9103579454
 31
0.0
  0
ARC
  5
AB
330
1F
100
AcDbEntity
  8
0
  6
Continuous
 62
     7
370
    25
100
AcDbCircle
 10
-0.2575896155
 20
0.8712701117
 30
0.0
 40
0.0335505035831422
100
AcDbArc
 50
286.4702296547
 51
14.3539582918
  0
ARC
  5
AC
330
1F
100
AcDbEntity
  8
0
  6
Continuous
 62
     7
370
    25
100
AcDbCircle
 10
0.0
 20
0.0
 30
0.0
 40
0.8750000000000002
100
AcDbArc
 50
106.4702296547
 51
109.5297703453
  0
ARC
  5
AD
330
1F
100
AcDbEntity
  8
0
  6
Continuous
 62
     7
370
    25
100
AcDbCircle
 10
-0.3037253459
 20
0.8562797042
 30
0.0
 40
0.0335505035831421
100
AcDbArc
 50
201.6460417082
 51
289.5297703453
  0
LINE
  5
AE
330
1F
100
AcDbEntity
  8
0
  6
Continuous
 62
     7
370
    25
100
AcDbLine
 10
-0.3466259045
 20
0.8734258434
 30
0.0
 11
-0.3349098803
 21
0.8439038768
 31
0.0
  0
SPLINE
  5
AF
330
1F
100
AcDbEntity
  8
0
  6
Continuous
 62
     7
370
    25
100
AcDbSpline
210
0.0
220
0.0
230
1.0
 70
     8
 71
     4
 72
    33
 73
    28
 74
     0
 42
0.00000001
 43
0.00000001
 40
0.0
 40
0.0
 40
0.0
 40
0.0
 40
0.0
 40
0.0547325071358687
 40
0.1094648323958114
 40
0.1641972265332902
 40
0.218929527327781
 40
0.2736619322717505
 40
0.3283942989418998
 40
0.3831266325335516
 40
0.4378589777611303
 40
0.4925912537377363
 40
0.5473235627059715
 40
0.602055882357345
 40
0.6527835693922746
 40
0.6801499013560994
 40
0.707515958888546
 40
0.734882060605584
 40
0.762248418705425
 40
0.7896147385966745
 40
0.8169803889820896
 40
0.8442360652301482
 40
0.8624807749416443
 40
0.8805590943148656
 40
0.8940072263479714
 40
0.9037141659026319
 40
0.9090909145836479
 40
0.9090909145836479
 40
0.9090909145836479
 40
0.9090909145836479
 40
0.9090909145836479
 10
-0.4681884818071701
 20
0.9953891427483249
 30
0.0
 10
-0.4662030623612734
 20
0.9940755975152409
 30
0.0
 10
-0.4623449559478947
 20
0.9914847457194929
 30
0.0
 10
-0.4544850207401789
 20
0.9861103644290845
 30
0.0
 10
-0.4470911440221961
 20
0.9807451965221969
 30
0.0
 10
-0.4380271446171653
 20
0.9740258491531045
 30
0.0
 10
-0.430177723648487
 20
0.9678518159774626
 30
0.0
 10
-0.4218107494146913
 20
0.9610671403669936
 30
0.0
 10
-0.4139938580995497
 20
0.9543669955673812
 30
0.0
 10
-0.406094705969419
 20
0.9473203992055571
 30
0.0
 10
-0.3985199991279082
 20
0.9401819542604217
 30
0.0
 10
-0.3910425504316933
 20
0.9327845134744931
 30
0.0
 10
-0.3839660037072711
 20
0.9253600557305319
 30
0.0
 10
-0.3779479718158719
 20
0.9186777800658984
 30
0.0
 10
-0.3729826125460817
 20
0.9128508227423693
 30
0.0
 10
-0.368965650343002
 20
0.9079196894872125
 30
0.0
 10
-0.3657380365936969
 20
0.9037982755481712
 30
0.0
 10
-0.3625898057847782
 20
0.8996100517096968
 30
0.0
 10
-0.3595360266499031
 20
0.8953560549549605
 30
0.0
 10
-0.3565855861091863
 20
0.8910337141638334
 30
0.0
 10
-0.3539890581176545
 20
0.887001704175327
 30
0.0
 10
-0.3517329773874571
 20
0.8832799869162961
 30
0.0
 10
-0.3499134187673242
 20
0.8800749351692627
 30
0.0
 10
-0.3485737806448906
 20
0.8775635926812606
 30
0.0
 10
-0.3475830020524554
 20
0.8755655782216474
 30
0.0
 10
-0.347008148754673
 20
0.874327052821599
 30
0.0
 10
-0.3467238749842019
 20
0.873663730390452
 30
0.0
 10
-0.3466259045431257
 20
0.873425843365737
 30
0.0
  0
ARC
  5
B0
330
1F
100
AcDbEntity
  8
0
  6
Continuous
 62
     7
370
    25
100
AcDbCircle
 10
0.0
 20
0.0
 30
0.0
 40
1.099999999999552
100
AcDbArc
 50
115.1902868007
 51
118.8097131993
  0
SPLINE
  5
B1
330
1F
100
AcDbEntity
  8
0
  6
Continuous
 62
     7
370
    25
100
AcDbSpline
210
0.0
220
0.0
230
1.0
 70
     8
 71
     4
 72
    33
 73
    28
 74
     0
 42
0.00000001
 43
0.00000001
 40
0.0
 40
0.0
 40
0.0
 40
0.0
 40
0.0
 40
0.005376748681016
 40
0.0150836882356765
 40
0.0285318202687823
 40
0.0466101396420035
 40
0.0648548493534998
 40
0.0921105256015583
 40
0.1194761759869733
 40
0.1468424958782228
 40
0.1742088539780639
 40
0.2015749556951018
 40
0.2289410132275484
 40
0.2563073451913733
 40
0.307035032226303
 40
0.3617673518776764
 40
0.4164996608459116
 40
0.4712319368225176
 40
0.5259642820500963
 40
0.5806966156417481
 40
0.6354289823118974
 40
0.6901613872558668
 40
0.7448936880503577
 40
0.7996260821878365
 40
0.8543584074477791
 40
0.9090909145836479
 40
0.9090909145836479
 40
0.9090909145836479
 40
0.9090909145836479
 40
0.9090909145836479
 10
-0.5028747558561492
 20
0.7938130771674825
 30
0.0
 10
-0.5030096249214596
 20
0.7940321634040988
 30
0.0
 10
-0.503379172111111
 20
0.7946520368580079
 30
0.0
 10
-0.5040432699170472
 20
0.7958450899099245
 30
0.0
 10
-0.5050773325249606
 20
0.7978210500620954
 30
0.0
 10
-0.5063216317446748
 20
0.8003809701473598
 30
0.0
 10
-0.5078450633532801
 20
0.8037369061430492
 30
0.0
 10
-0.5095299048829033
 20
0.8077496843125214
 30
0.0
 10
-0.5112656686245075
 20
0.812220275592381
 30
0.0
 10
-0.51302829034241
 20
0.8171478403031205
 30
0.0
 10
-0.5146748796717694
 20
0.8221188360760361
 30
0.0
 10
-0.5162127402930462
 20
0.8271275845082212
 30
0.0
 10
-0.5176498904486464
 20
0.8321612852146483
 30
0.0
 10
-0.519278149911609
 20
0.8383095233071718
 30
0.0
 10
-0.5210736924607251
 20
0.8457515829201174
 30
0.0
 10
-0.5229424566409213
 20
0.8545480160803742
 30
0.0
 10
-0.5247894793280304
 20
0.8646370494100892
 30
0.0
 10
-0.5263790005703202
 20
0.8750345390785697
 30
0.0
 10
-0.5277018228724655
 20
0.8853584783038123
 30
0.0
 10
-0.5287596339539763
 20
0.8958909120385792
 30
0.0
 10
-0.529585511527822
 20
0.9061531562571469
 30
0.0
 10
-0.5301564453370762
 20
0.9169101128692071
 30
0.0
 10
-0.5305375692155807
 20
0.9268894334766777
 30
0.0
 10
-0.53064595025122
 20
0.9381718963209347
 30
0.0
 10
-0.530640450573468
 20
0.9473072348118375
 30
0.0
 10
-0.5303684623725892
 20
0.956825038032264
 30
0.0
 10
-0.5301967674536969
 20
0.9614691761632106
 30
0.0
 10
-0.5300924476002293
 20
0.9638474967521292
 30
0.0
  0
LINE
  5
B2
330
1F
100
AcDbEntity
  8
0
  6
Continuous
 62
     7
370
    25
100
AcDbLine
 10
-0.4858774895
 20
0.7669820379
 30
0.0
 11
-0.5028747559
 21
0.7938130772
 31
0.0
  0
ARC
  5
B3
330
1F
100
AcDbEntity
  8
0
  6
Continuous
 62
     7
370
    25
100
AcDbCircle
 10
-0.5142195536
 20
0.7490275484
 30
0.0
 40
0.0335505035831421
100
AcDbArc
 50
304.4702296547
 51
32.3539582918
  0
ARC
  5
B4
330
1F
100
AcDbEntity
  8
0
  6
Continuous
 62
     7
370
    25
100
AcDbCircle
 10
0.0
 20
0.0
 30
0.0
 40
0.8750000000000002
100
AcDbArc
 50
124.4702296547
 51
127.5297703453
  0
ARC
  5
B5
330
1F
100
AcDbEntity
  8
0
  6
Continuous
 62
     7
370
    25
100
AcDbCircle
 10
-0.5534649499
 20
0.720514099
 30
0.0
 40
0.0335505035831423
100
AcDbArc
 50
219.6460417082
 51
307.5297703453
  0
LINE
  5
B6
330
1F
100
AcDbEntity
  8
0
  6
Continuous
 62
     7
370
    25
100
AcDbLine
 10
-0.5995642542
 20
0.7235640446
 30
0.0
 11
-0.5792988636
 21
0.6991074366
 31
0.0
  0
SPLINE
  5
B7
330
1F
100
AcDbEntity
  8
0
  6
Continuous
 62
     7
370
    25
100
AcDbSpline
210
0.0
220
0.0
230
1.0
 70
     8
 71
     4
 72
    33
 73
    28
 74
     0
 42
0.00000001
 43
0.00000001
 40
0.0
 40
0.0
 40
0.0
 40
0.0
 40
0.0
 40
0.0547325071358687
 40
0.1094648323958114
 40
0.1641972265332902
 40
0.218929527327781
 40
0.2736619322717505
 40
0.3283942989418998
 40
0.3831266325335516
 40
0.4378589777611303
 40
0.4925912537377363
 40
0.5473235627059715
 40
0.602055882357345
 40
0.6527835693922746
 40
0.6801499013560994
 40
0.707515958888546
 40
0.734882060605584
 40
0.762248418705425
 40
0.7896147385966745
 40
0.8169803889820896
 40
0.8442360652301482
 40
0.8624807749416443
 40
0.8805590943148656
 40
0.8940072263479714
 40
0.9037141659026319
 40
0.9090909145836479
 40
0.9090909145836479
 40
0.9090909145836479
 40
0.9090909145836479
 40
0.9090909145836479
 10
-0.752865867602587
 20
0.8019931330112198
 30
0.0
 10
-0.7505717137010846
 20
0.8013574056075913
 30
0.0
 10
-0.7461018192212877
 20
0.8000855795723313
 30
0.0
 10
-0.736965801471345
 20
0.7974030927789038
 30
0.0
 10
-0.7282758787771211
 20
0.7945853484402107
 30
0.0
 10
-0.7175791105511131
 20
0.7909957991927435
 30
0.0
 10
-0.7082059864145996
 20
0.7875495491845516
 30
0.0
 10
-0.6981519409829186
 20
0.7836824764640062
 30
0.0
 10
-0.6886471769526288
 20
0.7797258123517747
 30
0.0
 10
-0.678957118817757
 20
0.7754650732135234
 30
0.0
 10
-0.6695472437156559
 20
0.7710167217736732
 30
0.0
 10
-0.6601498324901237
 20
0.7662919962320056
 30
0.0
 10
-0.6511253529980922
 20
0.761417690513988
 30
0.0
 10
-0.6433369278110351
 20
0.7569221428265906
 30
0.0
 10
-0.6368139616832863
 20
0.7529147574914169
 30
0.0
 10
-0.6314697996269653
 20
0.7494662806628937
 30
0.0
 10
-0.6271265695905871
 20
0.7465439705796323
 30
0.0
 10
-0.6228381918226289
 20
0.7435335898285191
 30
0.0
 10
-0.6186193179858506
 20
0.7404314681443728
 30
0.0
 10
-0.6144776055237221
 20
0.7372324140372973
 30
0.0
 10
-0.6107622010496949
 20
0.7342001159397147
 30
0.0
 10
-0.6074664668886538
 20
0.7313577197750181
 30
0.0
 10
-0.6047455483485109
 20
0.7288718089618215
 30
0.0
 10
-0.6026954292752045
 20
0.7268973512701026
 30
0.0
 10
-0.6011357224156358
 20
0.725303294021361
 30
0.0
 10
-0.6002062790442861
 20
0.724303025807335
 30
0.0
 10
-0.5997309407184932
 20
0.7237600141129185
 30
0.0
 10
-0.5995642541587253
 20
0.7235640446391604
 30
0.0
  0
ARC
  5
B8
330
1F
100
AcDbEntity
  8
0
  6
Continuous
 62
     7
370
    25
100
AcDbCircle
 10
0.0
 20
0.0
 30
0.0
 40
1.099999999999552
100
AcDbArc
 50
133.1902868007
 51
136.8097131993
  0
SPLINE
  5
B9
330
1F
100
AcDbEntity
  8
0
  6
Continuous
 62
     7
370
    25
100
AcDbSpline
210
0.0
220
0.0
230
1.0
 70
     8
 71
     4
 72
    33
 73
    28
 74
     0
 42
0.00000001
 43
0.00000001
 40
0.0
 40
0.0
 40
0.0
 40
0.0
 40
0.0
 40
0.005376748681016
 40
0.0150836882356765
 40
0.0285318202687823
 40
0.0466101396420035
 40
0.0648548493534998
 40
0.0921105256015583
 40
0.1194761759869733
 40
0.1468424958782228
 40
0.1742088539780639
 40
0.2015749556951018
 40
0.2289410132275484
 40
0.2563073451913733
 40
0.307035032226303
 40
0.3617673518776764
 40
0.4164996608459116
 40
0.4712319368225176
 40
0.5259642820500963
 40
0.5806966156417481
 40
0.6354289823118974
 40
0.6901613872558668
 40
0.7448936880503577
 40
0.7996260821878365
 40
0.8543584074477791
 40
0.9090909145836479
 40
0.9090909145836479
 40
0.9090909145836479
 40
0.9090909145836479
 40
0.9090909145836479
 10
-0.7235640446391491
 20
0.5995642541587385
 30
0.0
 10
-0.7237600141129076
 20
0.5997309407185065
 30
0.0
 10
-0.7243030258073238
 20
0.6002062790442995
 30
0.0
 10
-0.7253032940213497
 20
0.6011357224156492
 30
0.0
 10
-0.7268973512700914
 20
0.6026954292752178
 30
0.0
 10
-0.7288718089618101
 20
0.6047455483485242
 30
0.0
 10
-0.7313577197750067
 20
0.6074664668886672
 30
0.0
 10
-0.7342001159397034
 20
0.6107622010497084
 30
0.0
 10
-0.7372324140372859
 20
0.6144776055237356
 30
0.0
 10
-0.7404314681443613
 20
0.6186193179858641
 30
0.0
 10
-0.7435335898285077
 20
0.6228381918226427
 30
0.0
 10
-0.7465439705796207
 20
0.627126569590601
 30
0.0
 10
-0.7494662806628819
 20
0.631469799626979
 30
0.0
 10
-0.7529147574914051
 20
0.6368139616833001
 30
0.0
 10
-0.7569221428265787
 20
0.643336927811049
 30
0.0
 10
-0.761417690513976
 20
0.6511253529981063
 30
0.0
 10
-0.7662919962319933
 20
0.6601498324901377
 30
0.0
 10
-0.771016721773661
 20
0.66954724371567
 30
0.0
 10
-0.7754650732135109
 20
0.6789571188177712
 30
0.0
 10
-0.7797258123517619
 20
0.6886471769526431
 30
0.0
 10
-0.7836824764639935
 20
0.6981519409829329
 30
0.0
 10
-0.7875495491845385
 20
0.7082059864146141
 30
0.0
 10
-0.7909957991927302
 20
0.7175791105511274
 30
0.0
 10
-0.7945853484401973
 20
0.7282758787771356
 30
0.0
 10
-0.7974030927788901
 20
0.7369658014713597
 30
0.0
 10
-0.8000855795723175
 20
0.7461018192213023
 30
0.0
 10
-0.8013574056075775
 20
0.7505717137010993
 30
0.0
 10
-0.8019931330112057
 20
0.7528658676026015
 30
0.0
  0
LINE
  5
BA
330
1F
100
AcDbEntity
  8
0
  6
Continuous
 62
     7
370
    25
100
AcDbLine
 10
-0.6991074366
 20
0.5792988636
 30
0.0
 11
-0.7235640446
 21
0.5995642542
 31
0.0
  0
ARC
  5
BB
330
1F
100
AcDbEntity
  8
0
  6
Continuous
 62
     7
370
    25
100
AcDbCircle
 10
-0.720514099
 20
0.5534649499
 30
0.0
 40
0.033550503583142
100
AcDbArc
 50
322.4702296547
 51
50.3539582918
  0
ARC
  5
BC
330
1F
100
AcDbEntity
  8
0
  6
Continuous
 62
     7
370
    25
100
AcDbCircle
 10
0.0
 20
0.0
 30
0.0
 40
0.8750000000000002
100
AcDbArc
 50
142.4702296547
 51
145.5297703453
  0
ARC
  5
BD
330
1F
100
AcDbEntity
  8
0
  6
Continuous
 62
     7
370
    25
100
AcDbCircle
 10
-0.7490275484
 20
0.5142195536
 30
0.0
 40
0.033550503583142
100
AcDbArc
 50
237.6460417082
 51
325.5297703453
  0
LINE
  5
BE
330
1F
100
AcDbEntity
  8
0
  6
Continuous
 62
     7
370
    25
100
AcDbLine
 10
-0.7938130772
 20
0.5028747559
 30
0.0
 11
-0.7669820379
 21
0.4858774895
 31
0.0
  0
SPLINE
  5
BF
330
1F
100
AcDbEntity
  8
0
  6
Continuous
 62
     7
370
    25
100
AcDbSpline
210
0.0
220
0.0
230
1.0
 70
     8
 71
     4
 72
    33
 73
    28
 74
     0
 42
0.00000001
 43
0.00000001
 40
0.0
 40
0.0
 40
0.0
 40
0.0
 40
0.0
 40
0.0547325071358687
 40
0.1094648323958114
 40
0.1641972265332902
 40
0.218929527327781
 40
0.2736619322717505
 40
0.3283942989418998
 40
0.3831266325335516
 40
0.4378589777611303
 40
0.4925912537377363
 40
0.5473235627059715
 40
0.602055882357345
 40
0.6527835693922746
 40
0.6801499013560994
 40
0.707515958888546
 40
0.734882060605584
 40
0.762248418705425
 40
0.7896147385966745
 40
0.8169803889820896
 40
0.8442360652301482
 40
0.8624807749416443
 40
0.8805590943148656
 40
0.8940072263479714
 40
0.9037141659026319
 40
0.9090909145836479
 40
0.9090909145836479
 40
0.9090909145836479
 40
0.9090909145836479
 40
0.9090909145836479
 10
-0.9638474967521196
 20
0.5300924476002471
 30
0.0
 10
-0.9614691761632007
 20
0.5301967674537147
 30
0.0
 10
-0.9568250380322542
 20
0.5303684623726068
 30
0.0
 10
-0.9473072348118278
 20
0.5306404505734853
 30
0.0
 10
-0.9381718963209249
 20
0.5306459502512372
 30
0.0
 10
-0.9268894334766679
 20
0.5305375692155977
 30
0.0
 10
-0.9169101128691973
 20
0.530156445337093
 30
0.0
 10
-0.9061531562571371
 20
0.5295855115278386
 30
0.0
 10
-0.8958909120385693
 20
0.5287596339539928
 30
0.0
 10
-0.8853584783038024
 20
0.5277018228724818
 30
0.0
 10
-0.8750345390785598
 20
0.5263790005703363
 30
0.0
 10
-0.8646370494100794
 20
0.5247894793280463
 30
0.0
 10
-0.8545480160803643
 20
0.5229424566409371
 30
0.0
 10
-0.8457515829201078
 20
0.5210736924607406
 30
0.0
 10
-0.8383095233071621
 20
0.5192781499116245
 30
0.0
 10
-0.8321612852146387
 20
0.5176498904486616
 30
0.0
 10
-0.8271275845082116
 20
0.5162127402930614
 30
0.0
 10
-0.8221188360760264
 20
0.5146748796717846
 30
0.0
 10
-0.8171478403031109
 20
0.5130282903424251
 30
0.0
 10
-0.8122202755923715
 20
0.5112656686245224
 30
0.0
 10
-0.8077496843125118
 20
0.5095299048829182
 30
0.0
 10
-0.8037369061430397
 20
0.5078450633532948
 30
0.0
 10
-0.8003809701473503
 20
0.5063216317446896
 30
0.0
 10
-0.7978210500620858
 20
0.5050773325249752
 30
0.0
 10
-0.7958450899099152
 20
0.5040432699170617
 30
0.0
 10
-0.7946520368579987
 20
0.5033791721111257
 30
0.0
 10
-0.7940321634040894
 20
0.5030096249214743
 30
0.0
 10
-0.7938130771674732
 20
0.5028747558561637
 30
0.0
  0
ARC
  5
C0
330
1F
100
AcDbEntity
  8
0
  6
Continuous
 62
     7
370
    25
100
AcDbCircle
 10
0.0
 20
0.0
 30
0.0
 40
1.099999999999552
100
AcDbArc
 50
151.1902868007
 51
154.8097131993
  0
SPLINE
  5
C1
330
1F
100
AcDbEntity
  8
0
  6
Continuous
 62
     7
370
    25
100
AcDbSpline
210
0.0
220
0.0
230
1.0
 70
     8
 71
     4
 72
    33
 73
    28
 74
     0
 42
0.00000001
 43
0.00000001
 40
0.0
 40
0.0
 40
0.0
 40
0.0
 40
0.0
 40
0.005376748681016
 40
0.0150836882356765
 40
0.0285318202687823
 40
0.0466101396420035
 40
0.0648548493534998
 40
0.0921105256015583
 40
0.1194761759869733
 40
0.1468424958782228
 40
0.1742088539780639
 40
0.2015749556951018
 40
0.2289410132275484
 40
0.2563073451913733
 40
0.307035032226303
 40
0.3617673518776764
 40
0.4164996608459116
 40
0.4712319368225176
 40
0.5259642820500963
 40
0.5806966156417481
 40
0.6354289823118974
 40
0.6901613872558668
 40
0.7448936880503577
 40
0.7996260821878365
 40
0.8543584074477791
 40
0.9090909145836479
 40
0.9090909145836479
 40
0.9090909145836479
 40
0.9090909145836479
 40
0.9090909145836479
 10
-0.873425843365731
 20
0.3466259045431409
 30
0.0
 10
-0.8736637303904461
 20
0.3467238749842171
 30
0.0
 10
-0.874327052821593
 20
0.3470081487546883
 30
0.0
 10
-0.8755655782216414
 20
0.3475830020524707
 30
0.0
 10
-0.8775635926812546
 20
0.3485737806449059
 30
0.0
 10
-0.8800749351692567
 20
0.3499134187673396
 30
0.0
 10
-0.8832799869162901
 20
0.3517329773874726
 30
0.0
 10
-0.8870017041753206
 20
0.35398905811767
 30
0.0
 10
-0.8910337141638273
 20
0.3565855861092019
 30
0.0
 10
-0.8953560549549543
 20
0.3595360266499188
 30
0.0
 10
-0.8996100517096904
 20
0.3625898057847939
 30
0.0
 10
-0.9037982755481649
 20
0.3657380365937127
 30
0.0
 10
-0.907919689487206
 20
0.3689656503430179
 30
0.0
 10
-0.9128508227423627
 20
0.3729826125460976
 30
0.0
 10
-0.918677780065892
 20
0.3779479718158881
 30
0.0
 10
-0.9253600557305254
 20
0.3839660037072873
 30
0.0
 10
-0.9327845134744862
 20
0.3910425504317097
 30
0.0
 10
-0.9401819542604147
 20
0.3985199991279246
 30
0.0
 10
-0.9473203992055501
 20
0.4060947059694355
 30
0.0
 10
-0.9543669955673741
 20
0.4139938580995663
 30
0.0
 10
-0.9610671403669863
 20
0.4218107494147081
 30
0.0
 10
-0.9678518159774553
 20
0.4301777236485039
 30
0.0
 10
-0.9740258491530969
 20
0.4380271446171824
 30
0.0
 10
-0.9807451965221892
 20
0.4470911440222132
 30
0.0
 10
-0.9861103644290767
 20
0.4544850207401961
 30
0.0
 10
-0.9914847457194849
 20
0.4623449559479119
 30
0.0
 10
-0.9940755975152328
 20
0.4662030623612908
 30
0.0
 10
-0.9953891427483167
 20
0.4681884818071874
 30
0.0
  0
LINE
  5
C2
330
1F
100
AcDbEntity
  8
0
  6
Continuous
 62
     7
370
    25
100
AcDbLine
 10
-0.8439038768
 20
0.3349098803
 30
0.0
 11
-0.8734258434
 21
0.3466259045
 31
0.0
  0
ARC
  5
C3
330
1F
100
AcDbEntity
  8
0
  6
Continuous
 62
     7
370
    25
100
AcDbCircle
 10
-0.8562797042
 20
0.3037253459
 30
0.0
 40
0.0335505035831421
100
AcDbArc
 50
340.4702296547
 51
68.3539582918
  0
ARC
  5
C4
330
1F
100
AcDbEntity
  8
0
  6
Continuous
 62
     7
370
    25
100
AcDbCircle
 10
0.0
 20
0.0
 30
0.0
 40
0.8750000000000002
100
AcDbArc
 50
160.4702296547
 51
163.5297703453
  0
ARC
  5
C5
330
1F
100
AcDbEntity
  8
0
  6
Continuous
 62
     7
370
    25
100
AcDbCircle
 10
-0.8712701117
 20
0.2575896155
 30
0.0
 40
0.0335505035831421
100
AcDbArc
 50
255.6460417082
 51
343.5297703453
  0
LINE
  5
C6
330
1F
100
AcDbEntity
  8
0
  6
Continuous
 62
     7
370
    25
100
AcDbLine
 10
-0.9103579454
 20
0.2329605822
 30
0.0
 11
-0.8795876665
 21
0.2250864684
 31
0.0
  0
SPLINE
  5
C7
330
1F
100
AcDbEntity
  8
0
  6
Continuous
 62
     7
370
    25
100
AcDbSpline
210
0.0
220
0.0
230
1.0
 70
     8
 71
     4
 72
    33
 73
    28
 74
     0
 42
0.00000001
 43
0.00000001
 40
0.0
 40
0.0
 40
0.0
 40
0.0
 40
0.0
 40
0.0547325071358687
 40
0.1094648323958114
 40
0.1641972265332902
 40
0.218929527327781
 40
0.2736619322717505
 40
0.3283942989418998
 40
0.3831266325335516
 40
0.4378589777611303
 40
0.4925912537377363
 40
0.5473235627059715
 40
0.602055882357345
 40
0.6527835693922746
 40
0.6801499013560994
 40
0.707515958888546
 40
0.734882060605584
 40
0.762248418705425
 40
0.7896147385966745
 40
0.8169803889820896
 40
0.8442360652301482
 40
0.8624807749416443
 40
0.8805590943148656
 40
0.8940072263479714
 40
0.9037141659026319
 40
0.9090909145836479
 40
0.9090909145836479
 40
0.9090909145836479
 40
0.9090909145836479
 40
0.9090909145836479
 10
-1.080481017399163
 20
0.2063026200469042
 30
0.0
 10
-1.078251336712805
 20
0.2071367756033713
 30
0.0
 10
-1.073887555528579
 20
0.2087351847814856
 30
0.0
 10
-1.064919635731318
 20
0.211935023876515
 30
0.0
 10
-1.056233112024872
 20
0.2147632292239351
 30
0.0
 10
-1.045469360635103
 20
0.2181466254910266
 30
0.0
 10
-1.03586068898775
 20
0.2208679348028837
 30
0.0
 10
-1.025453787056623
 20
0.2236490268840996
 30
0.0
 10
-1.01543860261515
 20
0.2260347784997949
 30
0.0
 10
-1.005094781278228
 20
0.2282834413938856
 30
0.0
 10
-0.9948673570323249
 20
0.2302156352930237
 30
0.0
 10
-0.9844875676532174
 20
0.2319169117641527
 30
0.0
 10
-0.9743215653625603
 20
0.2332779715575296
 30
0.0
 10
-0.9653781803951835
 20
0.2342189185429375
 30
0.0
 10
-0.9577455079438343
 20
0.234810978994867
 30
0.0
 10
-0.9513950261968986
 20
0.2351623222784501
 30
0.0
 10
-0.9461635885174224
 20
0.2353510103209551
 30
0.0
 10
-0.9409247606155551
 20
0.2354362063420301
 30
0.0
 10
-0.9356882386077197
 20
0.2354063290034777
 30
0.0
 10
-0.9304571660146185
 20
0.2352526773694036
 30
0.0
 10
-0.92566900055184
 20
0.2349833566325831
 30
0.0
 10
-0.9213319770598345
 20
0.2346209937659339
 30
0.0
 10
-0.9176695260060376
 20
0.2342091654621425
 30
0.0
 10
-0.9148503877227728
 20
0.2338168253916006
 30
0.0
 10
-0.9126515950250181
 20
0.2334439786773159
 30
0.0
 10
-0.9113117166377458
 20
0.2331810577997562
 30
0.0
 10
-0.9106079855883015
 20
0.2330211489685795
 30
0.0
 10
-0.9103579453621405
 20
0.2329605822355173
 30
0.0
  0
ARC
  5
C8
330
1F
100
AcDbEntity
  8
0
  6
Continuous
 62
     7
370
    25
100
AcDbCircle
 10
0.0
 20
0.0
 30
0.0
 40
1.099999999999552
100
AcDbArc
 50
169.1902868007
 51
172.8097131993
  0
SPLINE
  5
C9
330
1F
100
AcDbEntity
  8
0
  6
Continuous
 62
     7
370
    25
100
AcDbSpline
210
0.0
220
0.0
230
1.0
 70
     8
 71
     4
 72
    33
 73
    28
 74
     0
 42
0.00000001
 43
0.00000001
 40
0.0
 40
0.0
 40
0.0
 40
0.0
 40
0.0
 40
0.005376748681016
 40
0.0150836882356765
 40
0.0285318202687823
 40
0.0466101396420035
 40
0.0648548493534998
 40
0.0921105256015583
 40
0.1194761759869733
 40
0.1468424958782228
 40
0.1742088539780639
 40
0.2015749556951018
 40
0.2289410132275484
 40
0.2563073451913733
 40
0.307035032226303
 40
0.3617673518776764
 40
0.4164996608459116
 40
0.4712319368225176
 40
0.5259642820500963
 40
0.5806966156417481
 40
0.6354289823118974
 40
0.6901613872558668
 40
0.7448936880503577
 40
0.7996260821878365
 40
0.8543584074477791
 40
0.9090909145836479
 40
0.9090909145836479
 40
0.9090909145836479
 40
0.9090909145836479
 40
0.9090909145836479
 10
-0.9377906350279879
 20
0.0597573963061669
 30
0.0
 10
-0.9380471535642241
 20
0.0597770605991785
 30
0.0
 10
-0.9387658561109017
 20
0.0598424431170224
 30
0.0
 10
-0.9401214032015022
 20
0.0600064356952121
 30
0.0
 10
-0.9423277952956945
 20
0.060331301708726
 30
0.0
 10
-0.9451301948797024
 20
0.0608293257670554
 30
0.0
 10
-0.9487406547646642
 20
0.0615694133918295
 30
0.0
 10
-0.9529773855019863
 20
0.0625649997902725
 30
0.0
 10
-0.9576144261510762
 20
0.0637884850484236
 30
0.0
 10
-0.9626369527941003
 20
0.0652588439906755
 30
0.0
 10
-0.9676264137777346
 20
0.0668486032449952
 30
0.0
 10
-0.972582508173189
 20
0.0685485163282837
 30
0.0
 10
-0.9774995932560775
 20
0.0703445724686267
 30
0.0
 10
-0.9834306892576274
 20
0.072641126570206
 30
0.0
 10
-0.990506835387886
 20
0.0755628350210187
 30
0.0
 10
-0.998721731329549
 20
0.0792213867251361
 30
0.0
 10
-1.007969583446236
 20
0.0836572989833624
 30
0.0
 10
-1.017315626431298
 20
0.088482840373426
 30
0.0
 10
-1.026445404154018
 20
0.0934809138726136
 30
0.0
 10
-1.035588087790996
 20
0.0988159359508769
 30
0.0
 10
-1.044375856422349
 20
0.1041797827654603
 30
0.0
 10
-1.053414003602375
 20
0.1100406680672293
 30
0.0
 10
-1.061711462561216
 20
0.1155980298535266
 30
0.0
 10
-1.070902871515001
 20
0.1221420130232184
 30
0.0
 10
-1.078290282974034
 20
0.1275160795956358
 30
0.0
 10
-1.085830476875202
 20
0.1333305470396046
 30
0.0
 10
-1.089486743806144
 20
0.1361992070498157
 30
0.0
 10
-1.091349527909261
 20
0.1376815453515117
 30
0.0
  0
LINE
  5
CA
330
1F
100
AcDbEntity
  8
0
  6
Continuous
 62
     7
370
    25
100
AcDbLine
 10
-0.9060931258
 20
0.0577375845
 30
0.0
 11
-0.937790635
 21
0.0597573963
 31
0.0
  0
ARC
  5
CB
330
1F
100
AcDbEntity
  8
0
  6
Continuous
 62
     7
370
    25
100
AcDbCircle
 10
-0.908226686
 20
0.0242549888
 30
0.0
 40
0.0335505035831421
100
AcDbArc
 50
358.4702296547
 51
86.3539582918
  0
ARC
  5
CC
330
1F
100
AcDbEntity
  8
0
  6
Continuous
 62
     7
370
    25
100
AcDbCircle
 10
0.0
 20
0.0
 30
0.0
 40
0.8750000000000003
100
AcDbArc
 50
178.4702296547
 51
181.5297703453
  0
ARC
  5
CD
330
1F
100
AcDbEntity
  8
0
  6
Continuous
 62
     7
370
    25
100
AcDbCircle
 10
-0.908226686
 20
-0.0242549888
 30
0.0
 40
0.0335505035831421
100
AcDbArc
 50
273.6460417082
 51
1.5297703453
  0
LINE
  5
CE
330
1F
100
AcDbEntity
  8
0
  6
Continuous
 62
     7
370
    25
100
AcDbLine
 10
-0.937790635
 20
-0.0597573963
 30
0.0
 11
-0.9060931258
 21
-0.0577375845
 31
0.0
  0
SPLINE
  5
CF
330
1F
100
AcDbEntity
  8
0
  6
Continuous
 62
     7
370
    25
100
AcDbSpline
210
0.0
220
0.0
230
1.0
 70
     8
 71
     4
 72
    33
 73
    28
 74
     0
 42
0.00000001
 43
0.00000001
 40
0.0
 40
0.0
 40
0.0
 40
0.0
 40
0.0
 40
0.0547325071358687
 40
0.1094648323958114
 40
0.1641972265332902
 40
0.218929527327781
 40
0.2736619322717505
 40
0.3283942989418998
 40
0.3831266325335516
 40
0.4378589777611303
 40
0.4925912537377363
 40
0.5473235627059715
 40
0.602055882357345
 40
0.6527835693922746
 40
0.6801499013560994
 40
0.707515958888546
 40
0.734882060605584
 40
0.762248418705425
 40
0.7896147385966745
 40
0.8169803889820896
 40
0.8442360652301482
 40
0.8624807749416443
 40
0.8805590943148656
 40
0.8940072263479714
 40
0.9037141659026319
 40
0.9090909145836479
 40
0.9090909145836479
 40
0.9090909145836479
 40
0.9090909145836479
 40
0.9090909145836479
 10
-1.091349527909261
 20
-0.1376815453515117
 30
0.0
 10
-1.089486743806144
 20
-0.1361992070498157
 30
0.0
 10
-1.085830476875202
 20
-0.1333305470396046
 30
0.0
 10
-1.078290282974034
 20
-0.1275160795956358
 30
0.0
 10
-1.070902871515001
 20
-0.1221420130232184
 30
0.0
 10
-1.061711462561216
 20
-0.1155980298535266
 30
0.0
 10
-1.053414003602375
 20
-0.1100406680672292
 30
0.0
 10
-1.044375856422349
 20
-0.1041797827654603
 30
0.0
 10
-1.035588087790996
 20
-0.0988159359508769
 30
0.0
 10
-1.026445404154018
 20
-0.0934809138726136
 30
0.0
 10
-1.017315626431298
 20
-0.088482840373426
 30
0.0
 10
-1.007969583446236
 20
-0.0836572989833623
 30
0.0
 10
-0.998721731329549
 20
-0.0792213867251361
 30
0.0
 10
-0.990506835387886
 20
-0.0755628350210187
 30
0.0
 10
-0.9834306892576274
 20
-0.072641126570206
 30
0.0
 10
-0.9774995932560775
 20
-0.0703445724686267
 30
0.0
 10
-0.972582508173189
 20
-0.0685485163282837
 30
0.0
 10
-0.9676264137777346
 20
-0.0668486032449952
 30
0.0
 10
-0.9626369527941003
 20
-0.0652588439906754
 30
0.0
 10
-0.9576144261510762
 20
-0.0637884850484236
 30
0.0
 10
-0.9529773855019863
 20
-0.0625649997902725
 30
0.0
 10
-0.9487406547646642
 20
-0.0615694133918294
 30
0.0
 10
-0.9451301948797024
 20
-0.0608293257670554
 30
0.0
 10
-0.9423277952956945
 20
-0.060331301708726
 30
0.0
 10
-0.9401214032015022
 20
-0.0600064356952121
 30
0.0
 10
-0.9387658561109017
 20
-0.0598424431170224
 30
0.0
 10
-0.9380471535642241
 20
-0.0597770605991785
 30
0.0
 10
-0.9377906350279879
 20
-0.0597573963061669
 30
0.0
  0
ARC
  5
D0
330
1F
100
AcDbEntity
  8
0
  6
Continuous
 62
     7
370
    25
100
AcDbCircle
 10
0.0
 20
0.0
 30
0.0
 40
1.099999999999552
100
AcDbArc
 50
187.1902868007
 51
190.8097131993
  0
SPLINE
  5
D1
330
1F
100
AcDbEntity
  8
0
  6
Continuous
 62
     7
370
    25
100
AcDbSpline
210
0.0
220
0.0
230
1.0
 70
     8
 71
     4
 72
    33
 73
    28
 74
     0
 42
0.00000001
 43
0.00000001
 40
0.0
 40
0.0
 40
0.0
 40
0.0
 40
0.0
 40
0.005376748681016
 40
0.0150836882356765
 40
0.0285318202687823
 40
0.0466101396420035
 40
0.0648548493534998
 40
0.0921105256015583
 40
0.1194761759869733
 40
0.1468424958782228
 40
0.1742088539780639
 40
0.2015749556951018
 40
0.2289410132275484
 40
0.2563073451913733
 40
0.307035032226303
 40
0.3617673518776764
 40
0.4164996608459116
 40
0.4712319368225176
 40
0.5259642820500963
 40
0.5806966156417481
 40
0.6354289823118974
 40
0.6901613872558668
 40
0.7448936880503577
 40
0.7996260821878365
 40
0.8543584074477791
 40
0.9090909145836479
 40
0.9090909145836479
 40
0.9090909145836479
 40
0.9090909145836479
 40
0.9090909145836479
 10
-0.9103579453621439
 20
-0.2329605822355042
 30
0.0
 10
-0.9106079855883047
 20
-0.2330211489685663
 30
0.0
 10
-0.911311716637749
 20
-0.233181057799743
 30
0.0
 10
-0.9126515950250216
 20
-0.2334439786773027
 30
0.0
 10
-0.914850387722776
 20
-0.2338168253915875
 30
0.0
 10
-0.9176695260060409
 20
-0.2342091654621292
 30
0.0
 10
-0.9213319770598379
 20
-0.2346209937659206
 30
0.0
 10
-0.9256690005518434
 20
-0.2349833566325698
 30
0.0
 10
-0.9304571660146219
 20
-0.2352526773693902
 30
0.0
 10
-0.9356882386077229
 20
-0.2354063290034642
 30
0.0
 10
-0.9409247606155584
 20
-0.2354362063420165
 30
0.0
 10
-0.9461635885174258
 20
-0.2353510103209414
 30
0.0
 10
-0.951395026196902
 20
-0.2351623222784364
 30
0.0
 10
-0.9577455079438376
 20
-0.2348109789948532
 30
0.0
 10
-0.9653781803951869
 20
-0.2342189185429236
 30
0.0
 10
-0.9743215653625636
 20
-0.2332779715575156
 30
0.0
 10
-0.9844875676532209
 20
-0.2319169117641385
 30
0.0
 10
-0.9948673570323282
 20
-0.2302156352930093
 30
0.0
 10
-1.005094781278231
 20
-0.2282834413938711
 30
0.0
 10
-1.015438602615153
 20
-0.2260347784997802
 30
0.0
 10
-1.025453787056626
 20
-0.2236490268840848
 30
0.0
 10
-1.035860688987753
 20
-0.2208679348028687
 30
0.0
 10
-1.045469360635106
 20
-0.2181466254910115
 30
0.0
 10
-1.056233112024875
 20
-0.2147632292239198
 30
0.0
 10
-1.064919635731322
 20
-0.2119350238764997
 30
0.0
 10
-1.073887555528582
 20
-0.2087351847814702
 30
0.0
 10
-1.078251336712808
 20
-0.2071367756033558
 30
0.0
 10
-1.080481017399166
 20
-0.2063026200468887
 30
0.0
  0
LINE
  5
D2
330
1F
100
AcDbEntity
  8
0
  6
Continuous
 62
     7
370
    25
100
AcDbLine
 10
-0.8795876665
 20
-0.2250864684
 30
0.0
 11
-0.9103579454
 21
-0.2329605822
 31
0.0
  0
ARC
  5
D3
330
1F
100
AcDbEntity
  8
0
  6
Continuous
 62
     7
370
    25
100
AcDbCircle
 10
-0.8712701117
 20
-0.2575896155
 30
0.0
 40
0.033550503583142
100
AcDbArc
 50
16.4702296547
 51
104.3539582918
  0
ARC
  5
D4
330
1F
100
AcDbEntity
  8
0
  6
Continuous
 62
     7
370
    25
100
AcDbCircle
 10
0.0
 20
0.0
 30
0.0
 40
0.8750000000000002
100
AcDbArc
 50
196.4702296547
 51
199.5297703453
  0
ARC
  5
D5
330
1F
100
AcDbEntity
  8
0
  6
Continuous
 62
     7
370
    25
100
AcDbCircle
 10
-0.8562797042
 20
-0.3037253459
 30
0.0
 40
0.033550503583142
100
AcDbArc
 50
291.6460417082
 51
19.5297703453
  0
LINE
  5
D6
330
1F
100
AcDbEntity
  8
0
  6
Continuous
 62
     7
370
    25
100
AcDbLine
 10
-0.8734258434
 20
-0.3466259045
 30
0.0
 11
-0.8439038768
 21
-0.3349098803
 31
0.0
  0
SPLINE
  5
D7
330
1F
100
AcDbEntity
  8
0
  6
Continuous
 62
     7
370
    25
100
AcDbSpline
210
0.0
220
0.0
230
1.0
 70
     8
 71
     4
 72
    33
 73
    28
 74
     0
 42
0.00000001
 43
0.00000001
 40
0.0
 40
0.0
 40
0.0
 40
0.0
 40
0.0
 40
0.0547325071358687
 40
0.1094648323958114
 40
0.1641972265332902
 40
0.218929527327781
 40
0.2736619322717505
 40
0.3283942989418998
 40
0.3831266325335516
 40
0.4378589777611303
 40
0.4925912537377363
 40
0.5473235627059715
 40
0.602055882357345
 40
0.6527835693922746
 40
0.6801499013560994
 40
0.707515958888546
 40
0.734882060605584
 40
0.762248418705425
 40
0.7896147385966745
 40
0.8169803889820896
 40
0.8442360652301482
 40
0.8624807749416443
 40
0.8805590943148656
 40
0.8940072263479714
 40
0.9037141659026319
 40
0.9090909145836479
 40
0.9090909145836479
 40
0.9090909145836479
 40
0.9090909145836479
 40
0.9090909145836479
 10
-0.9953891427483234
 20
-0.4681884818071731
 30
0.0
 10
-0.9940755975152394
 20
-0.4662030623612765
 30
0.0
 10
-0.9914847457194915
 20
-0.4623449559478977
 30
0.0
 10
-0.9861103644290832
 20
-0.4544850207401819
 30
0.0
 10
-0.9807451965221957
 20
-0.4470911440221991
 30
0.0
 10
-0.9740258491531033
 20
-0.4380271446171683
 30
0.0
 10
-0.9678518159774614
 20
-0.4301777236484899
 30
0.0
 10
-0.9610671403669924
 20
-0.4218107494146942
 30
0.0
 10
-0.9543669955673801
 20
-0.4139938580995525
 30
0.0
 10
-0.9473203992055559
 20
-0.4060947059694218
 30
0.0
 10
-0.9401819542604205
 20
-0.3985199991279111
 30
0.0
 10
-0.932784513474492
 20
-0.3910425504316962
 30
0.0
 10
-0.9253600557305308
 20
-0.383966003707274
 30
0.0
 10
-0.9186777800658974
 20
-0.3779479718158748
 30
0.0
 10
-0.9128508227423682
 20
-0.3729826125460844
 30
0.0
 10
-0.9079196894872115
 20
-0.3689656503430048
 30
0.0
 10
-0.90379827554817
 20
-0.3657380365936997
 30
0.0
 10
-0.8996100517096958
 20
-0.3625898057847808
 30
0.0
 10
-0.8953560549549595
 20
-0.3595360266499058
 30
0.0
 10
-0.8910337141638324
 20
-0.3565855861091891
 30
0.0
 10
-0.8870017041753259
 20
-0.3539890581176571
 30
0.0
 10
-0.8832799869162951
 20
-0.3517329773874598
 30
0.0
 10
-0.8800749351692616
 20
-0.3499134187673268
 30
0.0
 10
-0.8775635926812595
 20
-0.3485737806448933
 30
0.0
 10
-0.8755655782216465
 20
-0.3475830020524581
 30
0.0
 10
-0.8743270528215978
 20
-0.3470081487546757
 30
0.0
 10
-0.873663730390451
 20
-0.3467238749842045
 30
0.0
 10
-0.8734258433657359
 20
-0.3466259045431282
 30
0.0
  0
ARC
  5
D8
330
1F
100
AcDbEntity
  8
0
  6
Continuous
 62
     7
370
    25
100
AcDbCircle
 10
0.0
 20
0.0
 30
0.0
 40
1.099999999999552
100
AcDbArc
 50
205.1902868007
 51
208.8097131993
  0
SPLINE
  5
D9
330
1F
100
AcDbEntity
  8
0
  6
Continuous
 62
     7
370
    25
100
AcDbSpline
210
0.0
220
0.0
230
1.0
 70
     8
 71
     4
 72
    33
 73
    28
 74
     0
 42
0.00000001
 43
0.00000001
 40
0.0
 40
0.0
 40
0.0
 40
0.0
 40
0.0
 40
0.005376748681016
 40
0.0150836882356765
 40
0.0285318202687823
 40
0.0466101396420035
 40
0.0648548493534998
 40
0.0921105256015583
 40
0.1194761759869733
 40
0.1468424958782228
 40
0.1742088539780639
 40
0.2015749556951018
 40
0.2289410132275484
 40
0.2563073451913733
 40
0.307035032226303
 40
0.3617673518776764
 40
0.4164996608459116
 40
0.4712319368225176
 40
0.5259642820500963
 40
0.5806966156417481
 40
0.6354289823118974
 40
0.6901613872558668
 40
0.7448936880503577
 40
0.7996260821878365
 40
0.8543584074477791
 40
0.9090909145836479
 40
0.9090909145836479
 40
0.9090909145836479
 40
0.9090909145836479
 40
0.9090909145836479
 10
-0.7938130771674806
 20
-0.5028747558561523
 30
0.0
 10
-0.7940321634040968
 20
-0.5030096249214627
 30
0.0
 10
-0.794652036858006
 20
-0.5033791721111143
 30
0.0
 10
-0.7958450899099226
 20
-0.5040432699170503
 30
0.0
 10
-0.7978210500620931
 20
-0.5050773325249637
 30
0.0
 10
-0.8003809701473578
 20
-0.506321631744678
 30
0.0
 10
-0.8037369061430473
 20
-0.5078450633532832
 30
0.0
 10
-0.8077496843125194
 20
-0.5095299048829065
 30
0.0
 10
-0.8122202755923791
 20
-0.5112656686245106
 30
0.0
 10
-0.8171478403031184
 20
-0.5130282903424134
 30
0.0
 10
-0.8221188360760339
 20
-0.5146748796717727
 30
0.0
 10
-0.827127584508219
 20
-0.5162127402930495
 30
0.0
 10
-0.8321612852146464
 20
-0.5176498904486496
 30
0.0
 10
-0.8383095233071697
 20
-0.5192781499116124
 30
0.0
 10
-0.8457515829201153
 20
-0.5210736924607284
 30
0.0
 10
-0.8545480160803722
 20
-0.5229424566409248
 30
0.0
 10
-0.864637049410087
 20
-0.5247894793280338
 30
0.0
 10
-0.8750345390785675
 20
-0.5263790005703237
 30
0.0
 10
-0.8853584783038102
 20
-0.527701822872469
 30
0.0
 10
-0.8958909120385771
 20
-0.5287596339539798
 30
0.0
 10
-0.906153156257145
 20
-0.5295855115278256
 30
0.0
 10
-0.9169101128692051
 20
-0.5301564453370797
 30
0.0
 10
-0.9268894334766756
 20
-0.5305375692155844
 30
0.0
 10
-0.9381718963209327
 20
-0.5306459502512237
 30
0.0
 10
-0.9473072348118354
 20
-0.5306404505734716
 30
0.0
 10
-0.956825038032262
 20
-0.530368462372593
 30
0.0
 10
-0.9614691761632087
 20
-0.5301967674537008
 30
0.0
 10
-0.9638474967521272
 20
-0.5300924476002331
 30
0.0
  0
LINE
  5
DA
330
1F
100
AcDbEntity
  8
0
  6
Continuous
 62
     7
370
    25
100
AcDbLine
 10
-0.7669820379
 20
-0.4858774895
 30
0.0
 11
-0.7938130772
 21
-0.5028747559
 31
0.0
  0
ARC
  5
DB
330
1F
100
AcDbEntity
  8
0
  6
Continuous
 62
     7
370
    25
100
AcDbCircle
 10
-0.7490275484
 20
-0.5142195536
 30
0.0
 40
0.033550503583142
100
AcDbArc
 50
34.4702296547
 51
122.3539582918
  0
ARC
  5
DC
330
1F
100
AcDbEntity
  8
0
  6
Continuous
 62
     7
370
    25
100
AcDbCircle
 10
0.0
 20
0.0
 30
0.0
 40
0.8750000000000002
100
AcDbArc
 50
214.4702296547
 51
217.5297703453
  0
ARC
  5
DD
330
1F
100
AcDbEntity
  8
0
  6
Continuous
 62
     7
370
    25
100
AcDbCircle
 10
-0.720514099
 20
-0.5534649499
 30
0.0
 40
0.0335505035831422
100
AcDbArc
 50
309.6460417082
 51
37.5297703453
  0
LINE
  5
DE
330
1F
100
AcDbEntity
  8
0
  6
Continuous
 62
     7
370
    25
100
AcDbLine
 10
-0.7235640446
 20
-0.5995642542
 30
0.0
 11
-0.6991074366
 21
-0.5792988636
 31
0.0
  0
SPLINE
  5
DF
330
1F
100
AcDbEntity
  8
0
  6
Continuous
 62
     7
370
    25
100
AcDbSpline
210
0.0
220
0.0
230
1.0
 70
     8
 71
     4
 72
    33
 73
    28
 74
     0
 42
0.00000001
 43
0.00000001
 40
0.0
 40
0.0
 40
0.0
 40
0.0
 40
0.0
 40
0.0547325071358687
 40
0.1094648323958114
 40
0.1641972265332902
 40
0.218929527327781
 40
0.2736619322717505
 40
0.3283942989418998
 40
0.3831266325335516
 40
0.4378589777611303
 40
0.4925912537377363
 40
0.5473235627059715
 40
0.602055882357345
 40
0.6527835693922746
 40
0.6801499013560994
 40
0.707515958888546
 40
0.734882060605584
 40
0.762248418705425
 40
0.7896147385966745
 40
0.8169803889820896
 40
0.8442360652301482
 40
0.8624807749416443
 40
0.8805590943148656
 40
0.8940072263479714
 40
0.9037141659026319
 40
0.9090909145836479
 40
0.9090909145836479
 40
0.9090909145836479
 40
0.9090909145836479
 40
0.9090909145836479
 10
-0.8019931330112167
 20
-0.75286586760259
 30
0.0
 10
-0.8013574056075884
 20
-0.7505717137010879
 30
0.0
 10
-0.8000855795723283
 20
-0.7461018192212908
 30
0.0
 10
-0.7974030927789008
 20
-0.7369658014713482
 30
0.0
 10
-0.7945853484402078
 20
-0.7282758787771242
 30
0.0
 10
-0.7909957991927407
 20
-0.7175791105511162
 30
0.0
 10
-0.7875495491845488
 20
-0.7082059864146028
 30
0.0
 10
-0.7836824764640036
 20
-0.6981519409829215
 30
0.0
 10
-0.779725812351772
 20
-0.6886471769526319
 30
0.0
 10
-0.7754650732135209
 20
-0.67895711881776
 30
0.0
 10
-0.7710167217736706
 20
-0.6695472437156589
 30
0.0
 10
-0.7662919962320028
 20
-0.6601498324901267
 30
0.0
 10
-0.7614176905139854
 20
-0.6511253529980952
 30
0.0
 10
-0.7569221428265881
 20
-0.6433369278110379
 30
0.0
 10
-0.7529147574914142
 20
-0.6368139616832893
 30
0.0
 10
-0.7494662806628912
 20
-0.6314697996269683
 30
0.0
 10
-0.7465439705796298
 20
-0.6271265695905901
 30
0.0
 10
-0.7435335898285167
 20
-0.6228381918226319
 30
0.0
 10
-0.7404314681443704
 20
-0.6186193179858535
 30
0.0
 10
-0.737232414037295
 20
-0.614477605523725
 30
0.0
 10
-0.7342001159397122
 20
-0.6107622010496978
 30
0.0
 10
-0.7313577197750156
 20
-0.6074664668886566
 30
0.0
 10
-0.7288718089618188
 20
-0.6047455483485138
 30
0.0
 10
-0.7268973512701001
 20
-0.6026954292752074
 30
0.0
 10
-0.7253032940213585
 20
-0.6011357224156387
 30
0.0
 10
-0.7243030258073325
 20
-0.600206279044289
 30
0.0
 10
-0.7237600141129161
 20
-0.5997309407184961
 30
0.0
 10
-0.7235640446391579
 20
-0.5995642541587282
 30
0.0
  0
ARC
  5
E0
330
1F
100
AcDbEntity
  8
0
  6
Continuous
 62
     7
370
    25
100
AcDbCircle
 10
0.0
 20
0.0
 30
0.0
 40
1.099999999999552
100
AcDbArc
 50
223.1902868007
 51
226.8097131993
  0
SPLINE
  5
E1
330
1F
100
AcDbEntity
  8
0
  6
Continuous
 62
     7
370
    25
100
AcDbSpline
210
0.0
220
0.0
230
1.0
 70
     8
 71
     4
 72
    33
 73
    28
 74
     0
 42
0.00000001
 43
0.00000001
 40
0.0
 40
0.0
 40
0.0
 40
0.0
 40
0.0
 40
0.005376748681016
 40
0.0150836882356765
 40
0.0285318202687823
 40
0.0466101396420035
 40
0.0648548493534998
 40
0.0921105256015583
 40
0.1194761759869733
 40
0.1468424958782228
 40
0.1742088539780639
 40
0.2015749556951018
 40
0.2289410132275484
 40
0.2563073451913733
 40
0.307035032226303
 40
0.3617673518776764
 40
0.4164996608459116
 40
0.4712319368225176
 40
0.5259642820500963
 40
0.5806966156417481
 40
0.6354289823118974
 40
0.6901613872558668
 40
0.7448936880503577
 40
0.7996260821878365
 40
0.8543584074477791
 40
0.9090909145836479
 40
0.9090909145836479
 40
0.9090909145836479
 40
0.9090909145836479
 40
0.9090909145836479
 10
-0.5995642541587356
 20
-0.7235640446391515
 30
0.0
 10
-0.5997309407185037
 20
-0.7237600141129099
 30
0.0
 10
-0.6002062790442966
 20
-0.7243030258073261
 30
0.0
 10
-0.6011357224156464
 20
-0.7253032940213522
 30
0.0
 10
-0.6026954292752149
 20
-0.7268973512700938
 30
0.0
 10
-0.6047455483485213
 20
-0.7288718089618126
 30
0.0
 10
-0.6074664668886642
 20
-0.7313577197750092
 30
0.0
 10
-0.6107622010497055
 20
-0.7342001159397058
 30
0.0
 10
-0.6144776055237328
 20
-0.7372324140372885
 30
0.0
 10
-0.6186193179858612
 20
-0.7404314681443639
 30
0.0
 10
-0.6228381918226397
 20
-0.7435335898285101
 30
0.0
 10
-0.627126569590598
 20
-0.7465439705796232
 30
0.0
 10
-0.631469799626976
 20
-0.7494662806628845
 30
0.0
 10
-0.6368139616832972
 20
-0.7529147574914076
 30
0.0
 10
-0.643336927811046
 20
-0.7569221428265813
 30
0.0
 10
-0.651125352998103
 20
-0.7614176905139787
 30
0.0
 10
-0.6601498324901347
 20
-0.766291996231996
 30
0.0
 10
-0.669547243715667
 20
-0.7710167217736635
 30
0.0
 10
-0.678957118817768
 20
-0.7754650732135137
 30
0.0
 10
-0.68864717695264
 20
-0.7797258123517646
 30
0.0
 10
-0.6981519409829297
 20
-0.7836824764639961
 30
0.0
 10
-0.708205986414611
 20
-0.7875495491845413
 30
0.0
 10
-0.7175791105511244
 20
-0.7909957991927331
 30
0.0
 10
-0.7282758787771324
 20
-0.7945853484402002
 30
0.0
 10
-0.7369658014713566
 20
-0.797403092778893
 30
0.0
 10
-0.7461018192212991
 20
-0.8000855795723204
 30
0.0
 10
-0.7505717137010961
 20
-0.8013574056075805
 30
0.0
 10
-0.7528658676025983
 20
-0.8019931330112087
 30
0.0
  0
LINE
  5
E2
330
1F
100
AcDbEntity
  8
0
  6
Continuous
 62
     7
370
    25
100
AcDbLine
 10
-0.5792988636
 20
-0.6991074366
 30
0.0
 11
-0.5995642542
 21
-0.7235640446
 31
0.0
  0
ARC
  5
E3
330
1F
100
AcDbEntity
  8
0
  6
Continuous
 62
     7
370
    25
100
AcDbCircle
 10
-0.5534649499
 20
-0.720514099
 30
0.0
 40
0.033550503583142
100
AcDbArc
 50
52.4702296547
 51
140.3539582918
  0
ARC
  5
E4
330
1F
100
AcDbEntity
  8
0
  6
Continuous
 62
     7
370
    25
100
AcDbCircle
 10
0.0
 20
0.0
 30
0.0
 40
0.8750000000000002
100
AcDbArc
 50
232.4702296547
 51
235.5297703453
  0
ARC
  5
E5
330
1F
100
AcDbEntity
  8
0
  6
Continuous
 62
     7
370
    25
100
AcDbCircle
 10
-0.5142195536
 20
-0.7490275484
 30
0.0
 40
0.0335505035831421
100
AcDbArc
 50
327.6460417082
 51
55.5297703453
  0
LINE
  5
E6
330
1F
100
AcDbEntity
  8
0
  6
Continuous
 62
     7
370
    25
100
AcDbLine
 10
-0.5028747559
 20
-0.7938130772
 30
0.0
 11
-0.4858774895
 21
-0.7669820379
 31
0.0
  0
SPLINE
  5
E7
330
1F
100
AcDbEntity
  8
0
  6
Continuous
 62
     7
370
    25
100
AcDbSpline
210
0.0
220
0.0
230
1.0
 70
     8
 71
     4
 72
    33
 73
    28
 74
     0
 42
0.00000001
 43
0.00000001
 40
0.0
 40
0.0
 40
0.0
 40
0.0
 40
0.0
 40
0.0547325071358687
 40
0.1094648323958114
 40
0.1641972265332902
 40
0.218929527327781
 40
0.2736619322717505
 40
0.3283942989418998
 40
0.3831266325335516
 40
0.4378589777611303
 40
0.4925912537377363
 40
0.5473235627059715
 40
0.602055882357345
 40
0.6527835693922746
 40
0.6801499013560994
 40
0.707515958888546
 40
0.734882060605584
 40
0.762248418705425
 40
0.7896147385966745
 40
0.8169803889820896
 40
0.8442360652301482
 40
0.8624807749416443
 40
0.8805590943148656
 40
0.8940072263479714
 40
0.9037141659026319
 40
0.9090909145836479
 40
0.9090909145836479
 40
0.9090909145836479
 40
0.9090909145836479
 40
0.9090909145836479
 10
-0.5300924476002432
 20
-0.9638474967521218
 30
0.0
 10
-0.5301967674537108
 20
-0.9614691761632029
 30
0.0
 10
-0.5303684623726029
 20
-0.9568250380322564
 30
0.0
 10
-0.5306404505734816
 20
-0.9473072348118298
 30
0.0
 10
-0.5306459502512335
 20
-0.9381718963209269
 30
0.0
 10
-0.530537569215594
 20
-0.9268894334766701
 30
0.0
 10
-0.5301564453370894
 20
-0.9169101128691993
 30
0.0
 10
-0.5295855115278351
 20
-0.9061531562571392
 30
0.0
 10
-0.5287596339539893
 20
-0.8958909120385715
 30
0.0
 10
-0.5277018228724782
 20
-0.8853584783038047
 30
0.0
 10
-0.5263790005703327
 20
-0.8750345390785619
 30
0.0
 10
-0.5247894793280429
 20
-0.8646370494100815
 30
0.0
 10
-0.5229424566409338
 20
-0.8545480160803666
 30
0.0
 10
-0.5210736924607373
 20
-0.8457515829201099
 30
0.0
 10
-0.5192781499116211
 20
-0.8383095233071641
 30
0.0
 10
-0.5176498904486584
 20
-0.8321612852146408
 30
0.0
 10
-0.5162127402930581
 20
-0.8271275845082137
 30
0.0
 10
-0.5146748796717814
 20
-0.8221188360760284
 30
0.0
 10
-0.5130282903424219
 20
-0.8171478403031129
 30
0.0
 10
-0.5112656686245192
 20
-0.8122202755923734
 30
0.0
 10
-0.5095299048829149
 20
-0.807749684312514
 30
0.0
 10
-0.5078450633532916
 20
-0.8037369061430418
 30
0.0
 10
-0.5063216317446864
 20
-0.8003809701473523
 30
0.0
 10
-0.5050773325249721
 20
-0.7978210500620879
 30
0.0
 10
-0.5040432699170586
 20
-0.7958450899099172
 30
0.0
 10
-0.5033791721111225
 20
-0.7946520368580006
 30
0.0
 10
-0.503009624921471
 20
-0.7940321634040916
 30
0.0
 10
-0.5028747558561606
 20
-0.7938130771674752
 30
0.0
  0
ARC
  5
E8
330
1F
100
AcDbEntity
  8
0
  6
Continuous
 62
     7
370
    25
100
AcDbCircle
 10
0.0
 20
0.0
 30
0.0
 40
1.099999999999552
100
AcDbArc
 50
241.1902868007
 51
244.8097131993
  0
SPLINE
  5
E9
330
1F
100
AcDbEntity
  8
0
  6
Continuous
 62
     7
370
    25
100
AcDbSpline
210
0.0
220
0.0
230
1.0
 70
     8
 71
     4
 72
    33
 73
    28
 74
     0
 42
0.00000001
 43
0.00000001
 40
0.0
 40
0.0
 40
0.0
 40
0.0
 40
0.0
 40
0.005376748681016
 40
0.0150836882356765
 40
0.0285318202687823
 40
0.0466101396420035
 40
0.0648548493534998
 40
0.0921105256015583
 40
0.1194761759869733
 40
0.1468424958782228
 40
0.1742088539780639
 40
0.2015749556951018
 40
0.2289410132275484
 40
0.2563073451913733
 40
0.307035032226303
 40
0.3617673518776764
 40
0.4164996608459116
 40
0.4712319368225176
 40
0.5259642820500963
 40
0.5806966156417481
 40
0.6354289823118974
 40
0.6901613872558668
 40
0.7448936880503577
 40
0.7996260821878365
 40
0.8543584074477791
 40
0.9090909145836479
 40
0.9090909145836479
 40
0.9090909145836479
 40
0.9090909145836479
 40
0.9090909145836479
 10
-0.3466259045431379
 20
-0.8734258433657324
 30
0.0
 10
-0.3467238749842141
 20
-0.8736637303904473
 30
0.0
 10
-0.3470081487546853
 20
-0.8743270528215942
 30
0.0
 10
-0.3475830020524677
 20
-0.8755655782216427
 30
0.0
 10
-0.3485737806449029
 20
-0.8775635926812559
 30
0.0
 10
-0.3499134187673366
 20
-0.8800749351692579
 30
0.0
 10
-0.3517329773874696
 20
-0.8832799869162913
 30
0.0
 10
-0.3539890581176669
 20
-0.8870017041753222
 30
0.0
 10
-0.3565855861091988
 20
-0.8910337141638286
 30
0.0
 10
-0.3595360266499157
 20
-0.8953560549549557
 30
0.0
 10
-0.3625898057847907
 20
-0.899610051709692
 30
0.0
 10
-0.3657380365937096
 20
-0.9037982755481663
 30
0.0
 10
-0.3689656503430148
 20
-0.9079196894872076
 30
0.0
 10
-0.3729826125460944
 20
-0.9128508227423643
 30
0.0
 10
-0.3779479718158849
 20
-0.9186777800658933
 30
0.0
 10
-0.3839660037072841
 20
-0.9253600557305269
 30
0.0
 10
-0.3910425504317064
 20
-0.9327845134744878
 30
0.0
 10
-0.3985199991279215
 20
-0.9401819542604163
 30
0.0
 10
-0.4060947059694323
 20
-0.9473203992055517
 30
0.0
 10
-0.4139938580995631
 20
-0.9543669955673757
 30
0.0
 10
-0.4218107494147048
 20
-0.961067140366988
 30
0.0
 10
-0.4301777236485006
 20
-0.9678518159774568
 30
0.0
 10
-0.438027144617179
 20
-0.9740258491530986
 30
0.0
 10
-0.4470911440222098
 20
-0.9807451965221909
 30
0.0
 10
-0.4544850207401928
 20
-0.9861103644290784
 30
0.0
 10
-0.4623449559479084
 20
-0.9914847457194865
 30
0.0
 10
-0.4662030623612873
 20
-0.9940755975152346
 30
0.0
 10
-0.468188481807184
 20
-0.9953891427483185
 30
0.0
  0
LINE
  5
EA
330
1F
100
AcDbEntity
  8
0
  6
Continuous
 62
     7
370
    25
100
AcDbLine
 10
-0.3349098803
 20
-0.8439038768
 30
0.0
 11
-0.3466259045
 21
-0.8734258434
 31
0.0
  0
ARC
  5
EB
330
1F
100
AcDbEntity
  8
0
  6
Continuous
 62
     7
370
    25
100
AcDbCircle
 10
-0.3037253459
 20
-0.8562797042
 30
0.0
 40
0.0335505035831421
100
AcDbArc
 50
70.4702296547
 51
158.3539582918
  0
ARC
  5
EC
330
1F
100
AcDbEntity
  8
0
  6
Continuous
 62
     7
370
    25
100
AcDbCircle
 10
0.0
 20
0.0
 30
0.0
 40
0.8750000000000003
100
AcDbArc
 50
250.4702296547
 51
253.5297703453
  0
ARC
  5
ED
330
1F
100
AcDbEntity
  8
0
  6
Continuous
 62
     7
370
    25
100
AcDbCircle
 10
-0.2575896155
 20
-0.8712701117
 30
0.0
 40
0.0335505035831419
100
AcDbArc
 50
345.6460417082
 51
73.5297703453
  0
LINE
  5
EE
330
1F
100
AcDbEntity
  8
0
  6
Continuous
 62
     7
370
    25
100
AcDbLine
 10
-0.2329605822
 20
-0.9103579454
 30
0.0
 11
-0.2250864684
 21
-0.8795876665
 31
0.0
  0
SPLINE
  5
EF
330
1F
100
AcDbEntity
  8
0
  6
Continuous
 62
     7
370
    25
100
AcDbSpline
210
0.0
220
0.0
230
1.0
 70
     8
 71
     4
 72
    33
 73
    28
 74
     0
 42
0.00000001
 43
0.00000001
 40
0.0
 40
0.0
 40
0.0
 40
0.0
 40
0.0
 40
0.0547325071358687
 40
0.1094648323958114
 40
0.1641972265332902
 40
0.218929527327781
 40
0.2736619322717505
 40
0.3283942989418998
 40
0.3831266325335516
 40
0.4378589777611303
 40
0.4925912537377363
 40
0.5473235627059715
 40
0.602055882357345
 40
0.6527835693922746
 40
0.6801499013560994
 40
0.707515958888546
 40
0.734882060605584
 40
0.762248418705425
 40
0.7896147385966745
 40
0.8169803889820896
 40
0.8442360652301482
 40
0.8624807749416443
 40
0.8805590943148656
 40
0.8940072263479714
 40
0.9037141659026319
 40
0.9090909145836479
 40
0.9090909145836479
 40
0.9090909145836479
 40
0.9090909145836479
 40
0.9090909145836479
 10
-0.2063026200469005
 20
-1.080481017399164
 30
0.0
 10
-0.2071367756033676
 20
-1.078251336712806
 30
0.0
 10
-0.2087351847814819
 20
-1.07388755552858
 30
0.0
 10
-0.2119350238765114
 20
-1.064919635731319
 30
0.0
 10
-0.2147632292239314
 20
-1.056233112024873
 30
0.0
 10
-0.218146625491023
 20
-1.045469360635104
 30
0.0
 10
-0.22086793480288
 20
-1.035860688987751
 30
0.0
 10
-0.223649026884096
 20
-1.025453787056624
 30
0.0
 10
-0.2260347784997913
 20
-1.015438602615151
 30
0.0
 10
-0.2282834413938822
 20
-1.005094781278229
 30
0.0
 10
-0.2302156352930203
 20
-0.9948673570323256
 30
0.0
 10
-0.2319169117641492
 20
-0.9844875676532184
 30
0.0
 10
-0.2332779715575262
 20
-0.9743215653625613
 30
0.0
 10
-0.2342189185429342
 20
-0.9653781803951843
 30
0.0
 10
-0.2348109789948637
 20
-0.9577455079438353
 30
0.0
 10
-0.2351623222784468
 20
-0.9513950261968995
 30
0.0
 10
-0.2353510103209518
 20
-0.9461635885174233
 30
0.0
 10
-0.2354362063420269
 20
-0.940924760615556
 30
0.0
 10
-0.2354063290034744
 20
-0.9356882386077204
 30
0.0
 10
-0.2352526773694004
 20
-0.9304571660146196
 30
0.0
 10
-0.2349833566325799
 20
-0.9256690005518411
 30
0.0
 10
-0.2346209937659307
 20
-0.9213319770598354
 30
0.0
 10
-0.2342091654621393
 20
-0.9176695260060386
 30
0.0
 10
-0.2338168253915975
 20
-0.9148503877227736
 30
0.0
 10
-0.2334439786773127
 20
-0.9126515950250192
 30
0.0
 10
-0.233181057799753
 20
-0.9113117166377468
 30
0.0
 10
-0.2330211489685763
 20
-0.9106079855883024
 30
0.0
 10
-0.2329605822355141
 20
-0.9103579453621414
 30
0.0
  0
ARC
  5
F0
330
1F
100
AcDbEntity
  8
0
  6
Continuous
 62
     7
370
    25
100
AcDbCircle
 10
0.0
 20
0.0
 30
0.0
 40
1.099999999999552
100
AcDbArc
 50
259.1902868007
 51
262.8097131993
  0
SPLINE
  5
F1
330
1F
100
AcDbEntity
  8
0
  6
Continuous
 62
     7
370
    25
100
AcDbSpline
210
0.0
220
0.0
230
1.0
 70
     8
 71
     4
 72
    33
 73
    28
 74
     0
 42
0.00000001
 43
0.00000001
 40
0.0
 40
0.0
 40
0.0
 40
0.0
 40
0.0
 40
0.005376748681016
 40
0.0150836882356765
 40
0.0285318202687823
 40
0.0466101396420035
 40
0.0648548493534998
 40
0.0921105256015583
 40
0.1194761759869733
 40
0.1468424958782228
 40
0.1742088539780639
 40
0.2015749556951018
 40
0.2289410132275484
 40
0.2563073451913733
 40
0.307035032226303
 40
0.3617673518776764
 40
0.4164996608459116
 40
0.4712319368225176
 40
0.5259642820500963
 40
0.5806966156417481
 40
0.6354289823118974
 40
0.6901613872558668
 40
0.7448936880503577
 40
0.7996260821878365
 40
0.8543584074477791
 40
0.9090909145836479
 40
0.9090909145836479
 40
0.9090909145836479
 40
0.9090909145836479
 40
0.9090909145836479
 10
-0.0597573963061702
 20
-0.9377906350279877
 30
0.0
 10
-0.0597770605991818
 20
-0.9380471535642239
 30
0.0
 10
-0.0598424431170257
 20
-0.9387658561109015
 30
0.0
 10
-0.0600064356952154
 20
-0.9401214032015018
 30
0.0
 10
-0.0603313017087293
 20
-0.9423277952956943
 30
0.0
 10
-0.0608293257670587
 20
-0.9451301948797022
 30
0.0
 10
-0.0615694133918328
 20
-0.9487406547646638
 30
0.0
 10
-0.0625649997902758
 20
-0.9529773855019861
 30
0.0
 10
-0.063788485048427
 20
-0.957614426151076
 30
0.0
 10
-0.0652588439906788
 20
-0.9626369527941
 30
0.0
 10
-0.0668486032449986
 20
-0.9676264137777343
 30
0.0
 10
-0.0685485163282871
 20
-0.9725825081731888
 30
0.0
 10
-0.0703445724686301
 20
-0.9774995932560773
 30
0.0
 10
-0.0726411265702095
 20
-0.9834306892576272
 30
0.0
 10
-0.0755628350210221
 20
-0.9905068353878858
 30
0.0
 10
-0.0792213867251396
 20
-0.9987217313295487
 30
0.0
 10
-0.0836572989833659
 20
-1.007969583446236
 30
0.0
 10
-0.0884828403734295
 20
-1.017315626431298
 30
0.0
 10
-0.0934809138726172
 20
-1.026445404154018
 30
0.0
 10
-0.0988159359508805
 20
-1.035588087790996
 30
0.0
 10
-0.1041797827654639
 20
-1.044375856422349
 30
0.0
 10
-0.1100406680672329
 20
-1.053414003602374
 30
0.0
 10
-0.1155980298535303
 20
-1.061711462561216
 30
0.0
 10
-0.1221420130232221
 20
-1.070902871515001
 30
0.0
 10
-0.1275160795956395
 20
-1.078290282974034
 30
0.0
 10
-0.1333305470396084
 20
-1.085830476875201
 30
0.0
 10
-0.1361992070498195
 20
-1.089486743806143
 30
0.0
 10
-0.1376815453515155
 20
-1.091349527909261
 30
0.0
  0
LINE
  5
F2
330
1F
100
AcDbEntity
  8
0
  6
Continuous
 62
     7
370
    25
100
AcDbLine
 10
-0.0577375845
 20
-0.9060931258
 30
0.0
 11
-0.0597573963
 21
-0.937790635
 31
0.0
  0
ARC
  5
F3
330
1F
100
AcDbEntity
  8
0
  6
Continuous
 62
     7
370
    25
100
AcDbCircle
 10
-0.0242549888
 20
-0.908226686
 30
0.0
 40
0.0335505035831422
100
AcDbArc
 50
88.4702296547
 51
176.3539582918
  0
ARC
  5
F4
330
1F
100
AcDbEntity
  8
0
  6
Continuous
 62
     7
370
    25
100
AcDbCircle
 10
0.0
 20
0.0
 30
0.0
 40
0.8750000000000002
100
AcDbArc
 50
268.4702296547
 51
271.5297703453
  0
ARC
  5
F5
330
1F
100
AcDbEntity
  8
0
  6
Continuous
 62
     7
370
    25
100
AcDbCircle
 10
0.0242549888
 20
-0.908226686
 30
0.0
 40
0.0335505035831421
100
AcDbArc
 50
3.6460417082
 51
91.5297703453
  0
LINE
  5
F6
330
1F
100
AcDbEntity
  8
0
  6
Continuous
 62
     7
370
    25
100
AcDbLine
 10
0.0597573963
 20
-0.937790635
 30
0.0
 11
0.0577375845
 21
-0.9060931258
 31
0.0
  0
SPLINE
  5
F7
330
1F
100
AcDbEntity
  8
0
  6
Continuous
 62
     7
370
    25
100
AcDbSpline
210
0.0
220
0.0
230
1.0
 70
     8
 71
     4
 72
    33
 73
    28
 74
     0
 42
0.00000001
 43
0.00000001
 40
0.0
 40
0.0
 40
0.0
 40
0.0
 40
0.0
 40
0.0547325071358687
 40
0.1094648323958114
 40
0.1641972265332902
 40
0.218929527327781
 40
0.2736619322717505
 40
0.3283942989418998
 40
0.3831266325335516
 40
0.4378589777611303
 40
0.4925912537377363
 40
0.5473235627059715
 40
0.602055882357345
 40
0.6527835693922746
 40
0.6801499013560994
 40
0.707515958888546
 40
0.734882060605584
 40
0.762248418705425
 40
0.7896147385966745
 40
0.8169803889820896
 40
0.8442360652301482
 40
0.8624807749416443
 40
0.8805590943148656
 40
0.8940072263479714
 40
0.9037141659026319
 40
0.9090909145836479
 40
0.9090909145836479
 40
0.9090909145836479
 40
0.9090909145836479
 40
0.9090909145836479
 10
0.1376815453515079
 20
-1.091349527909262
 30
0.0
 10
0.1361992070498119
 20
-1.089486743806144
 30
0.0
 10
0.1333305470396008
 20
-1.085830476875202
 30
0.0
 10
0.127516079595632
 20
-1.078290282974034
 30
0.0
 10
0.1221420130232146
 20
-1.070902871515002
 30
0.0
 10
0.1155980298535229
 20
-1.061711462561217
 30
0.0
 10
0.1100406680672256
 20
-1.053414003602375
 30
0.0
 10
0.1041797827654566
 20
-1.04437585642235
 30
0.0
 10
0.0988159359508732
 20
-1.035588087790997
 30
0.0
 10
0.09348091387261
 20
-1.026445404154019
 30
0.0
 10
0.0884828403734224
 20
-1.017315626431298
 30
0.0
 10
0.0836572989833588
 20
-1.007969583446236
 30
0.0
 10
0.0792213867251326
 20
-0.9987217313295492
 30
0.0
 10
0.0755628350210152
 20
-0.9905068353878863
 30
0.0
 10
0.0726411265702026
 20
-0.9834306892576278
 30
0.0
 10
0.0703445724686233
 20
-0.9774995932560778
 30
0.0
 10
0.0685485163282803
 20
-0.9725825081731894
 30
0.0
 10
0.0668486032449918
 20
-0.9676264137777348
 30
0.0
 10
0.0652588439906721
 20
-0.9626369527941006
 30
0.0
 10
0.0637884850484203
 20
-0.9576144261510765
 30
0.0
 10
0.0625649997902692
 20
-0.9529773855019866
 30
0.0
 10
0.0615694133918261
 20
-0.9487406547646644
 30
0.0
 10
0.0608293257670521
 20
-0.9451301948797027
 30
0.0
 10
0.0603313017087227
 20
-0.9423277952956949
 30
0.0
 10
0.0600064356952088
 20
-0.9401214032015024
 30
0.0
 10
0.0598424431170191
 20
-0.938765856110902
 30
0.0
 10
0.0597770605991752
 20
-0.9380471535642244
 30
0.0
 10
0.0597573963061636
 20
-0.9377906350279882
 30
0.0
  0
ARC
  5
F8
330
1F
100
AcDbEntity
  8
0
  6
Continuous
 62
     7
370
    25
100
AcDbCircle
 10
0.0
 20
0.0
 30
0.0
 40
1.099999999999552
100
AcDbArc
 50
277.1902868007
 51
280.8097131993
  0
SPLINE
  5
F9
330
1F
100
AcDbEntity
  8
0
  6
Continuous
 62
     7
370
    25
100
AcDbSpline
210
0.0
220
0.0
230
1.0
 70
     8
 71
     4
 72
    33
 73
    28
 74
     0
 42
0.00000001
 43
0.00000001
 40
0.0
 40
0.0
 40
0.0
 40
0.0
 40
0.0
 40
0.005376748681016
 40
0.0150836882356765
 40
0.0285318202687823
 40
0.0466101396420035
 40
0.0648548493534998
 40
0.0921105256015583
 40
0.1194761759869733
 40
0.1468424958782228
 40
0.1742088539780639
 40
0.2015749556951018
 40
0.2289410132275484
 40
0.2563073451913733
 40
0.307035032226303
 40
0.3617673518776764
 40
0.4164996608459116
 40
0.4712319368225176
 40
0.5259642820500963
 40
0.5806966156417481
 40
0.6354289823118974
 40
0.6901613872558668
 40
0.7448936880503577
 40
0.7996260821878365
 40
0.8543584074477791
 40
0.9090909145836479
 40
0.9090909145836479
 40
0.9090909145836479
 40
0.9090909145836479
 40
0.9090909145836479
 10
0.2329605822355076
 20
-0.910357945362143
 30
0.0
 10
0.2330211489685698
 20
-0.910607985588304
 30
0.0
 10
0.2331810577997465
 20
-0.9113117166377486
 30
0.0
 10
0.2334439786773062
 20
-0.9126515950250209
 30
0.0
 10
0.2338168253915909
 20
-0.9148503877227753
 30
0.0
 10
0.2342091654621327
 20
-0.9176695260060403
 30
0.0
 10
0.2346209937659241
 20
-0.9213319770598372
 30
0.0
 10
0.2349833566325733
 20
-0.9256690005518428
 30
0.0
 10
0.2352526773693937
 20
-0.930457166014621
 30
0.0
 10
0.2354063290034677
 20
-0.9356882386077222
 30
0.0
 10
0.2354362063420201
 20
-0.9409247606155577
 30
0.0
 10
0.235351010320945
 20
-0.9461635885174251
 30
0.0
 10
0.23516232227844
 20
-0.9513950261969012
 30
0.0
 10
0.2348109789948568
 20
-0.957745507943837
 30
0.0
 10
0.2342189185429272
 20
-0.9653781803951861
 30
0.0
 10
0.2332779715575192
 20
-0.9743215653625629
 30
0.0
 10
0.2319169117641421
 20
-0.9844875676532202
 30
0.0
 10
0.2302156352930131
 20
-0.9948673570323274
 30
0.0
 10
0.2282834413938749
 20
-1.005094781278231
 30
0.0
 10
0.2260347784997841
 20
-1.015438602615153
 30
0.0
 10
0.2236490268840886
 20
-1.025453787056625
 30
0.0
 10
0.2208679348028726
 20
-1.035860688987752
 30
0.0
 10
0.2181466254910154
 20
-1.045469360635106
 30
0.0
 10
0.2147632292239238
 20
-1.056233112024875
 30
0.0
 10
0.2119350238765037
 20
-1.064919635731321
 30
0.0
 10
0.2087351847814742
 20
-1.073887555528582
 30
0.0
 10
0.2071367756033599
 20
-1.078251336712807
 30
0.0
 10
0.2063026200468928
 20
-1.080481017399165
 30
0.0
  0
LINE
  5
FA
330
1F
100
AcDbEntity
  8
0
  6
Continuous
 62
     7
370
    25
100
AcDbLine
 10
0.2250864684
 20
-0.8795876665
 30
0.0
 11
0.2329605822
 21
-0.9103579454
 31
0.0
  0
ARC
  5
FB
330
1F
100
AcDbEntity
  8
0
  6
Continuous
 62
     7
370
    25
100
AcDbCircle
 10
0.2575896155
 20
-0.8712701117
 30
0.0
 40
0.033550503583142
100
AcDbArc
 50
106.4702296547
 51
194.3539582918
  0
ARC
  5
FC
330
1F
100
AcDbEntity
  8
0
  6
Continuous
 62
     7
370
    25
100
AcDbCircle
 10
0.0
 20
0.0
 30
0.0
 40
0.8750000000000002
100
AcDbArc
 50
286.4702296547
 51
289.5297703453
  0
ARC
  5
FD
330
1F
100
AcDbEntity
  8
0
  6
Continuous
 62
     7
370
    25
100
AcDbCircle
 10
0.3037253459
 20
-0.8562797042
 30
0.0
 40
0.033550503583142
100
AcDbArc
 50
21.6460417082
 51
109.5297703453
  0
LINE
  5
FE
330
1F
100
AcDbEntity
  8
0
  6
Continuous
 62
     7
370
    25
100
AcDbLine
 10
0.3466259045
 20
-0.8734258434
 30
0.0
 11
0.3349098803
 21
-0.8439038768
 31
0.0
  0
SPLINE
  5
FF
330
1F
100
AcDbEntity
  8
0
  6
Continuous
 62
     7
370
    25
100
AcDbSpline
210
0.0
220
0.0
230
1.0
 70
     8
 71
     4
 72
    33
 73
    28
 74
     0
 42
0.00000001
 43
0.00000001
 40
0.0
 40
0.0
 40
0.0
 40
0.0
 40
0.0
 40
0.0547325071358687
 40
0.1094648323958114
 40
0.1641972265332902
 40
0.218929527327781
 40
0.2736619322717505
 40
0.3283942989418998
 40
0.3831266325335516
 40
0.4378589777611303
 40
0.4925912537377363
 40
0.5473235627059715
 40
0.602055882357345
 40
0.6527835693922746
 40
0.6801499013560994
 40
0.707515958888546
 40
0.734882060605584
 40
0.762248418705425
 40
0.7896147385966745
 40
0.8169803889820896
 40
0.8442360652301482
 40
0.8624807749416443
 40
0.8805590943148656
 40
0.8940072263479714
 40
0.9037141659026319
 40
0.9090909145836479
 40
0.9090909145836479
 40
0.9090909145836479
 40
0.9090909145836479
 40
0.9090909145836479
 10
0.4681884818071769
 20
-0.995389142748322
 30
0.0
 10
0.4662030623612803
 20
-0.994075597515238
 30
0.0
 10
0.4623449559479015
 20
-0.9914847457194901
 30
0.0
 10
0.4544850207401857
 20
-0.9861103644290816
 30
0.0
 10
0.4470911440222028
 20
-0.9807451965221942
 30
0.0
 10
0.438027144617172
 20
-0.9740258491531019
 30
0.0
 10
0.4301777236484937
 20
-0.9678518159774598
 30
0.0
 10
0.421810749414698
 20
-0.961067140366991
 30
0.0
 10
0.4139938580995562
 20
-0.9543669955673787
 30
0.0
 10
0.4060947059694254
 20
-0.9473203992055547
 30
0.0
 10
0.3985199991279147
 20
-0.9401819542604193
 30
0.0
 10
0.3910425504316997
 20
-0.9327845134744907
 30
0.0
 10
0.3839660037072774
 20
-0.9253600557305296
 30
0.0
 10
0.3779479718158783
 20
-0.9186777800658962
 30
0.0
 10
0.3729826125460879
 20
-0.912850822742367
 30
0.0
 10
0.3689656503430083
 20
-0.9079196894872102
 30
0.0
 10
0.3657380365937031
 20
-0.9037982755481688
 30
0.0
 10
0.3625898057847843
 20
-0.8996100517096945
 30
0.0
 10
0.3595360266499092
 20
-0.8953560549549583
 30
0.0
 10
0.3565855861091925
 20
-0.8910337141638313
 30
0.0
 10
0.3539890581176605
 20
-0.8870017041753246
 30
0.0
 10
0.3517329773874632
 20
-0.8832799869162938
 30
0.0
 10
0.3499134187673302
 20
-0.8800749351692606
 30
0.0
 10
0.3485737806448966
 20
-0.8775635926812584
 30
0.0
 10
0.3475830020524614
 20
-0.8755655782216453
 30
0.0
 10
0.347008148754679
 20
-0.8743270528215968
 30
0.0
 10
0.3467238749842079
 20
-0.8736637303904498
 30
0.0
 10
0.3466259045431316
 20
-0.8734258433657348
 30
0.0
  0
ARC
  5
100
330
1F
100
AcDbEntity
  8
0
  6
Continuous
 62
     7
370
    25
100
AcDbCircle
 10
0.0
 20
0.0
 30
0.0
 40
1.099999999999552
100
AcDbArc
 50
295.1902868007
 51
298.8097131993
  0
SPLINE
  5
101
330
1F
100
AcDbEntity
  8
0
  6
Continuous
 62
     7
370
    25
100
AcDbSpline
210
0.0
220
0.0
230
1.0
 70
     8
 71
     4
 72
    33
 73
    28
 74
     0
 42
0.00000001
 43
0.00000001
 40
0.0
 40
0.0
 40
0.0
 40
0.0
 40
0.0
 40
0.005376748681016
 40
0.0150836882356765
 40
0.0285318202687823
 40
0.0466101396420035
 40
0.0648548493534998
 40
0.0921105256015583
 40
0.1194761759869733
 40
0.1468424958782228
 40
0.1742088539780639
 40
0.2015749556951018
 40
0.2289410132275484
 40
0.2563073451913733
 40
0.307035032226303
 40
0.3617673518776764
 40
0.4164996608459116
 40
0.4712319368225176
 40
0.5259642820500963
 40
0.5806966156417481
 40
0.6354289823118974
 40
0.6901613872558668
 40
0.7448936880503577
 40
0.7996260821878365
 40
0.8543584074477791
 40
0.9090909145836479
 40
0.9090909145836479
 40
0.9090909145836479
 40
0.9090909145836479
 40
0.9090909145836479
 10
0.502874755856155
 20
-0.7938130771674787
 30
0.0
 10
0.5030096249214655
 20
-0.794032163404095
 30
0.0
 10
0.5033791721111169
 20
-0.7946520368580041
 30
0.0
 10
0.5040432699170531
 20
-0.7958450899099208
 30
0.0
 10
0.5050773325249664
 20
-0.7978210500620915
 30
0.0
 10
0.5063216317446807
 20
-0.800380970147356
 30
0.0
 10
0.507845063353286
 20
-0.8037369061430454
 30
0.0
 10
0.5095299048829093
 20
-0.8077496843125175
 30
0.0
 10
0.5112656686245135
 20
-0.8122202755923772
 30
0.0
 10
0.5130282903424161
 20
-0.8171478403031166
 30
0.0
 10
0.5146748796717755
 20
-0.8221188360760321
 30
0.0
 10
0.5162127402930523
 20
-0.8271275845082172
 30
0.0
 10
0.5176498904486525
 20
-0.8321612852146444
 30
0.0
 10
0.5192781499116154
 20
-0.8383095233071678
 30
0.0
 10
0.5210736924607313
 20
-0.8457515829201134
 30
0.0
 10
0.5229424566409278
 20
-0.8545480160803702
 30
0.0
 10
0.5247894793280369
 20
-0.8646370494100852
 30
0.0
 10
0.5263790005703267
 20
-0.8750345390785655
 30
0.0
 10
0.5277018228724721
 20
-0.8853584783038083
 30
0.0
 10
0.5287596339539828
 20
-0.8958909120385752
 30
0.0
 10
0.5295855115278287
 20
-0.9061531562571429
 30
0.0
 10
0.5301564453370831
 20
-0.9169101128692031
 30
0.0
 10
0.5305375692155875
 20
-0.9268894334766737
 30
0.0
 10
0.530645950251227
 20
-0.9381718963209306
 30
0.0
 10
0.530640450573475
 20
-0.9473072348118334
 30
0.0
 10
0.5303684623725963
 20
-0.95682503803226
 30
0.0
 10
0.5301967674537041
 20
-0.9614691761632068
 30
0.0
 10
0.5300924476002364
 20
-0.9638474967521253
 30
0.0
  0
LINE
  5
102
330
1F
100
AcDbEntity
  8
0
  6
Continuous
 62
     7
370
    25
100
AcDbLine
 10
0.4858774895
 20
-0.7669820379
 30
0.0
 11
0.5028747559
 21
-0.7938130772
 31
0.0
  0
ARC
  5
103
330
1F
100
AcDbEntity
  8
0
  6
Continuous
 62
     7
370
    25
100
AcDbCircle
 10
0.5142195536
 20
-0.7490275484
 30
0.0
 40
0.0335505035831422
100
AcDbArc
 50
124.4702296547
 51
212.3539582918
  0
ARC
  5
104
330
1F
100
AcDbEntity
  8
0
  6
Continuous
 62
     7
370
    25
100
AcDbCircle
 10
0.0
 20
0.0
 30
0.0
 40
0.8750000000000002
100
AcDbArc
 50
304.4702296547
 51
307.5297703453
  0
ARC
  5
105
330
1F
100
AcDbEntity
  8
0
  6
Continuous
 62
     7
370
    25
100
AcDbCircle
 10
0.5534649499
 20
-0.720514099
 30
0.0
 40
0.0335505035831422
100
AcDbArc
 50
39.6460417082
 51
127.5297703453
  0
LINE
  5
106
330
1F
100
AcDbEntity
  8
0
  6
Continuous
 62
     7
370
    25
100
AcDbLine
 10
0.5995642542
 20
-0.7235640446
 30
0.0
 11
0.5792988636
 21
-0.6991074366
 31
0.0
  0
MTEXT
  5
108
330
1F
100
AcDbEntity
  8
0
  6
Continuous
 62
     7
100
AcDbMText
 10
-1.0913495279
 20
-1.131489937
 30
0.0
 40
0.1903
 41
0.0
 71
     1
 72
     1
  1
SOLIDWORKS Educational Product.
  7
SLDTEXTSTYLE0
 73
     1
 44
1.0
  0
MTEXT
  5
109
330
1F
100
AcDbEntity
  8
0
  6
Continuous
 62
     7
100
AcDbMText
 10
-1.0913495279
 20
-1.416939937
 30
0.0
 40
0.1903
 41
0.0
 71
     1
 72
     1
  1
For Instructional Use Only.
  7
SLDTEXTSTYLE0
 73
     1
 44
1.0
  0
ENDSEC
  0
SECTION
  2
OBJECTS
  0
DICTIONARY
  5
C
330
0
100
AcDbDictionary
281
     1
  3
ACAD_GROUP
350
D
  3
ACAD_LAYOUT
350
1A
  3
ACAD_MLINESTYLE
350
17
  3
ACAD_PLOTSETTINGS
350
19
  3
ACAD_PLOTSTYLENAME
350
E
  3
ACAD_SCALELIST
350
47
  3
DWGPROPS
350
10A
  0
DICTIONARY
  5
D
102
{ACAD_REACTORS
330
C
102
}
330
C
100
AcDbDictionary
281
     1
  0
DICTIONARY
  5
1A
102
{ACAD_REACTORS
330
C
102
}
330
C
100
AcDbDictionary
281
     1
  3
Layout1
350
1E
  3
Layout2
350
26
  3
Model
350
22
  0
DICTIONARY
  5
17
102
{ACAD_REACTORS
330
C
102
}
330
C
100
AcDbDictionary
281
     1
  3
Standard
350
18
  0
DICTIONARY
  5
19
102
{ACAD_REACTORS
330
C
102
}
330
C
100
AcDbDictionary
281
     1
  0
ACDBDICTIONARYWDFLT
  5
E
102
{ACAD_REACTORS
330
C
102
}
330
C
100
AcDbDictionary
281
     1
  3
Normal
350
F
100
AcDbDictionaryWithDefault
340
F
  0
DICTIONARY
  5
47
102
{ACAD_REACTORS
330
C
102
}
330
C
100
AcDbDictionary
281
     1
  3
A0
350
48
  3
A1
350
49
  3
A2
350
4A
  3
A3
350
4B
  3
A4
350
4C
  3
A5
350
4D
  3
A6
350
4E
  3
A7
350
4F
  3
A8
350
50
  3
A9
350
51
  3
B1
350
52
  3
B2
350
53
  3
B3
350
54
  3
B4
350
55
  3
B5
350
56
  3
B6
350
57
  3
B7
350
58
  0
XRECORD
  5
10A
102
{ACAD_REACTORS
330
C
102
}
330
C
100
AcDbXrecord
280
     1
  1
DWGPROPS COOKIE
  2

  3

  4

  6

  7

  8
kevin
  9

300
=
301
=
302
=
303
=
304
=
305
=
306
=
307
=
308
=
309
=
 40
0.0
 41
2460483.918797431
 42
2460483.918828843
  1

 90
        0
  0
LAYOUT
  5
1E
102
{ACAD_REACTORS
330
1A
102
}
330
1A
100
AcDbPlotSettings
  1

  2
none_device
  4

  6

 40
0.0
 41
0.0
 42
0.0
 43
0.0
 44
0.0
 45
0.0
 46
0.0
 47
0.0
 48
0.0
 49
0.0
140
0.0
141
0.0
142
1.0
143
1.0
 70
   688
 72
     0
 73
     0
 74
     5
  7

 75
    16
147
1.0
148
0.0
149
0.0
100
AcDbLayout
  1
Layout1
 70
     1
 71
     1
 10
0.0
 20
0.0
 11
12.0
 21
9.0
 12
0.0
 22
0.0
 32
0.0
 14
1.0000000000E+20
 24
1.0000000000E+20
 34
1.0000000000E+20
 15
-1.0000000000E+20
 25
-1.0000000000E+20
 35
-1.0000000000E+20
146
0.0
 13
0.0
 23
0.0
 33
0.0
 16
1.0
 26
0.0
 36
0.0
 17
0.0
 27
1.0
 37
0.0
 76
     0
330
1B
  0
LAYOUT
  5
26
102
{ACAD_REACTORS
330
1A
102
}
330
1A
100
AcDbPlotSettings
  1

  2
none_device
  4

  6

 40
0.0
 41
0.0
 42
0.0
 43
0.0
 44
0.0
 45
0.0
 46
0.0
 47
0.0
 48
0.0
 49
0.0
140
0.0
141
0.0
142
1.0
143
1.0
 70
   688
 72
     0
 73
     0
 74
     5
  7

 75
    16
147
1.0
148
0.0
149
0.0
100
AcDbLayout
  1
Layout2
 70
     1
 71
     2
 10
0.0
 20
0.0
 11
0.0
 21
0.0
 12
0.0
 22
0.0
 32
0.0
 14
0.0
 24
0.0
 34
0.0
 15
0.0
 25
0.0
 35
0.0
146
0.0
 13
0.0
 23
0.0
 33
0.0
 16
1.0
 26
0.0
 36
0.0
 17
0.0
 27
1.0
 37
0.0
 76
     0
330
23
  0
LAYOUT
  5
22
102
{ACAD_REACTORS
330
1A
102
}
330
1A
100
AcDbPlotSettings
  1

  2
none_device
  4
ANSI_A_(11.00_x_8.50_Inches)
  6

 40
6.35
 41
19.05
 42
6.35000508
 43
19.05000254
 44
279.4
 45
215.9
 46
133.34999746
 47
88.89999873
 48
0.0
 49
0.0
140
0.0
141
0.0
142
3.8553184772
143
1.0
 70
  1696
 72
     0
 73
     0
 74
     0
  7

 75
     0
147
0.5913241897
148
-39.4088153714
149
0.0
100
AcDbLayout
  1
Model
 70
     1
 71
     0
 10
0.0
 20
0.0
 11
12.0
 21
9.0
 12
0.0
 22
0.0
 32
0.0
 14
-1.0913495279
 24
-1.0913495279
 34
0.0
 15
1.0913495279
 25
1.0913495279
 35
0.0
146
0.0
 13
0.0
 23
0.0
 33
0.0
 16
1.0
 26
0.0
 36
0.0
 17
0.0
 27
1.0
 37
0.0
 76
     0
330
1F
331
29
  0
MLINESTYLE
  5
18
102
{ACAD_REACTORS
330
17
102
}
330
17
100
AcDbMlineStyle
  2
Standard
 70
     0
  3

 62
   256
 51
90.0
 52
90.0
 71
     2
 49
0.5
 62
   256
  6
BYLAYER
 49
-0.5
 62
   256
  6
BYLAYER
  0
ACDBPLACEHOLDER
  5
F
102
{ACAD_REACTORS
330
E
102
}
330
E
  0
SCALE
  5
48
102
{ACAD_REACTORS
330
47
102
}
330
47
100
AcDbScale
 70
     0
300
1:1
140
1.0
141
1.0
290
     1
  0
SCALE
  5
49
102
{ACAD_REACTORS
330
47
102
}
330
47
100
AcDbScale
 70
     0
300
1/128" = 1'-0"
140
0.0078125
141
12.0
290
     0
  0
SCALE
  5
4A
102
{ACAD_REACTORS
330
47
102
}
330
47
100
AcDbScale
 70
     0
300
1/64" = 1'-0"
140
0.015625
141
12.0
290
     0
  0
SCALE
  5
4B
102
{ACAD_REACTORS
330
47
102
}
330
47
100
AcDbScale
 70
     0
300
1/32" = 1'-0"
140
0.03125
141
12.0
290
     0
  0
SCALE
  5
4C
102
{ACAD_REACTORS
330
47
102
}
330
47
100
AcDbScale
 70
     0
300
1/16" = 1'-0"
140
0.0625
141
12.0
290
     0
  0
SCALE
  5
4D
102
{ACAD_REACTORS
330
47
102
}
330
47
100
AcDbScale
 70
     0
300
3/32" = 1'-0"
140
0.09375
141
12.0
290
     0
  0
SCALE
  5
4E
102
{ACAD_REACTORS
330
47
102
}
330
47
100
AcDbScale
 70
     0
300
1/8" = 1'-0"
140
0.125
141
12.0
290
     0
  0
SCALE
  5
4F
102
{ACAD_REACTORS
330
47
102
}
330
47
100
AcDbScale
 70
     0
300
3/16" = 1'-0"
140
0.1875
141
12.0
290
     0
  0
SCALE
  5
50
102
{ACAD_REACTORS
330
47
102
}
330
47
100
AcDbScale
 70
     0
300
1/4" = 1'-0"
140
0.25
141
12.0
290
     0
  0
SCALE
  5
51
102
{ACAD_REACTORS
330
47
102
}
330
47
100
AcDbScale
 70
     0
300
3/8" = 1'-0"
140
0.375
141
12.0
290
     0
  0
SCALE
  5
52
102
{ACAD_REACTORS
330
47
102
}
330
47
100
AcDbScale
 70
     0
300
1/2" = 1'-0"
140
0.5
141
12.0
290
     0
  0
SCALE
  5
53
102
{ACAD_REACTORS
330
47
102
}
330
47
100
AcDbScale
 70
     0
300
3/4" = 1'-0"
140
0.75
141
12.0
290
     0
  0
SCALE
  5
54
102
{ACAD_REACTORS
330
47
102
}
330
47
100
AcDbScale
 70
     0
300
1" = 1'-0"
140
1.0
141
12.0
290
     0
  0
SCALE
  5
55
102
{ACAD_REACTORS
330
47
102
}
330
47
100
AcDbScale
 70
     0
300
1-1/2" = 1'-0"
140
1.5
141
12.0
290
     0
  0
SCALE
  5
56
102
{ACAD_REACTORS
330
47
102
}
330
47
100
AcDbScale
 70
     0
300
3" = 1'-0"
140
3.0
141
12.0
290
     0
  0
SCALE
  5
57
102
{ACAD_REACTORS
330
47
102
}
330
47
100
AcDbScale
 70
     0
300
6" = 1'-0"
140
6.0
141
12.0
290
     0
  0
SCALE
  5
58
102
{ACAD_REACTORS
330
47
102
}
330
47
100
AcDbScale
 70
     0
300
1'-0" = 1'-0"
140
12.0
141
12.0
290
     0
  0
ENDSEC
  0
EOF
