  0
SECTION
  2
HEADER
  9
$ACADVER
  1
AC1015
  9
$ACADMAINTVER
 70
     6
  9
$DWGCODEPAGE
  3
ANSI_1252
  9
$INSBASE
 10
0.0
 20
0.0
 30
0.0
  9
$EXTMIN
 10
-3.0624467291
 20
-3.0624467291
 30
0.0
  9
$EXTMAX
 10
3.0624467291
 20
3.0624467291
 30
0.0
  9
$LIMMIN
 10
0.0
 20
0.0
  9
$LIMMAX
 10
12.0
 20
9.0
  9
$ORTHOMODE
 70
     0
  9
$REGENMODE
 70
     1
  9
$FILLMODE
 70
     1
  9
$QTEXTMODE
 70
     0
  9
$MIRRTEXT
 70
     1
  9
$LTSCALE
 40
1.0
  9
$ATTMODE
 70
     1
  9
$TEXTSIZE
 40
0.1377952756
  9
$TRACEWID
 40
0.05
  9
$TEXTSTYLE
  7
Standard
  9
$CLAYER
  8
0
  9
$CELTYPE
  6
ByLayer
  9
$CECOLOR
 62
   256
  9
$CELTSCALE
 40
1.0
  9
$DISPSILH
 70
     0
  9
$DIMSCALE
 40
1.0
  9
$DIMASZ
 40
0.236
  9
$DIMEXO
 40
0.0
  9
$DIMDLI
 40
0.38
  9
$DIMRND
 40
0.0
  9
$DIMDLE
 40
0.0
  9
$DIMEXE
 40
0.039
  9
$DIMTP
 40
0.0
  9
$DIMTM
 40
0.0
  9
$DIMTXT
 40
0.25
  9
$DIMCEN
 40
0.09
  9
$DIMTSZ
 40
0.0
  9
$DIMTOL
 70
     0
  9
$DIMLIM
 70
     0
  9
$DIMTIH
 70
     1
  9
$DIMTOH
 70
     1
  9
$DIMSE1
 70
     0
  9
$DIMSE2
 70
     0
  9
$DIMTAD
 70
     1
  9
$DIMZIN
 70
     0
  9
$DIMBLK
  1

  9
$DIMASO
 70
     1
  9
$DIMSHO
 70
     1
  9
$DIMPOST
  1

  9
$DIMAPOST
  1

  9
$DIMALT
 70
     0
  9
$DIMALTD
 70
     2
  9
$DIMALTF
 40
25.4
  9
$DIMLFAC
 40
1.0
  9
$DIMTOFL
 70
     0
  9
$DIMTVP
 40
0.0
  9
$DIMTIX
 70
     0
  9
$DIMSOXD
 70
     0
  9
$DIMSAH
 70
     0
  9
$DIMBLK1
  1

  9
$DIMBLK2
  1

  9
$DIMSTYLE
  2
Standard
  9
$DIMCLRD
 70
     0
  9
$DIMCLRE
 70
     0
  9
$DIMCLRT
 70
     0
  9
$DIMTFAC
 40
1.0
  9
$DIMGAP
 40
0.06
  9
$DIMJUST
 70
     0
  9
$DIMSD1
 70
     0
  9
$DIMSD2
 70
     0
  9
$DIMTOLJ
 70
     1
  9
$DIMTZIN
 70
     0
  9
$DIMALTZ
 70
     0
  9
$DIMALTTZ
 70
     0
  9
$DIMUPT
 70
     0
  9
$DIMDEC
 70
     2
  9
$DIMTDEC
 70
     2
  9
$DIMALTU
 70
     2
  9
$DIMALTTD
 70
     2
  9
$DIMTXSTY
  7
Standard
  9
$DIMAUNIT
 70
     0
  9
$DIMADEC
 70
     2
  9
$DIMALTRND
 40
0.0
  9
$DIMAZIN
 70
     0
  9
$DIMDSEP
 70
    46
  9
$DIMATFIT
 70
     3
  9
$DIMFRAC
 70
     0
  9
$DIMLDRBLK
  1

  9
$DIMLUNIT
 70
     2
  9
$DIMLWD
 70
    -2
  9
$DIMLWE
 70
    -2
  9
$DIMTMOVE
 70
     0
  9
$LUNITS
 70
     2
  9
$LUPREC
 70
     6
  9
$SKETCHINC
 40
0.1
  9
$FILLETRAD
 40
0.0
  9
$AUNITS
 70
     0
  9
$AUPREC
 70
     2
  9
$MENU
  1
.
  9
$ELEVATION
 40
0.0
  9
$PELEVATION
 40
0.0
  9
$THICKNESS
 40
0.0
  9
$LIMCHECK
 70
     0
  9
$CHAMFERA
 40
0.0
  9
$CHAMFERB
 40
0.0
  9
$CHAMFERC
 40
0.0
  9
$CHAMFERD
 40
0.0
  9
$SKPOLY
 70
     0
  9
$TDCREATE
 40
2460489.617421563
  9
$TDUCREATE
 40
2460489.90908823
  9
$TDUPDATE
 40
2460489.617447072
  9
$TDUUPDATE
 40
2460489.909113738
  9
$TDINDWG
 40
0.0000000116
  9
$TDUSRTIMER
 40
0.0000000116
  9
$USRTIMER
 70
     1
  9
$ANGBASE
 50
0.0
  9
$ANGDIR
 70
     0
  9
$PDMODE
 70
     0
  9
$PDSIZE
 40
-1.0
  9
$PLINEWID
 40
0.0
  9
$SPLFRAME
 70
     0
  9
$SPLINETYPE
 70
     6
  9
$SPLINESEGS
 70
     8
  9
$HANDSEED
  5
2AE
  9
$SURFTAB1
 70
     6
  9
$SURFTAB2
 70
     6
  9
$SURFTYPE
 70
     6
  9
$SURFU
 70
     6
  9
$SURFV
 70
     6
  9
$UCSBASE
  2

  9
$UCSNAME
  2

  9
$UCSORG
 10
0.0
 20
0.0
 30
0.0
  9
$UCSXDIR
 10
1.0
 20
0.0
 30
0.0
  9
$UCSYDIR
 10
0.0
 20
1.0
 30
0.0
  9
$UCSORTHOREF
  2

  9
$UCSORTHOVIEW
 70
     0
  9
$UCSORGTOP
 10
0.0
 20
0.0
 30
0.0
  9
$UCSORGBOTTOM
 10
0.0
 20
0.0
 30
0.0
  9
$UCSORGLEFT
 10
0.0
 20
0.0
 30
0.0
  9
$UCSORGRIGHT
 10
0.0
 20
0.0
 30
0.0
  9
$UCSORGFRONT
 10
0.0
 20
0.0
 30
0.0
  9
$UCSORGBACK
 10
0.0
 20
0.0
 30
0.0
  9
$PUCSBASE
  2

  9
$PUCSNAME
  2

  9
$PUCSORG
 10
0.0
 20
0.0
 30
0.0
  9
$PUCSXDIR
 10
1.0
 20
0.0
 30
0.0
  9
$PUCSYDIR
 10
0.0
 20
1.0
 30
0.0
  9
$PUCSORTHOREF
  2

  9
$PUCSORTHOVIEW
 70
     0
  9
$PUCSORGTOP
 10
0.0
 20
0.0
 30
0.0
  9
$PUCSORGBOTTOM
 10
0.0
 20
0.0
 30
0.0
  9
$PUCSORGLEFT
 10
0.0
 20
0.0
 30
0.0
  9
$PUCSORGRIGHT
 10
0.0
 20
0.0
 30
0.0
  9
$PUCSORGFRONT
 10
0.0
 20
0.0
 30
0.0
  9
$PUCSORGBACK
 10
0.0
 20
0.0
 30
0.0
  9
$USERI1
 70
     0
  9
$USERI2
 70
     0
  9
$USERI3
 70
     0
  9
$USERI4
 70
     0
  9
$USERI5
 70
     0
  9
$USERR1
 40
0.0
  9
$USERR2
 40
0.0
  9
$USERR3
 40
0.0
  9
$USERR4
 40
0.0
  9
$USERR5
 40
0.0
  9
$WORLDVIEW
 70
     1
  9
$SHADEDGE
 70
     3
  9
$SHADEDIF
 70
    70
  9
$TILEMODE
 70
     1
  9
$MAXACTVP
 70
    64
  9
$PINSBASE
 10
0.0
 20
0.0
 30
0.0
  9
$PLIMCHECK
 70
     0
  9
$PEXTMIN
 10
1.0000000000E+20
 20
1.0000000000E+20
 30
1.0000000000E+20
  9
$PEXTMAX
 10
-1.0000000000E+20
 20
-1.0000000000E+20
 30
-1.0000000000E+20
  9
$PLIMMIN
 10
0.0
 20
0.0
  9
$PLIMMAX
 10
12.0
 20
9.0
  9
$UNITMODE
 70
     0
  9
$VISRETAIN
 70
     1
  9
$PLINEGEN
 70
     0
  9
$PSLTSCALE
 70
     1
  9
$TREEDEPTH
 70
  3020
  9
$CMLSTYLE
  2
Standard
  9
$CMLJUST
 70
     0
  9
$CMLSCALE
 40
1.0
  9
$PROXYGRAPHICS
 70
     1
  9
$MEASUREMENT
 70
     0
  9
$CELWEIGHT
370
    -1
  9
$ENDCAPS
280
     0
  9
$JOINSTYLE
280
     0
  9
$LWDISPLAY
290
     1
  9
$INSUNITS
 70
     1
  9
$HYPERLINKBASE
  1

  9
$STYLESHEET
  1

  9
$XEDIT
290
     1
  9
$CEPSNTYPE
380
     0
  9
$PSTYLEMODE
290
     1
  9
$FINGERPRINTGUID
  2
{35ba2616-e2c4-4bb5-9456-af197da121c6}
  9
$VERSIONGUID
  2
{FAEB1C32-E019-11D5-929B-00C0DF256EC4}
  9
$EXTNAMES
290
     1
  9
$PSVPSCALE
 40
0.0
  9
$OLESTARTUP
290
     0
  0
ENDSEC
  0
SECTION
  2
CLASSES
  0
CLASS
  1
ACDBDICTIONARYWDFLT
  2
AcDbDictionaryWithDefault
  3
ObjectDBX Classes
 90
        0
280
     0
281
     0
  0
CLASS
  1
VISUALSTYLE
  2
AcDbVisualStyle
  3
ObjectDBX Classes
 90
     4095
280
     0
281
     0
  0
CLASS
  1
MATERIAL
  2
AcDbMaterial
  3
ObjectDBX Classes
 90
     1153
280
     0
281
     0
  0
CLASS
  1
SCALE
  2
AcDbScale
  3
ObjectDBX Classes
 90
     1153
280
     0
281
     0
  0
CLASS
  1
TABLESTYLE
  2
AcDbTableStyle
  3
ObjectDBX Classes
 90
     4095
280
     0
281
     0
  0
CLASS
  1
MLEADERSTYLE
  2
AcDbMLeaderStyle
  3
ACDB_MLEADERSTYLE_CLASS
 90
     4095
280
     0
281
     0
  0
CLASS
  1
SUN
  2
AcDbSun
  3
SCENEOE
 90
     1153
280
     0
281
     0
  0
CLASS
  1
ACDBPLACEHOLDER
  2
AcDbPlaceHolder
  3
ObjectDBX Classes
 90
        0
280
     0
281
     0
  0
CLASS
  1
LAYOUT
  2
AcDbLayout
  3
ObjectDBX Classes
 90
        0
280
     0
281
     0
  0
ENDSEC
  0
SECTION
  2
TABLES
  0
TABLE
  2
VPORT
  5
8
330
0
100
AcDbSymbolTable
 70
     1
  0
VPORT
  5
29
330
8
100
AcDbSymbolTableRecord
100
AcDbViewportTableRecord
  2
*Active
 70
     0
 10
0.0
 20
0.0
 11
1.0
 21
1.0
 12
0.0
 22
0.0
 13
0.0
 23
0.0
 14
0.5
 24
0.5
 15
0.5
 25
0.5
 16
0.0
 26
0.0
 36
1.0
 17
0.0
 27
0.0
 37
0.0
 40
6.2473913273
 41
1.0
 42
50.0
 43
0.0
 44
0.0
 50
0.0
 51
0.0
 71
     0
 72
   100
 73
     1
 74
     3
 75
     0
 76
     0
 77
     0
 78
     0
281
     0
 65
     1
110
0.0
120
0.0
130
0.0
111
1.0
121
0.0
131
0.0
112
0.0
122
1.0
132
0.0
 79
     0
146
0.0
  0
ENDTAB
  0
TABLE
  2
LTYPE
  5
5
330
0
100
AcDbSymbolTable
 70
     6
  0
LTYPE
  5
14
330
5
100
AcDbSymbolTableRecord
100
AcDbLinetypeTableRecord
  2
ByBlock
 70
     0
  3

 72
    65
 73
     0
 40
0.0
  0
LTYPE
  5
15
330
5
100
AcDbSymbolTableRecord
100
AcDbLinetypeTableRecord
  2
ByLayer
 70
     0
  3

 72
    65
 73
     0
 40
0.0
  0
LTYPE
  5
16
330
5
100
AcDbSymbolTableRecord
100
AcDbLinetypeTableRecord
  2
Continuous
 70
     0
  3
Solid line
 72
    65
 73
     0
 40
0.0
  0
LTYPE
  5
5E
330
5
100
AcDbSymbolTableRecord
100
AcDbLinetypeTableRecord
  2
HIDDEN
 70
     0
  3
Hidden __ __ __ __ __ __ __ __ __ __ __ __ __ __
 72
    65
 73
     2
 40
0.075
 49
0.05
 74
     0
 49
-0.025
 74
     0
  0
LTYPE
  5
5F
330
5
100
AcDbSymbolTableRecord
100
AcDbLinetypeTableRecord
  2
PHANTOM
 70
     0
  3
Phantom ______  __  __  ______  __  __  ______
 72
    65
 73
     6
 40
0.5
 49
0.25
 74
     0
 49
-0.05
 74
     0
 49
0.05
 74
     0
 49
-0.05
 74
     0
 49
0.05
 74
     0
 49
-0.05
 74
     0
  0
LTYPE
  5
60
330
5
100
AcDbSymbolTableRecord
100
AcDbLinetypeTableRecord
  2
CENTER
 70
     0
  3
Center ____ _ ____ _ ____ _ ____ _ ____ _ ____
 72
    65
 73
     4
 40
0.4
 49
0.25
 74
     0
 49
-0.05
 74
     0
 49
0.05
 74
     0
 49
-0.05
 74
     0
  0
LTYPE
  5
61
330
5
100
AcDbSymbolTableRecord
100
AcDbLinetypeTableRecord
  2
CENTERX2
 70
     0
  3
Center (2x) ________  __  ________  __  _____
 72
    65
 73
     4
 40
0.8
 49
0.5
 74
     0
 49
-0.1
 74
     0
 49
0.1
 74
     0
 49
-0.1
 74
     0
  0
LTYPE
  5
62
330
5
100
AcDbSymbolTableRecord
100
AcDbLinetypeTableRecord
  2
DOT2
 70
     0
  3
Dot (.5x) ........................................
 72
    65
 73
     2
 40
0.025
 49
0.0
 74
     0
 49
-0.025
 74
     0
  0
ENDTAB
  0
TABLE
  2
LAYER
  5
2
330
0
100
AcDbSymbolTable
 70
     1
  0
LAYER
  5
10
330
2
100
AcDbSymbolTableRecord
100
AcDbLayerTableRecord
  2
0
 70
     0
 62
     7
  6
Continuous
370
    -3
390
F
  0
ENDTAB
  0
TABLE
  2
STYLE
  5
3
330
0
100
AcDbSymbolTable
 70
     2
  0
STYLE
  5
11
330
3
100
AcDbSymbolTableRecord
100
AcDbTextStyleTableRecord
  2
Standard
 70
     0
 40
0.0
 41
1.0
 50
0.0
 71
     0
 42
0.1377952756
  3
txt
  4

  0
STYLE
  5
2AA
330
3
100
AcDbSymbolTableRecord
100
AcDbTextStyleTableRecord
  2
SLDTEXTSTYLE0
 70
     0
 40
0.0
 41
0.7
 50
0.0
 71
     0
 42
0.1377952756
  3
TXT
  4

  0
ENDTAB
  0
TABLE
  2
VIEW
  5
6
330
0
100
AcDbSymbolTable
 70
     0
  0
ENDTAB
  0
TABLE
  2
UCS
  5
7
330
0
100
AcDbSymbolTable
 70
     0
  0
ENDTAB
  0
TABLE
  2
APPID
  5
9
330
0
100
AcDbSymbolTable
 70
     1
  0
APPID
  5
12
330
9
100
AcDbSymbolTableRecord
100
AcDbRegAppTableRecord
  2
ACAD
 70
     0
  0
ENDTAB
  0
TABLE
  2
DIMSTYLE
  5
A
330
0
100
AcDbSymbolTable
 70
     1
100
AcDbDimStyleTable
  0
DIMSTYLE
105
27
330
A
100
AcDbSymbolTableRecord
100
AcDbDimStyleTableRecord
  2
Standard
 70
     0
178
     0
340
11
  0
ENDTAB
  0
TABLE
  2
BLOCK_RECORD
  5
1
330
0
100
AcDbSymbolTable
 70
     1
  0
BLOCK_RECORD
  5
1F
330
1
100
AcDbSymbolTableRecord
100
AcDbBlockTableRecord
  2
*Model_Space
340
22
  0
BLOCK_RECORD
  5
1B
330
1
100
AcDbSymbolTableRecord
100
AcDbBlockTableRecord
  2
*Paper_Space
340
1E
  0
BLOCK_RECORD
  5
23
330
1
100
AcDbSymbolTableRecord
100
AcDbBlockTableRecord
  2
*Paper_Space0
340
26
  0
ENDTAB
  0
ENDSEC
  0
SECTION
  2
BLOCKS
  0
BLOCK
  5
20
330
1F
100
AcDbEntity
  8
0
100
AcDbBlockBegin
  2
*Model_Space
 70
     0
 10
0.0
 20
0.0
 30
0.0
  3
*Model_Space
  1

  0
ENDBLK
  5
21
330
1F
100
AcDbEntity
  8
0
100
AcDbBlockEnd
  0
BLOCK
  5
1C
330
1B
100
AcDbEntity
 67
     1
  8
0
100
AcDbBlockBegin
  2
*Paper_Space
 70
     0
 10
0.0
 20
0.0
 30
0.0
  3
*Paper_Space
  1

  0
ENDBLK
  5
1D
330
1B
100
AcDbEntity
 67
     1
  8
0
100
AcDbBlockEnd
  0
BLOCK
  5
24
330
23
100
AcDbEntity
  8
0
100
AcDbBlockBegin
  2
*Paper_Space0
 70
     0
 10
0.0
 20
0.0
 30
0.0
  3
*Paper_Space0
  1

  0
ENDBLK
  5
25
330
23
100
AcDbEntity
  8
0
100
AcDbBlockEnd
  0
ENDSEC
  0
SECTION
  2
ENTITIES
  0
CIRCLE
  5
63
330
1F
100
AcDbEntity
  8
0
  6
Continuous
 62
     7
370
    25
100
AcDbCircle
 10
-2.5
 20
0.0
 30
0.0
 40
0.0925196850000001
  0
CIRCLE
  5
64
330
1F
100
AcDbEntity
  8
0
  6
Continuous
 62
     7
370
    25
100
AcDbCircle
 10
0.0
 20
-2.5
 30
0.0
 40
0.0925196850000001
  0
CIRCLE
  5
65
330
1F
100
AcDbEntity
  8
0
  6
Continuous
 62
     7
370
    25
100
AcDbCircle
 10
2.5
 20
0.0
 30
0.0
 40
0.0925196850000001
  0
CIRCLE
  5
66
330
1F
100
AcDbEntity
  8
0
  6
Continuous
 62
     7
370
    25
100
AcDbCircle
 10
0.0
 20
2.5
 30
0.0
 40
0.0925196850000004
  0
CIRCLE
  5
67
330
1F
100
AcDbEntity
  8
0
  6
Continuous
 62
     7
370
    25
100
AcDbCircle
 10
-0.75
 20
0.0
 30
0.0
 40
0.092519685
  0
CIRCLE
  5
68
330
1F
100
AcDbEntity
  8
0
  6
Continuous
 62
     7
370
    25
100
AcDbCircle
 10
0.375
 20
-0.6495190528
 30
0.0
 40
0.092519685
  0
CIRCLE
  5
69
330
1F
100
AcDbEntity
  8
0
  6
Continuous
 62
     7
370
    25
100
AcDbCircle
 10
0.375
 20
0.6495190528
 30
0.0
 40
0.092519685
  0
ARC
  5
6A
330
1F
100
AcDbEntity
  8
0
  6
Continuous
 62
     7
370
    25
100
AcDbCircle
 10
2.4808078242
 20
-1.3389520281
 30
0.0
 40
1.155386872572904
100
AcDbArc
 50
60.7918690426
 51
67.2751702863
  0
ARC
  5
6B
330
1F
100
AcDbEntity
  8
0
  6
Continuous
 62
     7
370
    25
100
AcDbCircle
 10
0.0
 20
0.0
 30
0.0
 40
3.062500000000001
100
AcDbArc
 50
352.8379444342
 51
353.8052449218
  0
ARC
  5
6C
330
1F
100
AcDbEntity
  8
0
  6
Continuous
 62
     7
370
    25
100
AcDbCircle
 10
2.7230201156
 20
0.7296310328
 30
0.0
 40
1.155386872572904
100
AcDbArc
 50
279.3680190697
 51
285.8513203134
  0
ARC
  5
6D
330
1F
100
AcDbEntity
  8
0
  6
Continuous
 62
     7
370
    25
100
AcDbCircle
 10
2.91502564
 20
-0.4342115592
 30
0.0
 40
0.0241875000000002
100
AcDbArc
 50
99.3680190697
 51
171.5277246339
  0
ARC
  5
6E
330
1F
100
AcDbEntity
  8
0
  6
Continuous
 62
     7
370
    25
100
AcDbCircle
 10
0.0
 20
0.0
 30
0.0
 40
2.923
100
AcDbArc
 50
351.3654647221
 51
351.5277246339
  0
ARC
  5
6F
330
1F
100
AcDbEntity
  8
0
  6
Continuous
 62
     7
370
    25
100
AcDbCircle
 10
2.9137842784
 20
-0.4424650713
 30
0.0
 40
0.0241875000000012
100
AcDbArc
 50
171.3654647221
 51
243.5251702863
  0
ARC
  5
70
330
1F
100
AcDbEntity
  8
0
  6
Continuous
 62
     7
370
    25
100
AcDbCircle
 10
2.3879245717
 20
-1.4983378237
 30
0.0
 40
1.155386872572904
100
AcDbArc
 50
57.0418690426
 51
63.5251702863
  0
ARC
  5
71
330
1F
100
AcDbEntity
  8
0
  6
Continuous
 62
     7
370
    25
100
AcDbCircle
 10
0.0
 20
0.0
 30
0.0
 40
3.062500000000001
100
AcDbArc
 50
349.0879444342
 51
350.0552449218
  0
ARC
  5
72
330
1F
100
AcDbEntity
  8
0
  6
Continuous
 62
     7
370
    25
100
AcDbCircle
 10
2.7649100732
 20
0.5499748002
 30
0.0
 40
1.155386872572904
100
AcDbArc
 50
275.6180190697
 51
282.1013203134
  0
ARC
  5
73
330
1F
100
AcDbEntity
  8
0
  6
Continuous
 62
     7
370
    25
100
AcDbCircle
 10
2.8803855516
 20
-0.6239336776
 30
0.0
 40
0.0241875000000001
100
AcDbArc
 50
95.6180190697
 51
167.7777246339
  0
ARC
  5
74
330
1F
100
AcDbEntity
  8
0
  6
Continuous
 62
     7
370
    25
100
AcDbCircle
 10
0.0
 20
0.0
 30
0.0
 40
2.923
100
AcDbArc
 50
347.6154647221
 51
347.7777246339
  0
ARC
  5
75
330
1F
100
AcDbEntity
  8
0
  6
Continuous
 62
     7
370
    25
100
AcDbCircle
 10
2.8786070423
 20
-0.6320883293
 30
0.0
 40
0.0241875000000004
100
AcDbArc
 50
167.6154647221
 51
239.7751702863
  0
ARC
  5
76
330
1F
100
AcDbEntity
  8
0
  6
Continuous
 62
     7
370
    25
100
AcDbCircle
 10
2.2848158596
 20
-1.6513075068
 30
0.0
 40
1.155386872572904
100
AcDbArc
 50
53.2918690426
 51
59.7751702863
  0
ARC
  5
77
330
1F
100
AcDbEntity
  8
0
  6
Continuous
 62
     7
370
    25
100
AcDbCircle
 10
0.0
 20
0.0
 30
0.0
 40
3.0625
100
AcDbArc
 50
345.3379444342
 51
346.3052449218
  0
ARC
  5
78
330
1F
100
AcDbEntity
  8
0
  6
Continuous
 62
     7
370
    25
100
AcDbCircle
 10
2.7949602615
 20
0.3679634911
 30
0.0
 40
1.155386872572904
100
AcDbArc
 50
271.8680190697
 51
278.3513203134
  0
ARC
  5
79
330
1F
100
AcDbEntity
  8
0
  6
Continuous
 62
     7
370
    25
100
AcDbCircle
 10
2.8334112101
 20
-0.8109840162
 30
0.0
 40
0.0241875000000001
100
AcDbArc
 50
91.8680190697
 51
164.0277246339
  0
ARC
  5
7A
330
1F
100
AcDbEntity
  8
0
  6
Continuous
 62
     7
370
    25
100
AcDbCircle
 10
0.0
 20
0.0
 30
0.0
 40
2.923
100
AcDbArc
 50
343.8654647221
 51
344.0277246339
  0
ARC
  5
7B
330
1F
100
AcDbEntity
  8
0
  6
Continuous
 62
     7
370
    25
100
AcDbCircle
 10
2.831103169
 20
-0.8190048881
 30
0.0
 40
0.0241875000000006
100
AcDbArc
 50
163.8654647221
 51
236.0251702863
  0
ARC
  5
7C
330
1F
100
AcDbEntity
  8
0
  6
Continuous
 62
     7
370
    25
100
AcDbCircle
 10
2.1719232151
 20
-1.7972060376
 30
0.0
 40
1.155386872572904
100
AcDbArc
 50
49.5418690426
 51
56.0251702863
  0
ARC
  5
7D
330
1F
100
AcDbEntity
  8
0
  6
Continuous
 62
     7
370
    25
100
AcDbCircle
 10
0.0
 20
0.0
 30
0.0
 40
3.0625
100
AcDbArc
 50
341.5879444342
 51
342.5552449218
  0
ARC
  5
7E
330
1F
100
AcDbEntity
  8
0
  6
Continuous
 62
     7
370
    25
100
AcDbCircle
 10
2.8130420008
 20
0.1843765059
 30
0.0
 40
1.155386872572904
100
AcDbArc
 50
268.1180190697
 51
274.6013203134
  0
ARC
  5
7F
330
1F
100
AcDbEntity
  8
0
  6
Continuous
 62
     7
370
    25
100
AcDbCircle
 10
2.7743037668
 20
-0.9945615967
 30
0.0
 40
0.0241875000000002
100
AcDbArc
 50
88.1180190697
 51
160.2777246339
  0
ARC
  5
80
330
1F
100
AcDbEntity
  8
0
  6
Continuous
 62
     7
370
    25
100
AcDbCircle
 10
0.0
 20
0.0
 30
0.0
 40
2.923
100
AcDbArc
 50
340.1154647221
 51
340.2777246339
  0
ARC
  5
81
330
1F
100
AcDbEntity
  8
0
  6
Continuous
 62
     7
370
    25
100
AcDbCircle
 10
2.7714760772
 20
-1.0024143422
 30
0.0
 40
0.0241875000000002
100
AcDbArc
 50
160.1154647221
 51
232.2751702863
  0
ARC
  5
82
330
1F
100
AcDbEntity
  8
0
  6
Continuous
 62
     7
370
    25
100
AcDbCircle
 10
2.0497300621
 20
-1.9354086562
 30
0.0
 40
1.155386872572904
100
AcDbArc
 50
45.7918690426
 51
52.2751702863
  0
ARC
  5
83
330
1F
100
AcDbEntity
  8
0
  6
Continuous
 62
     7
370
    25
100
AcDbCircle
 10
0.0
 20
0.0
 30
0.0
 40
3.062500000000001
100
AcDbArc
 50
337.8379444342
 51
338.8052449218
  0
ARC
  5
84
330
1F
100
AcDbEntity
  8
0
  6
Continuous
 62
     7
370
    25
100
AcDbCircle
 10
2.8190778624
 20
-0.0000000079
 30
0.0
 40
1.155386872572904
100
AcDbArc
 50
264.3680190697
 51
270.8513203134
  0
ARC
  5
85
330
1F
100
AcDbEntity
  8
0
  6
Continuous
 62
     7
370
    25
100
AcDbCircle
 10
2.7033163289
 20
-1.1738803117
 30
0.0
 40
0.0241875000000004
100
AcDbArc
 50
84.3680190697
 51
156.5277246339
  0
ARC
  5
86
330
1F
100
AcDbEntity
  8
0
  6
Continuous
 62
     7
370
    25
100
AcDbCircle
 10
0.0
 20
0.0
 30
0.0
 40
2.923
100
AcDbArc
 50
336.3654647221
 51
336.5277246339
  0
ARC
  5
87
330
1F
100
AcDbEntity
  8
0
  6
Continuous
 62
     7
370
    25
100
AcDbCircle
 10
2.6999810995
 20
-1.1815313042
 30
0.0
 40
0.024187500000001
100
AcDbArc
 50
156.3654647221
 51
228.5251702863
  0
ARC
  5
88
330
1F
100
AcDbEntity
  8
0
  6
Continuous
 62
     7
370
    25
100
AcDbCircle
 10
1.9187596502
 20
-2.0653235579
 30
0.0
 40
1.155386872572904
100
AcDbArc
 50
42.0418690426
 51
48.5251702863
  0
ARC
  5
89
330
1F
100
AcDbEntity
  8
0
  6
Continuous
 62
     7
370
    25
100
AcDbCircle
 10
0.0
 20
0.0
 30
0.0
 40
3.0625
100
AcDbArc
 50
334.0879444342
 51
335.0552449218
  0
ARC
  5
8A
330
1F
100
AcDbEntity
  8
0
  6
Continuous
 62
     7
370
    25
100
AcDbCircle
 10
2.8130419997
 20
-0.1843765216
 30
0.0
 40
1.155386872572904
100
AcDbArc
 50
260.6180190697
 51
267.1013203134
  0
ARC
  5
8B
330
1F
100
AcDbEntity
  8
0
  6
Continuous
 62
     7
370
    25
100
AcDbCircle
 10
2.6207528754
 20
-1.3481722911
 30
0.0
 40
0.0241875000000003
100
AcDbArc
 50
80.6180190697
 51
152.7777246339
  0
ARC
  5
8C
330
1F
100
AcDbEntity
  8
0
  6
Continuous
 62
     7
370
    25
100
AcDbCircle
 10
0.0
 20
0.0
 30
0.0
 40
2.923
100
AcDbArc
 50
332.6154647221
 51
332.7777246339
  0
ARC
  5
8D
330
1F
100
AcDbEntity
  8
0
  6
Continuous
 62
     7
370
    25
100
AcDbCircle
 10
2.6169243881
 20
-1.3555887677
 30
0.0
 40
0.0241875000000007
100
AcDbArc
 50
152.6154647221
 51
224.7751702863
  0
ARC
  5
8E
330
1F
100
AcDbEntity
  8
0
  6
Continuous
 62
     7
370
    25
100
AcDbCircle
 10
1.779572815
 20
-2.186394427
 30
0.0
 40
1.155386872572904
100
AcDbArc
 50
38.2918690426
 51
44.7751702863
  0
ARC
  5
8F
330
1F
100
AcDbEntity
  8
0
  6
Continuous
 62
     7
370
    25
100
AcDbCircle
 10
0.0
 20
0.0
 30
0.0
 40
3.0625
100
AcDbArc
 50
330.3379444342
 51
331.3052449218
  0
ARC
  5
90
330
1F
100
AcDbEntity
  8
0
  6
Continuous
 62
     7
370
    25
100
AcDbCircle
 10
2.7949602594
 20
-0.3679635068
 30
0.0
 40
1.155386872572904
100
AcDbArc
 50
256.8680190697
 51
263.3513203134
  0
ARC
  5
91
330
1F
100
AcDbEntity
  8
0
  6
Continuous
 62
     7
370
    25
100
AcDbCircle
 10
2.5269669557
 20
-1.5166911897
 30
0.0
 40
0.0241875000000002
100
AcDbArc
 50
76.8680190697
 51
149.0277246339
  0
ARC
  5
92
330
1F
100
AcDbEntity
  8
0
  6
Continuous
 62
     7
370
    25
100
AcDbCircle
 10
0.0
 20
0.0
 30
0.0
 40
2.923
100
AcDbArc
 50
328.8654647221
 51
329.0277246339
  0
ARC
  5
93
330
1F
100
AcDbEntity
  8
0
  6
Continuous
 62
     7
370
    25
100
AcDbCircle
 10
2.5226616047
 20
-1.523841392
 30
0.0
 40
0.0241875000000008
100
AcDbArc
 50
148.8654647221
 51
221.0251702863
  0
ARC
  5
94
330
1F
100
AcDbEntity
  8
0
  6
Continuous
 62
     7
370
    25
100
AcDbCircle
 10
1.6327655757
 20
-2.2981028194
 30
0.0
 40
1.155386872572904
100
AcDbArc
 50
34.5418690426
 51
41.0251702863
  0
ARC
  5
95
330
1F
100
AcDbEntity
  8
0
  6
Continuous
 62
     7
370
    25
100
AcDbCircle
 10
0.0
 20
0.0
 30
0.0
 40
3.062500000000001
100
AcDbArc
 50
326.5879444342
 51
327.5552449218
  0
ARC
  5
96
330
1F
100
AcDbEntity
  8
0
  6
Continuous
 62
     7
370
    25
100
AcDbCircle
 10
2.7649100702
 20
-0.5499748157
 30
0.0
 40
1.155386872572905
100
AcDbArc
 50
253.1180190697
 51
259.6013203134
  0
ARC
  5
97
330
1F
100
AcDbEntity
  8
0
  6
Continuous
 62
     7
370
    25
100
AcDbCircle
 10
2.4223601756
 20
-1.6787153838
 30
0.0
 40
0.0241874999999999
100
AcDbArc
 50
73.1180190697
 51
145.2777246339
  0
ARC
  5
98
330
1F
100
AcDbEntity
  8
0
  6
Continuous
 62
     7
370
    25
100
AcDbCircle
 10
0.0
 20
0.0
 30
0.0
 40
2.923000000000001
100
AcDbArc
 50
325.1154647221
 51
325.2777246339
  0
ARC
  5
99
330
1F
100
AcDbEntity
  8
0
  6
Continuous
 62
     7
370
    25
100
AcDbCircle
 10
2.4175963971
 20
-1.6855686936
 30
0.0
 40
0.0241875000000008
100
AcDbArc
 50
145.1154647221
 51
217.2751702863
  0
ARC
  5
9A
330
1F
100
AcDbEntity
  8
0
  6
Continuous
 62
     7
370
    25
100
AcDbCircle
 10
1.4789665836
 20
-2.3999703829
 30
0.0
 40
1.155386872572904
100
AcDbArc
 50
30.7918690426
 51
37.2751702863
  0
ARC
  5
9B
330
1F
100
AcDbEntity
  8
0
  6
Continuous
 62
     7
370
    25
100
AcDbCircle
 10
0.0
 20
0.0
 30
0.0
 40
3.0625
100
AcDbArc
 50
322.8379444342
 51
323.8052449218
  0
ARC
  5
9C
330
1F
100
AcDbEntity
  8
0
  6
Continuous
 62
     7
370
    25
100
AcDbCircle
 10
2.7230201115
 20
-0.729631048
 30
0.0
 40
1.155386872572904
100
AcDbArc
 50
249.3680190697
 51
255.8513203134
  0
ARC
  5
9D
330
1F
100
AcDbEntity
  8
0
  6
Continuous
 62
     7
370
    25
100
AcDbCircle
 10
2.3073804773
 20
-1.8335510609
 30
0.0
 40
0.0241875
100
AcDbArc
 50
69.3680190697
 51
141.5277246339
  0
ARC
  5
9E
330
1F
100
AcDbEntity
  8
0
  6
Continuous
 62
     7
370
    25
100
AcDbCircle
 10
0.0
 20
0.0
 30
0.0
 40
2.923
100
AcDbArc
 50
321.3654647221
 51
321.5277246339
  0
ARC
  5
9F
330
1F
100
AcDbEntity
  8
0
  6
Continuous
 62
     7
370
    25
100
AcDbCircle
 10
2.3021786706
 20
-1.8400781312
 30
0.0
 40
0.0241875000000005
100
AcDbArc
 50
141.3654647221
 51
213.5251702863
  0
ARC
  5
A0
330
1F
100
AcDbEntity
  8
0
  6
Continuous
 62
     7
370
    25
100
AcDbCircle
 10
1.3188344295
 20
-2.4915609046
 30
0.0
 40
1.155386872572904
100
AcDbArc
 50
27.0418690426
 51
33.5251702863
  0
ARC
  5
A1
330
1F
100
AcDbEntity
  8
0
  6
Continuous
 62
     7
370
    25
100
AcDbCircle
 10
0.0
 20
0.0
 30
0.0
 40
3.0625
100
AcDbArc
 50
319.0879444342
 51
320.0552449218
  0
ARC
  5
A2
330
1F
100
AcDbEntity
  8
0
  6
Continuous
 62
     7
370
    25
100
AcDbCircle
 10
2.6694697627
 20
-0.9061628882
 30
0.0
 40
1.155386872572904
100
AcDbArc
 50
245.6180190697
 51
252.1013203134
  0
ARC
  5
A3
330
1F
100
AcDbEntity
  8
0
  6
Continuous
 62
     7
370
    25
100
AcDbCircle
 10
2.1825202216
 20
-1.9805351909
 30
0.0
 40
0.0241875
100
AcDbArc
 50
65.6180190697
 51
137.7777246339
  0
ARC
  5
A4
330
1F
100
AcDbEntity
  8
0
  6
Continuous
 62
     7
370
    25
100
AcDbCircle
 10
0.0
 20
0.0
 30
0.0
 40
2.923
100
AcDbArc
 50
317.6154647221
 51
317.7777246339
  0
ARC
  5
A5
330
1F
100
AcDbEntity
  8
0
  6
Continuous
 62
     7
370
    25
100
AcDbCircle
 10
2.1769026615
 20
-1.9867080718
 30
0.0
 40
0.0241875000000001
100
AcDbArc
 50
137.6154647221
 51
209.7751702863
  0
ARC
  5
A6
330
1F
100
AcDbEntity
  8
0
  6
Continuous
 62
     7
370
    25
100
AcDbCircle
 10
1.1530548239
 20
-2.5724821801
 30
0.0
 40
1.155386872572904
100
AcDbArc
 50
23.2918690426
 51
29.7751702863
  0
ARC
  5
A7
330
1F
100
AcDbEntity
  8
0
  6
Continuous
 62
     7
370
    25
100
AcDbCircle
 10
0.0
 20
0.0
 30
0.0
 40
3.062500000000001
100
AcDbArc
 50
315.3379444342
 51
316.3052449218
  0
ARC
  5
A8
330
1F
100
AcDbEntity
  8
0
  6
Continuous
 62
     7
370
    25
100
AcDbCircle
 10
2.6044883346
 20
-1.0788143997
 30
0.0
 40
1.155386872572904
100
AcDbArc
 50
241.8680190697
 51
248.3513203134
  0
ARC
  5
A9
330
1F
100
AcDbEntity
  8
0
  6
Continuous
 62
     7
370
    25
100
AcDbCircle
 10
2.0483140793
 20
-2.1190383651
 30
0.0
 40
0.0241875000000001
100
AcDbArc
 50
61.8680190697
 51
134.0277246339
  0
ARC
  5
AA
330
1F
100
AcDbEntity
  8
0
  6
Continuous
 62
     7
370
    25
100
AcDbCircle
 10
0.0
 20
0.0
 30
0.0
 40
2.923
100
AcDbArc
 50
313.8654647221
 51
314.0277246339
  0
ARC
  5
AB
330
1F
100
AcDbEntity
  8
0
  6
Continuous
 62
     7
370
    25
100
AcDbCircle
 10
2.042304821
 20
-2.1248306234
 30
0.0
 40
0.0241875000000006
100
AcDbArc
 50
133.8654647221
 51
206.0251702863
  0
ARC
  5
AC
330
1F
100
AcDbEntity
  8
0
  6
Continuous
 62
     7
370
    25
100
AcDbCircle
 10
0.9823376606
 20
-2.642387692
 30
0.0
 40
1.155386872572904
100
AcDbArc
 50
19.5418690426
 51
26.0251702863
  0
ARC
  5
AD
330
1F
100
AcDbEntity
  8
0
  6
Continuous
 62
     7
370
    25
100
AcDbCircle
 10
0.0
 20
0.0
 30
0.0
 40
3.0625
100
AcDbArc
 50
311.5879444342
 51
312.5552449218
  0
ARC
  5
AE
330
1F
100
AcDbEntity
  8
0
  6
Continuous
 62
     7
370
    25
100
AcDbCircle
 10
2.5283540875
 20
-1.2468462624
 30
0.0
 40
1.155386872572904
100
AcDbArc
 50
238.1180190697
 51
244.6013203134
  0
ARC
  5
AF
330
1F
100
AcDbEntity
  8
0
  6
Continuous
 62
     7
370
    25
100
AcDbCircle
 10
1.9053367415
 20
-2.2484674918
 30
0.0
 40
0.0241874999999998
100
AcDbArc
 50
58.1180190697
 51
130.2777246339
  0
ARC
  5
B0
330
1F
100
AcDbEntity
  8
0
  6
Continuous
 62
     7
370
    25
100
AcDbCircle
 10
0.0
 20
0.0
 30
0.0
 40
2.923000000000001
100
AcDbArc
 50
310.1154647221
 51
310.2777246339
  0
ARC
  5
B1
330
1F
100
AcDbEntity
  8
0
  6
Continuous
 62
     7
370
    25
100
AcDbCircle
 10
1.8989615178
 20
-2.2538543241
 30
0.0
 40
0.0241875000000004
100
AcDbArc
 50
130.1154647221
 51
202.2751702863
  0
ARC
  5
B2
330
1F
100
AcDbEntity
  8
0
  6
Continuous
 62
     7
370
    25
100
AcDbCircle
 10
0.8074139766
 20
-2.700978094
 30
0.0
 40
1.155386872572904
100
AcDbArc
 50
15.7918690426
 51
22.2751702863
  0
ARC
  5
B3
330
1F
100
AcDbEntity
  8
0
  6
Continuous
 62
     7
370
    25
100
AcDbCircle
 10
0.0
 20
0.0
 30
0.0
 40
3.0625
100
AcDbArc
 50
307.8379444342
 51
308.8052449218
  0
ARC
  5
B4
330
1F
100
AcDbEntity
  8
0
  6
Continuous
 62
     7
370
    25
100
AcDbCircle
 10
2.4413930401
 20
-1.409538938
 30
0.0
 40
1.155386872572904
100
AcDbArc
 50
234.3680190697
 51
240.8513203134
  0
ARC
  5
B5
330
1F
100
AcDbEntity
  8
0
  6
Continuous
 62
     7
370
    25
100
AcDbCircle
 10
1.7542004594
 20
-2.3682683354
 30
0.0
 40
0.0241875000000001
100
AcDbArc
 50
54.3680190697
 51
126.5277246339
  0
ARC
  5
B6
330
1F
100
AcDbEntity
  8
0
  6
Continuous
 62
     7
370
    25
100
AcDbCircle
 10
0.0
 20
0.0
 30
0.0
 40
2.923
100
AcDbArc
 50
306.3654647221
 51
306.5277246339
  0
ARC
  5
B7
330
1F
100
AcDbEntity
  8
0
  6
Continuous
 62
     7
370
    25
100
AcDbCircle
 10
1.7474865698
 20
-2.3732266745
 30
0.0
 40
0.0241875000000005
100
AcDbArc
 50
126.3654647221
 51
198.5251702863
  0
ARC
  5
B8
330
1F
100
AcDbEntity
  8
0
  6
Continuous
 62
     7
370
    25
100
AcDbCircle
 10
0.6290328219
 20
-2.7480024933
 30
0.0
 40
1.155386872572904
100
AcDbArc
 50
12.0418690426
 51
18.5251702863
  0
ARC
  5
B9
330
1F
100
AcDbEntity
  8
0
  6
Continuous
 62
     7
370
    25
100
AcDbCircle
 10
0.0
 20
0.0
 30
0.0
 40
3.0625
100
AcDbArc
 50
304.0879444342
 51
305.0552449218
  0
ARC
  5
BA
330
1F
100
AcDbEntity
  8
0
  6
Continuous
 62
     7
370
    25
100
AcDbCircle
 10
2.3439775729
 20
-1.5661957514
 30
0.0
 40
1.155386872572904
100
AcDbArc
 50
230.6180190697
 51
237.1013203134
  0
ARC
  5
BB
330
1F
100
AcDbEntity
  8
0
  6
Continuous
 62
     7
370
    25
100
AcDbCircle
 10
1.5955524216
 20
-2.4779278904
 30
0.0
 40
0.0241874999999999
100
AcDbArc
 50
50.6180190697
 51
122.7777246339
  0
ARC
  5
BC
330
1F
100
AcDbEntity
  8
0
  6
Continuous
 62
     7
370
    25
100
AcDbCircle
 10
0.0
 20
0.0
 30
0.0
 40
2.923
100
AcDbArc
 50
302.6154647221
 51
302.7777246339
  0
ARC
  5
BD
330
1F
100
AcDbEntity
  8
0
  6
Continuous
 62
     7
370
    25
100
AcDbCircle
 10
1.588528616
 20
-2.482436504
 30
0.0
 40
0.0241875000000004
100
AcDbArc
 50
122.6154647221
 51
194.7751702863
  0
ARC
  5
BE
330
1F
100
AcDbEntity
  8
0
  6
Continuous
 62
     7
370
    25
100
AcDbCircle
 10
0.4479580522
 20
-2.7832595239
 30
0.0
 40
1.155386872572904
100
AcDbArc
 50
8.2918690426
 51
14.7751702863
  0
ARC
  5
BF
330
1F
100
AcDbEntity
  8
0
  6
Continuous
 62
     7
370
    25
100
AcDbCircle
 10
0.0
 20
0.0
 30
0.0
 40
3.0625
100
AcDbArc
 50
300.3379444342
 51
301.3052449218
  0
ARC
  5
C0
330
1F
100
AcDbEntity
  8
0
  6
Continuous
 62
     7
370
    25
100
AcDbCircle
 10
2.2365248339
 20
-1.7161458742
 30
0.0
 40
1.155386872572904
100
AcDbArc
 50
226.8680190697
 51
233.3513203134
  0
ARC
  5
C1
330
1F
100
AcDbEntity
  8
0
  6
Continuous
 62
     7
370
    25
100
AcDbCircle
 10
1.4300719833
 20
-2.5769765778
 30
0.0
 40
0.0241875000000001
100
AcDbArc
 50
46.8680190697
 51
119.0277246339
  0
ARC
  5
C2
330
1F
100
AcDbEntity
  8
0
  6
Continuous
 62
     7
370
    25
100
AcDbCircle
 10
0.0
 20
0.0
 30
0.0
 40
2.923
100
AcDbArc
 50
298.8654647221
 51
299.0277246339
  0
ARC
  5
C3
330
1F
100
AcDbEntity
  8
0
  6
Continuous
 62
     7
370
    25
100
AcDbCircle
 10
1.4227683388
 20
-2.5810161592
 30
0.0
 40
0.0241875000000003
100
AcDbArc
 50
118.8654647221
 51
191.0251702863
  0
ARC
  5
C4
330
1F
100
AcDbEntity
  8
0
  6
Continuous
 62
     7
370
    25
100
AcDbCircle
 10
0.2649650573
 20
-2.80659821
 30
0.0
 40
1.155386872572904
100
AcDbArc
 50
4.5418690426
 51
11.0251702863
  0
ARC
  5
C5
330
1F
100
AcDbEntity
  8
0
  6
Continuous
 62
     7
370
    25
100
AcDbCircle
 10
0.0
 20
0.0
 30
0.0
 40
3.0625
100
AcDbArc
 50
296.5879444342
 51
297.5552449218
  0
ARC
  5
C6
330
1F
100
AcDbEntity
  8
0
  6
Continuous
 62
     7
370
    25
100
AcDbCircle
 10
2.1194949521
 20
-1.8587471969
 30
0.0
 40
1.155386872572904
100
AcDbArc
 50
223.1180190697
 51
229.6013203134
  0
ARC
  5
C7
330
1F
100
AcDbEntity
  8
0
  6
Continuous
 62
     7
370
    25
100
AcDbCircle
 10
1.2584677573
 20
-2.6649902559
 30
0.0
 40
0.0241875000000002
100
AcDbArc
 50
43.1180190697
 51
115.2777246339
  0
ARC
  5
C8
330
1F
100
AcDbEntity
  8
0
  6
Continuous
 62
     7
370
    25
100
AcDbCircle
 10
0.0
 20
0.0
 30
0.0
 40
2.923
100
AcDbArc
 50
295.1154647221
 51
295.2777246339
  0
ARC
  5
C9
330
1F
100
AcDbEntity
  8
0
  6
Continuous
 62
     7
370
    25
100
AcDbCircle
 10
1.2509155492
 20
-2.668543507
 30
0.0
 40
0.0241875000000005
100
AcDbArc
 50
115.1154647221
 51
187.2751702863
  0
ARC
  5
CA
330
1F
100
AcDbEntity
  8
0
  6
Continuous
 62
     7
370
    25
100
AcDbCircle
 10
0.0808374413
 20
-2.8179186117
 30
0.0
 40
1.155386872572904
100
AcDbArc
 50
0.7918690426
 51
7.2751702863
  0
ARC
  5
CB
330
1F
100
AcDbEntity
  8
0
  6
Continuous
 62
     7
370
    25
100
AcDbCircle
 10
0.0
 20
0.0
 30
0.0
 40
3.0625
100
AcDbArc
 50
292.8379444342
 51
293.8052449218
  0
ARC
  5
CC
330
1F
100
AcDbEntity
  8
0
  6
Continuous
 62
     7
370
    25
100
AcDbCircle
 10
1.9933890676
 20
-1.9933890787
 30
0.0
 40
1.155386872572904
100
AcDbArc
 50
219.3680190697
 51
225.8513203134
  0
ARC
  5
CD
330
1F
100
AcDbEntity
  8
0
  6
Continuous
 62
     7
370
    25
100
AcDbCircle
 10
1.0814745791
 20
-2.7415920366
 30
0.0
 40
0.0241875
100
AcDbArc
 50
39.3680190697
 51
111.5277246339
  0
ARC
  5
CE
330
1F
100
AcDbEntity
  8
0
  6
Continuous
 62
     7
370
    25
100
AcDbCircle
 10
0.0
 20
0.0
 30
0.0
 40
2.923
100
AcDbArc
 50
291.3654647221
 51
291.5277246339
  0
ARC
  5
CF
330
1F
100
AcDbEntity
  8
0
  6
Continuous
 62
     7
370
    25
100
AcDbCircle
 10
1.0737061471
 20
-2.7446437419
 30
0.0
 40
0.0241875000000003
100
AcDbArc
 50
111.3654647221
 51
183.5251702863
  0
ARC
  5
D0
330
1F
100
AcDbEntity
  8
0
  6
Continuous
 62
     7
370
    25
100
AcDbCircle
 10
-0.103636333
 20
-2.8171722533
 30
0.0
 40
1.155386872572904
100
AcDbArc
 50
357.0418690426
 51
3.5251702863
  0
ARC
  5
D1
330
1F
100
AcDbEntity
  8
0
  6
Continuous
 62
     7
370
    25
100
AcDbCircle
 10
0.0
 20
0.0
 30
0.0
 40
3.0625
100
AcDbArc
 50
289.0879444342
 51
290.0552449218
  0
ARC
  5
D2
330
1F
100
AcDbEntity
  8
0
  6
Continuous
 62
     7
370
    25
100
AcDbCircle
 10
1.8587471851
 20
-2.1194949625
 30
0.0
 40
1.155386872572904
100
AcDbArc
 50
215.6180190697
 51
222.1013203134
  0
ARC
  5
D3
330
1F
100
AcDbEntity
  8
0
  6
Continuous
 62
     7
370
    25
100
AcDbCircle
 10
0.8998503607
 20
-2.8064538992
 30
0.0
 40
0.0241875000000008
100
AcDbArc
 50
35.6180190697
 51
107.7777246339
  0
ARC
  5
D4
330
1F
100
AcDbEntity
  8
0
  6
Continuous
 62
     7
370
    25
100
AcDbCircle
 10
0.0
 20
0.0
 30
0.0
 40
2.923
100
AcDbArc
 50
287.6154647221
 51
287.7777246339
  0
ARC
  5
D5
330
1F
100
AcDbEntity
  8
0
  6
Continuous
 62
     7
370
    25
100
AcDbCircle
 10
0.8918989705
 20
-2.8089909908
 30
0.0
 40
0.0241875000000004
100
AcDbArc
 50
107.6154647221
 51
179.7751702863
  0
ARC
  5
D6
330
1F
100
AcDbEntity
  8
0
  6
Continuous
 62
     7
370
    25
100
AcDbCircle
 10
-0.2876663206
 20
-2.8043623307
 30
0.0
 40
1.155386872572904
100
AcDbArc
 50
353.2918690426
 51
359.7751702863
  0
ARC
  5
D7
330
1F
100
AcDbEntity
  8
0
  6
Continuous
 62
     7
370
    25
100
AcDbCircle
 10
0.0
 20
0.0
 30
0.0
 40
3.0625
100
AcDbArc
 50
285.3379444342
 51
286.3052449218
  0
ARC
  5
D8
330
1F
100
AcDbEntity
  8
0
  6
Continuous
 62
     7
370
    25
100
AcDbCircle
 10
1.7161458617
 20
-2.2365248434
 30
0.0
 40
1.155386872572904
100
AcDbArc
 50
211.8680190697
 51
218.3513203134
  0
ARC
  5
D9
330
1F
100
AcDbEntity
  8
0
  6
Continuous
 62
     7
370
    25
100
AcDbCircle
 10
0.714372845
 20
-2.8592980954
 30
0.0
 40
0.0241875000000006
100
AcDbArc
 50
31.8680190697
 51
104.0277246339
  0
ARC
  5
DA
330
1F
100
AcDbEntity
  8
0
  6
Continuous
 62
     7
370
    25
100
AcDbCircle
 10
0.0
 20
0.0
 30
0.0
 40
2.923
100
AcDbArc
 50
283.8654647221
 51
284.0277246339
  0
ARC
  5
DB
330
1F
100
AcDbEntity
  8
0
  6
Continuous
 62
     7
370
    25
100
AcDbCircle
 10
0.7062725456
 20
-2.8613097091
 30
0.0
 40
0.0241875000000002
100
AcDbArc
 50
103.8654647221
 51
176.0251702863
  0
ARC
  5
DC
330
1F
100
AcDbEntity
  8
0
  6
Continuous
 62
     7
370
    25
100
AcDbCircle
 10
-0.4704644768
 20
-2.7795436982
 30
0.0
 40
1.155386872572904
100
AcDbArc
 50
349.5418690426
 51
356.0251702863
  0
ARC
  5
DD
330
1F
100
AcDbEntity
  8
0
  6
Continuous
 62
     7
370
    25
100
AcDbCircle
 10
0.0
 20
0.0
 30
0.0
 40
3.062500000000001
100
AcDbArc
 50
281.5879444342
 51
282.5552449218
  0
ARC
  5
DE
330
1F
100
AcDbEntity
  8
0
  6
Continuous
 62
     7
370
    25
100
AcDbCircle
 10
1.5661957383
 20
-2.3439775816
 30
0.0
 40
1.155386872572904
100
AcDbArc
 50
208.1180190697
 51
214.6013203134
  0
ARC
  5
DF
330
1F
100
AcDbEntity
  8
0
  6
Continuous
 62
     7
370
    25
100
AcDbCircle
 10
0.5258362751
 20
-2.8998983382
 30
0.0
 40
0.0241875
100
AcDbArc
 50
28.1180190697
 51
100.2777246339
  0
ARC
  5
E0
330
1F
100
AcDbEntity
  8
0
  6
Continuous
 62
     7
370
    25
100
AcDbCircle
 10
0.0
 20
0.0
 30
0.0
 40
2.923
100
AcDbArc
 50
280.1154647221
 51
280.2777246339
  0
ARC
  5
E1
330
1F
100
AcDbEntity
  8
0
  6
Continuous
 62
     7
370
    25
100
AcDbCircle
 10
0.5176217532
 20
-2.90137586
 30
0.0
 40
0.0241875000000009
100
AcDbArc
 50
100.1154647221
 51
172.2751702863
  0
ARC
  5
E2
330
1F
100
AcDbEntity
  8
0
  6
Continuous
 62
     7
370
    25
100
AcDbCircle
 10
-0.6512480319
 20
-2.7428226328
 30
0.0
 40
1.155386872572904
100
AcDbArc
 50
345.7918690426
 51
352.2751702863
  0
ARC
  5
E3
330
1F
100
AcDbEntity
  8
0
  6
Continuous
 62
     7
370
    25
100
AcDbCircle
 10
0.0
 20
0.0
 30
0.0
 40
3.0625
100
AcDbArc
 50
277.8379444342
 51
278.8052449218
  0
ARC
  5
E4
330
1F
100
AcDbEntity
  8
0
  6
Continuous
 62
     7
370
    25
100
AcDbCircle
 10
1.4095389244
 20
-2.441393048
 30
0.0
 40
1.155386872572904
100
AcDbArc
 50
204.3680190697
 51
210.8513203134
  0
ARC
  5
E5
330
1F
100
AcDbEntity
  8
0
  6
Continuous
 62
     7
370
    25
100
AcDbCircle
 10
0.3350479935
 20
-2.9280807711
 30
0.0
 40
0.0241875000000001
100
AcDbArc
 50
24.3680190697
 51
96.5277246339
  0
ARC
  5
E6
330
1F
100
AcDbEntity
  8
0
  6
Continuous
 62
     7
370
    25
100
AcDbCircle
 10
0.0
 20
0.0
 30
0.0
 40
2.923
100
AcDbArc
 50
276.3654647221
 51
276.5277246339
  0
ARC
  5
E7
330
1F
100
AcDbEntity
  8
0
  6
Continuous
 62
     7
370
    25
100
AcDbCircle
 10
0.326754425
 20
-2.929017874
 30
0.0
 40
0.0241875000000004
100
AcDbArc
 50
96.3654647221
 51
168.5251702863
  0
ARC
  5
E8
330
1F
100
AcDbEntity
  8
0
  6
Continuous
 62
     7
370
    25
100
AcDbCircle
 10
-0.829242843
 20
-2.6943563798
 30
0.0
 40
1.155386872572904
100
AcDbArc
 50
342.0418690426
 51
348.5251702863
  0
ARC
  5
E9
330
1F
100
AcDbEntity
  8
0
  6
Continuous
 62
     7
370
    25
100
AcDbCircle
 10
0.0
 20
0.0
 30
0.0
 40
3.0625
100
AcDbArc
 50
274.0879444342
 51
275.0552449218
  0
ARC
  5
EA
330
1F
100
AcDbEntity
  8
0
  6
Continuous
 62
     7
370
    25
100
AcDbCircle
 10
1.2468462483
 20
-2.5283540945
 30
0.0
 40
1.155386872572904
100
AcDbArc
 50
200.6180190697
 51
207.1013203134
  0
ARC
  5
EB
330
1F
100
AcDbEntity
  8
0
  6
Continuous
 62
     7
370
    25
100
AcDbCircle
 10
0.1428249849
 20
-2.9437247126
 30
0.0
 40
0.0241875000000003
100
AcDbArc
 50
20.6180190697
 51
92.7777246339
  0
ARC
  5
EC
330
1F
100
AcDbEntity
  8
0
  6
Continuous
 62
     7
370
    25
100
AcDbCircle
 10
0.0
 20
0.0
 30
0.0
 40
2.923000000000001
100
AcDbArc
 50
272.6154647221
 51
272.7777246339
  0
ARC
  5
ED
330
1F
100
AcDbEntity
  8
0
  6
Continuous
 62
     7
370
    25
100
AcDbCircle
 10
0.1344878841
 20
-2.9441173837
 30
0.0
 40
0.0241875000000009
100
AcDbArc
 50
92.6154647221
 51
164.7751702863
  0
ARC
  5
EE
330
1F
100
AcDbEntity
  8
0
  6
Continuous
 62
     7
370
    25
100
AcDbCircle
 10
-1.0036867089
 20
-2.6343524791
 30
0.0
 40
1.155386872572904
100
AcDbArc
 50
338.2918690426
 51
344.7751702863
  0
ARC
  5
EF
330
1F
100
AcDbEntity
  8
0
  6
Continuous
 62
     7
370
    25
100
AcDbCircle
 10
0.0
 20
0.0
 30
0.0
 40
3.0625
100
AcDbArc
 50
270.3379444342
 51
271.3052449218
  0
ARC
  5
F0
330
1F
100
AcDbEntity
  8
0
  6
Continuous
 62
     7
370
    25
100
AcDbCircle
 10
1.0788143852
 20
-2.6044883406
 30
0.0
 40
1.155386872572904
100
AcDbArc
 50
196.8680190697
 51
203.3513203134
  0
ARC
  5
F1
330
1F
100
AcDbEntity
  8
0
  6
Continuous
 62
     7
370
    25
100
AcDbCircle
 10
-0.0500096221
 20
-2.946763173
 30
0.0
 40
0.0241875000000002
100
AcDbArc
 50
16.8680190697
 51
89.0277246339
  0
ARC
  5
F2
330
1F
100
AcDbEntity
  8
0
  6
Continuous
 62
     7
370
    25
100
AcDbCircle
 10
0.0
 20
0.0
 30
0.0
 40
2.923
100
AcDbArc
 50
268.8654647221
 51
269.0277246339
  0
ARC
  5
F3
330
1F
100
AcDbEntity
  8
0
  6
Continuous
 62
     7
370
    25
100
AcDbCircle
 10
-0.0583545545
 20
-2.9466097309
 30
0.0
 40
0.0241875000000007
100
AcDbArc
 50
88.8654647221
 51
161.0251702863
  0
ARC
  5
F4
330
1F
100
AcDbEntity
  8
0
  6
Continuous
 62
     7
370
    25
100
AcDbCircle
 10
-1.1738326343
 20
-2.5630678767
 30
0.0
 40
1.155386872572904
100
AcDbArc
 50
334.5418690426
 51
341.0251702863
  0
ARC
  5
F5
330
1F
100
AcDbEntity
  8
0
  6
Continuous
 62
     7
370
    25
100
AcDbCircle
 10
0.0
 20
0.0
 30
0.0
 40
3.0625
100
AcDbArc
 50
266.5879444342
 51
267.5552449218
  0
ARC
  5
F6
330
1F
100
AcDbEntity
  8
0
  6
Continuous
 62
     7
370
    25
100
AcDbCircle
 10
0.9061628733
 20
-2.6694697678
 30
0.0
 40
1.155386872572904
100
AcDbArc
 50
193.1180190697
 51
199.6013203134
  0
ARC
  5
F7
330
1F
100
AcDbEntity
  8
0
  6
Continuous
 62
     7
370
    25
100
AcDbCircle
 10
-0.2426300803
 20
-2.9371831411
 30
0.0
 40
0.0241875
100
AcDbArc
 50
13.1180190697
 51
85.2777246339
  0
ARC
  5
F8
330
1F
100
AcDbEntity
  8
0
  6
Continuous
 62
     7
370
    25
100
AcDbCircle
 10
0.0
 20
0.0
 30
0.0
 40
2.923
100
AcDbArc
 50
265.1154647221
 51
265.2777246339
  0
ARC
  5
F9
330
1F
100
AcDbEntity
  8
0
  6
Continuous
 62
     7
370
    25
100
AcDbCircle
 10
-0.2509471099
 20
-2.9364842428
 30
0.0
 40
0.0241875000000002
100
AcDbArc
 50
85.1154647221
 51
157.2751702863
  0
ARC
  5
FA
330
1F
100
AcDbEntity
  8
0
  6
Continuous
 62
     7
370
    25
100
AcDbCircle
 10
-1.3389520281
 20
-2.4808078242
 30
0.0
 40
1.155386872572904
100
AcDbArc
 50
330.7918690426
 51
337.2751702863
  0
ARC
  5
FB
330
1F
100
AcDbEntity
  8
0
  6
Continuous
 62
     7
370
    25
100
AcDbCircle
 10
0.0
 20
0.0
 30
0.0
 40
3.062500000000001
100
AcDbArc
 50
262.8379444342
 51
263.8052449218
  0
ARC
  5
FC
330
1F
100
AcDbEntity
  8
0
  6
Continuous
 62
     7
370
    25
100
AcDbCircle
 10
0.7296310328
 20
-2.7230201156
 30
0.0
 40
1.155386872572904
100
AcDbArc
 50
189.3680190697
 51
195.8513203134
  0
ARC
  5
FD
330
1F
100
AcDbEntity
  8
0
  6
Continuous
 62
     7
370
    25
100
AcDbCircle
 10
-0.4342115592
 20
-2.91502564
 30
0.0
 40
0.0241875000000003
100
AcDbArc
 50
9.3680190697
 51
81.5277246339
  0
ARC
  5
FE
330
1F
100
AcDbEntity
  8
0
  6
Continuous
 62
     7
370
    25
100
AcDbCircle
 10
0.0
 20
0.0
 30
0.0
 40
2.923
100
AcDbArc
 50
261.3654647221
 51
261.5277246339
  0
ARC
  5
FF
330
1F
100
AcDbEntity
  8
0
  6
Continuous
 62
     7
370
    25
100
AcDbCircle
 10
-0.4424650713
 20
-2.9137842784
 30
0.0
 40
0.0241875000000003
100
AcDbArc
 50
81.3654647221
 51
153.5251702863
  0
ARC
  5
100
330
1F
100
AcDbEntity
  8
0
  6
Continuous
 62
     7
370
    25
100
AcDbCircle
 10
-1.4983378237
 20
-2.3879245717
 30
0.0
 40
1.155386872572904
100
AcDbArc
 50
327.0418690426
 51
333.5251702863
  0
ARC
  5
101
330
1F
100
AcDbEntity
  8
0
  6
Continuous
 62
     7
370
    25
100
AcDbCircle
 10
0.0
 20
0.0
 30
0.0
 40
3.0625
100
AcDbArc
 50
259.0879444342
 51
260.0552449218
  0
ARC
  5
102
330
1F
100
AcDbEntity
  8
0
  6
Continuous
 62
     7
370
    25
100
AcDbCircle
 10
0.5499748002
 20
-2.7649100732
 30
0.0
 40
1.155386872572904
100
AcDbArc
 50
185.6180190697
 51
192.1013203134
  0
ARC
  5
103
330
1F
100
AcDbEntity
  8
0
  6
Continuous
 62
     7
370
    25
100
AcDbCircle
 10
-0.6239336776
 20
-2.8803855516
 30
0.0
 40
0.0241875000000001
100
AcDbArc
 50
5.6180190697
 51
77.7777246339
  0
ARC
  5
104
330
1F
100
AcDbEntity
  8
0
  6
Continuous
 62
     7
370
    25
100
AcDbCircle
 10
0.0
 20
0.0
 30
0.0
 40
2.923
100
AcDbArc
 50
257.6154647221
 51
257.7777246339
  0
ARC
  5
105
330
1F
100
AcDbEntity
  8
0
  6
Continuous
 62
     7
370
    25
100
AcDbCircle
 10
-0.6320883293
 20
-2.8786070423
 30
0.0
 40
0.0241875000000001
100
AcDbArc
 50
77.6154647221
 51
149.7751702863
  0
ARC
  5
106
330
1F
100
AcDbEntity
  8
0
  6
Continuous
 62
     7
370
    25
100
AcDbCircle
 10
-1.6513075068
 20
-2.2848158596
 30
0.0
 40
1.155386872572904
100
AcDbArc
 50
323.2918690426
 51
329.7751702863
  0
ARC
  5
107
330
1F
100
AcDbEntity
  8
0
  6
Continuous
 62
     7
370
    25
100
AcDbCircle
 10
0.0
 20
0.0
 30
0.0
 40
3.0625
100
AcDbArc
 50
255.3379444342
 51
256.3052449218
  0
ARC
  5
108
330
1F
100
AcDbEntity
  8
0
  6
Continuous
 62
     7
370
    25
100
AcDbCircle
 10
0.3679634911
 20
-2.7949602615
 30
0.0
 40
1.155386872572904
100
AcDbArc
 50
181.8680190697
 51
188.3513203134
  0
ARC
  5
109
330
1F
100
AcDbEntity
  8
0
  6
Continuous
 62
     7
370
    25
100
AcDbCircle
 10
-0.8109840162
 20
-2.8334112101
 30
0.0
 40
0.0241875000000003
100
AcDbArc
 50
1.8680190697
 51
74.0277246339
  0
ARC
  5
10A
330
1F
100
AcDbEntity
  8
0
  6
Continuous
 62
     7
370
    25
100
AcDbCircle
 10
0.0
 20
0.0
 30
0.0
 40
2.923
100
AcDbArc
 50
253.8654647221
 51
254.0277246339
  0
ARC
  5
10B
330
1F
100
AcDbEntity
  8
0
  6
Continuous
 62
     7
370
    25
100
AcDbCircle
 10
-0.8190048881
 20
-2.831103169
 30
0.0
 40
0.0241875000000005
100
AcDbArc
 50
73.8654647221
 51
146.0251702863
  0
ARC
  5
10C
330
1F
100
AcDbEntity
  8
0
  6
Continuous
 62
     7
370
    25
100
AcDbCircle
 10
-1.7972060376
 20
-2.1719232151
 30
0.0
 40
1.155386872572904
100
AcDbArc
 50
319.5418690426
 51
326.0251702863
  0
ARC
  5
10D
330
1F
100
AcDbEntity
  8
0
  6
Continuous
 62
     7
370
    25
100
AcDbCircle
 10
0.0
 20
0.0
 30
0.0
 40
3.062500000000001
100
AcDbArc
 50
251.5879444342
 51
252.5552449218
  0
ARC
  5
10E
330
1F
100
AcDbEntity
  8
0
  6
Continuous
 62
     7
370
    25
100
AcDbCircle
 10
0.1843765059
 20
-2.8130420008
 30
0.0
 40
1.155386872572904
100
AcDbArc
 50
178.1180190697
 51
184.6013203134
  0
ARC
  5
10F
330
1F
100
AcDbEntity
  8
0
  6
Continuous
 62
     7
370
    25
100
AcDbCircle
 10
-0.9945615967
 20
-2.7743037668
 30
0.0
 40
0.0241875000000002
100
AcDbArc
 50
358.1180190697
 51
70.2777246339
  0
ARC
  5
110
330
1F
100
AcDbEntity
  8
0
  6
Continuous
 62
     7
370
    25
100
AcDbCircle
 10
0.0
 20
0.0
 30
0.0
 40
2.923
100
AcDbArc
 50
250.1154647221
 51
250.2777246339
  0
ARC
  5
111
330
1F
100
AcDbEntity
  8
0
  6
Continuous
 62
     7
370
    25
100
AcDbCircle
 10
-1.0024143422
 20
-2.7714760772
 30
0.0
 40
0.0241875000000002
100
AcDbArc
 50
70.1154647221
 51
142.2751702863
  0
ARC
  5
112
330
1F
100
AcDbEntity
  8
0
  6
Continuous
 62
     7
370
    25
100
AcDbCircle
 10
-1.9354086562
 20
-2.0497300621
 30
0.0
 40
1.155386872572904
100
AcDbArc
 50
315.7918690426
 51
322.2751702863
  0
ARC
  5
113
330
1F
100
AcDbEntity
  8
0
  6
Continuous
 62
     7
370
    25
100
AcDbCircle
 10
0.0
 20
0.0
 30
0.0
 40
3.0625
100
AcDbArc
 50
247.8379444342
 51
248.8052449218
  0
ARC
  5
114
330
1F
100
AcDbEntity
  8
0
  6
Continuous
 62
     7
370
    25
100
AcDbCircle
 10
-0.0000000079
 20
-2.8190778624
 30
0.0
 40
1.155386872572904
100
AcDbArc
 50
174.3680190697
 51
180.8513203134
  0
ARC
  5
115
330
1F
100
AcDbEntity
  8
0
  6
Continuous
 62
     7
370
    25
100
AcDbCircle
 10
-1.1738803117
 20
-2.7033163289
 30
0.0
 40
0.0241875000000003
100
AcDbArc
 50
354.3680190697
 51
66.5277246339
  0
ARC
  5
116
330
1F
100
AcDbEntity
  8
0
  6
Continuous
 62
     7
370
    25
100
AcDbCircle
 10
0.0
 20
0.0
 30
0.0
 40
2.923000000000001
100
AcDbArc
 50
246.3654647221
 51
246.5277246339
  0
ARC
  5
117
330
1F
100
AcDbEntity
  8
0
  6
Continuous
 62
     7
370
    25
100
AcDbCircle
 10
-1.1815313042
 20
-2.6999810995
 30
0.0
 40
0.0241875000000003
100
AcDbArc
 50
66.3654647221
 51
138.5251702863
  0
ARC
  5
118
330
1F
100
AcDbEntity
  8
0
  6
Continuous
 62
     7
370
    25
100
AcDbCircle
 10
-2.0653235579
 20
-1.9187596502
 30
0.0
 40
1.155386872572904
100
AcDbArc
 50
312.0418690426
 51
318.5251702863
  0
ARC
  5
119
330
1F
100
AcDbEntity
  8
0
  6
Continuous
 62
     7
370
    25
100
AcDbCircle
 10
0.0
 20
0.0
 30
0.0
 40
3.0625
100
AcDbArc
 50
244.0879444342
 51
245.0552449218
  0
ARC
  5
11A
330
1F
100
AcDbEntity
  8
0
  6
Continuous
 62
     7
370
    25
100
AcDbCircle
 10
-0.1843765216
 20
-2.8130419997
 30
0.0
 40
1.155386872572904
100
AcDbArc
 50
170.6180190697
 51
177.1013203134
  0
ARC
  5
11B
330
1F
100
AcDbEntity
  8
0
  6
Continuous
 62
     7
370
    25
100
AcDbCircle
 10
-1.3481722911
 20
-2.6207528754
 30
0.0
 40
0.0241875000000002
100
AcDbArc
 50
350.6180190697
 51
62.7777246339
  0
ARC
  5
11C
330
1F
100
AcDbEntity
  8
0
  6
Continuous
 62
     7
370
    25
100
AcDbCircle
 10
0.0
 20
0.0
 30
0.0
 40
2.923
100
AcDbArc
 50
242.6154647221
 51
242.7777246339
  0
ARC
  5
11D
330
1F
100
AcDbEntity
  8
0
  6
Continuous
 62
     7
370
    25
100
AcDbCircle
 10
-1.3555887677
 20
-2.6169243881
 30
0.0
 40
0.0241875000000004
100
AcDbArc
 50
62.6154647221
 51
134.7751702863
  0
ARC
  5
11E
330
1F
100
AcDbEntity
  8
0
  6
Continuous
 62
     7
370
    25
100
AcDbCircle
 10
-2.186394427
 20
-1.779572815
 30
0.0
 40
1.155386872572904
100
AcDbArc
 50
308.2918690426
 51
314.7751702863
  0
ARC
  5
11F
330
1F
100
AcDbEntity
  8
0
  6
Continuous
 62
     7
370
    25
100
AcDbCircle
 10
0.0
 20
0.0
 30
0.0
 40
3.062500000000001
100
AcDbArc
 50
240.3379444342
 51
241.3052449218
  0
ARC
  5
120
330
1F
100
AcDbEntity
  8
0
  6
Continuous
 62
     7
370
    25
100
AcDbCircle
 10
-0.3679635068
 20
-2.7949602594
 30
0.0
 40
1.155386872572904
100
AcDbArc
 50
166.8680190697
 51
173.3513203134
  0
ARC
  5
121
330
1F
100
AcDbEntity
  8
0
  6
Continuous
 62
     7
370
    25
100
AcDbCircle
 10
-1.5166911897
 20
-2.5269669557
 30
0.0
 40
0.0241875000000002
100
AcDbArc
 50
346.8680190697
 51
59.0277246339
  0
ARC
  5
122
330
1F
100
AcDbEntity
  8
0
  6
Continuous
 62
     7
370
    25
100
AcDbCircle
 10
0.0
 20
0.0
 30
0.0
 40
2.923
100
AcDbArc
 50
238.8654647221
 51
239.0277246339
  0
ARC
  5
123
330
1F
100
AcDbEntity
  8
0
  6
Continuous
 62
     7
370
    25
100
AcDbCircle
 10
-1.523841392
 20
-2.5226616047
 30
0.0
 40
0.0241875000000004
100
AcDbArc
 50
58.8654647221
 51
131.0251702863
  0
ARC
  5
124
330
1F
100
AcDbEntity
  8
0
  6
Continuous
 62
     7
370
    25
100
AcDbCircle
 10
-2.2981028194
 20
-1.6327655757
 30
0.0
 40
1.155386872572904
100
AcDbArc
 50
304.5418690426
 51
311.0251702863
  0
ARC
  5
125
330
1F
100
AcDbEntity
  8
0
  6
Continuous
 62
     7
370
    25
100
AcDbCircle
 10
0.0
 20
0.0
 30
0.0
 40
3.0625
100
AcDbArc
 50
236.5879444342
 51
237.5552449218
  0
ARC
  5
126
330
1F
100
AcDbEntity
  8
0
  6
Continuous
 62
     7
370
    25
100
AcDbCircle
 10
-0.5499748157
 20
-2.7649100702
 30
0.0
 40
1.155386872572904
100
AcDbArc
 50
163.1180190697
 51
169.6013203134
  0
ARC
  5
127
330
1F
100
AcDbEntity
  8
0
  6
Continuous
 62
     7
370
    25
100
AcDbCircle
 10
-1.6787153838
 20
-2.4223601756
 30
0.0
 40
0.0241875000000001
100
AcDbArc
 50
343.1180190697
 51
55.2777246339
  0
ARC
  5
128
330
1F
100
AcDbEntity
  8
0
  6
Continuous
 62
     7
370
    25
100
AcDbCircle
 10
0.0
 20
0.0
 30
0.0
 40
2.923
100
AcDbArc
 50
235.1154647221
 51
235.2777246339
  0
ARC
  5
129
330
1F
100
AcDbEntity
  8
0
  6
Continuous
 62
     7
370
    25
100
AcDbCircle
 10
-1.6855686936
 20
-2.4175963971
 30
0.0
 40
0.0241875000000003
100
AcDbArc
 50
55.1154647221
 51
127.2751702863
  0
ARC
  5
12A
330
1F
100
AcDbEntity
  8
0
  6
Continuous
 62
     7
370
    25
100
AcDbCircle
 10
-2.3999703829
 20
-1.4789665836
 30
0.0
 40
1.155386872572904
100
AcDbArc
 50
300.7918690426
 51
307.2751702863
  0
ARC
  5
12B
330
1F
100
AcDbEntity
  8
0
  6
Continuous
 62
     7
370
    25
100
AcDbCircle
 10
0.0
 20
0.0
 30
0.0
 40
3.062500000000001
100
AcDbArc
 50
232.8379444342
 51
233.8052449218
  0
ARC
  5
12C
330
1F
100
AcDbEntity
  8
0
  6
Continuous
 62
     7
370
    25
100
AcDbCircle
 10
-0.729631048
 20
-2.7230201115
 30
0.0
 40
1.155386872572904
100
AcDbArc
 50
159.3680190697
 51
165.8513203134
  0
ARC
  5
12D
330
1F
100
AcDbEntity
  8
0
  6
Continuous
 62
     7
370
    25
100
AcDbCircle
 10
-1.8335510609
 20
-2.3073804773
 30
0.0
 40
0.0241875000000002
100
AcDbArc
 50
339.3680190697
 51
51.5277246339
  0
ARC
  5
12E
330
1F
100
AcDbEntity
  8
0
  6
Continuous
 62
     7
370
    25
100
AcDbCircle
 10
0.0
 20
0.0
 30
0.0
 40
2.923
100
AcDbArc
 50
231.3654647221
 51
231.5277246339
  0
ARC
  5
12F
330
1F
100
AcDbEntity
  8
0
  6
Continuous
 62
     7
370
    25
100
AcDbCircle
 10
-1.8400781312
 20
-2.3021786706
 30
0.0
 40
0.0241875000000001
100
AcDbArc
 50
51.3654647221
 51
123.5251702863
  0
ARC
  5
130
330
1F
100
AcDbEntity
  8
0
  6
Continuous
 62
     7
370
    25
100
AcDbCircle
 10
-2.4915609046
 20
-1.3188344295
 30
0.0
 40
1.155386872572904
100
AcDbArc
 50
297.0418690426
 51
303.5251702863
  0
ARC
  5
131
330
1F
100
AcDbEntity
  8
0
  6
Continuous
 62
     7
370
    25
100
AcDbCircle
 10
0.0
 20
0.0
 30
0.0
 40
3.0625
100
AcDbArc
 50
229.0879444342
 51
230.0552449218
  0
ARC
  5
132
330
1F
100
AcDbEntity
  8
0
  6
Continuous
 62
     7
370
    25
100
AcDbCircle
 10
-0.9061628882
 20
-2.6694697627
 30
0.0
 40
1.155386872572904
100
AcDbArc
 50
155.6180190697
 51
162.1013203134
  0
ARC
  5
133
330
1F
100
AcDbEntity
  8
0
  6
Continuous
 62
     7
370
    25
100
AcDbCircle
 10
-1.9805351909
 20
-2.1825202216
 30
0.0
 40
0.0241875000000001
100
AcDbArc
 50
335.6180190697
 51
47.7777246339
  0
ARC
  5
134
330
1F
100
AcDbEntity
  8
0
  6
Continuous
 62
     7
370
    25
100
AcDbCircle
 10
0.0
 20
0.0
 30
0.0
 40
2.923000000000001
100
AcDbArc
 50
227.6154647221
 51
227.7777246339
  0
ARC
  5
135
330
1F
100
AcDbEntity
  8
0
  6
Continuous
 62
     7
370
    25
100
AcDbCircle
 10
-1.9867080718
 20
-2.1769026615
 30
0.0
 40
0.0241875000000006
100
AcDbArc
 50
47.6154647221
 51
119.7751702863
  0
ARC
  5
136
330
1F
100
AcDbEntity
  8
0
  6
Continuous
 62
     7
370
    25
100
AcDbCircle
 10
-2.5724821801
 20
-1.1530548239
 30
0.0
 40
1.155386872572904
100
AcDbArc
 50
293.2918690426
 51
299.7751702863
  0
ARC
  5
137
330
1F
100
AcDbEntity
  8
0
  6
Continuous
 62
     7
370
    25
100
AcDbCircle
 10
0.0
 20
0.0
 30
0.0
 40
3.0625
100
AcDbArc
 50
225.3379444342
 51
226.3052449218
  0
ARC
  5
138
330
1F
100
AcDbEntity
  8
0
  6
Continuous
 62
     7
370
    25
100
AcDbCircle
 10
-1.0788143997
 20
-2.6044883346
 30
0.0
 40
1.155386872572904
100
AcDbArc
 50
151.8680190697
 51
158.3513203134
  0
ARC
  5
139
330
1F
100
AcDbEntity
  8
0
  6
Continuous
 62
     7
370
    25
100
AcDbCircle
 10
-2.1190383651
 20
-2.0483140793
 30
0.0
 40
0.0241875000000005
100
AcDbArc
 50
331.8680190697
 51
44.0277246339
  0
ARC
  5
13A
330
1F
100
AcDbEntity
  8
0
  6
Continuous
 62
     7
370
    25
100
AcDbCircle
 10
0.0
 20
0.0
 30
0.0
 40
2.923
100
AcDbArc
 50
223.8654647221
 51
224.0277246339
  0
ARC
  5
13B
330
1F
100
AcDbEntity
  8
0
  6
Continuous
 62
     7
370
    25
100
AcDbCircle
 10
-2.1248306234
 20
-2.042304821
 30
0.0
 40
0.0241875000000003
100
AcDbArc
 50
43.8654647221
 51
116.0251702863
  0
ARC
  5
13C
330
1F
100
AcDbEntity
  8
0
  6
Continuous
 62
     7
370
    25
100
AcDbCircle
 10
-2.642387692
 20
-0.9823376606
 30
0.0
 40
1.155386872572904
100
AcDbArc
 50
289.5418690426
 51
296.0251702863
  0
ARC
  5
13D
330
1F
100
AcDbEntity
  8
0
  6
Continuous
 62
     7
370
    25
100
AcDbCircle
 10
0.0
 20
0.0
 30
0.0
 40
3.0625
100
AcDbArc
 50
221.5879444342
 51
222.5552449218
  0
ARC
  5
13E
330
1F
100
AcDbEntity
  8
0
  6
Continuous
 62
     7
370
    25
100
AcDbCircle
 10
-1.2468462624
 20
-2.5283540875
 30
0.0
 40
1.155386872572904
100
AcDbArc
 50
148.1180190697
 51
154.6013203134
  0
ARC
  5
13F
330
1F
100
AcDbEntity
  8
0
  6
Continuous
 62
     7
370
    25
100
AcDbCircle
 10
-2.2484674918
 20
-1.9053367415
 30
0.0
 40
0.0241875000000002
100
AcDbArc
 50
328.1180190697
 51
40.2777246339
  0
ARC
  5
140
330
1F
100
AcDbEntity
  8
0
  6
Continuous
 62
     7
370
    25
100
AcDbCircle
 10
0.0
 20
0.0
 30
0.0
 40
2.923
100
AcDbArc
 50
220.1154647221
 51
220.2777246339
  0
ARC
  5
141
330
1F
100
AcDbEntity
  8
0
  6
Continuous
 62
     7
370
    25
100
AcDbCircle
 10
-2.2538543241
 20
-1.8989615178
 30
0.0
 40
0.0241875000000004
100
AcDbArc
 50
40.1154647221
 51
112.2751702863
  0
ARC
  5
142
330
1F
100
AcDbEntity
  8
0
  6
Continuous
 62
     7
370
    25
100
AcDbCircle
 10
-2.700978094
 20
-0.8074139766
 30
0.0
 40
1.155386872572904
100
AcDbArc
 50
285.7918690426
 51
292.2751702863
  0
ARC
  5
143
330
1F
100
AcDbEntity
  8
0
  6
Continuous
 62
     7
370
    25
100
AcDbCircle
 10
0.0
 20
0.0
 30
0.0
 40
3.0625
100
AcDbArc
 50
217.8379444342
 51
218.8052449218
  0
ARC
  5
144
330
1F
100
AcDbEntity
  8
0
  6
Continuous
 62
     7
370
    25
100
AcDbCircle
 10
-1.409538938
 20
-2.4413930401
 30
0.0
 40
1.155386872572904
100
AcDbArc
 50
144.3680190697
 51
150.8513203134
  0
ARC
  5
145
330
1F
100
AcDbEntity
  8
0
  6
Continuous
 62
     7
370
    25
100
AcDbCircle
 10
-2.3682683354
 20
-1.7542004594
 30
0.0
 40
0.0241875000000005
100
AcDbArc
 50
324.3680190697
 51
36.5277246339
  0
ARC
  5
146
330
1F
100
AcDbEntity
  8
0
  6
Continuous
 62
     7
370
    25
100
AcDbCircle
 10
0.0
 20
0.0
 30
0.0
 40
2.923
100
AcDbArc
 50
216.3654647221
 51
216.5277246339
  0
ARC
  5
147
330
1F
100
AcDbEntity
  8
0
  6
Continuous
 62
     7
370
    25
100
AcDbCircle
 10
-2.3732266745
 20
-1.7474865698
 30
0.0
 40
0.0241875000000007
100
AcDbArc
 50
36.3654647221
 51
108.5251702863
  0
ARC
  5
148
330
1F
100
AcDbEntity
  8
0
  6
Continuous
 62
     7
370
    25
100
AcDbCircle
 10
-2.7480024933
 20
-0.6290328219
 30
0.0
 40
1.155386872572904
100
AcDbArc
 50
282.0418690426
 51
288.5251702863
  0
ARC
  5
149
330
1F
100
AcDbEntity
  8
0
  6
Continuous
 62
     7
370
    25
100
AcDbCircle
 10
0.0
 20
0.0
 30
0.0
 40
3.0625
100
AcDbArc
 50
214.0879444342
 51
215.0552449218
  0
ARC
  5
14A
330
1F
100
AcDbEntity
  8
0
  6
Continuous
 62
     7
370
    25
100
AcDbCircle
 10
-1.5661957514
 20
-2.3439775729
 30
0.0
 40
1.155386872572904
100
AcDbArc
 50
140.6180190697
 51
147.1013203134
  0
ARC
  5
14B
330
1F
100
AcDbEntity
  8
0
  6
Continuous
 62
     7
370
    25
100
AcDbCircle
 10
-2.4779278904
 20
-1.5955524216
 30
0.0
 40
0.0241875000000003
100
AcDbArc
 50
320.6180190697
 51
32.7777246339
  0
ARC
  5
14C
330
1F
100
AcDbEntity
  8
0
  6
Continuous
 62
     7
370
    25
100
AcDbCircle
 10
0.0
 20
0.0
 30
0.0
 40
2.923
100
AcDbArc
 50
212.6154647221
 51
212.7777246339
  0
ARC
  5
14D
330
1F
100
AcDbEntity
  8
0
  6
Continuous
 62
     7
370
    25
100
AcDbCircle
 10
-2.482436504
 20
-1.588528616
 30
0.0
 40
0.0241875000000008
100
AcDbArc
 50
32.6154647221
 51
104.7751702863
  0
ARC
  5
14E
330
1F
100
AcDbEntity
  8
0
  6
Continuous
 62
     7
370
    25
100
AcDbCircle
 10
-2.7832595239
 20
-0.4479580522
 30
0.0
 40
1.155386872572904
100
AcDbArc
 50
278.2918690426
 51
284.7751702863
  0
ARC
  5
14F
330
1F
100
AcDbEntity
  8
0
  6
Continuous
 62
     7
370
    25
100
AcDbCircle
 10
0.0
 20
0.0
 30
0.0
 40
3.0625
100
AcDbArc
 50
210.3379444342
 51
211.3052449218
  0
ARC
  5
150
330
1F
100
AcDbEntity
  8
0
  6
Continuous
 62
     7
370
    25
100
AcDbCircle
 10
-1.7161458742
 20
-2.2365248339
 30
0.0
 40
1.155386872572904
100
AcDbArc
 50
136.8680190697
 51
143.3513203134
  0
ARC
  5
151
330
1F
100
AcDbEntity
  8
0
  6
Continuous
 62
     7
370
    25
100
AcDbCircle
 10
-2.5769765778
 20
-1.4300719833
 30
0.0
 40
0.0241875000000004
100
AcDbArc
 50
316.8680190697
 51
29.0277246339
  0
ARC
  5
152
330
1F
100
AcDbEntity
  8
0
  6
Continuous
 62
     7
370
    25
100
AcDbCircle
 10
0.0
 20
0.0
 30
0.0
 40
2.923
100
AcDbArc
 50
208.8654647221
 51
209.0277246339
  0
ARC
  5
153
330
1F
100
AcDbEntity
  8
0
  6
Continuous
 62
     7
370
    25
100
AcDbCircle
 10
-2.5810161592
 20
-1.4227683388
 30
0.0
 40
0.0241875000000008
100
AcDbArc
 50
28.8654647221
 51
101.0251702863
  0
ARC
  5
154
330
1F
100
AcDbEntity
  8
0
  6
Continuous
 62
     7
370
    25
100
AcDbCircle
 10
-2.80659821
 20
-0.2649650573
 30
0.0
 40
1.155386872572904
100
AcDbArc
 50
274.5418690426
 51
281.0251702863
  0
ARC
  5
155
330
1F
100
AcDbEntity
  8
0
  6
Continuous
 62
     7
370
    25
100
AcDbCircle
 10
0.0
 20
0.0
 30
0.0
 40
3.062500000000001
100
AcDbArc
 50
206.5879444342
 51
207.5552449218
  0
ARC
  5
156
330
1F
100
AcDbEntity
  8
0
  6
Continuous
 62
     7
370
    25
100
AcDbCircle
 10
-1.8587471969
 20
-2.1194949521
 30
0.0
 40
1.155386872572904
100
AcDbArc
 50
133.1180190697
 51
139.6013203134
  0
ARC
  5
157
330
1F
100
AcDbEntity
  8
0
  6
Continuous
 62
     7
370
    25
100
AcDbCircle
 10
-2.6649902559
 20
-1.2584677573
 30
0.0
 40
0.0241875000000008
100
AcDbArc
 50
313.1180190697
 51
25.2777246339
  0
ARC
  5
158
330
1F
100
AcDbEntity
  8
0
  6
Continuous
 62
     7
370
    25
100
AcDbCircle
 10
0.0
 20
0.0
 30
0.0
 40
2.923
100
AcDbArc
 50
205.1154647221
 51
205.2777246339
  0
ARC
  5
159
330
1F
100
AcDbEntity
  8
0
  6
Continuous
 62
     7
370
    25
100
AcDbCircle
 10
-2.668543507
 20
-1.2509155492
 30
0.0
 40
0.0241875000000003
100
AcDbArc
 50
25.1154647221
 51
97.2751702863
  0
ARC
  5
15A
330
1F
100
AcDbEntity
  8
0
  6
Continuous
 62
     7
370
    25
100
AcDbCircle
 10
-2.8179186117
 20
-0.0808374413
 30
0.0
 40
1.155386872572904
100
AcDbArc
 50
270.7918690426
 51
277.2751702863
  0
ARC
  5
15B
330
1F
100
AcDbEntity
  8
0
  6
Continuous
 62
     7
370
    25
100
AcDbCircle
 10
0.0
 20
0.0
 30
0.0
 40
3.0625
100
AcDbArc
 50
202.8379444342
 51
203.8052449218
  0
ARC
  5
15C
330
1F
100
AcDbEntity
  8
0
  6
Continuous
 62
     7
370
    25
100
AcDbCircle
 10
-1.9933890787
 20
-1.9933890676
 30
0.0
 40
1.155386872572904
100
AcDbArc
 50
129.3680190697
 51
135.8513203134
  0
ARC
  5
15D
330
1F
100
AcDbEntity
  8
0
  6
Continuous
 62
     7
370
    25
100
AcDbCircle
 10
-2.7415920366
 20
-1.0814745791
 30
0.0
 40
0.0241875000000003
100
AcDbArc
 50
309.3680190697
 51
21.5277246339
  0
ARC
  5
15E
330
1F
100
AcDbEntity
  8
0
  6
Continuous
 62
     7
370
    25
100
AcDbCircle
 10
0.0
 20
0.0
 30
0.0
 40
2.923
100
AcDbArc
 50
201.3654647221
 51
201.5277246339
  0
ARC
  5
15F
330
1F
100
AcDbEntity
  8
0
  6
Continuous
 62
     7
370
    25
100
AcDbCircle
 10
-2.7446437419
 20
-1.0737061471
 30
0.0
 40
0.0241875000000009
100
AcDbArc
 50
21.3654647221
 51
93.5251702863
  0
ARC
  5
160
330
1F
100
AcDbEntity
  8
0
  6
Continuous
 62
     7
370
    25
100
AcDbCircle
 10
-2.8171722533
 20
0.103636333
 30
0.0
 40
1.155386872572904
100
AcDbArc
 50
267.0418690426
 51
273.5251702863
  0
ARC
  5
161
330
1F
100
AcDbEntity
  8
0
  6
Continuous
 62
     7
370
    25
100
AcDbCircle
 10
0.0
 20
0.0
 30
0.0
 40
3.0625
100
AcDbArc
 50
199.0879444342
 51
200.0552449218
  0
ARC
  5
162
330
1F
100
AcDbEntity
  8
0
  6
Continuous
 62
     7
370
    25
100
AcDbCircle
 10
-2.1194949625
 20
-1.8587471851
 30
0.0
 40
1.155386872572904
100
AcDbArc
 50
125.6180190697
 51
132.1013203134
  0
ARC
  5
163
330
1F
100
AcDbEntity
  8
0
  6
Continuous
 62
     7
370
    25
100
AcDbCircle
 10
-2.8064538992
 20
-0.8998503607
 30
0.0
 40
0.0241874999999999
100
AcDbArc
 50
305.6180190697
 51
17.7777246339
  0
ARC
  5
164
330
1F
100
AcDbEntity
  8
0
  6
Continuous
 62
     7
370
    25
100
AcDbCircle
 10
0.0
 20
0.0
 30
0.0
 40
2.923
100
AcDbArc
 50
197.6154647221
 51
197.7777246339
  0
ARC
  5
165
330
1F
100
AcDbEntity
  8
0
  6
Continuous
 62
     7
370
    25
100
AcDbCircle
 10
-2.8089909908
 20
-0.8918989705
 30
0.0
 40
0.0241875000000004
100
AcDbArc
 50
17.6154647221
 51
89.7751702863
  0
ARC
  5
166
330
1F
100
AcDbEntity
  8
0
  6
Continuous
 62
     7
370
    25
100
AcDbCircle
 10
-2.8043623307
 20
0.2876663206
 30
0.0
 40
1.155386872572904
100
AcDbArc
 50
263.2918690426
 51
269.7751702863
  0
ARC
  5
167
330
1F
100
AcDbEntity
  8
0
  6
Continuous
 62
     7
370
    25
100
AcDbCircle
 10
0.0
 20
0.0
 30
0.0
 40
3.062500000000001
100
AcDbArc
 50
195.3379444342
 51
196.3052449218
  0
ARC
  5
168
330
1F
100
AcDbEntity
  8
0
  6
Continuous
 62
     7
370
    25
100
AcDbCircle
 10
-2.2365248434
 20
-1.7161458617
 30
0.0
 40
1.155386872572904
100
AcDbArc
 50
121.8680190697
 51
128.3513203134
  0
ARC
  5
169
330
1F
100
AcDbEntity
  8
0
  6
Continuous
 62
     7
370
    25
100
AcDbCircle
 10
-2.8592980954
 20
-0.714372845
 30
0.0
 40
0.0241875
100
AcDbArc
 50
301.8680190697
 51
14.0277246339
  0
ARC
  5
16A
330
1F
100
AcDbEntity
  8
0
  6
Continuous
 62
     7
370
    25
100
AcDbCircle
 10
0.0
 20
0.0
 30
0.0
 40
2.923
100
AcDbArc
 50
193.8654647221
 51
194.0277246339
  0
ARC
  5
16B
330
1F
100
AcDbEntity
  8
0
  6
Continuous
 62
     7
370
    25
100
AcDbCircle
 10
-2.8613097091
 20
-0.7062725456
 30
0.0
 40
0.0241875000000005
100
AcDbArc
 50
13.8654647221
 51
86.0251702863
  0
ARC
  5
16C
330
1F
100
AcDbEntity
  8
0
  6
Continuous
 62
     7
370
    25
100
AcDbCircle
 10
-2.7795436982
 20
0.4704644768
 30
0.0
 40
1.155386872572904
100
AcDbArc
 50
259.5418690426
 51
266.0251702863
  0
ARC
  5
16D
330
1F
100
AcDbEntity
  8
0
  6
Continuous
 62
     7
370
    25
100
AcDbCircle
 10
0.0
 20
0.0
 30
0.0
 40
3.0625
100
AcDbArc
 50
191.5879444342
 51
192.5552449218
  0
ARC
  5
16E
330
1F
100
AcDbEntity
  8
0
  6
Continuous
 62
     7
370
    25
100
AcDbCircle
 10
-2.3439775816
 20
-1.5661957383
 30
0.0
 40
1.155386872572904
100
AcDbArc
 50
118.1180190697
 51
124.6013203134
  0
ARC
  5
16F
330
1F
100
AcDbEntity
  8
0
  6
Continuous
 62
     7
370
    25
100
AcDbCircle
 10
-2.8998983382
 20
-0.5258362751
 30
0.0
 40
0.0241875
100
AcDbArc
 50
298.1180190697
 51
10.2777246339
  0
ARC
  5
170
330
1F
100
AcDbEntity
  8
0
  6
Continuous
 62
     7
370
    25
100
AcDbCircle
 10
0.0
 20
0.0
 30
0.0
 40
2.923
100
AcDbArc
 50
190.1154647221
 51
190.2777246339
  0
ARC
  5
171
330
1F
100
AcDbEntity
  8
0
  6
Continuous
 62
     7
370
    25
100
AcDbCircle
 10
-2.90137586
 20
-0.5176217532
 30
0.0
 40
0.0241875000000009
100
AcDbArc
 50
10.1154647221
 51
82.2751702863
  0
ARC
  5
172
330
1F
100
AcDbEntity
  8
0
  6
Continuous
 62
     7
370
    25
100
AcDbCircle
 10
-2.7428226328
 20
0.6512480319
 30
0.0
 40
1.155386872572904
100
AcDbArc
 50
255.7918690426
 51
262.2751702863
  0
ARC
  5
173
330
1F
100
AcDbEntity
  8
0
  6
Continuous
 62
     7
370
    25
100
AcDbCircle
 10
0.0
 20
0.0
 30
0.0
 40
3.0625
100
AcDbArc
 50
187.8379444342
 51
188.8052449218
  0
ARC
  5
174
330
1F
100
AcDbEntity
  8
0
  6
Continuous
 62
     7
370
    25
100
AcDbCircle
 10
-2.441393048
 20
-1.4095389244
 30
0.0
 40
1.155386872572904
100
AcDbArc
 50
114.3680190697
 51
120.8513203134
  0
ARC
  5
175
330
1F
100
AcDbEntity
  8
0
  6
Continuous
 62
     7
370
    25
100
AcDbCircle
 10
-2.9280807711
 20
-0.3350479935
 30
0.0
 40
0.0241875000000003
100
AcDbArc
 50
294.3680190697
 51
6.5277246339
  0
ARC
  5
176
330
1F
100
AcDbEntity
  8
0
  6
Continuous
 62
     7
370
    25
100
AcDbCircle
 10
0.0
 20
0.0
 30
0.0
 40
2.923
100
AcDbArc
 50
186.3654647221
 51
186.5277246339
  0
ARC
  5
177
330
1F
100
AcDbEntity
  8
0
  6
Continuous
 62
     7
370
    25
100
AcDbCircle
 10
-2.929017874
 20
-0.326754425
 30
0.0
 40
0.0241875000000004
100
AcDbArc
 50
6.3654647221
 51
78.5251702863
  0
ARC
  5
178
330
1F
100
AcDbEntity
  8
0
  6
Continuous
 62
     7
370
    25
100
AcDbCircle
 10
-2.6943563798
 20
0.829242843
 30
0.0
 40
1.155386872572904
100
AcDbArc
 50
252.0418690426
 51
258.5251702863
  0
ARC
  5
179
330
1F
100
AcDbEntity
  8
0
  6
Continuous
 62
     7
370
    25
100
AcDbCircle
 10
0.0
 20
0.0
 30
0.0
 40
3.0625
100
AcDbArc
 50
184.0879444342
 51
185.0552449218
  0
ARC
  5
17A
330
1F
100
AcDbEntity
  8
0
  6
Continuous
 62
     7
370
    25
100
AcDbCircle
 10
-2.5283540945
 20
-1.2468462483
 30
0.0
 40
1.155386872572904
100
AcDbArc
 50
110.6180190697
 51
117.1013203134
  0
ARC
  5
17B
330
1F
100
AcDbEntity
  8
0
  6
Continuous
 62
     7
370
    25
100
AcDbCircle
 10
-2.9437247126
 20
-0.1428249849
 30
0.0
 40
0.0241875000000003
100
AcDbArc
 50
290.6180190697
 51
2.7777246339
  0
ARC
  5
17C
330
1F
100
AcDbEntity
  8
0
  6
Continuous
 62
     7
370
    25
100
AcDbCircle
 10
0.0
 20
0.0
 30
0.0
 40
2.923
100
AcDbArc
 50
182.6154647221
 51
182.7777246339
  0
ARC
  5
17D
330
1F
100
AcDbEntity
  8
0
  6
Continuous
 62
     7
370
    25
100
AcDbCircle
 10
-2.9441173837
 20
-0.1344878841
 30
0.0
 40
0.0241875000000004
100
AcDbArc
 50
2.6154647221
 51
74.7751702863
  0
ARC
  5
17E
330
1F
100
AcDbEntity
  8
0
  6
Continuous
 62
     7
370
    25
100
AcDbCircle
 10
-2.6343524791
 20
1.0036867089
 30
0.0
 40
1.155386872572904
100
AcDbArc
 50
248.2918690426
 51
254.7751702863
  0
ARC
  5
17F
330
1F
100
AcDbEntity
  8
0
  6
Continuous
 62
     7
370
    25
100
AcDbCircle
 10
0.0
 20
0.0
 30
0.0
 40
3.0625
100
AcDbArc
 50
180.3379444342
 51
181.3052449218
  0
ARC
  5
180
330
1F
100
AcDbEntity
  8
0
  6
Continuous
 62
     7
370
    25
100
AcDbCircle
 10
-2.6044883406
 20
-1.0788143852
 30
0.0
 40
1.155386872572904
100
AcDbArc
 50
106.8680190697
 51
113.3513203134
  0
ARC
  5
181
330
1F
100
AcDbEntity
  8
0
  6
Continuous
 62
     7
370
    25
100
AcDbCircle
 10
-2.946763173
 20
0.0500096221
 30
0.0
 40
0.0241875000000001
100
AcDbArc
 50
286.8680190697
 51
359.0277246339
  0
ARC
  5
182
330
1F
100
AcDbEntity
  8
0
  6
Continuous
 62
     7
370
    25
100
AcDbCircle
 10
0.0
 20
0.0
 30
0.0
 40
2.923
100
AcDbArc
 50
178.8654647221
 51
179.0277246339
  0
ARC
  5
183
330
1F
100
AcDbEntity
  8
0
  6
Continuous
 62
     7
370
    25
100
AcDbCircle
 10
-2.9466097309
 20
0.0583545545
 30
0.0
 40
0.0241875000000003
100
AcDbArc
 50
358.8654647221
 51
71.0251702863
  0
ARC
  5
184
330
1F
100
AcDbEntity
  8
0
  6
Continuous
 62
     7
370
    25
100
AcDbCircle
 10
-2.5630678767
 20
1.1738326343
 30
0.0
 40
1.155386872572904
100
AcDbArc
 50
244.5418690426
 51
251.0251702863
  0
ARC
  5
185
330
1F
100
AcDbEntity
  8
0
  6
Continuous
 62
     7
370
    25
100
AcDbCircle
 10
0.0
 20
0.0
 30
0.0
 40
3.062500000000001
100
AcDbArc
 50
176.5879444342
 51
177.5552449218
  0
ARC
  5
186
330
1F
100
AcDbEntity
  8
0
  6
Continuous
 62
     7
370
    25
100
AcDbCircle
 10
-2.6694697678
 20
-0.9061628733
 30
0.0
 40
1.155386872572904
100
AcDbArc
 50
103.1180190697
 51
109.6013203134
  0
ARC
  5
187
330
1F
100
AcDbEntity
  8
0
  6
Continuous
 62
     7
370
    25
100
AcDbCircle
 10
-2.9371831411
 20
0.2426300803
 30
0.0
 40
0.0241875000000002
100
AcDbArc
 50
283.1180190697
 51
355.2777246339
  0
ARC
  5
188
330
1F
100
AcDbEntity
  8
0
  6
Continuous
 62
     7
370
    25
100
AcDbCircle
 10
0.0
 20
0.0
 30
0.0
 40
2.923
100
AcDbArc
 50
175.1154647221
 51
175.2777246339
  0
ARC
  5
189
330
1F
100
AcDbEntity
  8
0
  6
Continuous
 62
     7
370
    25
100
AcDbCircle
 10
-2.9364842428
 20
0.2509471099
 30
0.0
 40
0.0241875000000007
100
AcDbArc
 50
355.1154647221
 51
67.2751702863
  0
ARC
  5
18A
330
1F
100
AcDbEntity
  8
0
  6
Continuous
 62
     7
370
    25
100
AcDbCircle
 10
-2.4808078242
 20
1.3389520281
 30
0.0
 40
1.155386872572904
100
AcDbArc
 50
240.7918690426
 51
247.2751702863
  0
ARC
  5
18B
330
1F
100
AcDbEntity
  8
0
  6
Continuous
 62
     7
370
    25
100
AcDbCircle
 10
0.0
 20
0.0
 30
0.0
 40
3.062500000000001
100
AcDbArc
 50
172.8379444342
 51
173.8052449218
  0
ARC
  5
18C
330
1F
100
AcDbEntity
  8
0
  6
Continuous
 62
     7
370
    25
100
AcDbCircle
 10
-2.7230201156
 20
-0.7296310328
 30
0.0
 40
1.155386872572904
100
AcDbArc
 50
99.3680190697
 51
105.8513203134
  0
ARC
  5
18D
330
1F
100
AcDbEntity
  8
0
  6
Continuous
 62
     7
370
    25
100
AcDbCircle
 10
-2.91502564
 20
0.4342115592
 30
0.0
 40
0.0241875000000001
100
AcDbArc
 50
279.3680190697
 51
351.5277246339
  0
ARC
  5
18E
330
1F
100
AcDbEntity
  8
0
  6
Continuous
 62
     7
370
    25
100
AcDbCircle
 10
0.0
 20
0.0
 30
0.0
 40
2.923
100
AcDbArc
 50
171.3654647221
 51
171.5277246339
  0
ARC
  5
18F
330
1F
100
AcDbEntity
  8
0
  6
Continuous
 62
     7
370
    25
100
AcDbCircle
 10
-2.9137842784
 20
0.4424650713
 30
0.0
 40
0.0241875000000003
100
AcDbArc
 50
351.3654647221
 51
63.5251702863
  0
ARC
  5
190
330
1F
100
AcDbEntity
  8
0
  6
Continuous
 62
     7
370
    25
100
AcDbCircle
 10
-2.3879245717
 20
1.4983378237
 30
0.0
 40
1.155386872572904
100
AcDbArc
 50
237.0418690426
 51
243.5251702863
  0
ARC
  5
191
330
1F
100
AcDbEntity
  8
0
  6
Continuous
 62
     7
370
    25
100
AcDbCircle
 10
0.0
 20
0.0
 30
0.0
 40
3.0625
100
AcDbArc
 50
169.0879444342
 51
170.0552449218
  0
ARC
  5
192
330
1F
100
AcDbEntity
  8
0
  6
Continuous
 62
     7
370
    25
100
AcDbCircle
 10
-2.7649100732
 20
-0.5499748002
 30
0.0
 40
1.155386872572904
100
AcDbArc
 50
95.6180190697
 51
102.1013203134
  0
ARC
  5
193
330
1F
100
AcDbEntity
  8
0
  6
Continuous
 62
     7
370
    25
100
AcDbCircle
 10
-2.8803855516
 20
0.6239336776
 30
0.0
 40
0.0241875000000001
100
AcDbArc
 50
275.6180190697
 51
347.7777246339
  0
ARC
  5
194
330
1F
100
AcDbEntity
  8
0
  6
Continuous
 62
     7
370
    25
100
AcDbCircle
 10
0.0
 20
0.0
 30
0.0
 40
2.923
100
AcDbArc
 50
167.6154647221
 51
167.7777246339
  0
ARC
  5
195
330
1F
100
AcDbEntity
  8
0
  6
Continuous
 62
     7
370
    25
100
AcDbCircle
 10
-2.8786070423
 20
0.6320883293
 30
0.0
 40
0.0241875000000001
100
AcDbArc
 50
347.6154647221
 51
59.7751702863
  0
ARC
  5
196
330
1F
100
AcDbEntity
  8
0
  6
Continuous
 62
     7
370
    25
100
AcDbCircle
 10
-2.2848158596
 20
1.6513075068
 30
0.0
 40
1.155386872572904
100
AcDbArc
 50
233.2918690426
 51
239.7751702863
  0
ARC
  5
197
330
1F
100
AcDbEntity
  8
0
  6
Continuous
 62
     7
370
    25
100
AcDbCircle
 10
0.0
 20
0.0
 30
0.0
 40
3.062500000000001
100
AcDbArc
 50
165.3379444342
 51
166.3052449218
  0
ARC
  5
198
330
1F
100
AcDbEntity
  8
0
  6
Continuous
 62
     7
370
    25
100
AcDbCircle
 10
-2.7949602615
 20
-0.3679634911
 30
0.0
 40
1.155386872572904
100
AcDbArc
 50
91.8680190697
 51
98.3513203134
  0
ARC
  5
199
330
1F
100
AcDbEntity
  8
0
  6
Continuous
 62
     7
370
    25
100
AcDbCircle
 10
-2.8334112101
 20
0.8109840162
 30
0.0
 40
0.0241875000000003
100
AcDbArc
 50
271.8680190697
 51
344.0277246339
  0
ARC
  5
19A
330
1F
100
AcDbEntity
  8
0
  6
Continuous
 62
     7
370
    25
100
AcDbCircle
 10
0.0
 20
0.0
 30
0.0
 40
2.923
100
AcDbArc
 50
163.8654647221
 51
164.0277246339
  0
ARC
  5
19B
330
1F
100
AcDbEntity
  8
0
  6
Continuous
 62
     7
370
    25
100
AcDbCircle
 10
-2.831103169
 20
0.8190048881
 30
0.0
 40
0.0241875000000001
100
AcDbArc
 50
343.8654647221
 51
56.0251702863
  0
ARC
  5
19C
330
1F
100
AcDbEntity
  8
0
  6
Continuous
 62
     7
370
    25
100
AcDbCircle
 10
-2.1719232151
 20
1.7972060376
 30
0.0
 40
1.155386872572904
100
AcDbArc
 50
229.5418690426
 51
236.0251702863
  0
ARC
  5
19D
330
1F
100
AcDbEntity
  8
0
  6
Continuous
 62
     7
370
    25
100
AcDbCircle
 10
0.0
 20
0.0
 30
0.0
 40
3.0625
100
AcDbArc
 50
161.5879444342
 51
162.5552449218
  0
ARC
  5
19E
330
1F
100
AcDbEntity
  8
0
  6
Continuous
 62
     7
370
    25
100
AcDbCircle
 10
-2.8130420008
 20
-0.1843765059
 30
0.0
 40
1.155386872572904
100
AcDbArc
 50
88.1180190697
 51
94.6013203134
  0
ARC
  5
19F
330
1F
100
AcDbEntity
  8
0
  6
Continuous
 62
     7
370
    25
100
AcDbCircle
 10
-2.7743037668
 20
0.9945615967
 30
0.0
 40
0.0241875000000001
100
AcDbArc
 50
268.1180190697
 51
340.2777246339
  0
ARC
  5
1A0
330
1F
100
AcDbEntity
  8
0
  6
Continuous
 62
     7
370
    25
100
AcDbCircle
 10
0.0
 20
0.0
 30
0.0
 40
2.923
100
AcDbArc
 50
160.1154647221
 51
160.2777246339
  0
ARC
  5
1A1
330
1F
100
AcDbEntity
  8
0
  6
Continuous
 62
     7
370
    25
100
AcDbCircle
 10
-2.7714760772
 20
1.0024143422
 30
0.0
 40
0.0241875000000002
100
AcDbArc
 50
340.1154647221
 51
52.2751702863
  0
ARC
  5
1A2
330
1F
100
AcDbEntity
  8
0
  6
Continuous
 62
     7
370
    25
100
AcDbCircle
 10
-2.0497300621
 20
1.9354086562
 30
0.0
 40
1.155386872572904
100
AcDbArc
 50
225.7918690426
 51
232.2751702863
  0
ARC
  5
1A3
330
1F
100
AcDbEntity
  8
0
  6
Continuous
 62
     7
370
    25
100
AcDbCircle
 10
0.0
 20
0.0
 30
0.0
 40
3.0625
100
AcDbArc
 50
157.8379444342
 51
158.8052449218
  0
ARC
  5
1A4
330
1F
100
AcDbEntity
  8
0
  6
Continuous
 62
     7
370
    25
100
AcDbCircle
 10
-2.8190778624
 20
0.0000000079
 30
0.0
 40
1.155386872572904
100
AcDbArc
 50
84.3680190697
 51
90.8513203134
  0
ARC
  5
1A5
330
1F
100
AcDbEntity
  8
0
  6
Continuous
 62
     7
370
    25
100
AcDbCircle
 10
-2.7033163289
 20
1.1738803117
 30
0.0
 40
0.0241875000000002
100
AcDbArc
 50
264.3680190697
 51
336.5277246339
  0
ARC
  5
1A6
330
1F
100
AcDbEntity
  8
0
  6
Continuous
 62
     7
370
    25
100
AcDbCircle
 10
0.0
 20
0.0
 30
0.0
 40
2.923
100
AcDbArc
 50
156.3654647221
 51
156.5277246339
  0
ARC
  5
1A7
330
1F
100
AcDbEntity
  8
0
  6
Continuous
 62
     7
370
    25
100
AcDbCircle
 10
-2.6999810995
 20
1.1815313042
 30
0.0
 40
0.0241875000000005
100
AcDbArc
 50
336.3654647221
 51
48.5251702863
  0
ARC
  5
1A8
330
1F
100
AcDbEntity
  8
0
  6
Continuous
 62
     7
370
    25
100
AcDbCircle
 10
-1.9187596502
 20
2.0653235579
 30
0.0
 40
1.155386872572904
100
AcDbArc
 50
222.0418690426
 51
228.5251702863
  0
ARC
  5
1A9
330
1F
100
AcDbEntity
  8
0
  6
Continuous
 62
     7
370
    25
100
AcDbCircle
 10
0.0
 20
0.0
 30
0.0
 40
3.0625
100
AcDbArc
 50
154.0879444342
 51
155.0552449218
  0
ARC
  5
1AA
330
1F
100
AcDbEntity
  8
0
  6
Continuous
 62
     7
370
    25
100
AcDbCircle
 10
-2.8130419997
 20
0.1843765216
 30
0.0
 40
1.155386872572904
100
AcDbArc
 50
80.6180190697
 51
87.1013203134
  0
ARC
  5
1AB
330
1F
100
AcDbEntity
  8
0
  6
Continuous
 62
     7
370
    25
100
AcDbCircle
 10
-2.6207528754
 20
1.3481722911
 30
0.0
 40
0.0241875000000003
100
AcDbArc
 50
260.6180190697
 51
332.7777246339
  0
ARC
  5
1AC
330
1F
100
AcDbEntity
  8
0
  6
Continuous
 62
     7
370
    25
100
AcDbCircle
 10
0.0
 20
0.0
 30
0.0
 40
2.923
100
AcDbArc
 50
152.6154647221
 51
152.7777246339
  0
ARC
  5
1AD
330
1F
100
AcDbEntity
  8
0
  6
Continuous
 62
     7
370
    25
100
AcDbCircle
 10
-2.6169243881
 20
1.3555887677
 30
0.0
 40
0.0241875000000003
100
AcDbArc
 50
332.6154647221
 51
44.7751702863
  0
ARC
  5
1AE
330
1F
100
AcDbEntity
  8
0
  6
Continuous
 62
     7
370
    25
100
AcDbCircle
 10
-1.779572815
 20
2.186394427
 30
0.0
 40
1.155386872572904
100
AcDbArc
 50
218.2918690426
 51
224.7751702863
  0
ARC
  5
1AF
330
1F
100
AcDbEntity
  8
0
  6
Continuous
 62
     7
370
    25
100
AcDbCircle
 10
0.0
 20
0.0
 30
0.0
 40
3.0625
100
AcDbArc
 50
150.3379444342
 51
151.3052449218
  0
ARC
  5
1B0
330
1F
100
AcDbEntity
  8
0
  6
Continuous
 62
     7
370
    25
100
AcDbCircle
 10
-2.7949602594
 20
0.3679635068
 30
0.0
 40
1.155386872572904
100
AcDbArc
 50
76.8680190697
 51
83.3513203134
  0
ARC
  5
1B1
330
1F
100
AcDbEntity
  8
0
  6
Continuous
 62
     7
370
    25
100
AcDbCircle
 10
-2.5269669557
 20
1.5166911897
 30
0.0
 40
0.0241875000000007
100
AcDbArc
 50
256.8680190697
 51
329.0277246339
  0
ARC
  5
1B2
330
1F
100
AcDbEntity
  8
0
  6
Continuous
 62
     7
370
    25
100
AcDbCircle
 10
0.0
 20
0.0
 30
0.0
 40
2.923
100
AcDbArc
 50
148.8654647221
 51
149.0277246339
  0
ARC
  5
1B3
330
1F
100
AcDbEntity
  8
0
  6
Continuous
 62
     7
370
    25
100
AcDbCircle
 10
-2.5226616047
 20
1.523841392
 30
0.0
 40
0.0241875000000004
100
AcDbArc
 50
328.8654647221
 51
41.0251702863
  0
ARC
  5
1B4
330
1F
100
AcDbEntity
  8
0
  6
Continuous
 62
     7
370
    25
100
AcDbCircle
 10
-1.6327655757
 20
2.2981028194
 30
0.0
 40
1.155386872572904
100
AcDbArc
 50
214.5418690426
 51
221.0251702863
  0
ARC
  5
1B5
330
1F
100
AcDbEntity
  8
0
  6
Continuous
 62
     7
370
    25
100
AcDbCircle
 10
0.0
 20
0.0
 30
0.0
 40
3.0625
100
AcDbArc
 50
146.5879444342
 51
147.5552449218
  0
ARC
  5
1B6
330
1F
100
AcDbEntity
  8
0
  6
Continuous
 62
     7
370
    25
100
AcDbCircle
 10
-2.7649100702
 20
0.5499748157
 30
0.0
 40
1.155386872572904
100
AcDbArc
 50
73.1180190697
 51
79.6013203134
  0
ARC
  5
1B7
330
1F
100
AcDbEntity
  8
0
  6
Continuous
 62
     7
370
    25
100
AcDbCircle
 10
-2.4223601756
 20
1.6787153838
 30
0.0
 40
0.0241875000000003
100
AcDbArc
 50
253.1180190697
 51
325.2777246339
  0
ARC
  5
1B8
330
1F
100
AcDbEntity
  8
0
  6
Continuous
 62
     7
370
    25
100
AcDbCircle
 10
0.0
 20
0.0
 30
0.0
 40
2.923000000000001
100
AcDbArc
 50
145.1154647221
 51
145.2777246339
  0
ARC
  5
1B9
330
1F
100
AcDbEntity
  8
0
  6
Continuous
 62
     7
370
    25
100
AcDbCircle
 10
-2.4175963971
 20
1.6855686936
 30
0.0
 40
0.0241875000000004
100
AcDbArc
 50
325.1154647221
 51
37.2751702863
  0
ARC
  5
1BA
330
1F
100
AcDbEntity
  8
0
  6
Continuous
 62
     7
370
    25
100
AcDbCircle
 10
-1.4789665836
 20
2.3999703829
 30
0.0
 40
1.155386872572904
100
AcDbArc
 50
210.7918690426
 51
217.2751702863
  0
ARC
  5
1BB
330
1F
100
AcDbEntity
  8
0
  6
Continuous
 62
     7
370
    25
100
AcDbCircle
 10
0.0
 20
0.0
 30
0.0
 40
3.0625
100
AcDbArc
 50
142.8379444342
 51
143.8052449218
  0
ARC
  5
1BC
330
1F
100
AcDbEntity
  8
0
  6
Continuous
 62
     7
370
    25
100
AcDbCircle
 10
-2.7230201115
 20
0.729631048
 30
0.0
 40
1.155386872572904
100
AcDbArc
 50
69.3680190697
 51
75.8513203134
  0
ARC
  5
1BD
330
1F
100
AcDbEntity
  8
0
  6
Continuous
 62
     7
370
    25
100
AcDbCircle
 10
-2.3073804773
 20
1.8335510609
 30
0.0
 40
0.0241875000000004
100
AcDbArc
 50
249.3680190697
 51
321.5277246339
  0
ARC
  5
1BE
330
1F
100
AcDbEntity
  8
0
  6
Continuous
 62
     7
370
    25
100
AcDbCircle
 10
0.0
 20
0.0
 30
0.0
 40
2.923
100
AcDbArc
 50
141.3654647221
 51
141.5277246339
  0
ARC
  5
1BF
330
1F
100
AcDbEntity
  8
0
  6
Continuous
 62
     7
370
    25
100
AcDbCircle
 10
-2.3021786706
 20
1.8400781312
 30
0.0
 40
0.0241875000000004
100
AcDbArc
 50
321.3654647221
 51
33.5251702863
  0
ARC
  5
1C0
330
1F
100
AcDbEntity
  8
0
  6
Continuous
 62
     7
370
    25
100
AcDbCircle
 10
-1.3188344295
 20
2.4915609046
 30
0.0
 40
1.155386872572904
100
AcDbArc
 50
207.0418690426
 51
213.5251702863
  0
ARC
  5
1C1
330
1F
100
AcDbEntity
  8
0
  6
Continuous
 62
     7
370
    25
100
AcDbCircle
 10
0.0
 20
0.0
 30
0.0
 40
3.0625
100
AcDbArc
 50
139.0879444342
 51
140.0552449218
  0
ARC
  5
1C2
330
1F
100
AcDbEntity
  8
0
  6
Continuous
 62
     7
370
    25
100
AcDbCircle
 10
-2.6694697627
 20
0.9061628882
 30
0.0
 40
1.155386872572904
100
AcDbArc
 50
65.6180190697
 51
72.1013203134
  0
ARC
  5
1C3
330
1F
100
AcDbEntity
  8
0
  6
Continuous
 62
     7
370
    25
100
AcDbCircle
 10
-2.1825202216
 20
1.9805351909
 30
0.0
 40
0.0241875
100
AcDbArc
 50
245.6180190697
 51
317.7777246339
  0
ARC
  5
1C4
330
1F
100
AcDbEntity
  8
0
  6
Continuous
 62
     7
370
    25
100
AcDbCircle
 10
0.0
 20
0.0
 30
0.0
 40
2.923
100
AcDbArc
 50
137.6154647221
 51
137.7777246339
  0
ARC
  5
1C5
330
1F
100
AcDbEntity
  8
0
  6
Continuous
 62
     7
370
    25
100
AcDbCircle
 10
-2.1769026615
 20
1.9867080718
 30
0.0
 40
0.0241875000000002
100
AcDbArc
 50
317.6154647221
 51
29.7751702863
  0
ARC
  5
1C6
330
1F
100
AcDbEntity
  8
0
  6
Continuous
 62
     7
370
    25
100
AcDbCircle
 10
-1.1530548239
 20
2.5724821801
 30
0.0
 40
1.155386872572904
100
AcDbArc
 50
203.2918690426
 51
209.7751702863
  0
ARC
  5
1C7
330
1F
100
AcDbEntity
  8
0
  6
Continuous
 62
     7
370
    25
100
AcDbCircle
 10
0.0
 20
0.0
 30
0.0
 40
3.0625
100
AcDbArc
 50
135.3379444342
 51
136.3052449218
  0
ARC
  5
1C8
330
1F
100
AcDbEntity
  8
0
  6
Continuous
 62
     7
370
    25
100
AcDbCircle
 10
-2.6044883346
 20
1.0788143997
 30
0.0
 40
1.155386872572904
100
AcDbArc
 50
61.8680190697
 51
68.3513203134
  0
ARC
  5
1C9
330
1F
100
AcDbEntity
  8
0
  6
Continuous
 62
     7
370
    25
100
AcDbCircle
 10
-2.0483140793
 20
2.1190383651
 30
0.0
 40
0.0241875000000001
100
AcDbArc
 50
241.8680190697
 51
314.0277246339
  0
ARC
  5
1CA
330
1F
100
AcDbEntity
  8
0
  6
Continuous
 62
     7
370
    25
100
AcDbCircle
 10
0.0
 20
0.0
 30
0.0
 40
2.923
100
AcDbArc
 50
133.8654647221
 51
134.0277246339
  0
ARC
  5
1CB
330
1F
100
AcDbEntity
  8
0
  6
Continuous
 62
     7
370
    25
100
AcDbCircle
 10
-2.042304821
 20
2.1248306234
 30
0.0
 40
0.0241875000000006
100
AcDbArc
 50
313.8654647221
 51
26.0251702863
  0
ARC
  5
1CC
330
1F
100
AcDbEntity
  8
0
  6
Continuous
 62
     7
370
    25
100
AcDbCircle
 10
-0.9823376606
 20
2.642387692
 30
0.0
 40
1.155386872572904
100
AcDbArc
 50
199.5418690426
 51
206.0251702863
  0
ARC
  5
1CD
330
1F
100
AcDbEntity
  8
0
  6
Continuous
 62
     7
370
    25
100
AcDbCircle
 10
0.0
 20
0.0
 30
0.0
 40
3.0625
100
AcDbArc
 50
131.5879444342
 51
132.5552449218
  0
ARC
  5
1CE
330
1F
100
AcDbEntity
  8
0
  6
Continuous
 62
     7
370
    25
100
AcDbCircle
 10
-2.5283540875
 20
1.2468462624
 30
0.0
 40
1.155386872572904
100
AcDbArc
 50
58.1180190697
 51
64.6013203134
  0
ARC
  5
1CF
330
1F
100
AcDbEntity
  8
0
  6
Continuous
 62
     7
370
    25
100
AcDbCircle
 10
-1.9053367415
 20
2.2484674918
 30
0.0
 40
0.0241875000000002
100
AcDbArc
 50
238.1180190697
 51
310.2777246339
  0
ARC
  5
1D0
330
1F
100
AcDbEntity
  8
0
  6
Continuous
 62
     7
370
    25
100
AcDbCircle
 10
0.0
 20
0.0
 30
0.0
 40
2.923
100
AcDbArc
 50
130.1154647221
 51
130.2777246339
  0
ARC
  5
1D1
330
1F
100
AcDbEntity
  8
0
  6
Continuous
 62
     7
370
    25
100
AcDbCircle
 10
-1.8989615178
 20
2.2538543241
 30
0.0
 40
0.0241875000000006
100
AcDbArc
 50
310.1154647221
 51
22.2751702863
  0
ARC
  5
1D2
330
1F
100
AcDbEntity
  8
0
  6
Continuous
 62
     7
370
    25
100
AcDbCircle
 10
-0.8074139766
 20
2.700978094
 30
0.0
 40
1.155386872572904
100
AcDbArc
 50
195.7918690426
 51
202.2751702863
  0
ARC
  5
1D3
330
1F
100
AcDbEntity
  8
0
  6
Continuous
 62
     7
370
    25
100
AcDbCircle
 10
0.0
 20
0.0
 30
0.0
 40
3.0625
100
AcDbArc
 50
127.8379444342
 51
128.8052449218
  0
ARC
  5
1D4
330
1F
100
AcDbEntity
  8
0
  6
Continuous
 62
     7
370
    25
100
AcDbCircle
 10
-2.4413930401
 20
1.409538938
 30
0.0
 40
1.155386872572904
100
AcDbArc
 50
54.3680190697
 51
60.8513203134
  0
ARC
  5
1D5
330
1F
100
AcDbEntity
  8
0
  6
Continuous
 62
     7
370
    25
100
AcDbCircle
 10
-1.7542004594
 20
2.3682683354
 30
0.0
 40
0.0241875000000002
100
AcDbArc
 50
234.3680190697
 51
306.5277246339
  0
ARC
  5
1D6
330
1F
100
AcDbEntity
  8
0
  6
Continuous
 62
     7
370
    25
100
AcDbCircle
 10
0.0
 20
0.0
 30
0.0
 40
2.923
100
AcDbArc
 50
126.3654647221
 51
126.5277246339
  0
ARC
  5
1D7
330
1F
100
AcDbEntity
  8
0
  6
Continuous
 62
     7
370
    25
100
AcDbCircle
 10
-1.7474865698
 20
2.3732266745
 30
0.0
 40
0.0241875000000002
100
AcDbArc
 50
306.3654647221
 51
18.5251702863
  0
ARC
  5
1D8
330
1F
100
AcDbEntity
  8
0
  6
Continuous
 62
     7
370
    25
100
AcDbCircle
 10
-0.6290328219
 20
2.7480024933
 30
0.0
 40
1.155386872572904
100
AcDbArc
 50
192.0418690426
 51
198.5251702863
  0
ARC
  5
1D9
330
1F
100
AcDbEntity
  8
0
  6
Continuous
 62
     7
370
    25
100
AcDbCircle
 10
0.0
 20
0.0
 30
0.0
 40
3.0625
100
AcDbArc
 50
124.0879444342
 51
125.0552449218
  0
ARC
  5
1DA
330
1F
100
AcDbEntity
  8
0
  6
Continuous
 62
     7
370
    25
100
AcDbCircle
 10
-2.3439775729
 20
1.5661957514
 30
0.0
 40
1.155386872572904
100
AcDbArc
 50
50.6180190697
 51
57.1013203134
  0
ARC
  5
1DB
330
1F
100
AcDbEntity
  8
0
  6
Continuous
 62
     7
370
    25
100
AcDbCircle
 10
-1.5955524216
 20
2.4779278904
 30
0.0
 40
0.0241875000000001
100
AcDbArc
 50
230.6180190697
 51
302.7777246339
  0
ARC
  5
1DC
330
1F
100
AcDbEntity
  8
0
  6
Continuous
 62
     7
370
    25
100
AcDbCircle
 10
0.0
 20
0.0
 30
0.0
 40
2.923
100
AcDbArc
 50
122.6154647221
 51
122.7777246339
  0
ARC
  5
1DD
330
1F
100
AcDbEntity
  8
0
  6
Continuous
 62
     7
370
    25
100
AcDbCircle
 10
-1.588528616
 20
2.482436504
 30
0.0
 40
0.0241875
100
AcDbArc
 50
302.6154647221
 51
14.7751702863
  0
ARC
  5
1DE
330
1F
100
AcDbEntity
  8
0
  6
Continuous
 62
     7
370
    25
100
AcDbCircle
 10
-0.4479580522
 20
2.7832595239
 30
0.0
 40
1.155386872572904
100
AcDbArc
 50
188.2918690426
 51
194.7751702863
  0
ARC
  5
1DF
330
1F
100
AcDbEntity
  8
0
  6
Continuous
 62
     7
370
    25
100
AcDbCircle
 10
0.0
 20
0.0
 30
0.0
 40
3.0625
100
AcDbArc
 50
120.3379444342
 51
121.3052449218
  0
ARC
  5
1E0
330
1F
100
AcDbEntity
  8
0
  6
Continuous
 62
     7
370
    25
100
AcDbCircle
 10
-2.2365248339
 20
1.7161458742
 30
0.0
 40
1.155386872572904
100
AcDbArc
 50
46.8680190697
 51
53.3513203134
  0
ARC
  5
1E1
330
1F
100
AcDbEntity
  8
0
  6
Continuous
 62
     7
370
    25
100
AcDbCircle
 10
-1.4300719833
 20
2.5769765778
 30
0.0
 40
0.0241875000000001
100
AcDbArc
 50
226.8680190697
 51
299.0277246339
  0
ARC
  5
1E2
330
1F
100
AcDbEntity
  8
0
  6
Continuous
 62
     7
370
    25
100
AcDbCircle
 10
0.0
 20
0.0
 30
0.0
 40
2.923
100
AcDbArc
 50
118.8654647221
 51
119.0277246339
  0
ARC
  5
1E3
330
1F
100
AcDbEntity
  8
0
  6
Continuous
 62
     7
370
    25
100
AcDbCircle
 10
-1.4227683388
 20
2.5810161592
 30
0.0
 40
0.0241875000000002
100
AcDbArc
 50
298.8654647221
 51
11.0251702863
  0
ARC
  5
1E4
330
1F
100
AcDbEntity
  8
0
  6
Continuous
 62
     7
370
    25
100
AcDbCircle
 10
-0.2649650573
 20
2.80659821
 30
0.0
 40
1.155386872572904
100
AcDbArc
 50
184.5418690426
 51
191.0251702863
  0
ARC
  5
1E5
330
1F
100
AcDbEntity
  8
0
  6
Continuous
 62
     7
370
    25
100
AcDbCircle
 10
0.0
 20
0.0
 30
0.0
 40
3.062500000000001
100
AcDbArc
 50
116.5879444342
 51
117.5552449218
  0
ARC
  5
1E6
330
1F
100
AcDbEntity
  8
0
  6
Continuous
 62
     7
370
    25
100
AcDbCircle
 10
-2.1194949521
 20
1.8587471969
 30
0.0
 40
1.155386872572904
100
AcDbArc
 50
43.1180190697
 51
49.6013203134
  0
ARC
  5
1E7
330
1F
100
AcDbEntity
  8
0
  6
Continuous
 62
     7
370
    25
100
AcDbCircle
 10
-1.2584677573
 20
2.6649902559
 30
0.0
 40
0.0241874999999998
100
AcDbArc
 50
223.1180190697
 51
295.2777246339
  0
ARC
  5
1E8
330
1F
100
AcDbEntity
  8
0
  6
Continuous
 62
     7
370
    25
100
AcDbCircle
 10
0.0
 20
0.0
 30
0.0
 40
2.923
100
AcDbArc
 50
115.1154647221
 51
115.2777246339
  0
ARC
  5
1E9
330
1F
100
AcDbEntity
  8
0
  6
Continuous
 62
     7
370
    25
100
AcDbCircle
 10
-1.2509155492
 20
2.668543507
 30
0.0
 40
0.0241875000000002
100
AcDbArc
 50
295.1154647221
 51
7.2751702863
  0
ARC
  5
1EA
330
1F
100
AcDbEntity
  8
0
  6
Continuous
 62
     7
370
    25
100
AcDbCircle
 10
-0.0808374413
 20
2.8179186117
 30
0.0
 40
1.155386872572904
100
AcDbArc
 50
180.7918690426
 51
187.2751702863
  0
ARC
  5
1EB
330
1F
100
AcDbEntity
  8
0
  6
Continuous
 62
     7
370
    25
100
AcDbCircle
 10
0.0
 20
0.0
 30
0.0
 40
3.0625
100
AcDbArc
 50
112.8379444342
 51
113.8052449218
  0
ARC
  5
1EC
330
1F
100
AcDbEntity
  8
0
  6
Continuous
 62
     7
370
    25
100
AcDbCircle
 10
-1.9933890676
 20
1.9933890787
 30
0.0
 40
1.155386872572904
100
AcDbArc
 50
39.3680190697
 51
45.8513203134
  0
ARC
  5
1ED
330
1F
100
AcDbEntity
  8
0
  6
Continuous
 62
     7
370
    25
100
AcDbCircle
 10
-1.0814745791
 20
2.7415920366
 30
0.0
 40
0.0241875000000004
100
AcDbArc
 50
219.3680190697
 51
291.5277246339
  0
ARC
  5
1EE
330
1F
100
AcDbEntity
  8
0
  6
Continuous
 62
     7
370
    25
100
AcDbCircle
 10
0.0
 20
0.0
 30
0.0
 40
2.923
100
AcDbArc
 50
111.3654647221
 51
111.5277246339
  0
ARC
  5
1EF
330
1F
100
AcDbEntity
  8
0
  6
Continuous
 62
     7
370
    25
100
AcDbCircle
 10
-1.0737061471
 20
2.7446437419
 30
0.0
 40
0.0241875000000001
100
AcDbArc
 50
291.3654647221
 51
3.5251702863
  0
ARC
  5
1F0
330
1F
100
AcDbEntity
  8
0
  6
Continuous
 62
     7
370
    25
100
AcDbCircle
 10
0.103636333
 20
2.8171722533
 30
0.0
 40
1.155386872572904
100
AcDbArc
 50
177.0418690426
 51
183.5251702863
  0
ARC
  5
1F1
330
1F
100
AcDbEntity
  8
0
  6
Continuous
 62
     7
370
    25
100
AcDbCircle
 10
0.0
 20
0.0
 30
0.0
 40
3.0625
100
AcDbArc
 50
109.0879444342
 51
110.0552449218
  0
ARC
  5
1F2
330
1F
100
AcDbEntity
  8
0
  6
Continuous
 62
     7
370
    25
100
AcDbCircle
 10
-1.8587471851
 20
2.1194949625
 30
0.0
 40
1.155386872572904
100
AcDbArc
 50
35.6180190697
 51
42.1013203134
  0
ARC
  5
1F3
330
1F
100
AcDbEntity
  8
0
  6
Continuous
 62
     7
370
    25
100
AcDbCircle
 10
-0.8998503607
 20
2.8064538992
 30
0.0
 40
0.0241875000000001
100
AcDbArc
 50
215.6180190697
 51
287.7777246339
  0
ARC
  5
1F4
330
1F
100
AcDbEntity
  8
0
  6
Continuous
 62
     7
370
    25
100
AcDbCircle
 10
0.0
 20
0.0
 30
0.0
 40
2.923
100
AcDbArc
 50
107.6154647221
 51
107.7777246339
  0
ARC
  5
1F5
330
1F
100
AcDbEntity
  8
0
  6
Continuous
 62
     7
370
    25
100
AcDbCircle
 10
-0.8918989705
 20
2.8089909908
 30
0.0
 40
0.0241875000000007
100
AcDbArc
 50
287.6154647221
 51
359.7751702863
  0
ARC
  5
1F6
330
1F
100
AcDbEntity
  8
0
  6
Continuous
 62
     7
370
    25
100
AcDbCircle
 10
0.2876663206
 20
2.8043623307
 30
0.0
 40
1.155386872572904
100
AcDbArc
 50
173.2918690426
 51
179.7751702863
  0
ARC
  5
1F7
330
1F
100
AcDbEntity
  8
0
  6
Continuous
 62
     7
370
    25
100
AcDbCircle
 10
0.0
 20
0.0
 30
0.0
 40
3.0625
100
AcDbArc
 50
105.3379444342
 51
106.3052449218
  0
ARC
  5
1F8
330
1F
100
AcDbEntity
  8
0
  6
Continuous
 62
     7
370
    25
100
AcDbCircle
 10
-1.7161458617
 20
2.2365248434
 30
0.0
 40
1.155386872572904
100
AcDbArc
 50
31.8680190697
 51
38.3513203134
  0
ARC
  5
1F9
330
1F
100
AcDbEntity
  8
0
  6
Continuous
 62
     7
370
    25
100
AcDbCircle
 10
-0.714372845
 20
2.8592980954
 30
0.0
 40
0.0241875000000004
100
AcDbArc
 50
211.8680190697
 51
284.0277246339
  0
ARC
  5
1FA
330
1F
100
AcDbEntity
  8
0
  6
Continuous
 62
     7
370
    25
100
AcDbCircle
 10
0.0
 20
0.0
 30
0.0
 40
2.923
100
AcDbArc
 50
103.8654647221
 51
104.0277246339
  0
ARC
  5
1FB
330
1F
100
AcDbEntity
  8
0
  6
Continuous
 62
     7
370
    25
100
AcDbCircle
 10
-0.7062725456
 20
2.8613097091
 30
0.0
 40
0.0241875000000002
100
AcDbArc
 50
283.8654647221
 51
356.0251702863
  0
ARC
  5
1FC
330
1F
100
AcDbEntity
  8
0
  6
Continuous
 62
     7
370
    25
100
AcDbCircle
 10
0.4704644768
 20
2.7795436982
 30
0.0
 40
1.155386872572904
100
AcDbArc
 50
169.5418690426
 51
176.0251702863
  0
ARC
  5
1FD
330
1F
100
AcDbEntity
  8
0
  6
Continuous
 62
     7
370
    25
100
AcDbCircle
 10
0.0
 20
0.0
 30
0.0
 40
3.062500000000001
100
AcDbArc
 50
101.5879444342
 51
102.5552449218
  0
ARC
  5
1FE
330
1F
100
AcDbEntity
  8
0
  6
Continuous
 62
     7
370
    25
100
AcDbCircle
 10
-1.5661957383
 20
2.3439775816
 30
0.0
 40
1.155386872572904
100
AcDbArc
 50
28.1180190697
 51
34.6013203134
  0
ARC
  5
1FF
330
1F
100
AcDbEntity
  8
0
  6
Continuous
 62
     7
370
    25
100
AcDbCircle
 10
-0.5258362751
 20
2.8998983382
 30
0.0
 40
0.0241875000000004
100
AcDbArc
 50
208.1180190697
 51
280.2777246339
  0
ARC
  5
200
330
1F
100
AcDbEntity
  8
0
  6
Continuous
 62
     7
370
    25
100
AcDbCircle
 10
0.0
 20
0.0
 30
0.0
 40
2.923
100
AcDbArc
 50
100.1154647221
 51
100.2777246339
  0
ARC
  5
201
330
1F
100
AcDbEntity
  8
0
  6
Continuous
 62
     7
370
    25
100
AcDbCircle
 10
-0.5176217532
 20
2.90137586
 30
0.0
 40
0.0241875000000001
100
AcDbArc
 50
280.1154647221
 51
352.2751702863
  0
ARC
  5
202
330
1F
100
AcDbEntity
  8
0
  6
Continuous
 62
     7
370
    25
100
AcDbCircle
 10
0.6512480319
 20
2.7428226328
 30
0.0
 40
1.155386872572904
100
AcDbArc
 50
165.7918690426
 51
172.2751702863
  0
ARC
  5
203
330
1F
100
AcDbEntity
  8
0
  6
Continuous
 62
     7
370
    25
100
AcDbCircle
 10
0.0
 20
0.0
 30
0.0
 40
3.062500000000001
100
AcDbArc
 50
97.8379444342
 51
98.8052449218
  0
ARC
  5
204
330
1F
100
AcDbEntity
  8
0
  6
Continuous
 62
     7
370
    25
100
AcDbCircle
 10
-1.4095389244
 20
2.441393048
 30
0.0
 40
1.155386872572905
100
AcDbArc
 50
24.3680190697
 51
30.8513203134
  0
ARC
  5
205
330
1F
100
AcDbEntity
  8
0
  6
Continuous
 62
     7
370
    25
100
AcDbCircle
 10
-0.3350479935
 20
2.9280807711
 30
0.0
 40
0.0241875000000003
100
AcDbArc
 50
204.3680190697
 51
276.5277246339
  0
ARC
  5
206
330
1F
100
AcDbEntity
  8
0
  6
Continuous
 62
     7
370
    25
100
AcDbCircle
 10
0.0
 20
0.0
 30
0.0
 40
2.923
100
AcDbArc
 50
96.3654647221
 51
96.5277246339
  0
ARC
  5
207
330
1F
100
AcDbEntity
  8
0
  6
Continuous
 62
     7
370
    25
100
AcDbCircle
 10
-0.326754425
 20
2.929017874
 30
0.0
 40
0.0241875000000004
100
AcDbArc
 50
276.3654647221
 51
348.5251702863
  0
ARC
  5
208
330
1F
100
AcDbEntity
  8
0
  6
Continuous
 62
     7
370
    25
100
AcDbCircle
 10
0.829242843
 20
2.6943563798
 30
0.0
 40
1.155386872572904
100
AcDbArc
 50
162.0418690426
 51
168.5251702863
  0
ARC
  5
209
330
1F
100
AcDbEntity
  8
0
  6
Continuous
 62
     7
370
    25
100
AcDbCircle
 10
0.0
 20
0.0
 30
0.0
 40
3.0625
100
AcDbArc
 50
94.0879444342
 51
95.0552449218
  0
ARC
  5
20A
330
1F
100
AcDbEntity
  8
0
  6
Continuous
 62
     7
370
    25
100
AcDbCircle
 10
-1.2468462483
 20
2.5283540945
 30
0.0
 40
1.155386872572904
100
AcDbArc
 50
20.6180190697
 51
27.1013203134
  0
ARC
  5
20B
330
1F
100
AcDbEntity
  8
0
  6
Continuous
 62
     7
370
    25
100
AcDbCircle
 10
-0.1428249849
 20
2.9437247126
 30
0.0
 40
0.0241874999999998
100
AcDbArc
 50
200.6180190697
 51
272.7777246339
  0
ARC
  5
20C
330
1F
100
AcDbEntity
  8
0
  6
Continuous
 62
     7
370
    25
100
AcDbCircle
 10
0.0
 20
0.0
 30
0.0
 40
2.923
100
AcDbArc
 50
92.6154647221
 51
92.7777246339
  0
ARC
  5
20D
330
1F
100
AcDbEntity
  8
0
  6
Continuous
 62
     7
370
    25
100
AcDbCircle
 10
-0.1344878841
 20
2.9441173837
 30
0.0
 40
0.0241875000000002
100
AcDbArc
 50
272.6154647221
 51
344.7751702863
  0
ARC
  5
20E
330
1F
100
AcDbEntity
  8
0
  6
Continuous
 62
     7
370
    25
100
AcDbCircle
 10
1.0036867089
 20
2.6343524791
 30
0.0
 40
1.155386872572904
100
AcDbArc
 50
158.2918690426
 51
164.7751702863
  0
ARC
  5
20F
330
1F
100
AcDbEntity
  8
0
  6
Continuous
 62
     7
370
    25
100
AcDbCircle
 10
0.0
 20
0.0
 30
0.0
 40
3.062500000000001
100
AcDbArc
 50
90.3379444342
 51
91.3052449218
  0
ARC
  5
210
330
1F
100
AcDbEntity
  8
0
  6
Continuous
 62
     7
370
    25
100
AcDbCircle
 10
-1.0788143852
 20
2.6044883406
 30
0.0
 40
1.155386872572904
100
AcDbArc
 50
16.8680190697
 51
23.3513203134
  0
ARC
  5
211
330
1F
100
AcDbEntity
  8
0
  6
Continuous
 62
     7
370
    25
100
AcDbCircle
 10
0.0500096221
 20
2.946763173
 30
0.0
 40
0.0241875000000002
100
AcDbArc
 50
196.8680190697
 51
269.0277246339
  0
ARC
  5
212
330
1F
100
AcDbEntity
  8
0
  6
Continuous
 62
     7
370
    25
100
AcDbCircle
 10
0.0
 20
0.0
 30
0.0
 40
2.923
100
AcDbArc
 50
88.8654647221
 51
89.0277246339
  0
ARC
  5
213
330
1F
100
AcDbEntity
  8
0
  6
Continuous
 62
     7
370
    25
100
AcDbCircle
 10
0.0583545545
 20
2.9466097309
 30
0.0
 40
0.0241875000000003
100
AcDbArc
 50
268.8654647221
 51
341.0251702863
  0
ARC
  5
214
330
1F
100
AcDbEntity
  8
0
  6
Continuous
 62
     7
370
    25
100
AcDbCircle
 10
1.1738326343
 20
2.5630678767
 30
0.0
 40
1.155386872572904
100
AcDbArc
 50
154.5418690426
 51
161.0251702863
  0
ARC
  5
215
330
1F
100
AcDbEntity
  8
0
  6
Continuous
 62
     7
370
    25
100
AcDbCircle
 10
0.0
 20
0.0
 30
0.0
 40
3.0625
100
AcDbArc
 50
86.5879444342
 51
87.5552449218
  0
ARC
  5
216
330
1F
100
AcDbEntity
  8
0
  6
Continuous
 62
     7
370
    25
100
AcDbCircle
 10
-0.9061628733
 20
2.6694697678
 30
0.0
 40
1.155386872572904
100
AcDbArc
 50
13.1180190697
 51
19.6013203134
  0
ARC
  5
217
330
1F
100
AcDbEntity
  8
0
  6
Continuous
 62
     7
370
    25
100
AcDbCircle
 10
0.2426300803
 20
2.9371831411
 30
0.0
 40
0.0241875000000003
100
AcDbArc
 50
193.1180190697
 51
265.2777246339
  0
ARC
  5
218
330
1F
100
AcDbEntity
  8
0
  6
Continuous
 62
     7
370
    25
100
AcDbCircle
 10
0.0
 20
0.0
 30
0.0
 40
2.923
100
AcDbArc
 50
85.1154647221
 51
85.2777246339
  0
ARC
  5
219
330
1F
100
AcDbEntity
  8
0
  6
Continuous
 62
     7
370
    25
100
AcDbCircle
 10
0.2509471099
 20
2.9364842428
 30
0.0
 40
0.0241875000000012
100
AcDbArc
 50
265.1154647221
 51
337.2751702863
  0
ARC
  5
21A
330
1F
100
AcDbEntity
  8
0
  6
Continuous
 62
     7
370
    25
100
AcDbCircle
 10
1.3389520281
 20
2.4808078242
 30
0.0
 40
1.155386872572904
100
AcDbArc
 50
150.7918690426
 51
157.2751702863
  0
ARC
  5
21B
330
1F
100
AcDbEntity
  8
0
  6
Continuous
 62
     7
370
    25
100
AcDbCircle
 10
0.0
 20
0.0
 30
0.0
 40
3.0625
100
AcDbArc
 50
82.8379444342
 51
83.8052449218
  0
ARC
  5
21C
330
1F
100
AcDbEntity
  8
0
  6
Continuous
 62
     7
370
    25
100
AcDbCircle
 10
-0.7296310328
 20
2.7230201156
 30
0.0
 40
1.155386872572904
100
AcDbArc
 50
9.3680190697
 51
15.8513203134
  0
ARC
  5
21D
330
1F
100
AcDbEntity
  8
0
  6
Continuous
 62
     7
370
    25
100
AcDbCircle
 10
0.4342115592
 20
2.91502564
 30
0.0
 40
0.0241875000000002
100
AcDbArc
 50
189.3680190697
 51
261.5277246339
  0
ARC
  5
21E
330
1F
100
AcDbEntity
  8
0
  6
Continuous
 62
     7
370
    25
100
AcDbCircle
 10
0.0
 20
0.0
 30
0.0
 40
2.923
100
AcDbArc
 50
81.3654647221
 51
81.5277246339
  0
ARC
  5
21F
330
1F
100
AcDbEntity
  8
0
  6
Continuous
 62
     7
370
    25
100
AcDbCircle
 10
0.4424650713
 20
2.9137842784
 30
0.0
 40
0.0241875000000003
100
AcDbArc
 50
261.3654647221
 51
333.5251702863
  0
ARC
  5
220
330
1F
100
AcDbEntity
  8
0
  6
Continuous
 62
     7
370
    25
100
AcDbCircle
 10
1.4983378237
 20
2.3879245717
 30
0.0
 40
1.155386872572904
100
AcDbArc
 50
147.0418690426
 51
153.5251702863
  0
ARC
  5
221
330
1F
100
AcDbEntity
  8
0
  6
Continuous
 62
     7
370
    25
100
AcDbCircle
 10
0.0
 20
0.0
 30
0.0
 40
3.0625
100
AcDbArc
 50
79.0879444342
 51
80.0552449218
  0
ARC
  5
222
330
1F
100
AcDbEntity
  8
0
  6
Continuous
 62
     7
370
    25
100
AcDbCircle
 10
-0.5499748002
 20
2.7649100732
 30
0.0
 40
1.155386872572904
100
AcDbArc
 50
5.6180190697
 51
12.1013203134
  0
ARC
  5
223
330
1F
100
AcDbEntity
  8
0
  6
Continuous
 62
     7
370
    25
100
AcDbCircle
 10
0.6239336776
 20
2.8803855516
 30
0.0
 40
0.0241875000000002
100
AcDbArc
 50
185.6180190697
 51
257.7777246339
  0
ARC
  5
224
330
1F
100
AcDbEntity
  8
0
  6
Continuous
 62
     7
370
    25
100
AcDbCircle
 10
0.0
 20
0.0
 30
0.0
 40
2.923000000000001
100
AcDbArc
 50
77.6154647221
 51
77.7777246339
  0
ARC
  5
225
330
1F
100
AcDbEntity
  8
0
  6
Continuous
 62
     7
370
    25
100
AcDbCircle
 10
0.6320883293
 20
2.8786070423
 30
0.0
 40
0.0241875000000009
100
AcDbArc
 50
257.6154647221
 51
329.7751702863
  0
ARC
  5
226
330
1F
100
AcDbEntity
  8
0
  6
Continuous
 62
     7
370
    25
100
AcDbCircle
 10
1.6513075068
 20
2.2848158596
 30
0.0
 40
1.155386872572904
100
AcDbArc
 50
143.2918690426
 51
149.7751702863
  0
ARC
  5
227
330
1F
100
AcDbEntity
  8
0
  6
Continuous
 62
     7
370
    25
100
AcDbCircle
 10
0.0
 20
0.0
 30
0.0
 40
3.0625
100
AcDbArc
 50
75.3379444342
 51
76.3052449218
  0
ARC
  5
228
330
1F
100
AcDbEntity
  8
0
  6
Continuous
 62
     7
370
    25
100
AcDbCircle
 10
-0.3679634911
 20
2.7949602615
 30
0.0
 40
1.155386872572904
100
AcDbArc
 50
1.8680190697
 51
8.3513203134
  0
ARC
  5
229
330
1F
100
AcDbEntity
  8
0
  6
Continuous
 62
     7
370
    25
100
AcDbCircle
 10
0.8109840162
 20
2.8334112101
 30
0.0
 40
0.0241875000000001
100
AcDbArc
 50
181.8680190697
 51
254.0277246339
  0
ARC
  5
22A
330
1F
100
AcDbEntity
  8
0
  6
Continuous
 62
     7
370
    25
100
AcDbCircle
 10
0.0
 20
0.0
 30
0.0
 40
2.923
100
AcDbArc
 50
73.8654647221
 51
74.0277246339
  0
ARC
  5
22B
330
1F
100
AcDbEntity
  8
0
  6
Continuous
 62
     7
370
    25
100
AcDbCircle
 10
0.8190048881
 20
2.831103169
 30
0.0
 40
0.0241875000000001
100
AcDbArc
 50
253.8654647221
 51
326.0251702863
  0
ARC
  5
22C
330
1F
100
AcDbEntity
  8
0
  6
Continuous
 62
     7
370
    25
100
AcDbCircle
 10
1.7972060376
 20
2.1719232151
 30
0.0
 40
1.155386872572904
100
AcDbArc
 50
139.5418690426
 51
146.0251702863
  0
ARC
  5
22D
330
1F
100
AcDbEntity
  8
0
  6
Continuous
 62
     7
370
    25
100
AcDbCircle
 10
0.0
 20
0.0
 30
0.0
 40
3.062500000000001
100
AcDbArc
 50
71.5879444342
 51
72.5552449218
  0
ARC
  5
22E
330
1F
100
AcDbEntity
  8
0
  6
Continuous
 62
     7
370
    25
100
AcDbCircle
 10
-0.1843765059
 20
2.8130420008
 30
0.0
 40
1.155386872572904
100
AcDbArc
 50
358.1180190697
 51
4.6013203134
  0
ARC
  5
22F
330
1F
100
AcDbEntity
  8
0
  6
Continuous
 62
     7
370
    25
100
AcDbCircle
 10
0.9945615967
 20
2.7743037668
 30
0.0
 40
0.0241875000000003
100
AcDbArc
 50
178.1180190697
 51
250.2777246339
  0
ARC
  5
230
330
1F
100
AcDbEntity
  8
0
  6
Continuous
 62
     7
370
    25
100
AcDbCircle
 10
0.0
 20
0.0
 30
0.0
 40
2.923
100
AcDbArc
 50
70.1154647221
 51
70.2777246339
  0
ARC
  5
231
330
1F
100
AcDbEntity
  8
0
  6
Continuous
 62
     7
370
    25
100
AcDbCircle
 10
1.0024143422
 20
2.7714760772
 30
0.0
 40
0.0241875000000005
100
AcDbArc
 50
250.1154647221
 51
322.2751702863
  0
ARC
  5
232
330
1F
100
AcDbEntity
  8
0
  6
Continuous
 62
     7
370
    25
100
AcDbCircle
 10
1.9354086562
 20
2.0497300621
 30
0.0
 40
1.155386872572904
100
AcDbArc
 50
135.7918690426
 51
142.2751702863
  0
ARC
  5
233
330
1F
100
AcDbEntity
  8
0
  6
Continuous
 62
     7
370
    25
100
AcDbCircle
 10
0.0
 20
0.0
 30
0.0
 40
3.0625
100
AcDbArc
 50
67.8379444342
 51
68.8052449218
  0
ARC
  5
234
330
1F
100
AcDbEntity
  8
0
  6
Continuous
 62
     7
370
    25
100
AcDbCircle
 10
0.0000000079
 20
2.8190778624
 30
0.0
 40
1.155386872572904
100
AcDbArc
 50
354.3680190697
 51
0.8513203134
  0
ARC
  5
235
330
1F
100
AcDbEntity
  8
0
  6
Continuous
 62
     7
370
    25
100
AcDbCircle
 10
1.1738803117
 20
2.7033163289
 30
0.0
 40
0.0241875000000005
100
AcDbArc
 50
174.3680190697
 51
246.5277246339
  0
ARC
  5
236
330
1F
100
AcDbEntity
  8
0
  6
Continuous
 62
     7
370
    25
100
AcDbCircle
 10
0.0
 20
0.0
 30
0.0
 40
2.923
100
AcDbArc
 50
66.3654647221
 51
66.5277246339
  0
ARC
  5
237
330
1F
100
AcDbEntity
  8
0
  6
Continuous
 62
     7
370
    25
100
AcDbCircle
 10
1.1815313042
 20
2.6999810995
 30
0.0
 40
0.0241875000000006
100
AcDbArc
 50
246.3654647221
 51
318.5251702863
  0
ARC
  5
238
330
1F
100
AcDbEntity
  8
0
  6
Continuous
 62
     7
370
    25
100
AcDbCircle
 10
2.0653235579
 20
1.9187596502
 30
0.0
 40
1.155386872572904
100
AcDbArc
 50
132.0418690426
 51
138.5251702863
  0
ARC
  5
239
330
1F
100
AcDbEntity
  8
0
  6
Continuous
 62
     7
370
    25
100
AcDbCircle
 10
0.0
 20
0.0
 30
0.0
 40
3.0625
100
AcDbArc
 50
64.0879444342
 51
65.0552449218
  0
ARC
  5
23A
330
1F
100
AcDbEntity
  8
0
  6
Continuous
 62
     7
370
    25
100
AcDbCircle
 10
0.1843765216
 20
2.8130419997
 30
0.0
 40
1.155386872572904
100
AcDbArc
 50
350.6180190697
 51
357.1013203134
  0
ARC
  5
23B
330
1F
100
AcDbEntity
  8
0
  6
Continuous
 62
     7
370
    25
100
AcDbCircle
 10
1.3481722911
 20
2.6207528754
 30
0.0
 40
0.0241875000000003
100
AcDbArc
 50
170.6180190697
 51
242.7777246339
  0
ARC
  5
23C
330
1F
100
AcDbEntity
  8
0
  6
Continuous
 62
     7
370
    25
100
AcDbCircle
 10
0.0
 20
0.0
 30
0.0
 40
2.923
100
AcDbArc
 50
62.6154647221
 51
62.7777246339
  0
ARC
  5
23D
330
1F
100
AcDbEntity
  8
0
  6
Continuous
 62
     7
370
    25
100
AcDbCircle
 10
1.3555887677
 20
2.6169243881
 30
0.0
 40
0.0241875000000008
100
AcDbArc
 50
242.6154647221
 51
314.7751702863
  0
ARC
  5
23E
330
1F
100
AcDbEntity
  8
0
  6
Continuous
 62
     7
370
    25
100
AcDbCircle
 10
2.186394427
 20
1.779572815
 30
0.0
 40
1.155386872572904
100
AcDbArc
 50
128.2918690426
 51
134.7751702863
  0
ARC
  5
23F
330
1F
100
AcDbEntity
  8
0
  6
Continuous
 62
     7
370
    25
100
AcDbCircle
 10
0.0
 20
0.0
 30
0.0
 40
3.0625
100
AcDbArc
 50
60.3379444342
 51
61.3052449218
  0
ARC
  5
240
330
1F
100
AcDbEntity
  8
0
  6
Continuous
 62
     7
370
    25
100
AcDbCircle
 10
0.3679635068
 20
2.7949602594
 30
0.0
 40
1.155386872572904
100
AcDbArc
 50
346.8680190697
 51
353.3513203134
  0
ARC
  5
241
330
1F
100
AcDbEntity
  8
0
  6
Continuous
 62
     7
370
    25
100
AcDbCircle
 10
1.5166911897
 20
2.5269669557
 30
0.0
 40
0.0241875
100
AcDbArc
 50
166.8680190697
 51
239.0277246339
  0
ARC
  5
242
330
1F
100
AcDbEntity
  8
0
  6
Continuous
 62
     7
370
    25
100
AcDbCircle
 10
0.0
 20
0.0
 30
0.0
 40
2.923
100
AcDbArc
 50
58.8654647221
 51
59.0277246339
  0
ARC
  5
243
330
1F
100
AcDbEntity
  8
0
  6
Continuous
 62
     7
370
    25
100
AcDbCircle
 10
1.523841392
 20
2.5226616047
 30
0.0
 40
0.0241875000000005
100
AcDbArc
 50
238.8654647221
 51
311.0251702863
  0
ARC
  5
244
330
1F
100
AcDbEntity
  8
0
  6
Continuous
 62
     7
370
    25
100
AcDbCircle
 10
2.2981028194
 20
1.6327655757
 30
0.0
 40
1.155386872572904
100
AcDbArc
 50
124.5418690426
 51
131.0251702863
  0
ARC
  5
245
330
1F
100
AcDbEntity
  8
0
  6
Continuous
 62
     7
370
    25
100
AcDbCircle
 10
0.0
 20
0.0
 30
0.0
 40
3.0625
100
AcDbArc
 50
56.5879444342
 51
57.5552449218
  0
ARC
  5
246
330
1F
100
AcDbEntity
  8
0
  6
Continuous
 62
     7
370
    25
100
AcDbCircle
 10
0.5499748157
 20
2.7649100702
 30
0.0
 40
1.155386872572904
100
AcDbArc
 50
343.1180190697
 51
349.6013203134
  0
ARC
  5
247
330
1F
100
AcDbEntity
  8
0
  6
Continuous
 62
     7
370
    25
100
AcDbCircle
 10
1.6787153838
 20
2.4223601756
 30
0.0
 40
0.0241875000000001
100
AcDbArc
 50
163.1180190697
 51
235.2777246339
  0
ARC
  5
248
330
1F
100
AcDbEntity
  8
0
  6
Continuous
 62
     7
370
    25
100
AcDbCircle
 10
0.0
 20
0.0
 30
0.0
 40
2.923
100
AcDbArc
 50
55.1154647221
 51
55.2777246339
  0
ARC
  5
249
330
1F
100
AcDbEntity
  8
0
  6
Continuous
 62
     7
370
    25
100
AcDbCircle
 10
1.6855686936
 20
2.4175963971
 30
0.0
 40
0.0241875000000004
100
AcDbArc
 50
235.1154647221
 51
307.2751702863
  0
ARC
  5
24A
330
1F
100
AcDbEntity
  8
0
  6
Continuous
 62
     7
370
    25
100
AcDbCircle
 10
2.3999703829
 20
1.4789665836
 30
0.0
 40
1.155386872572904
100
AcDbArc
 50
120.7918690426
 51
127.2751702863
  0
ARC
  5
24B
330
1F
100
AcDbEntity
  8
0
  6
Continuous
 62
     7
370
    25
100
AcDbCircle
 10
0.0
 20
0.0
 30
0.0
 40
3.0625
100
AcDbArc
 50
52.8379444342
 51
53.8052449218
  0
ARC
  5
24C
330
1F
100
AcDbEntity
  8
0
  6
Continuous
 62
     7
370
    25
100
AcDbCircle
 10
0.729631048
 20
2.7230201115
 30
0.0
 40
1.155386872572904
100
AcDbArc
 50
339.3680190697
 51
345.8513203134
  0
ARC
  5
24D
330
1F
100
AcDbEntity
  8
0
  6
Continuous
 62
     7
370
    25
100
AcDbCircle
 10
1.8335510609
 20
2.3073804773
 30
0.0
 40
0.0241875000000003
100
AcDbArc
 50
159.3680190697
 51
231.5277246339
  0
ARC
  5
24E
330
1F
100
AcDbEntity
  8
0
  6
Continuous
 62
     7
370
    25
100
AcDbCircle
 10
0.0
 20
0.0
 30
0.0
 40
2.923
100
AcDbArc
 50
51.3654647221
 51
51.5277246339
  0
ARC
  5
24F
330
1F
100
AcDbEntity
  8
0
  6
Continuous
 62
     7
370
    25
100
AcDbCircle
 10
1.8400781312
 20
2.3021786706
 30
0.0
 40
0.0241875000000006
100
AcDbArc
 50
231.3654647221
 51
303.5251702863
  0
ARC
  5
250
330
1F
100
AcDbEntity
  8
0
  6
Continuous
 62
     7
370
    25
100
AcDbCircle
 10
2.4915609046
 20
1.3188344295
 30
0.0
 40
1.155386872572904
100
AcDbArc
 50
117.0418690426
 51
123.5251702863
  0
ARC
  5
251
330
1F
100
AcDbEntity
  8
0
  6
Continuous
 62
     7
370
    25
100
AcDbCircle
 10
0.0
 20
0.0
 30
0.0
 40
3.0625
100
AcDbArc
 50
49.0879444342
 51
50.0552449218
  0
ARC
  5
252
330
1F
100
AcDbEntity
  8
0
  6
Continuous
 62
     7
370
    25
100
AcDbCircle
 10
0.9061628882
 20
2.6694697627
 30
0.0
 40
1.155386872572904
100
AcDbArc
 50
335.6180190697
 51
342.1013203134
  0
ARC
  5
253
330
1F
100
AcDbEntity
  8
0
  6
Continuous
 62
     7
370
    25
100
AcDbCircle
 10
1.9805351909
 20
2.1825202216
 30
0.0
 40
0.0241875000000005
100
AcDbArc
 50
155.6180190697
 51
227.7777246339
  0
ARC
  5
254
330
1F
100
AcDbEntity
  8
0
  6
Continuous
 62
     7
370
    25
100
AcDbCircle
 10
0.0
 20
0.0
 30
0.0
 40
2.923
100
AcDbArc
 50
47.6154647221
 51
47.7777246339
  0
ARC
  5
255
330
1F
100
AcDbEntity
  8
0
  6
Continuous
 62
     7
370
    25
100
AcDbCircle
 10
1.9867080718
 20
2.1769026615
 30
0.0
 40
0.0241875000000002
100
AcDbArc
 50
227.6154647221
 51
299.7751702863
  0
ARC
  5
256
330
1F
100
AcDbEntity
  8
0
  6
Continuous
 62
     7
370
    25
100
AcDbCircle
 10
2.5724821801
 20
1.1530548239
 30
0.0
 40
1.155386872572904
100
AcDbArc
 50
113.2918690426
 51
119.7751702863
  0
ARC
  5
257
330
1F
100
AcDbEntity
  8
0
  6
Continuous
 62
     7
370
    25
100
AcDbCircle
 10
0.0
 20
0.0
 30
0.0
 40
3.0625
100
AcDbArc
 50
45.3379444342
 51
46.3052449218
  0
ARC
  5
258
330
1F
100
AcDbEntity
  8
0
  6
Continuous
 62
     7
370
    25
100
AcDbCircle
 10
1.0788143997
 20
2.6044883346
 30
0.0
 40
1.155386872572904
100
AcDbArc
 50
331.8680190697
 51
338.3513203134
  0
ARC
  5
259
330
1F
100
AcDbEntity
  8
0
  6
Continuous
 62
     7
370
    25
100
AcDbCircle
 10
2.1190383651
 20
2.0483140793
 30
0.0
 40
0.0241875000000004
100
AcDbArc
 50
151.8680190697
 51
224.0277246339
  0
ARC
  5
25A
330
1F
100
AcDbEntity
  8
0
  6
Continuous
 62
     7
370
    25
100
AcDbCircle
 10
0.0
 20
0.0
 30
0.0
 40
2.923
100
AcDbArc
 50
43.8654647221
 51
44.0277246339
  0
ARC
  5
25B
330
1F
100
AcDbEntity
  8
0
  6
Continuous
 62
     7
370
    25
100
AcDbCircle
 10
2.1248306234
 20
2.042304821
 30
0.0
 40
0.024187500000001
100
AcDbArc
 50
223.8654647221
 51
296.0251702863
  0
ARC
  5
25C
330
1F
100
AcDbEntity
  8
0
  6
Continuous
 62
     7
370
    25
100
AcDbCircle
 10
2.642387692
 20
0.9823376606
 30
0.0
 40
1.155386872572904
100
AcDbArc
 50
109.5418690426
 51
116.0251702863
  0
ARC
  5
25D
330
1F
100
AcDbEntity
  8
0
  6
Continuous
 62
     7
370
    25
100
AcDbCircle
 10
0.0
 20
0.0
 30
0.0
 40
3.062500000000001
100
AcDbArc
 50
41.5879444342
 51
42.5552449218
  0
ARC
  5
25E
330
1F
100
AcDbEntity
  8
0
  6
Continuous
 62
     7
370
    25
100
AcDbCircle
 10
1.2468462624
 20
2.5283540875
 30
0.0
 40
1.155386872572904
100
AcDbArc
 50
328.1180190697
 51
334.6013203134
  0
ARC
  5
25F
330
1F
100
AcDbEntity
  8
0
  6
Continuous
 62
     7
370
    25
100
AcDbCircle
 10
2.2484674918
 20
1.9053367415
 30
0.0
 40
0.0241875000000001
100
AcDbArc
 50
148.1180190697
 51
220.2777246339
  0
ARC
  5
260
330
1F
100
AcDbEntity
  8
0
  6
Continuous
 62
     7
370
    25
100
AcDbCircle
 10
0.0
 20
0.0
 30
0.0
 40
2.923
100
AcDbArc
 50
40.1154647221
 51
40.2777246339
  0
ARC
  5
261
330
1F
100
AcDbEntity
  8
0
  6
Continuous
 62
     7
370
    25
100
AcDbCircle
 10
2.2538543241
 20
1.8989615178
 30
0.0
 40
0.0241875000000004
100
AcDbArc
 50
220.1154647221
 51
292.2751702863
  0
ARC
  5
262
330
1F
100
AcDbEntity
  8
0
  6
Continuous
 62
     7
370
    25
100
AcDbCircle
 10
2.700978094
 20
0.8074139766
 30
0.0
 40
1.155386872572904
100
AcDbArc
 50
105.7918690426
 51
112.2751702863
  0
ARC
  5
263
330
1F
100
AcDbEntity
  8
0
  6
Continuous
 62
     7
370
    25
100
AcDbCircle
 10
0.0
 20
0.0
 30
0.0
 40
3.0625
100
AcDbArc
 50
37.8379444342
 51
38.8052449218
  0
ARC
  5
264
330
1F
100
AcDbEntity
  8
0
  6
Continuous
 62
     7
370
    25
100
AcDbCircle
 10
1.409538938
 20
2.4413930401
 30
0.0
 40
1.155386872572904
100
AcDbArc
 50
324.3680190697
 51
330.8513203134
  0
ARC
  5
265
330
1F
100
AcDbEntity
  8
0
  6
Continuous
 62
     7
370
    25
100
AcDbCircle
 10
2.3682683354
 20
1.7542004594
 30
0.0
 40
0.0241875000000004
100
AcDbArc
 50
144.3680190697
 51
216.5277246339
  0
ARC
  5
266
330
1F
100
AcDbEntity
  8
0
  6
Continuous
 62
     7
370
    25
100
AcDbCircle
 10
0.0
 20
0.0
 30
0.0
 40
2.923
100
AcDbArc
 50
36.3654647221
 51
36.5277246339
  0
ARC
  5
267
330
1F
100
AcDbEntity
  8
0
  6
Continuous
 62
     7
370
    25
100
AcDbCircle
 10
2.3732266745
 20
1.7474865698
 30
0.0
 40
0.0241875000000003
100
AcDbArc
 50
216.3654647221
 51
288.5251702863
  0
ARC
  5
268
330
1F
100
AcDbEntity
  8
0
  6
Continuous
 62
     7
370
    25
100
AcDbCircle
 10
2.7480024933
 20
0.6290328219
 30
0.0
 40
1.155386872572904
100
AcDbArc
 50
102.0418690426
 51
108.5251702863
  0
ARC
  5
269
330
1F
100
AcDbEntity
  8
0
  6
Continuous
 62
     7
370
    25
100
AcDbCircle
 10
0.0
 20
0.0
 30
0.0
 40
3.062500000000001
100
AcDbArc
 50
34.0879444342
 51
35.0552449218
  0
ARC
  5
26A
330
1F
100
AcDbEntity
  8
0
  6
Continuous
 62
     7
370
    25
100
AcDbCircle
 10
1.5661957514
 20
2.3439775729
 30
0.0
 40
1.155386872572904
100
AcDbArc
 50
320.6180190697
 51
327.1013203134
  0
ARC
  5
26B
330
1F
100
AcDbEntity
  8
0
  6
Continuous
 62
     7
370
    25
100
AcDbCircle
 10
2.4779278904
 20
1.5955524216
 30
0.0
 40
0.0241875000000003
100
AcDbArc
 50
140.6180190697
 51
212.7777246339
  0
ARC
  5
26C
330
1F
100
AcDbEntity
  8
0
  6
Continuous
 62
     7
370
    25
100
AcDbCircle
 10
0.0
 20
0.0
 30
0.0
 40
2.923
100
AcDbArc
 50
32.6154647221
 51
32.7777246339
  0
ARC
  5
26D
330
1F
100
AcDbEntity
  8
0
  6
Continuous
 62
     7
370
    25
100
AcDbCircle
 10
2.482436504
 20
1.588528616
 30
0.0
 40
0.0241875000000002
100
AcDbArc
 50
212.6154647221
 51
284.7751702863
  0
ARC
  5
26E
330
1F
100
AcDbEntity
  8
0
  6
Continuous
 62
     7
370
    25
100
AcDbCircle
 10
2.7832595239
 20
0.4479580522
 30
0.0
 40
1.155386872572904
100
AcDbArc
 50
98.2918690426
 51
104.7751702863
  0
ARC
  5
26F
330
1F
100
AcDbEntity
  8
0
  6
Continuous
 62
     7
370
    25
100
AcDbCircle
 10
0.0
 20
0.0
 30
0.0
 40
3.0625
100
AcDbArc
 50
30.3379444342
 51
31.3052449218
  0
ARC
  5
270
330
1F
100
AcDbEntity
  8
0
  6
Continuous
 62
     7
370
    25
100
AcDbCircle
 10
1.7161458742
 20
2.2365248339
 30
0.0
 40
1.155386872572904
100
AcDbArc
 50
316.8680190697
 51
323.3513203134
  0
ARC
  5
271
330
1F
100
AcDbEntity
  8
0
  6
Continuous
 62
     7
370
    25
100
AcDbCircle
 10
2.5769765778
 20
1.4300719833
 30
0.0
 40
0.0241875000000002
100
AcDbArc
 50
136.8680190697
 51
209.0277246339
  0
ARC
  5
272
330
1F
100
AcDbEntity
  8
0
  6
Continuous
 62
     7
370
    25
100
AcDbCircle
 10
0.0
 20
0.0
 30
0.0
 40
2.923
100
AcDbArc
 50
28.8654647221
 51
29.0277246339
  0
ARC
  5
273
330
1F
100
AcDbEntity
  8
0
  6
Continuous
 62
     7
370
    25
100
AcDbCircle
 10
2.5810161592
 20
1.4227683388
 30
0.0
 40
0.0241875000000003
100
AcDbArc
 50
208.8654647221
 51
281.0251702863
  0
ARC
  5
274
330
1F
100
AcDbEntity
  8
0
  6
Continuous
 62
     7
370
    25
100
AcDbCircle
 10
2.80659821
 20
0.2649650573
 30
0.0
 40
1.155386872572904
100
AcDbArc
 50
94.5418690426
 51
101.0251702863
  0
ARC
  5
275
330
1F
100
AcDbEntity
  8
0
  6
Continuous
 62
     7
370
    25
100
AcDbCircle
 10
0.0
 20
0.0
 30
0.0
 40
3.0625
100
AcDbArc
 50
26.5879444342
 51
27.5552449218
  0
ARC
  5
276
330
1F
100
AcDbEntity
  8
0
  6
Continuous
 62
     7
370
    25
100
AcDbCircle
 10
1.8587471969
 20
2.1194949521
 30
0.0
 40
1.155386872572904
100
AcDbArc
 50
313.1180190697
 51
319.6013203134
  0
ARC
  5
277
330
1F
100
AcDbEntity
  8
0
  6
Continuous
 62
     7
370
    25
100
AcDbCircle
 10
2.6649902559
 20
1.2584677573
 30
0.0
 40
0.0241875
100
AcDbArc
 50
133.1180190697
 51
205.2777246339
  0
ARC
  5
278
330
1F
100
AcDbEntity
  8
0
  6
Continuous
 62
     7
370
    25
100
AcDbCircle
 10
0.0
 20
0.0
 30
0.0
 40
2.923
100
AcDbArc
 50
25.1154647221
 51
25.2777246339
  0
ARC
  5
279
330
1F
100
AcDbEntity
  8
0
  6
Continuous
 62
     7
370
    25
100
AcDbCircle
 10
2.668543507
 20
1.2509155492
 30
0.0
 40
0.0241875000000007
100
AcDbArc
 50
205.1154647221
 51
277.2751702863
  0
ARC
  5
27A
330
1F
100
AcDbEntity
  8
0
  6
Continuous
 62
     7
370
    25
100
AcDbCircle
 10
2.8179186117
 20
0.0808374413
 30
0.0
 40
1.155386872572904
100
AcDbArc
 50
90.7918690426
 51
97.2751702863
  0
ARC
  5
27B
330
1F
100
AcDbEntity
  8
0
  6
Continuous
 62
     7
370
    25
100
AcDbCircle
 10
0.0
 20
0.0
 30
0.0
 40
3.0625
100
AcDbArc
 50
22.8379444342
 51
23.8052449218
  0
ARC
  5
27C
330
1F
100
AcDbEntity
  8
0
  6
Continuous
 62
     7
370
    25
100
AcDbCircle
 10
1.9933890787
 20
1.9933890676
 30
0.0
 40
1.155386872572904
100
AcDbArc
 50
309.3680190697
 51
315.8513203134
  0
ARC
  5
27D
330
1F
100
AcDbEntity
  8
0
  6
Continuous
 62
     7
370
    25
100
AcDbCircle
 10
2.7415920366
 20
1.0814745791
 30
0.0
 40
0.0241875000000001
100
AcDbArc
 50
129.3680190697
 51
201.5277246339
  0
ARC
  5
27E
330
1F
100
AcDbEntity
  8
0
  6
Continuous
 62
     7
370
    25
100
AcDbCircle
 10
0.0
 20
0.0
 30
0.0
 40
2.923
100
AcDbArc
 50
21.3654647221
 51
21.5277246339
  0
ARC
  5
27F
330
1F
100
AcDbEntity
  8
0
  6
Continuous
 62
     7
370
    25
100
AcDbCircle
 10
2.7446437419
 20
1.0737061471
 30
0.0
 40
0.0241875000000004
100
AcDbArc
 50
201.3654647221
 51
273.5251702863
  0
ARC
  5
280
330
1F
100
AcDbEntity
  8
0
  6
Continuous
 62
     7
370
    25
100
AcDbCircle
 10
2.8171722533
 20
-0.103636333
 30
0.0
 40
1.155386872572904
100
AcDbArc
 50
87.0418690426
 51
93.5251702863
  0
ARC
  5
281
330
1F
100
AcDbEntity
  8
0
  6
Continuous
 62
     7
370
    25
100
AcDbCircle
 10
0.0
 20
0.0
 30
0.0
 40
3.0625
100
AcDbArc
 50
19.0879444342
 51
20.0552449218
  0
ARC
  5
282
330
1F
100
AcDbEntity
  8
0
  6
Continuous
 62
     7
370
    25
100
AcDbCircle
 10
2.1194949625
 20
1.8587471851
 30
0.0
 40
1.155386872572905
100
AcDbArc
 50
305.6180190697
 51
312.1013203134
  0
ARC
  5
283
330
1F
100
AcDbEntity
  8
0
  6
Continuous
 62
     7
370
    25
100
AcDbCircle
 10
2.8064538992
 20
0.8998503607
 30
0.0
 40
0.0241875
100
AcDbArc
 50
125.6180190697
 51
197.7777246339
  0
ARC
  5
284
330
1F
100
AcDbEntity
  8
0
  6
Continuous
 62
     7
370
    25
100
AcDbCircle
 10
0.0
 20
0.0
 30
0.0
 40
2.923000000000001
100
AcDbArc
 50
17.6154647221
 51
17.7777246339
  0
ARC
  5
285
330
1F
100
AcDbEntity
  8
0
  6
Continuous
 62
     7
370
    25
100
AcDbCircle
 10
2.8089909908
 20
0.8918989705
 30
0.0
 40
0.0241875000000007
100
AcDbArc
 50
197.6154647221
 51
269.7751702863
  0
ARC
  5
286
330
1F
100
AcDbEntity
  8
0
  6
Continuous
 62
     7
370
    25
100
AcDbCircle
 10
2.8043623307
 20
-0.2876663206
 30
0.0
 40
1.155386872572904
100
AcDbArc
 50
83.2918690426
 51
89.7751702863
  0
ARC
  5
287
330
1F
100
AcDbEntity
  8
0
  6
Continuous
 62
     7
370
    25
100
AcDbCircle
 10
0.0
 20
0.0
 30
0.0
 40
3.0625
100
AcDbArc
 50
15.3379444342
 51
16.3052449218
  0
ARC
  5
288
330
1F
100
AcDbEntity
  8
0
  6
Continuous
 62
     7
370
    25
100
AcDbCircle
 10
2.2365248434
 20
1.7161458617
 30
0.0
 40
1.155386872572904
100
AcDbArc
 50
301.8680190697
 51
308.3513203134
  0
ARC
  5
289
330
1F
100
AcDbEntity
  8
0
  6
Continuous
 62
     7
370
    25
100
AcDbCircle
 10
2.8592980954
 20
0.714372845
 30
0.0
 40
0.0241875
100
AcDbArc
 50
121.8680190697
 51
194.0277246339
  0
ARC
  5
28A
330
1F
100
AcDbEntity
  8
0
  6
Continuous
 62
     7
370
    25
100
AcDbCircle
 10
0.0
 20
0.0
 30
0.0
 40
2.923
100
AcDbArc
 50
13.8654647221
 51
14.0277246339
  0
ARC
  5
28B
330
1F
100
AcDbEntity
  8
0
  6
Continuous
 62
     7
370
    25
100
AcDbCircle
 10
2.8613097091
 20
0.7062725456
 30
0.0
 40
0.0241875000000004
100
AcDbArc
 50
193.8654647221
 51
266.0251702863
  0
ARC
  5
28C
330
1F
100
AcDbEntity
  8
0
  6
Continuous
 62
     7
370
    25
100
AcDbCircle
 10
2.7795436982
 20
-0.4704644768
 30
0.0
 40
1.155386872572904
100
AcDbArc
 50
79.5418690426
 51
86.0251702863
  0
ARC
  5
28D
330
1F
100
AcDbEntity
  8
0
  6
Continuous
 62
     7
370
    25
100
AcDbCircle
 10
0.0
 20
0.0
 30
0.0
 40
3.062500000000001
100
AcDbArc
 50
11.5879444342
 51
12.5552449218
  0
ARC
  5
28E
330
1F
100
AcDbEntity
  8
0
  6
Continuous
 62
     7
370
    25
100
AcDbCircle
 10
2.3439775816
 20
1.5661957383
 30
0.0
 40
1.155386872572904
100
AcDbArc
 50
298.1180190697
 51
304.6013203134
  0
ARC
  5
28F
330
1F
100
AcDbEntity
  8
0
  6
Continuous
 62
     7
370
    25
100
AcDbCircle
 10
2.8998983382
 20
0.5258362751
 30
0.0
 40
0.0241875000000002
100
AcDbArc
 50
118.1180190697
 51
190.2777246339
  0
ARC
  5
290
330
1F
100
AcDbEntity
  8
0
  6
Continuous
 62
     7
370
    25
100
AcDbCircle
 10
0.0
 20
0.0
 30
0.0
 40
2.923
100
AcDbArc
 50
10.1154647221
 51
10.2777246339
  0
ARC
  5
291
330
1F
100
AcDbEntity
  8
0
  6
Continuous
 62
     7
370
    25
100
AcDbCircle
 10
2.90137586
 20
0.5176217532
 30
0.0
 40
0.0241875000000004
100
AcDbArc
 50
190.1154647221
 51
262.2751702863
  0
ARC
  5
292
330
1F
100
AcDbEntity
  8
0
  6
Continuous
 62
     7
370
    25
100
AcDbCircle
 10
2.7428226328
 20
-0.6512480319
 30
0.0
 40
1.155386872572904
100
AcDbArc
 50
75.7918690426
 51
82.2751702863
  0
ARC
  5
293
330
1F
100
AcDbEntity
  8
0
  6
Continuous
 62
     7
370
    25
100
AcDbCircle
 10
0.0
 20
0.0
 30
0.0
 40
3.0625
100
AcDbArc
 50
7.8379444342
 51
8.8052449218
  0
ARC
  5
294
330
1F
100
AcDbEntity
  8
0
  6
Continuous
 62
     7
370
    25
100
AcDbCircle
 10
2.441393048
 20
1.4095389244
 30
0.0
 40
1.155386872572904
100
AcDbArc
 50
294.3680190697
 51
300.8513203134
  0
ARC
  5
295
330
1F
100
AcDbEntity
  8
0
  6
Continuous
 62
     7
370
    25
100
AcDbCircle
 10
2.9280807711
 20
0.3350479935
 30
0.0
 40
0.0241875000000003
100
AcDbArc
 50
114.3680190697
 51
186.5277246339
  0
ARC
  5
296
330
1F
100
AcDbEntity
  8
0
  6
Continuous
 62
     7
370
    25
100
AcDbCircle
 10
0.0
 20
0.0
 30
0.0
 40
2.923
100
AcDbArc
 50
6.3654647221
 51
6.5277246339
  0
ARC
  5
297
330
1F
100
AcDbEntity
  8
0
  6
Continuous
 62
     7
370
    25
100
AcDbCircle
 10
2.929017874
 20
0.326754425
 30
0.0
 40
0.0241875000000004
100
AcDbArc
 50
186.3654647221
 51
258.5251702863
  0
ARC
  5
298
330
1F
100
AcDbEntity
  8
0
  6
Continuous
 62
     7
370
    25
100
AcDbCircle
 10
2.6943563798
 20
-0.829242843
 30
0.0
 40
1.155386872572904
100
AcDbArc
 50
72.0418690426
 51
78.5251702863
  0
ARC
  5
299
330
1F
100
AcDbEntity
  8
0
  6
Continuous
 62
     7
370
    25
100
AcDbCircle
 10
0.0
 20
0.0
 30
0.0
 40
3.0625
100
AcDbArc
 50
4.0879444342
 51
5.0552449218
  0
ARC
  5
29A
330
1F
100
AcDbEntity
  8
0
  6
Continuous
 62
     7
370
    25
100
AcDbCircle
 10
2.5283540945
 20
1.2468462483
 30
0.0
 40
1.155386872572904
100
AcDbArc
 50
290.6180190697
 51
297.1013203134
  0
ARC
  5
29B
330
1F
100
AcDbEntity
  8
0
  6
Continuous
 62
     7
370
    25
100
AcDbCircle
 10
2.9437247126
 20
0.1428249849
 30
0.0
 40
0.0241875000000003
100
AcDbArc
 50
110.6180190697
 51
182.7777246339
  0
ARC
  5
29C
330
1F
100
AcDbEntity
  8
0
  6
Continuous
 62
     7
370
    25
100
AcDbCircle
 10
0.0
 20
0.0
 30
0.0
 40
2.923
100
AcDbArc
 50
2.6154647221
 51
2.7777246339
  0
ARC
  5
29D
330
1F
100
AcDbEntity
  8
0
  6
Continuous
 62
     7
370
    25
100
AcDbCircle
 10
2.9441173837
 20
0.1344878841
 30
0.0
 40
0.0241875000000004
100
AcDbArc
 50
182.6154647221
 51
254.7751702863
  0
ARC
  5
29E
330
1F
100
AcDbEntity
  8
0
  6
Continuous
 62
     7
370
    25
100
AcDbCircle
 10
2.6343524791
 20
-1.0036867089
 30
0.0
 40
1.155386872572904
100
AcDbArc
 50
68.2918690426
 51
74.7751702863
  0
ARC
  5
29F
330
1F
100
AcDbEntity
  8
0
  6
Continuous
 62
     7
370
    25
100
AcDbCircle
 10
0.0
 20
0.0
 30
0.0
 40
3.0625
100
AcDbArc
 50
0.3379444342
 51
1.3052449218
  0
ARC
  5
2A0
330
1F
100
AcDbEntity
  8
0
  6
Continuous
 62
     7
370
    25
100
AcDbCircle
 10
2.6044883406
 20
1.0788143852
 30
0.0
 40
1.155386872572904
100
AcDbArc
 50
286.8680190697
 51
293.3513203134
  0
ARC
  5
2A1
330
1F
100
AcDbEntity
  8
0
  6
Continuous
 62
     7
370
    25
100
AcDbCircle
 10
2.946763173
 20
-0.0500096221
 30
0.0
 40
0.0241875000000001
100
AcDbArc
 50
106.8680190697
 51
179.0277246339
  0
ARC
  5
2A2
330
1F
100
AcDbEntity
  8
0
  6
Continuous
 62
     7
370
    25
100
AcDbCircle
 10
0.0
 20
0.0
 30
0.0
 40
2.923
100
AcDbArc
 50
358.8654647221
 51
359.0277246339
  0
ARC
  5
2A3
330
1F
100
AcDbEntity
  8
0
  6
Continuous
 62
     7
370
    25
100
AcDbCircle
 10
2.9466097309
 20
-0.0583545545
 30
0.0
 40
0.0241875000000007
100
AcDbArc
 50
178.8654647221
 51
251.0251702863
  0
ARC
  5
2A4
330
1F
100
AcDbEntity
  8
0
  6
Continuous
 62
     7
370
    25
100
AcDbCircle
 10
2.5630678767
 20
-1.1738326343
 30
0.0
 40
1.155386872572904
100
AcDbArc
 50
64.5418690426
 51
71.0251702863
  0
ARC
  5
2A5
330
1F
100
AcDbEntity
  8
0
  6
Continuous
 62
     7
370
    25
100
AcDbCircle
 10
0.0
 20
0.0
 30
0.0
 40
3.0625
100
AcDbArc
 50
356.5879444342
 51
357.5552449218
  0
ARC
  5
2A6
330
1F
100
AcDbEntity
  8
0
  6
Continuous
 62
     7
370
    25
100
AcDbCircle
 10
2.6694697678
 20
0.9061628733
 30
0.0
 40
1.155386872572904
100
AcDbArc
 50
283.1180190697
 51
289.6013203134
  0
ARC
  5
2A7
330
1F
100
AcDbEntity
  8
0
  6
Continuous
 62
     7
370
    25
100
AcDbCircle
 10
2.9371831411
 20
-0.2426300803
 30
0.0
 40
0.0241875000000002
100
AcDbArc
 50
103.1180190697
 51
175.2777246339
  0
ARC
  5
2A8
330
1F
100
AcDbEntity
  8
0
  6
Continuous
 62
     7
370
    25
100
AcDbCircle
 10
0.0
 20
0.0
 30
0.0
 40
2.923
100
AcDbArc
 50
355.1154647221
 51
355.2777246339
  0
ARC
  5
2A9
330
1F
100
AcDbEntity
  8
0
  6
Continuous
 62
     7
370
    25
100
AcDbCircle
 10
2.9364842428
 20
-0.2509471099
 30
0.0
 40
0.0241875000000003
100
AcDbArc
 50
175.1154647221
 51
247.2751702863
  0
MTEXT
  5
2AB
330
1F
100
AcDbEntity
  8
0
  6
Continuous
 62
     7
100
AcDbMText
 10
-3.0624467291
 20
-3.1025871382
 30
0.0
 40
0.1903
 41
0.0
 71
     1
 72
     1
  1
SOLIDWORKS Educational Product.
  7
SLDTEXTSTYLE0
 73
     1
 44
1.0
  0
MTEXT
  5
2AC
330
1F
100
AcDbEntity
  8
0
  6
Continuous
 62
     7
100
AcDbMText
 10
-3.0624467291
 20
-3.3880371382
 30
0.0
 40
0.1903
 41
0.0
 71
     1
 72
     1
  1
For Instructional Use Only.
  7
SLDTEXTSTYLE0
 73
     1
 44
1.0
  0
ENDSEC
  0
SECTION
  2
OBJECTS
  0
DICTIONARY
  5
C
330
0
100
AcDbDictionary
281
     1
  3
ACAD_GROUP
350
D
  3
ACAD_LAYOUT
350
1A
  3
ACAD_MLINESTYLE
350
17
  3
ACAD_PLOTSETTINGS
350
19
  3
ACAD_PLOTSTYLENAME
350
E
  3
ACAD_SCALELIST
350
47
  3
DWGPROPS
350
2AD
  0
DICTIONARY
  5
D
102
{ACAD_REACTORS
330
C
102
}
330
C
100
AcDbDictionary
281
     1
  0
DICTIONARY
  5
1A
102
{ACAD_REACTORS
330
C
102
}
330
C
100
AcDbDictionary
281
     1
  3
Layout1
350
1E
  3
Layout2
350
26
  3
Model
350
22
  0
DICTIONARY
  5
17
102
{ACAD_REACTORS
330
C
102
}
330
C
100
AcDbDictionary
281
     1
  3
Standard
350
18
  0
DICTIONARY
  5
19
102
{ACAD_REACTORS
330
C
102
}
330
C
100
AcDbDictionary
281
     1
  0
ACDBDICTIONARYWDFLT
  5
E
102
{ACAD_REACTORS
330
C
102
}
330
C
100
AcDbDictionary
281
     1
  3
Normal
350
F
100
AcDbDictionaryWithDefault
340
F
  0
DICTIONARY
  5
47
102
{ACAD_REACTORS
330
C
102
}
330
C
100
AcDbDictionary
281
     1
  3
A0
350
48
  3
A1
350
49
  3
A2
350
4A
  3
A3
350
4B
  3
A4
350
4C
  3
A5
350
4D
  3
A6
350
4E
  3
A7
350
4F
  3
A8
350
50
  3
A9
350
51
  3
B1
350
52
  3
B2
350
53
  3
B3
350
54
  3
B4
350
55
  3
B5
350
56
  3
B6
350
57
  3
B7
350
58
  0
XRECORD
  5
2AD
102
{ACAD_REACTORS
330
C
102
}
330
C
100
AcDbXrecord
280
     1
  1
DWGPROPS COOKIE
  2

  3

  4

  6

  7

  8
kevin
  9

300
=
301
=
302
=
303
=
304
=
305
=
306
=
307
=
308
=
309
=
 40
0.0
 41
2460489.90908823
 42
2460489.909113738
  1

 90
        0
  0
LAYOUT
  5
1E
102
{ACAD_REACTORS
330
1A
102
}
330
1A
100
AcDbPlotSettings
  1

  2
none_device
  4

  6

 40
0.0
 41
0.0
 42
0.0
 43
0.0
 44
0.0
 45
0.0
 46
0.0
 47
0.0
 48
0.0
 49
0.0
140
0.0
141
0.0
142
1.0
143
1.0
 70
   688
 72
     0
 73
     0
 74
     5
  7

 75
    16
147
1.0
148
0.0
149
0.0
100
AcDbLayout
  1
Layout1
 70
     1
 71
     1
 10
0.0
 20
0.0
 11
12.0
 21
9.0
 12
0.0
 22
0.0
 32
0.0
 14
1.0000000000E+20
 24
1.0000000000E+20
 34
1.0000000000E+20
 15
-1.0000000000E+20
 25
-1.0000000000E+20
 35
-1.0000000000E+20
146
0.0
 13
0.0
 23
0.0
 33
0.0
 16
1.0
 26
0.0
 36
0.0
 17
0.0
 27
1.0
 37
0.0
 76
     0
330
1B
  0
LAYOUT
  5
26
102
{ACAD_REACTORS
330
1A
102
}
330
1A
100
AcDbPlotSettings
  1

  2
none_device
  4

  6

 40
0.0
 41
0.0
 42
0.0
 43
0.0
 44
0.0
 45
0.0
 46
0.0
 47
0.0
 48
0.0
 49
0.0
140
0.0
141
0.0
142
1.0
143
1.0
 70
   688
 72
     0
 73
     0
 74
     5
  7

 75
    16
147
1.0
148
0.0
149
0.0
100
AcDbLayout
  1
Layout2
 70
     1
 71
     2
 10
0.0
 20
0.0
 11
0.0
 21
0.0
 12
0.0
 22
0.0
 32
0.0
 14
0.0
 24
0.0
 34
0.0
 15
0.0
 25
0.0
 35
0.0
146
0.0
 13
0.0
 23
0.0
 33
0.0
 16
1.0
 26
0.0
 36
0.0
 17
0.0
 27
1.0
 37
0.0
 76
     0
330
23
  0
LAYOUT
  5
22
102
{ACAD_REACTORS
330
1A
102
}
330
1A
100
AcDbPlotSettings
  1

  2
none_device
  4
ANSI_A_(11.00_x_8.50_Inches)
  6

 40
6.35
 41
19.05
 42
6.35000508
 43
19.05000254
 44
279.4
 45
215.9
 46
133.34999746
 47
88.89999873
 48
0.0
 49
0.0
140
0.0
141
0.0
142
1.3739014495
143
1.0
 70
  1696
 72
     0
 73
     0
 74
     0
  7

 75
     0
147
0.5913241897
148
-39.4088153714
149
0.0
100
AcDbLayout
  1
Model
 70
     1
 71
     0
 10
0.0
 20
0.0
 11
12.0
 21
9.0
 12
0.0
 22
0.0
 32
0.0
 14
-3.0624467291
 24
-3.0624467291
 34
0.0
 15
3.0624467291
 25
3.0624467291
 35
0.0
146
0.0
 13
0.0
 23
0.0
 33
0.0
 16
1.0
 26
0.0
 36
0.0
 17
0.0
 27
1.0
 37
0.0
 76
     0
330
1F
331
29
  0
MLINESTYLE
  5
18
102
{ACAD_REACTORS
330
17
102
}
330
17
100
AcDbMlineStyle
  2
Standard
 70
     0
  3

 62
   256
 51
90.0
 52
90.0
 71
     2
 49
0.5
 62
   256
  6
BYLAYER
 49
-0.5
 62
   256
  6
BYLAYER
  0
ACDBPLACEHOLDER
  5
F
102
{ACAD_REACTORS
330
E
102
}
330
E
  0
SCALE
  5
48
102
{ACAD_REACTORS
330
47
102
}
330
47
100
AcDbScale
 70
     0
300
1:1
140
1.0
141
1.0
290
     1
  0
SCALE
  5
49
102
{ACAD_REACTORS
330
47
102
}
330
47
100
AcDbScale
 70
     0
300
1/128" = 1'-0"
140
0.0078125
141
12.0
290
     0
  0
SCALE
  5
4A
102
{ACAD_REACTORS
330
47
102
}
330
47
100
AcDbScale
 70
     0
300
1/64" = 1'-0"
140
0.015625
141
12.0
290
     0
  0
SCALE
  5
4B
102
{ACAD_REACTORS
330
47
102
}
330
47
100
AcDbScale
 70
     0
300
1/32" = 1'-0"
140
0.03125
141
12.0
290
     0
  0
SCALE
  5
4C
102
{ACAD_REACTORS
330
47
102
}
330
47
100
AcDbScale
 70
     0
300
1/16" = 1'-0"
140
0.0625
141
12.0
290
     0
  0
SCALE
  5
4D
102
{ACAD_REACTORS
330
47
102
}
330
47
100
AcDbScale
 70
     0
300
3/32" = 1'-0"
140
0.09375
141
12.0
290
     0
  0
SCALE
  5
4E
102
{ACAD_REACTORS
330
47
102
}
330
47
100
AcDbScale
 70
     0
300
1/8" = 1'-0"
140
0.125
141
12.0
290
     0
  0
SCALE
  5
4F
102
{ACAD_REACTORS
330
47
102
}
330
47
100
AcDbScale
 70
     0
300
3/16" = 1'-0"
140
0.1875
141
12.0
290
     0
  0
SCALE
  5
50
102
{ACAD_REACTORS
330
47
102
}
330
47
100
AcDbScale
 70
     0
300
1/4" = 1'-0"
140
0.25
141
12.0
290
     0
  0
SCALE
  5
51
102
{ACAD_REACTORS
330
47
102
}
330
47
100
AcDbScale
 70
     0
300
3/8" = 1'-0"
140
0.375
141
12.0
290
     0
  0
SCALE
  5
52
102
{ACAD_REACTORS
330
47
102
}
330
47
100
AcDbScale
 70
     0
300
1/2" = 1'-0"
140
0.5
141
12.0
290
     0
  0
SCALE
  5
53
102
{ACAD_REACTORS
330
47
102
}
330
47
100
AcDbScale
 70
     0
300
3/4" = 1'-0"
140
0.75
141
12.0
290
     0
  0
SCALE
  5
54
102
{ACAD_REACTORS
330
47
102
}
330
47
100
AcDbScale
 70
     0
300
1" = 1'-0"
140
1.0
141
12.0
290
     0
  0
SCALE
  5
55
102
{ACAD_REACTORS
330
47
102
}
330
47
100
AcDbScale
 70
     0
300
1-1/2" = 1'-0"
140
1.5
141
12.0
290
     0
  0
SCALE
  5
56
102
{ACAD_REACTORS
330
47
102
}
330
47
100
AcDbScale
 70
     0
300
3" = 1'-0"
140
3.0
141
12.0
290
     0
  0
SCALE
  5
57
102
{ACAD_REACTORS
330
47
102
}
330
47
100
AcDbScale
 70
     0
300
6" = 1'-0"
140
6.0
141
12.0
290
     0
  0
SCALE
  5
58
102
{ACAD_REACTORS
330
47
102
}
330
47
100
AcDbScale
 70
     0
300
1'-0" = 1'-0"
140
12.0
141
12.0
290
     0
  0
ENDSEC
  0
EOF
