  0
SECTION
  2
HEADER
  9
$ACADVER
  1
AC1015
  9
$ACADMAINTVER
 70
     6
  9
$DWGCODEPAGE
  3
ANSI_1252
  9
$INSBASE
 10
0.0
 20
0.0
 30
0.0
  9
$EXTMIN
 10
-76.4788734733
 20
-76.4788734733
 30
0.0
  9
$EXTMAX
 10
76.4788734733
 20
76.4788734733
 30
0.0
  9
$LIMMIN
 10
0.0
 20
0.0
  9
$LIMMAX
 10
420.0
 20
297.0
  9
$ORTHOMODE
 70
     0
  9
$REGENMODE
 70
     1
  9
$FILLMODE
 70
     1
  9
$QTEXTMODE
 70
     0
  9
$MIRRTEXT
 70
     1
  9
$LTSCALE
 40
1.0
  9
$ATTMODE
 70
     1
  9
$TEXTSIZE
 40
3.175
  9
$TRACEWID
 40
1.0
  9
$TEXTSTYLE
  7
Standard
  9
$CLAYER
  8
0
  9
$CELTYPE
  6
ByLayer
  9
$CECOLOR
 62
   256
  9
$CELTSCALE
 40
1.0
  9
$DISPSILH
 70
     0
  9
$DIMSCALE
 40
1.0
  9
$DIMASZ
 40
3.175
  9
$DIMEXO
 40
0.0
  9
$DIMDLI
 40
3.75
  9
$DIMRND
 40
0.0
  9
$DIMDLE
 40
0.0
  9
$DIMEXE
 40
3.175
  9
$DIMTP
 40
0.0
  9
$DIMTM
 40
0.0
  9
$DIMTXT
 40
3.175
  9
$DIMCEN
 40
2.5
  9
$DIMTSZ
 40
0.0
  9
$DIMTOL
 70
     0
  9
$DIMLIM
 70
     0
  9
$DIMTIH
 70
     1
  9
$DIMTOH
 70
     1
  9
$DIMSE1
 70
     0
  9
$DIMSE2
 70
     0
  9
$DIMTAD
 70
     0
  9
$DIMZIN
 70
     0
  9
$DIMBLK
  1

  9
$DIMASO
 70
     1
  9
$DIMSHO
 70
     1
  9
$DIMPOST
  1

  9
$DIMAPOST
  1

  9
$DIMALT
 70
     0
  9
$DIMALTD
 70
     3
  9
$DIMALTF
 40
0.0393700787
  9
$DIMLFAC
 40
1.0
  9
$DIMTOFL
 70
     1
  9
$DIMTVP
 40
0.0
  9
$DIMTIX
 70
     0
  9
$DIMSOXD
 70
     0
  9
$DIMSAH
 70
     0
  9
$DIMBLK1
  1

  9
$DIMBLK2
  1

  9
$DIMSTYLE
  2
ISO-25
  9
$DIMCLRD
 70
     0
  9
$DIMCLRE
 70
     0
  9
$DIMCLRT
 70
     0
  9
$DIMTFAC
 40
1.0
  9
$DIMGAP
 40
1.524
  9
$DIMJUST
 70
     0
  9
$DIMSD1
 70
     0
  9
$DIMSD2
 70
     0
  9
$DIMTOLJ
 70
     0
  9
$DIMTZIN
 70
     0
  9
$DIMALTZ
 70
     0
  9
$DIMALTTZ
 70
     0
  9
$DIMUPT
 70
     0
  9
$DIMDEC
 70
     3
  9
$DIMTDEC
 70
     3
  9
$DIMALTU
 70
     2
  9
$DIMALTTD
 70
     3
  9
$DIMTXSTY
  7
Standard
  9
$DIMAUNIT
 70
     0
  9
$DIMADEC
 70
     2
  9
$DIMALTRND
 40
0.0
  9
$DIMAZIN
 70
     0
  9
$DIMDSEP
 70
    44
  9
$DIMATFIT
 70
     3
  9
$DIMFRAC
 70
     0
  9
$DIMLDRBLK
  1

  9
$DIMLUNIT
 70
     2
  9
$DIMLWD
 70
    -2
  9
$DIMLWE
 70
    -2
  9
$DIMTMOVE
 70
     0
  9
$LUNITS
 70
     2
  9
$LUPREC
 70
     6
  9
$SKETCHINC
 40
1.0
  9
$FILLETRAD
 40
0.0
  9
$AUNITS
 70
     0
  9
$AUPREC
 70
     2
  9
$MENU
  1
.
  9
$ELEVATION
 40
0.0
  9
$PELEVATION
 40
0.0
  9
$THICKNESS
 40
0.0
  9
$LIMCHECK
 70
     0
  9
$CHAMFERA
 40
0.0
  9
$CHAMFERB
 40
0.0
  9
$CHAMFERC
 40
0.0
  9
$CHAMFERD
 40
0.0
  9
$SKPOLY
 70
     0
  9
$TDCREATE
 40
2460501.943294711
  9
$TDUCREATE
 40
2460502.234961378
  9
$TDUPDATE
 40
2460501.943319503
  9
$TDUUPDATE
 40
2460502.234986169
  9
$TDINDWG
 40
0.0000000116
  9
$TDUSRTIMER
 40
0.0000000116
  9
$USRTIMER
 70
     1
  9
$ANGBASE
 50
0.0
  9
$ANGDIR
 70
     0
  9
$PDMODE
 70
     0
  9
$PDSIZE
 40
-1.0
  9
$PLINEWID
 40
0.0
  9
$SPLFRAME
 70
     0
  9
$SPLINETYPE
 70
     6
  9
$SPLINESEGS
 70
     8
  9
$HANDSEED
  5
2E8
  9
$SURFTAB1
 70
     6
  9
$SURFTAB2
 70
     6
  9
$SURFTYPE
 70
     6
  9
$SURFU
 70
     6
  9
$SURFV
 70
     6
  9
$UCSBASE
  2

  9
$UCSNAME
  2

  9
$UCSORG
 10
0.0
 20
0.0
 30
0.0
  9
$UCSXDIR
 10
1.0
 20
0.0
 30
0.0
  9
$UCSYDIR
 10
0.0
 20
1.0
 30
0.0
  9
$UCSORTHOREF
  2

  9
$UCSORTHOVIEW
 70
     0
  9
$UCSORGTOP
 10
0.0
 20
0.0
 30
0.0
  9
$UCSORGBOTTOM
 10
0.0
 20
0.0
 30
0.0
  9
$UCSORGLEFT
 10
0.0
 20
0.0
 30
0.0
  9
$UCSORGRIGHT
 10
0.0
 20
0.0
 30
0.0
  9
$UCSORGFRONT
 10
0.0
 20
0.0
 30
0.0
  9
$UCSORGBACK
 10
0.0
 20
0.0
 30
0.0
  9
$PUCSBASE
  2

  9
$PUCSNAME
  2

  9
$PUCSORG
 10
0.0
 20
0.0
 30
0.0
  9
$PUCSXDIR
 10
1.0
 20
0.0
 30
0.0
  9
$PUCSYDIR
 10
0.0
 20
1.0
 30
0.0
  9
$PUCSORTHOREF
  2

  9
$PUCSORTHOVIEW
 70
     0
  9
$PUCSORGTOP
 10
0.0
 20
0.0
 30
0.0
  9
$PUCSORGBOTTOM
 10
0.0
 20
0.0
 30
0.0
  9
$PUCSORGLEFT
 10
0.0
 20
0.0
 30
0.0
  9
$PUCSORGRIGHT
 10
0.0
 20
0.0
 30
0.0
  9
$PUCSORGFRONT
 10
0.0
 20
0.0
 30
0.0
  9
$PUCSORGBACK
 10
0.0
 20
0.0
 30
0.0
  9
$USERI1
 70
     0
  9
$USERI2
 70
     0
  9
$USERI3
 70
     0
  9
$USERI4
 70
     0
  9
$USERI5
 70
     0
  9
$USERR1
 40
0.0
  9
$USERR2
 40
0.0
  9
$USERR3
 40
0.0
  9
$USERR4
 40
0.0
  9
$USERR5
 40
0.0
  9
$WORLDVIEW
 70
     1
  9
$SHADEDGE
 70
     3
  9
$SHADEDIF
 70
    70
  9
$TILEMODE
 70
     1
  9
$MAXACTVP
 70
    64
  9
$PINSBASE
 10
0.0
 20
0.0
 30
0.0
  9
$PLIMCHECK
 70
     0
  9
$PEXTMIN
 10
1.0000000000E+20
 20
1.0000000000E+20
 30
1.0000000000E+20
  9
$PEXTMAX
 10
-1.0000000000E+20
 20
-1.0000000000E+20
 30
-1.0000000000E+20
  9
$PLIMMIN
 10
0.0
 20
0.0
  9
$PLIMMAX
 10
420.0
 20
297.0
  9
$UNITMODE
 70
     0
  9
$VISRETAIN
 70
     1
  9
$PLINEGEN
 70
     0
  9
$PSLTSCALE
 70
     1
  9
$TREEDEPTH
 70
  3020
  9
$CMLSTYLE
  2
Standard
  9
$CMLJUST
 70
     0
  9
$CMLSCALE
 40
20.0
  9
$PROXYGRAPHICS
 70
     1
  9
$MEASUREMENT
 70
     1
  9
$CELWEIGHT
370
    -1
  9
$ENDCAPS
280
     0
  9
$JOINSTYLE
280
     0
  9
$LWDISPLAY
290
     1
  9
$INSUNITS
 70
     4
  9
$HYPERLINKBASE
  1

  9
$STYLESHEET
  1

  9
$XEDIT
290
     1
  9
$CEPSNTYPE
380
     0
  9
$PSTYLEMODE
290
     1
  9
$FINGERPRINTGUID
  2
{cda42926-ac2d-4480-b56e-dc187b6e2f6a}
  9
$VERSIONGUID
  2
{FAEB1C32-E019-11D5-929B-00C0DF256EC4}
  9
$EXTNAMES
290
     1
  9
$PSVPSCALE
 40
0.0
  9
$OLESTARTUP
290
     0
  0
ENDSEC
  0
SECTION
  2
CLASSES
  0
CLASS
  1
ACDBDICTIONARYWDFLT
  2
AcDbDictionaryWithDefault
  3
ObjectDBX Classes
 90
        0
280
     0
281
     0
  0
CLASS
  1
VISUALSTYLE
  2
AcDbVisualStyle
  3
ObjectDBX Classes
 90
     4095
280
     0
281
     0
  0
CLASS
  1
MATERIAL
  2
AcDbMaterial
  3
ObjectDBX Classes
 90
     1153
280
     0
281
     0
  0
CLASS
  1
SCALE
  2
AcDbScale
  3
ObjectDBX Classes
 90
     1153
280
     0
281
     0
  0
CLASS
  1
TABLESTYLE
  2
AcDbTableStyle
  3
ObjectDBX Classes
 90
     4095
280
     0
281
     0
  0
CLASS
  1
MLEADERSTYLE
  2
AcDbMLeaderStyle
  3
ACDB_MLEADERSTYLE_CLASS
 90
     4095
280
     0
281
     0
  0
CLASS
  1
SUN
  2
AcDbSun
  3
SCENEOE
 90
     1153
280
     0
281
     0
  0
CLASS
  1
ACDBPLACEHOLDER
  2
AcDbPlaceHolder
  3
ObjectDBX Classes
 90
        0
280
     0
281
     0
  0
CLASS
  1
LAYOUT
  2
AcDbLayout
  3
ObjectDBX Classes
 90
        0
280
     0
281
     0
  0
ENDSEC
  0
SECTION
  2
TABLES
  0
TABLE
  2
VPORT
  5
8
330
0
100
AcDbSymbolTable
 70
     1
  0
VPORT
  5
29
330
8
100
AcDbSymbolTableRecord
100
AcDbViewportTableRecord
  2
*Active
 70
     0
 10
0.0
 20
0.0
 11
1.0
 21
1.0
 12
0.0
 22
0.0
 13
0.0
 23
0.0
 14
10.0
 24
10.0
 15
10.0
 25
10.0
 16
0.0
 26
0.0
 36
1.0
 17
0.0
 27
0.0
 37
0.0
 40
156.0169018855
 41
1.0
 42
50.0
 43
0.0
 44
0.0
 50
0.0
 51
0.0
 71
     0
 72
   100
 73
     1
 74
     3
 75
     0
 76
     0
 77
     0
 78
     0
281
     0
 65
     1
110
0.0
120
0.0
130
0.0
111
1.0
121
0.0
131
0.0
112
0.0
122
1.0
132
0.0
 79
     0
146
0.0
  0
ENDTAB
  0
TABLE
  2
LTYPE
  5
5
330
0
100
AcDbSymbolTable
 70
     6
  0
LTYPE
  5
14
330
5
100
AcDbSymbolTableRecord
100
AcDbLinetypeTableRecord
  2
ByBlock
 70
     0
  3

 72
    65
 73
     0
 40
0.0
  0
LTYPE
  5
15
330
5
100
AcDbSymbolTableRecord
100
AcDbLinetypeTableRecord
  2
ByLayer
 70
     0
  3

 72
    65
 73
     0
 40
0.0
  0
LTYPE
  5
16
330
5
100
AcDbSymbolTableRecord
100
AcDbLinetypeTableRecord
  2
Continuous
 70
     0
  3
Solid line
 72
    65
 73
     0
 40
0.0
  0
LTYPE
  5
5E
330
5
100
AcDbSymbolTableRecord
100
AcDbLinetypeTableRecord
  2
HIDDEN
 70
     0
  3
Hidden __ __ __ __ __ __ __ __ __ __ __ __ __ __
 72
    65
 73
     2
 40
1.905
 49
1.27
 74
     0
 49
-0.635
 74
     0
  0
LTYPE
  5
5F
330
5
100
AcDbSymbolTableRecord
100
AcDbLinetypeTableRecord
  2
PHANTOM
 70
     0
  3
Phantom ______  __  __  ______  __  __  ______
 72
    65
 73
     6
 40
12.7
 49
6.35
 74
     0
 49
-1.27
 74
     0
 49
1.27
 74
     0
 49
-1.27
 74
     0
 49
1.27
 74
     0
 49
-1.27
 74
     0
  0
LTYPE
  5
60
330
5
100
AcDbSymbolTableRecord
100
AcDbLinetypeTableRecord
  2
CENTER
 70
     0
  3
Center ____ _ ____ _ ____ _ ____ _ ____ _ ____
 72
    65
 73
     4
 40
10.16
 49
6.35
 74
     0
 49
-1.27
 74
     0
 49
1.27
 74
     0
 49
-1.27
 74
     0
  0
LTYPE
  5
61
330
5
100
AcDbSymbolTableRecord
100
AcDbLinetypeTableRecord
  2
CENTERX2
 70
     0
  3
Center (2x) ________  __  ________  __  _____
 72
    65
 73
     4
 40
20.32
 49
12.7
 74
     0
 49
-2.54
 74
     0
 49
2.54
 74
     0
 49
-2.54
 74
     0
  0
LTYPE
  5
62
330
5
100
AcDbSymbolTableRecord
100
AcDbLinetypeTableRecord
  2
DOT2
 70
     0
  3
Dot (.5x) ........................................
 72
    65
 73
     2
 40
0.635
 49
0.0
 74
     0
 49
-0.635
 74
     0
  0
ENDTAB
  0
TABLE
  2
LAYER
  5
2
330
0
100
AcDbSymbolTable
 70
     1
  0
LAYER
  5
10
330
2
100
AcDbSymbolTableRecord
100
AcDbLayerTableRecord
  2
0
 70
     0
 62
     7
  6
Continuous
370
    -3
390
F
  0
ENDTAB
  0
TABLE
  2
STYLE
  5
3
330
0
100
AcDbSymbolTable
 70
     2
  0
STYLE
  5
11
330
3
100
AcDbSymbolTableRecord
100
AcDbTextStyleTableRecord
  2
Standard
 70
     0
 40
0.0
 41
1.0
 50
0.0
 71
     0
 42
3.175
  3
txt
  4

  0
STYLE
  5
2E4
330
3
100
AcDbSymbolTableRecord
100
AcDbTextStyleTableRecord
  2
SLDTEXTSTYLE0
 70
     0
 40
0.0
 41
0.7
 50
0.0
 71
     0
 42
3.175
  3
TXT
  4

  0
ENDTAB
  0
TABLE
  2
VIEW
  5
6
330
0
100
AcDbSymbolTable
 70
     0
  0
ENDTAB
  0
TABLE
  2
UCS
  5
7
330
0
100
AcDbSymbolTable
 70
     0
  0
ENDTAB
  0
TABLE
  2
APPID
  5
9
330
0
100
AcDbSymbolTable
 70
     1
  0
APPID
  5
12
330
9
100
AcDbSymbolTableRecord
100
AcDbRegAppTableRecord
  2
ACAD
 70
     0
  0
ENDTAB
  0
TABLE
  2
DIMSTYLE
  5
A
330
0
100
AcDbSymbolTable
 70
     1
100
AcDbDimStyleTable
  0
DIMSTYLE
105
27
330
A
100
AcDbSymbolTableRecord
100
AcDbDimStyleTableRecord
  2
ISO-25
 70
     0
 41
2.5
 42
0.625
 43
3.75
 44
1.25
 73
     0
 74
     0
 77
     1
 78
     8
140
2.5
141
2.5
143
0.0393700787
147
0.625
171
     3
172
     1
178
     0
271
     2
272
     2
274
     3
278
    44
283
     0
284
     8
340
11
  0
ENDTAB
  0
TABLE
  2
BLOCK_RECORD
  5
1
330
0
100
AcDbSymbolTable
 70
     1
  0
BLOCK_RECORD
  5
1F
330
1
100
AcDbSymbolTableRecord
100
AcDbBlockTableRecord
  2
*Model_Space
340
22
  0
BLOCK_RECORD
  5
1B
330
1
100
AcDbSymbolTableRecord
100
AcDbBlockTableRecord
  2
*Paper_Space
340
1E
  0
BLOCK_RECORD
  5
23
330
1
100
AcDbSymbolTableRecord
100
AcDbBlockTableRecord
  2
*Paper_Space0
340
26
  0
ENDTAB
  0
ENDSEC
  0
SECTION
  2
BLOCKS
  0
BLOCK
  5
20
330
1F
100
AcDbEntity
  8
0
100
AcDbBlockBegin
  2
*Model_Space
 70
     0
 10
0.0
 20
0.0
 30
0.0
  3
*Model_Space
  1

  0
ENDBLK
  5
21
330
1F
100
AcDbEntity
  8
0
100
AcDbBlockEnd
  0
BLOCK
  5
1C
330
1B
100
AcDbEntity
 67
     1
  8
0
100
AcDbBlockBegin
  2
*Paper_Space
 70
     0
 10
0.0
 20
0.0
 30
0.0
  3
*Paper_Space
  1

  0
ENDBLK
  5
1D
330
1B
100
AcDbEntity
 67
     1
  8
0
100
AcDbBlockEnd
  0
BLOCK
  5
24
330
23
100
AcDbEntity
  8
0
100
AcDbBlockBegin
  2
*Paper_Space0
 70
     0
 10
0.0
 20
0.0
 30
0.0
  3
*Paper_Space0
  1

  0
ENDBLK
  5
25
330
23
100
AcDbEntity
  8
0
100
AcDbBlockEnd
  0
ENDSEC
  0
SECTION
  2
ENTITIES
  0
LINE
  5
63
330
1F
100
AcDbEntity
  8
0
  6
Continuous
 62
     7
370
    25
100
AcDbLine
 10
59.5682801498
 20
6.35
 30
0.0
 11
40.1609262841
 21
6.35
 31
0.0
  0
ARC
  5
64
330
1F
100
AcDbEntity
  8
0
  6
Continuous
 62
     7
370
    25
100
AcDbCircle
 10
40.1609262841
 20
9.525
 30
0.0
 40
3.174999999999995
100
AcDbArc
 50
193.3423637971
 51
270.0
  0
ARC
  5
65
330
1F
100
AcDbEntity
  8
0
  6
Continuous
 62
     7
370
    25
100
AcDbCircle
 10
0.0
 20
0.0
 30
0.0
 40
38.1
100
AcDbArc
 50
13.3423637971
 51
76.6576362029
  0
ARC
  5
66
330
1F
100
AcDbEntity
  8
0
  6
Continuous
 62
     7
370
    25
100
AcDbCircle
 10
9.525
 20
40.1609262841
 30
0.0
 40
3.174999999999994
100
AcDbArc
 50
180.0
 51
256.6576362029
  0
LINE
  5
67
330
1F
100
AcDbEntity
  8
0
  6
Continuous
 62
     7
370
    25
100
AcDbLine
 10
6.35
 20
40.1609262841
 30
0.0
 11
6.35
 21
59.5682801498
 31
0.0
  0
ARC
  5
68
330
1F
100
AcDbEntity
  8
0
  6
Continuous
 62
     7
370
    25
100
AcDbCircle
 10
9.525
 20
59.5682801498
 30
0.0
 40
3.175000000000011
100
AcDbArc
 50
80.9152797126
 51
180.0
  0
ARC
  5
69
330
1F
100
AcDbEntity
  8
0
  6
Continuous
 62
     7
370
    25
100
AcDbCircle
 10
0.0
 20
0.0
 30
0.0
 40
63.50000000000002
100
AcDbArc
 50
9.0847202874
 51
80.9152797126
  0
ARC
  5
6A
330
1F
100
AcDbEntity
  8
0
  6
Continuous
 62
     7
370
    25
100
AcDbCircle
 10
59.5682801498
 20
9.525
 30
0.0
 40
3.175000000000007
100
AcDbArc
 50
270.0
 51
9.0847202874
  0
LINE
  5
6B
330
1F
100
AcDbEntity
  8
0
  6
Continuous
 62
     7
370
    25
100
AcDbLine
 10
6.35
 20
-59.5682801498
 30
0.0
 11
6.35
 21
-40.1609262841
 31
0.0
  0
ARC
  5
6C
330
1F
100
AcDbEntity
  8
0
  6
Continuous
 62
     7
370
    25
100
AcDbCircle
 10
9.525
 20
-40.1609262841
 30
0.0
 40
3.174999999999996
100
AcDbArc
 50
103.3423637971
 51
180.0
  0
ARC
  5
6D
330
1F
100
AcDbEntity
  8
0
  6
Continuous
 62
     7
370
    25
100
AcDbCircle
 10
0.0
 20
0.0
 30
0.0
 40
38.09999999999999
100
AcDbArc
 50
283.3423637971
 51
346.6576362029
  0
ARC
  5
6E
330
1F
100
AcDbEntity
  8
0
  6
Continuous
 62
     7
370
    25
100
AcDbCircle
 10
40.1609262841
 20
-9.525
 30
0.0
 40
3.174999999999998
100
AcDbArc
 50
90.0
 51
166.6576362029
  0
LINE
  5
6F
330
1F
100
AcDbEntity
  8
0
  6
Continuous
 62
     7
370
    25
100
AcDbLine
 10
40.1609262841
 20
-6.35
 30
0.0
 11
59.5682801498
 21
-6.35
 31
0.0
  0
ARC
  5
70
330
1F
100
AcDbEntity
  8
0
  6
Continuous
 62
     7
370
    25
100
AcDbCircle
 10
59.5682801498
 20
-9.525
 30
0.0
 40
3.175000000000002
100
AcDbArc
 50
350.9152797126
 51
90.0
  0
ARC
  5
71
330
1F
100
AcDbEntity
  8
0
  6
Continuous
 62
     7
370
    25
100
AcDbCircle
 10
0.0
 20
0.0
 30
0.0
 40
63.50000000000001
100
AcDbArc
 50
279.0847202874
 51
350.9152797126
  0
ARC
  5
72
330
1F
100
AcDbEntity
  8
0
  6
Continuous
 62
     7
370
    25
100
AcDbCircle
 10
9.525
 20
-59.5682801498
 30
0.0
 40
3.175000000000002
100
AcDbArc
 50
180.0
 51
279.0847202874
  0
LINE
  5
73
330
1F
100
AcDbEntity
  8
0
  6
Continuous
 62
     7
370
    25
100
AcDbLine
 10
-59.5682801498
 20
-6.35
 30
0.0
 11
-40.1609262841
 21
-6.35
 31
0.0
  0
ARC
  5
74
330
1F
100
AcDbEntity
  8
0
  6
Continuous
 62
     7
370
    25
100
AcDbCircle
 10
-40.1609262841
 20
-9.525
 30
0.0
 40
3.174999999999998
100
AcDbArc
 50
13.3423637971
 51
90.0
  0
ARC
  5
75
330
1F
100
AcDbEntity
  8
0
  6
Continuous
 62
     7
370
    25
100
AcDbCircle
 10
0.0
 20
0.0
 30
0.0
 40
38.09999999999999
100
AcDbArc
 50
193.3423637971
 51
256.6576362029
  0
ARC
  5
76
330
1F
100
AcDbEntity
  8
0
  6
Continuous
 62
     7
370
    25
100
AcDbCircle
 10
-9.525
 20
-40.1609262841
 30
0.0
 40
3.174999999999995
100
AcDbArc
 50
0.0
 51
76.6576362029
  0
LINE
  5
77
330
1F
100
AcDbEntity
  8
0
  6
Continuous
 62
     7
370
    25
100
AcDbLine
 10
-6.35
 20
-40.1609262841
 30
0.0
 11
-6.35
 21
-59.5682801498
 31
0.0
  0
ARC
  5
78
330
1F
100
AcDbEntity
  8
0
  6
Continuous
 62
     7
370
    25
100
AcDbCircle
 10
-9.525
 20
-59.5682801498
 30
0.0
 40
3.175000000000007
100
AcDbArc
 50
260.9152797126
 51
0.0
  0
ARC
  5
79
330
1F
100
AcDbEntity
  8
0
  6
Continuous
 62
     7
370
    25
100
AcDbCircle
 10
0.0
 20
0.0
 30
0.0
 40
63.50000000000001
100
AcDbArc
 50
189.0847202874
 51
260.9152797126
  0
ARC
  5
7A
330
1F
100
AcDbEntity
  8
0
  6
Continuous
 62
     7
370
    25
100
AcDbCircle
 10
-59.5682801498
 20
-9.525
 30
0.0
 40
3.175000000000011
100
AcDbArc
 50
90.0
 51
189.0847202874
  0
LINE
  5
7B
330
1F
100
AcDbEntity
  8
0
  6
Continuous
 62
     7
370
    25
100
AcDbLine
 10
-6.35
 20
59.5682801498
 30
0.0
 11
-6.35
 21
40.1609262841
 31
0.0
  0
ARC
  5
7C
330
1F
100
AcDbEntity
  8
0
  6
Continuous
 62
     7
370
    25
100
AcDbCircle
 10
-9.525
 20
40.1609262841
 30
0.0
 40
3.174999999999996
100
AcDbArc
 50
283.3423637971
 51
0.0
  0
ARC
  5
7D
330
1F
100
AcDbEntity
  8
0
  6
Continuous
 62
     7
370
    25
100
AcDbCircle
 10
0.0
 20
0.0
 30
0.0
 40
38.09999999999999
100
AcDbArc
 50
103.3423637971
 51
166.6576362029
  0
ARC
  5
7E
330
1F
100
AcDbEntity
  8
0
  6
Continuous
 62
     7
370
    25
100
AcDbCircle
 10
-40.1609262841
 20
9.525
 30
0.0
 40
3.174999999999998
100
AcDbArc
 50
270.0
 51
346.6576362029
  0
LINE
  5
7F
330
1F
100
AcDbEntity
  8
0
  6
Continuous
 62
     7
370
    25
100
AcDbLine
 10
-40.1609262841
 20
6.35
 30
0.0
 11
-59.5682801498
 21
6.35
 31
0.0
  0
ARC
  5
80
330
1F
100
AcDbEntity
  8
0
  6
Continuous
 62
     7
370
    25
100
AcDbCircle
 10
-59.5682801498
 20
9.525
 30
0.0
 40
3.175000000000002
100
AcDbArc
 50
170.9152797126
 51
270.0
  0
ARC
  5
81
330
1F
100
AcDbEntity
  8
0
  6
Continuous
 62
     7
370
    25
100
AcDbCircle
 10
0.0
 20
0.0
 30
0.0
 40
63.50000000000001
100
AcDbArc
 50
99.0847202874
 51
170.9152797126
  0
ARC
  5
82
330
1F
100
AcDbEntity
  8
0
  6
Continuous
 62
     7
370
    25
100
AcDbCircle
 10
-9.525
 20
59.5682801498
 30
0.0
 40
3.175000000000002
100
AcDbArc
 50
0.0
 51
99.0847202874
  0
CIRCLE
  5
83
330
1F
100
AcDbEntity
  8
0
  6
Continuous
 62
     7
370
    25
100
AcDbCircle
 10
0.0
 20
0.0
 30
0.0
 40
27.432
  0
CIRCLE
  5
84
330
1F
100
AcDbEntity
  8
0
  6
Continuous
 62
     7
370
    25
100
AcDbCircle
 10
-63.5
 20
0.0
 30
0.0
 40
2.100000000000009
  0
CIRCLE
  5
85
330
1F
100
AcDbEntity
  8
0
  6
Continuous
 62
     7
370
    25
100
AcDbCircle
 10
38.1
 20
0.0
 30
0.0
 40
1.599999999999994
  0
CIRCLE
  5
86
330
1F
100
AcDbEntity
  8
0
  6
Continuous
 62
     7
370
    25
100
AcDbCircle
 10
0.0
 20
63.5
 30
0.0
 40
2.10000000000001
  0
CIRCLE
  5
87
330
1F
100
AcDbEntity
  8
0
  6
Continuous
 62
     7
370
    25
100
AcDbCircle
 10
0.0
 20
38.1
 30
0.0
 40
1.599999999999999
  0
CIRCLE
  5
88
330
1F
100
AcDbEntity
  8
0
  6
Continuous
 62
     7
370
    25
100
AcDbCircle
 10
-38.1
 20
0.0
 30
0.0
 40
1.600000000000001
  0
CIRCLE
  5
89
330
1F
100
AcDbEntity
  8
0
  6
Continuous
 62
     7
370
    25
100
AcDbCircle
 10
0.0
 20
-63.5
 30
0.0
 40
2.100000000000005
  0
CIRCLE
  5
8A
330
1F
100
AcDbEntity
  8
0
  6
Continuous
 62
     7
370
    25
100
AcDbCircle
 10
0.0
 20
-38.1
 30
0.0
 40
1.599999999999999
  0
CIRCLE
  5
8B
330
1F
100
AcDbEntity
  8
0
  6
Continuous
 62
     7
370
    25
100
AcDbCircle
 10
63.5
 20
0.0
 30
0.0
 40
2.100000000000001
  0
ARC
  5
8C
330
1F
100
AcDbEntity
  8
0
  6
Continuous
 62
     7
370
    25
100
AcDbCircle
 10
69.3345830545
 20
14.2830224797
 30
0.0
 40
23.09814234910549
100
AcDbArc
 50
279.2657659662
 51
287.0345185322
  0
ARC
  5
8D
330
1F
100
AcDbEntity
  8
0
  6
Continuous
 62
     7
370
    25
100
AcDbCircle
 10
0.0
 20
0.0
 30
0.0
 40
76.5
100
AcDbArc
 50
354.1465762786
 51
355.0534237214
  0
ARC
  5
8E
330
1F
100
AcDbEntity
  8
0
  6
Continuous
 62
     7
370
    25
100
AcDbCircle
 10
65.4301054405
 20
-27.0220362027
 30
0.0
 40
23.09814234910549
100
AcDbArc
 50
62.1654814678
 51
69.9342340338
  0
ARC
  5
8F
330
1F
100
AcDbEntity
  8
0
  6
Continuous
 62
     7
370
    25
100
AcDbCircle
 10
73.557145787
 20
-4.7726714627
 30
0.0
 40
0.5890486225480844
100
AcDbArc
 50
176.4
 51
249.9342340338
  0
LINE
  5
90
330
1F
100
AcDbEntity
  8
0
  6
Continuous
 62
     7
370
    25
100
AcDbLine
 10
72.9874137995
 20
-4.4471307415
 30
0.0
 11
72.9692595173
 21
-4.7356847936
 31
0.0
  0
ARC
  5
91
330
1F
100
AcDbEntity
  8
0
  6
Continuous
 62
     7
370
    25
100
AcDbCircle
 10
73.5753000692
 20
-4.4841174106
 30
0.0
 40
0.5890486225480855
100
AcDbArc
 50
102.8657659662
 51
176.4
  0
ARC
  5
92
330
1F
100
AcDbEntity
  8
0
  6
Continuous
 62
     7
370
    25
100
AcDbCircle
 10
68.3009286909
 20
18.6083926888
 30
0.0
 40
23.09814234910549
100
AcDbArc
 50
282.8657659662
 51
290.6345185322
  0
ARC
  5
93
330
1F
100
AcDbEntity
  8
0
  6
Continuous
 62
     7
370
    25
100
AcDbCircle
 10
0.0
 20
0.0
 30
0.0
 40
76.49999999999999
100
AcDbArc
 50
357.7465762786
 51
358.6534237214
  0
ARC
  5
94
330
1F
100
AcDbEntity
  8
0
  6
Continuous
 62
     7
370
    25
100
AcDbCircle
 10
66.9977217654
 20
-22.8603240734
 30
0.0
 40
23.09814234910549
100
AcDbArc
 50
65.7654814678
 51
73.5342340338
  0
ARC
  5
95
330
1F
100
AcDbEntity
  8
0
  6
Continuous
 62
     7
370
    25
100
AcDbCircle
 10
73.711676083
 20
-0.1445622867
 30
0.0
 40
0.5890486225480913
100
AcDbArc
 50
180.0
 51
253.5342340338
  0
LINE
  5
96
330
1F
100
AcDbEntity
  8
0
  6
Continuous
 62
     7
370
    25
100
AcDbLine
 10
73.1226274605
 20
0.1445622867
 30
0.0
 11
73.1226274605
 21
-0.1445622867
 31
0.0
  0
ARC
  5
97
330
1F
100
AcDbEntity
  8
0
  6
Continuous
 62
     7
370
    25
100
AcDbCircle
 10
73.711676083
 20
0.1445622867
 30
0.0
 40
0.5890486225480913
100
AcDbArc
 50
106.4657659662
 51
180.0
  0
ARC
  5
98
330
1F
100
AcDbEntity
  8
0
  6
Continuous
 62
     7
370
    25
100
AcDbCircle
 10
66.9977217654
 20
22.8603240734
 30
0.0
 40
23.09814234910549
100
AcDbArc
 50
286.4657659662
 51
294.2345185322
  0
ARC
  5
99
330
1F
100
AcDbEntity
  8
0
  6
Continuous
 62
     7
370
    25
100
AcDbCircle
 10
0.0
 20
0.0
 30
0.0
 40
76.49999999999999
100
AcDbArc
 50
1.3465762786
 51
2.2534237214
  0
ARC
  5
9A
330
1F
100
AcDbEntity
  8
0
  6
Continuous
 62
     7
370
    25
100
AcDbCircle
 10
68.3009286909
 20
-18.6083926888
 30
0.0
 40
23.09814234910549
100
AcDbArc
 50
69.3654814678
 51
77.1342340338
  0
ARC
  5
9B
330
1F
100
AcDbEntity
  8
0
  6
Continuous
 62
     7
370
    25
100
AcDbCircle
 10
73.5753000692
 20
4.4841174106
 30
0.0
 40
0.5890486225480785
100
AcDbArc
 50
183.6
 51
257.1342340338
  0
LINE
  5
9C
330
1F
100
AcDbEntity
  8
0
  6
Continuous
 62
     7
370
    25
100
AcDbLine
 10
72.9692595173
 20
4.7356847936
 30
0.0
 11
72.9874137995
 21
4.4471307415
 31
0.0
  0
ARC
  5
9D
330
1F
100
AcDbEntity
  8
0
  6
Continuous
 62
     7
370
    25
100
AcDbCircle
 10
73.557145787
 20
4.7726714627
 30
0.0
 40
0.589048622548084
100
AcDbArc
 50
110.0657659662
 51
183.6
  0
ARC
  5
9E
330
1F
100
AcDbEntity
  8
0
  6
Continuous
 62
     7
370
    25
100
AcDbCircle
 10
65.4301054405
 20
27.0220362027
 30
0.0
 40
23.09814234910549
100
AcDbArc
 50
290.0657659662
 51
297.8345185322
  0
ARC
  5
9F
330
1F
100
AcDbEntity
  8
0
  6
Continuous
 62
     7
370
    25
100
AcDbCircle
 10
0.0
 20
0.0
 30
0.0
 40
76.49999999999997
100
AcDbArc
 50
4.9465762786
 51
5.8534237214
  0
ARC
  5
A0
330
1F
100
AcDbEntity
  8
0
  6
Continuous
 62
     7
370
    25
100
AcDbCircle
 10
69.3345830545
 20
-14.2830224797
 30
0.0
 40
23.09814234910549
100
AcDbArc
 50
72.9654814678
 51
80.7342340338
  0
ARC
  5
A1
330
1F
100
AcDbEntity
  8
0
  6
Continuous
 62
     7
370
    25
100
AcDbCircle
 10
73.1485559593
 20
9.095100345
 30
0.0
 40
0.5890486225480862
100
AcDbArc
 50
187.2
 51
260.7342340338
  0
LINE
  5
A2
330
1F
100
AcDbEntity
  8
0
  6
Continuous
 62
     7
370
    25
100
AcDbLine
 10
72.5279152434
 20
9.3081177162
 30
0.0
 11
72.5641521611
 21
9.0212729764
 31
0.0
  0
ARC
  5
A3
330
1F
100
AcDbEntity
  8
0
  6
Continuous
 62
     7
370
    25
100
AcDbCircle
 10
73.1123190416
 20
9.3819450848
 30
0.0
 40
0.5890486225481009
100
AcDbArc
 50
113.6657659662
 51
187.2
  0
ARC
  5
A4
330
1F
100
AcDbEntity
  8
0
  6
Continuous
 62
     7
370
    25
100
AcDbCircle
 10
63.6042663816
 20
31.0771047003
 30
0.0
 40
23.09814234910549
100
AcDbArc
 50
293.6657659662
 51
301.4345185322
  0
ARC
  5
A5
330
1F
100
AcDbEntity
  8
0
  6
Continuous
 62
     7
370
    25
100
AcDbCircle
 10
0.0
 20
0.0
 30
0.0
 40
76.49999999999999
100
AcDbArc
 50
8.5465762786
 51
9.4534237214
  0
ARC
  5
A6
330
1F
100
AcDbEntity
  8
0
  6
Continuous
 62
     7
370
    25
100
AcDbCircle
 10
70.0946054948
 20
-9.9012837061
 30
0.0
 40
23.09814234910548
100
AcDbArc
 50
76.5654814678
 51
84.3342340338
  0
ARC
  5
A7
330
1F
100
AcDbEntity
  8
0
  6
Continuous
 62
     7
370
    25
100
AcDbCircle
 10
72.4331279175
 20
13.6701890736
 30
0.0
 40
0.5890486225480897
100
AcDbArc
 50
190.8
 51
264.3342340338
  0
LINE
  5
A8
330
1F
100
AcDbEntity
  8
0
  6
Continuous
 62
     7
370
    25
100
AcDbLine
 10
71.8003364229
 20
13.8438157507
 30
0.0
 11
71.8545129655
 21
13.5598123683
 31
0.0
  0
ARC
  5
A9
330
1F
100
AcDbEntity
  8
0
  6
Continuous
 62
     7
370
    25
100
AcDbCircle
 10
72.3789513749
 20
13.9541924559
 30
0.0
 40
0.5890486225480887
100
AcDbArc
 50
117.2657659662
 51
190.8
  0
ARC
  5
AA
330
1F
100
AcDbEntity
  8
0
  6
Continuous
 62
     7
370
    25
100
AcDbCircle
 10
61.5274103413
 20
35.0095260635
 30
0.0
 40
23.09814234910548
100
AcDbArc
 50
297.2657659662
 51
305.0345185322
  0
ARC
  5
AB
330
1F
100
AcDbEntity
  8
0
  6
Continuous
 62
     7
370
    25
100
AcDbCircle
 10
0.0
 20
0.0
 30
0.0
 40
76.49999999999999
100
AcDbArc
 50
12.1465762786
 51
13.0534237214
  0
ARC
  5
AC
330
1F
100
AcDbEntity
  8
0
  6
Continuous
 62
     7
370
    25
100
AcDbCircle
 10
70.5779965503
 20
-5.4804690893
 30
0.0
 40
23.09814234910548
100
AcDbArc
 50
80.1654814678
 51
87.9342340338
  0
ARC
  5
AD
330
1F
100
AcDbEntity
  8
0
  6
Continuous
 62
     7
370
    25
100
AcDbCircle
 10
71.4318394113
 20
18.1913278112
 30
0.0
 40
0.5890486225480905
100
AcDbArc
 50
194.4
 51
267.9342340338
  0
LINE
  5
AE
330
1F
100
AcDbEntity
  8
0
  6
Continuous
 62
     7
370
    25
100
AcDbLine
 10
70.7893944769
 20
18.324878569
 30
0.0
 11
70.8612968344
 21
18.0448373757
 31
0.0
  0
ARC
  5
AF
330
1F
100
AcDbEntity
  8
0
  6
Continuous
 62
     7
370
    25
100
AcDbCircle
 10
71.3599370538
 20
18.4713690044
 30
0.0
 40
0.5890486225480818
100
AcDbArc
 50
120.8657659662
 51
194.4
  0
ARC
  5
B0
330
1F
100
AcDbEntity
  8
0
  6
Continuous
 62
     7
370
    25
100
AcDbCircle
 10
59.2077337216
 20
38.8037808216
 30
0.0
 40
23.09814234910549
100
AcDbArc
 50
300.8657659662
 51
308.6345185322
  0
ARC
  5
B1
330
1F
100
AcDbEntity
  8
0
  6
Continuous
 62
     7
370
    25
100
AcDbCircle
 10
0.0
 20
0.0
 30
0.0
 40
76.49999999999997
100
AcDbArc
 50
15.7465762786
 51
16.6534237214
  0
ARC
  5
B2
330
1F
100
AcDbEntity
  8
0
  6
Continuous
 62
     7
370
    25
100
AcDbCircle
 10
70.7828484975
 20
-1.0380255647
 30
0.0
 40
23.09814234910548
100
AcDbArc
 50
83.7654814678
 51
91.5342340338
  0
ARC
  5
B3
330
1F
100
AcDbEntity
  8
0
  6
Continuous
 62
     7
370
    25
100
AcDbCircle
 10
70.1486420691
 20
22.6406736887
 30
0.0
 40
0.5890486225480872
100
AcDbArc
 50
198.0
 51
271.5342340338
  0
LINE
  5
B4
330
1F
100
AcDbEntity
  8
0
  6
Continuous
 62
     7
370
    25
100
AcDbLine
 10
69.4990791316
 20
22.7336214634
 30
0.0
 11
69.5884235382
 21
22.4586476539
 31
0.0
  0
ARC
  5
B5
330
1F
100
AcDbEntity
  8
0
  6
Continuous
 62
     7
370
    25
100
AcDbCircle
 10
70.0592976624
 20
22.9156474983
 30
0.0
 40
0.5890486225480919
100
AcDbArc
 50
124.4657659662
 51
198.0
  0
ARC
  5
B6
330
1F
100
AcDbEntity
  8
0
  6
Continuous
 62
     7
370
    25
100
AcDbCircle
 10
56.6543912263
 20
42.4448947845
 30
0.0
 40
23.09814234910549
100
AcDbArc
 50
304.4657659662
 51
312.2345185322
  0
ARC
  5
B7
330
1F
100
AcDbEntity
  8
0
  6
Continuous
 62
     7
370
    25
100
AcDbCircle
 10
0.0
 20
0.0
 30
0.0
 40
76.49999999999996
100
AcDbArc
 50
19.3465762786
 51
20.2534237214
  0
ARC
  5
B8
330
1F
100
AcDbEntity
  8
0
  6
Continuous
 62
     7
370
    25
100
AcDbCircle
 10
70.7083528793
 20
3.4085145726
 30
0.0
 40
23.09814234910548
100
AcDbArc
 50
87.3654814678
 51
95.1342340338
  0
ARC
  5
B9
330
1F
100
AcDbEntity
  8
0
  6
Continuous
 62
     7
370
    25
100
AcDbCircle
 10
68.5886000845
 20
27.0006671708
 30
0.0
 40
0.5890486225480833
100
AcDbArc
 50
201.6
 51
275.1342340338
  0
LINE
  5
BA
330
1F
100
AcDbEntity
  8
0
  6
Continuous
 62
     7
370
    25
100
AcDbLine
 10
67.934482672
 20
27.0526451399
 30
0.0
 11
68.0409165262
 21
26.7838239101
 31
0.0
  0
ARC
  5
BB
330
1F
100
AcDbEntity
  8
0
  6
Continuous
 62
     7
370
    25
100
AcDbCircle
 10
68.4821662303
 20
27.2694884006
 30
0.0
 40
0.5890486225480843
100
AcDbArc
 50
128.0657659662
 51
201.6
  0
ARC
  5
BC
330
1F
100
AcDbEntity
  8
0
  6
Continuous
 62
     7
370
    25
100
AcDbCircle
 10
53.8774597318
 20
45.918498139
 30
0.0
 40
23.09814234910549
100
AcDbArc
 50
308.0657659662
 51
315.8345185322
  0
ARC
  5
BD
330
1F
100
AcDbEntity
  8
0
  6
Continuous
 62
     7
370
    25
100
AcDbCircle
 10
0.0
 20
0.0
 30
0.0
 40
76.49999999999999
100
AcDbArc
 50
22.9465762786
 51
23.8534237214
  0
ARC
  5
BE
330
1F
100
AcDbEntity
  8
0
  6
Continuous
 62
     7
370
    25
100
AcDbCircle
 10
70.3548036959
 20
7.84160286
 30
0.0
 40
23.09814234910548
100
AcDbArc
 50
90.9654814678
 51
98.7342340338
  0
ARC
  5
BF
330
1F
100
AcDbEntity
  8
0
  6
Continuous
 62
     7
370
    25
100
AcDbCircle
 10
66.7578702305
 20
31.2541013549
 30
0.0
 40
0.5890486225480892
100
AcDbArc
 50
205.2
 51
278.7342340338
  0
LINE
  5
C0
330
1F
100
AcDbEntity
  8
0
  6
Continuous
 62
     7
370
    25
100
AcDbLine
 10
66.1017798456
 20
31.2649043853
 30
0.0
 11
66.2248831016
 21
31.0032966497
 31
0.0
  0
ARC
  5
C1
330
1F
100
AcDbEntity
  8
0
  6
Continuous
 62
     7
370
    25
100
AcDbCircle
 10
66.6347669745
 20
31.5157090905
 30
0.0
 40
0.5890486225480938
100
AcDbArc
 50
131.6657659662
 51
205.2
  0
ARC
  5
C2
330
1F
100
AcDbEntity
  8
0
  6
Continuous
 62
     7
370
    25
100
AcDbCircle
 10
50.887898518
 20
49.2108821595
 30
0.0
 40
23.0981423491055
100
AcDbArc
 50
311.6657659662
 51
319.4345185322
  0
ARC
  5
C3
330
1F
100
AcDbEntity
  8
0
  6
Continuous
 62
     7
370
    25
100
AcDbCircle
 10
0.0
 20
0.0
 30
0.0
 40
76.49999999999999
100
AcDbArc
 50
26.5465762786
 51
27.4534237214
  0
ARC
  5
C4
330
1F
100
AcDbEntity
  8
0
  6
Continuous
 62
     7
370
    25
100
AcDbCircle
 10
69.7235962443
 20
12.2437439235
 30
0.0
 40
23.09814234910548
100
AcDbArc
 50
94.5654814678
 51
102.3342340338
  0
ARC
  5
C5
330
1F
100
AcDbEntity
  8
0
  6
Continuous
 62
     7
370
    25
100
AcDbCircle
 10
64.6636775615
 20
35.3841898797
 30
0.0
 40
0.5890486225480889
100
AcDbArc
 50
208.8
 51
282.3342340338
  0
LINE
  5
C6
330
1F
100
AcDbEntity
  8
0
  6
Continuous
 62
     7
370
    25
100
AcDbLine
 10
64.0082034932
 20
35.3537753366
 30
0.0
 11
64.1474903187
 21
35.1004135415
 31
0.0
  0
ARC
  5
C7
330
1F
100
AcDbEntity
  8
0
  6
Continuous
 62
     7
370
    25
100
AcDbCircle
 10
64.524390736
 20
35.6375516747
 30
0.0
 40
0.5890486225480808
100
AcDbArc
 50
135.2657659662
 51
208.8
  0
ARC
  5
C8
330
1F
100
AcDbEntity
  8
0
  6
Continuous
 62
     7
370
    25
100
AcDbCircle
 10
47.6975060173
 20
52.3090533104
 30
0.0
 40
23.09814234910549
100
AcDbArc
 50
315.2657659662
 51
323.0345185322
  0
ARC
  5
C9
330
1F
100
AcDbEntity
  8
0
  6
Continuous
 62
     7
370
    25
100
AcDbCircle
 10
0.0
 20
0.0
 30
0.0
 40
76.49999999999999
100
AcDbArc
 50
30.1465762786
 51
31.0534237214
  0
ARC
  5
CA
330
1F
100
AcDbEntity
  8
0
  6
Continuous
 62
     7
370
    25
100
AcDbCircle
 10
68.817221612
 20
16.5975645233
 30
0.0
 40
23.09814234910549
100
AcDbArc
 50
98.1654814678
 51
105.9342340338
  0
ARC
  5
CB
330
1F
100
AcDbEntity
  8
0
  6
Continuous
 62
     7
370
    25
100
AcDbCircle
 10
62.3142868992
 20
39.3746331725
 30
0.0
 40
0.5890486225480852
100
AcDbArc
 50
212.4
 51
285.9342340338
  0
LINE
  5
CC
330
1F
100
AcDbEntity
  8
0
  6
Continuous
 62
     7
370
    25
100
AcDbLine
 10
61.6620160042
 20
39.3031210882
 30
0.0
 11
61.8169366977
 21
39.0590051369
 31
0.0
  0
ARC
  5
CD
330
1F
100
AcDbEntity
  8
0
  6
Continuous
 62
     7
370
    25
100
AcDbCircle
 10
62.1593662057
 20
39.6187491237
 30
0.0
 40
0.589048622548089
100
AcDbArc
 50
138.8657659662
 51
212.4
  0
ARC
  5
CE
330
1F
100
AcDbEntity
  8
0
  6
Continuous
 62
     7
370
    25
100
AcDbCircle
 10
44.3188732511
 20
55.2007845256
 30
0.0
 40
23.09814234910549
100
AcDbArc
 50
318.8657659662
 51
326.6345185322
  0
ARC
  5
CF
330
1F
100
AcDbEntity
  8
0
  6
Continuous
 62
     7
370
    25
100
AcDbCircle
 10
0.0
 20
0.0
 30
0.0
 40
76.49999999999999
100
AcDbArc
 50
33.7465762786
 51
34.6534237214
  0
ARC
  5
D0
330
1F
100
AcDbEntity
  8
0
  6
Continuous
 62
     7
370
    25
100
AcDbCircle
 10
67.6392568456
 20
20.8858821186
 30
0.0
 40
23.09814234910549
100
AcDbArc
 50
101.7654814678
 51
109.5342340338
  0
ARC
  5
D1
330
1F
100
AcDbEntity
  8
0
  6
Continuous
 62
     7
370
    25
100
AcDbCircle
 10
59.7189702152
 20
43.2096827767
 30
0.0
 40
0.5890486225480979
100
AcDbArc
 50
216.0
 51
289.5342340338
  0
LINE
  5
D2
330
1F
100
AcDbEntity
  8
0
  6
Continuous
 62
     7
370
    25
100
AcDbLine
 10
59.0724767087
 20
43.0973553768
 30
0.0
 11
59.242419869
 21
42.8634486834
 31
0.0
  0
ARC
  5
D3
330
1F
100
AcDbEntity
  8
0
  6
Continuous
 62
     7
370
    25
100
AcDbCircle
 10
59.5490270549
 20
43.44358947
 30
0.0
 40
0.5890486225480938
100
AcDbArc
 50
142.4657659662
 51
216.0
  0
ARC
  5
D4
330
1F
100
AcDbEntity
  8
0
  6
Continuous
 62
     7
370
    25
100
AcDbCircle
 10
40.7653341397
 20
57.8746634632
 30
0.0
 40
23.09814234910549
100
AcDbArc
 50
322.4657659662
 51
330.2345185322
  0
ARC
  5
D5
330
1F
100
AcDbEntity
  8
0
  6
Continuous
 62
     7
370
    25
100
AcDbCircle
 10
0.0
 20
0.0
 30
0.0
 40
76.5
100
AcDbArc
 50
37.3465762786
 51
38.2534237214
  0
ARC
  5
D6
330
1F
100
AcDbEntity
  8
0
  6
Continuous
 62
     7
370
    25
100
AcDbCircle
 10
66.1943508339
 20
25.0917726791
 30
0.0
 40
23.09814234910548
100
AcDbArc
 50
105.3654814678
 51
113.1342340338
  0
ARC
  5
D7
330
1F
100
AcDbEntity
  8
0
  6
Continuous
 62
     7
370
    25
100
AcDbCircle
 10
56.8879700387
 20
46.8742035036
 30
0.0
 40
0.5890486225480839
100
AcDbArc
 50
219.6
 51
293.1342340338
  0
LINE
  5
D8
330
1F
100
AcDbEntity
  8
0
  6
Continuous
 62
     7
370
    25
100
AcDbLine
 10
56.2498053353
 20
46.7215040931
 30
0.0
 11
56.4341002744
 21
46.4987297804
 31
0.0
  0
ARC
  5
D9
330
1F
100
AcDbEntity
  8
0
  6
Continuous
 62
     7
370
    25
100
AcDbCircle
 10
56.7036750996
 20
47.0969778162
 30
0.0
 40
0.5890486225480829
100
AcDbArc
 50
146.0657659662
 51
219.6
  0
ARC
  5
DA
330
1F
100
AcDbEntity
  8
0
  6
Continuous
 62
     7
370
    25
100
AcDbCircle
 10
37.0509128783
 20
60.3201375445
 30
0.0
 40
23.0981423491055
100
AcDbArc
 50
326.0657659662
 51
333.8345185322
  0
ARC
  5
DB
330
1F
100
AcDbEntity
  8
0
  6
Continuous
 62
     7
370
    25
100
AcDbCircle
 10
0.0
 20
0.0
 30
0.0
 40
76.5
100
AcDbArc
 50
40.9465762786
 51
41.8534237214
  0
ARC
  5
DC
330
1F
100
AcDbEntity
  8
0
  6
Continuous
 62
     7
370
    25
100
AcDbCircle
 10
64.4882059607
 20
29.1986374762
 30
0.0
 40
23.09814234910549
100
AcDbArc
 50
108.9654814678
 51
116.7342340338
  0
ARC
  5
DD
330
1F
100
AcDbEntity
  8
0
  6
Continuous
 62
     7
370
    25
100
AcDbCircle
 10
53.8324590341
 20
50.3537331641
 30
0.0
 40
0.5890486225481015
100
AcDbArc
 50
223.2
 51
296.7342340338
  0
LINE
  5
DE
330
1F
100
AcDbEntity
  8
0
  6
Continuous
 62
     7
370
    25
100
AcDbLine
 10
53.2051416783
 20
50.1612643777
 30
0.0
 11
53.4030610683
 21
49.9505016342
 31
0.0
  0
ARC
  5
DF
330
1F
100
AcDbEntity
  8
0
  6
Continuous
 62
     7
370
    25
100
AcDbCircle
 10
53.6345396442
 20
50.5644959075
 30
0.0
 40
0.5890486225480865
100
AcDbArc
 50
149.6657659662
 51
223.2
  0
ARC
  5
E0
330
1F
100
AcDbEntity
  8
0
  6
Continuous
 62
     7
370
    25
100
AcDbCircle
 10
33.1902685907
 20
62.5275556005
 30
0.0
 40
23.09814234910549
100
AcDbArc
 50
329.6657659662
 51
337.4345185322
  0
ARC
  5
E1
330
1F
100
AcDbEntity
  8
0
  6
Continuous
 62
     7
370
    25
100
AcDbCircle
 10
0.0
 20
0.0
 30
0.0
 40
76.49999999999999
100
AcDbArc
 50
44.5465762786
 51
45.4534237214
  0
ARC
  5
E2
330
1F
100
AcDbEntity
  8
0
  6
Continuous
 62
     7
370
    25
100
AcDbCircle
 10
62.5275556005
 20
33.1902685907
 30
0.0
 40
23.09814234910548
100
AcDbArc
 50
112.5654814678
 51
120.3342340338
  0
ARC
  5
E3
330
1F
100
AcDbEntity
  8
0
  6
Continuous
 62
     7
370
    25
100
AcDbCircle
 10
50.5644959075
 20
53.6345396442
 30
0.0
 40
0.589048622548086
100
AcDbArc
 50
226.8
 51
300.3342340338
  0
LINE
  5
E4
330
1F
100
AcDbEntity
  8
0
  6
Continuous
 62
     7
370
    25
100
AcDbLine
 10
49.9505016342
 20
53.4030610683
 30
0.0
 11
50.1612643777
 21
53.2051416783
 31
0.0
  0
ARC
  5
E5
330
1F
100
AcDbEntity
  8
0
  6
Continuous
 62
     7
370
    25
100
AcDbCircle
 10
50.3537331641
 20
53.8324590341
 30
0.0
 40
0.5890486225480899
100
AcDbArc
 50
153.2657659662
 51
226.8
  0
ARC
  5
E6
330
1F
100
AcDbEntity
  8
0
  6
Continuous
 62
     7
370
    25
100
AcDbCircle
 10
29.1986374762
 20
64.4882059607
 30
0.0
 40
23.09814234910548
100
AcDbArc
 50
333.2657659662
 51
341.0345185322
  0
ARC
  5
E7
330
1F
100
AcDbEntity
  8
0
  6
Continuous
 62
     7
370
    25
100
AcDbCircle
 10
0.0
 20
0.0
 30
0.0
 40
76.49999999999997
100
AcDbArc
 50
48.1465762786
 51
49.0534237214
  0
ARC
  5
E8
330
1F
100
AcDbEntity
  8
0
  6
Continuous
 62
     7
370
    25
100
AcDbCircle
 10
60.3201375445
 20
37.0509128783
 30
0.0
 40
23.0981423491055
100
AcDbArc
 50
116.1654814678
 51
123.9342340338
  0
ARC
  5
E9
330
1F
100
AcDbEntity
  8
0
  6
Continuous
 62
     7
370
    25
100
AcDbCircle
 10
47.0969778162
 20
56.7036750996
 30
0.0
 40
0.5890486225480901
100
AcDbArc
 50
230.4
 51
303.9342340338
  0
LINE
  5
EA
330
1F
100
AcDbEntity
  8
0
  6
Continuous
 62
     7
370
    25
100
AcDbLine
 10
46.4987297804
 20
56.4341002744
 30
0.0
 11
46.7215040931
 21
56.2498053353
 31
0.0
  0
ARC
  5
EB
330
1F
100
AcDbEntity
  8
0
  6
Continuous
 62
     7
370
    25
100
AcDbCircle
 10
46.8742035036
 20
56.8879700387
 30
0.0
 40
0.5890486225480865
100
AcDbArc
 50
156.8657659662
 51
230.4
  0
ARC
  5
EC
330
1F
100
AcDbEntity
  8
0
  6
Continuous
 62
     7
370
    25
100
AcDbCircle
 10
25.0917726791
 20
66.1943508339
 30
0.0
 40
23.09814234910548
100
AcDbArc
 50
336.8657659662
 51
344.6345185322
  0
ARC
  5
ED
330
1F
100
AcDbEntity
  8
0
  6
Continuous
 62
     7
370
    25
100
AcDbCircle
 10
0.0
 20
0.0
 30
0.0
 40
76.49999999999997
100
AcDbArc
 50
51.7465762786
 51
52.6534237214
  0
ARC
  5
EE
330
1F
100
AcDbEntity
  8
0
  6
Continuous
 62
     7
370
    25
100
AcDbCircle
 10
57.8746634632
 20
40.7653341397
 30
0.0
 40
23.09814234910549
100
AcDbArc
 50
119.7654814678
 51
127.5342340338
  0
ARC
  5
EF
330
1F
100
AcDbEntity
  8
0
  6
Continuous
 62
     7
370
    25
100
AcDbCircle
 10
43.44358947
 20
59.5490270549
 30
0.0
 40
0.5890486225480963
100
AcDbArc
 50
234.0
 51
307.5342340338
  0
LINE
  5
F0
330
1F
100
AcDbEntity
  8
0
  6
Continuous
 62
     7
370
    25
100
AcDbLine
 10
42.8634486834
 20
59.242419869
 30
0.0
 11
43.0973553768
 21
59.0724767087
 31
0.0
  0
ARC
  5
F1
330
1F
100
AcDbEntity
  8
0
  6
Continuous
 62
     7
370
    25
100
AcDbCircle
 10
43.2096827767
 20
59.7189702152
 30
0.0
 40
0.5890486225480963
100
AcDbArc
 50
160.4657659662
 51
234.0
  0
ARC
  5
F2
330
1F
100
AcDbEntity
  8
0
  6
Continuous
 62
     7
370
    25
100
AcDbCircle
 10
20.8858821186
 20
67.6392568456
 30
0.0
 40
23.09814234910549
100
AcDbArc
 50
340.4657659662
 51
348.2345185322
  0
ARC
  5
F3
330
1F
100
AcDbEntity
  8
0
  6
Continuous
 62
     7
370
    25
100
AcDbCircle
 10
0.0
 20
0.0
 30
0.0
 40
76.49999999999999
100
AcDbArc
 50
55.3465762786
 51
56.2534237214
  0
ARC
  5
F4
330
1F
100
AcDbEntity
  8
0
  6
Continuous
 62
     7
370
    25
100
AcDbCircle
 10
55.2007845256
 20
44.3188732511
 30
0.0
 40
23.0981423491055
100
AcDbArc
 50
123.3654814678
 51
131.1342340338
  0
ARC
  5
F5
330
1F
100
AcDbEntity
  8
0
  6
Continuous
 62
     7
370
    25
100
AcDbCircle
 10
39.6187491237
 20
62.1593662057
 30
0.0
 40
0.5890486225480973
100
AcDbArc
 50
237.6
 51
311.1342340338
  0
LINE
  5
F6
330
1F
100
AcDbEntity
  8
0
  6
Continuous
 62
     7
370
    25
100
AcDbLine
 10
39.0590051369
 20
61.8169366977
 30
0.0
 11
39.3031210882
 21
61.6620160042
 31
0.0
  0
ARC
  5
F7
330
1F
100
AcDbEntity
  8
0
  6
Continuous
 62
     7
370
    25
100
AcDbCircle
 10
39.3746331725
 20
62.3142868992
 30
0.0
 40
0.5890486225480952
100
AcDbArc
 50
164.0657659662
 51
237.6
  0
ARC
  5
F8
330
1F
100
AcDbEntity
  8
0
  6
Continuous
 62
     7
370
    25
100
AcDbCircle
 10
16.5975645233
 20
68.817221612
 30
0.0
 40
23.09814234910549
100
AcDbArc
 50
344.0657659662
 51
351.8345185322
  0
ARC
  5
F9
330
1F
100
AcDbEntity
  8
0
  6
Continuous
 62
     7
370
    25
100
AcDbCircle
 10
0.0
 20
0.0
 30
0.0
 40
76.49999999999999
100
AcDbArc
 50
58.9465762786
 51
59.8534237214
  0
ARC
  5
FA
330
1F
100
AcDbEntity
  8
0
  6
Continuous
 62
     7
370
    25
100
AcDbCircle
 10
52.3090533104
 20
47.6975060173
 30
0.0
 40
23.09814234910549
100
AcDbArc
 50
126.9654814678
 51
134.7342340338
  0
ARC
  5
FB
330
1F
100
AcDbEntity
  8
0
  6
Continuous
 62
     7
370
    25
100
AcDbCircle
 10
35.6375516747
 20
64.524390736
 30
0.0
 40
0.5890486225480916
100
AcDbArc
 50
241.2
 51
314.7342340338
  0
LINE
  5
FC
330
1F
100
AcDbEntity
  8
0
  6
Continuous
 62
     7
370
    25
100
AcDbLine
 10
35.1004135415
 20
64.1474903187
 30
0.0
 11
35.3537753366
 21
64.0082034932
 31
0.0
  0
ARC
  5
FD
330
1F
100
AcDbEntity
  8
0
  6
Continuous
 62
     7
370
    25
100
AcDbCircle
 10
35.3841898797
 20
64.6636775615
 30
0.0
 40
0.5890486225480877
100
AcDbArc
 50
167.6657659662
 51
241.2
  0
ARC
  5
FE
330
1F
100
AcDbEntity
  8
0
  6
Continuous
 62
     7
370
    25
100
AcDbCircle
 10
12.2437439235
 20
69.7235962443
 30
0.0
 40
23.09814234910549
100
AcDbArc
 50
347.6657659662
 51
355.4345185322
  0
ARC
  5
FF
330
1F
100
AcDbEntity
  8
0
  6
Continuous
 62
     7
370
    25
100
AcDbCircle
 10
0.0
 20
0.0
 30
0.0
 40
76.49999999999999
100
AcDbArc
 50
62.5465762786
 51
63.4534237214
  0
ARC
  5
100
330
1F
100
AcDbEntity
  8
0
  6
Continuous
 62
     7
370
    25
100
AcDbCircle
 10
49.2108821595
 20
50.887898518
 30
0.0
 40
23.09814234910549
100
AcDbArc
 50
130.5654814678
 51
138.3342340338
  0
ARC
  5
101
330
1F
100
AcDbEntity
  8
0
  6
Continuous
 62
     7
370
    25
100
AcDbCircle
 10
31.5157090905
 20
66.6347669745
 30
0.0
 40
0.5890486225480754
100
AcDbArc
 50
244.8
 51
318.3342340338
  0
LINE
  5
102
330
1F
100
AcDbEntity
  8
0
  6
Continuous
 62
     7
370
    25
100
AcDbLine
 10
31.0032966497
 20
66.2248831016
 30
0.0
 11
31.2649043853
 21
66.1017798456
 31
0.0
  0
ARC
  5
103
330
1F
100
AcDbEntity
  8
0
  6
Continuous
 62
     7
370
    25
100
AcDbCircle
 10
31.2541013549
 20
66.7578702305
 30
0.0
 40
0.5890486225480855
100
AcDbArc
 50
171.2657659662
 51
244.8
  0
ARC
  5
104
330
1F
100
AcDbEntity
  8
0
  6
Continuous
 62
     7
370
    25
100
AcDbCircle
 10
7.84160286
 20
70.3548036959
 30
0.0
 40
23.09814234910549
100
AcDbArc
 50
351.2657659662
 51
359.0345185322
  0
ARC
  5
105
330
1F
100
AcDbEntity
  8
0
  6
Continuous
 62
     7
370
    25
100
AcDbCircle
 10
0.0
 20
0.0
 30
0.0
 40
76.5
100
AcDbArc
 50
66.1465762786
 51
67.0534237214
  0
ARC
  5
106
330
1F
100
AcDbEntity
  8
0
  6
Continuous
 62
     7
370
    25
100
AcDbCircle
 10
45.918498139
 20
53.8774597318
 30
0.0
 40
23.09814234910549
100
AcDbArc
 50
134.1654814678
 51
141.9342340338
  0
ARC
  5
107
330
1F
100
AcDbEntity
  8
0
  6
Continuous
 62
     7
370
    25
100
AcDbCircle
 10
27.2694884006
 20
68.4821662303
 30
0.0
 40
0.5890486225480911
100
AcDbArc
 50
248.4
 51
321.9342340338
  0
LINE
  5
108
330
1F
100
AcDbEntity
  8
0
  6
Continuous
 62
     7
370
    25
100
AcDbLine
 10
26.7838239101
 20
68.0409165262
 30
0.0
 11
27.0526451399
 21
67.934482672
 31
0.0
  0
ARC
  5
109
330
1F
100
AcDbEntity
  8
0
  6
Continuous
 62
     7
370
    25
100
AcDbCircle
 10
27.0006671708
 20
68.5886000845
 30
0.0
 40
0.5890486225480885
100
AcDbArc
 50
174.8657659662
 51
248.4
  0
ARC
  5
10A
330
1F
100
AcDbEntity
  8
0
  6
Continuous
 62
     7
370
    25
100
AcDbCircle
 10
3.4085145726
 20
70.7083528793
 30
0.0
 40
23.09814234910549
100
AcDbArc
 50
354.8657659662
 51
2.6345185322
  0
ARC
  5
10B
330
1F
100
AcDbEntity
  8
0
  6
Continuous
 62
     7
370
    25
100
AcDbCircle
 10
0.0
 20
0.0
 30
0.0
 40
76.49999999999997
100
AcDbArc
 50
69.7465762786
 51
70.6534237214
  0
ARC
  5
10C
330
1F
100
AcDbEntity
  8
0
  6
Continuous
 62
     7
370
    25
100
AcDbCircle
 10
42.4448947845
 20
56.6543912263
 30
0.0
 40
23.09814234910549
100
AcDbArc
 50
137.7654814678
 51
145.5342340338
  0
ARC
  5
10D
330
1F
100
AcDbEntity
  8
0
  6
Continuous
 62
     7
370
    25
100
AcDbCircle
 10
22.9156474983
 20
70.0592976624
 30
0.0
 40
0.5890486225480941
100
AcDbArc
 50
252.0
 51
325.5342340338
  0
LINE
  5
10E
330
1F
100
AcDbEntity
  8
0
  6
Continuous
 62
     7
370
    25
100
AcDbLine
 10
22.4586476539
 20
69.5884235382
 30
0.0
 11
22.7336214634
 21
69.4990791316
 31
0.0
  0
ARC
  5
10F
330
1F
100
AcDbEntity
  8
0
  6
Continuous
 62
     7
370
    25
100
AcDbCircle
 10
22.6406736887
 20
70.1486420691
 30
0.0
 40
0.5890486225480928
100
AcDbArc
 50
178.4657659662
 51
252.0
  0
ARC
  5
110
330
1F
100
AcDbEntity
  8
0
  6
Continuous
 62
     7
370
    25
100
AcDbCircle
 10
-1.0380255647
 20
70.7828484975
 30
0.0
 40
23.09814234910549
100
AcDbArc
 50
358.4657659662
 51
6.2345185322
  0
ARC
  5
111
330
1F
100
AcDbEntity
  8
0
  6
Continuous
 62
     7
370
    25
100
AcDbCircle
 10
0.0
 20
0.0
 30
0.0
 40
76.49999999999999
100
AcDbArc
 50
73.3465762786
 51
74.2534237214
  0
ARC
  5
112
330
1F
100
AcDbEntity
  8
0
  6
Continuous
 62
     7
370
    25
100
AcDbCircle
 10
38.8037808216
 20
59.2077337216
 30
0.0
 40
23.09814234910548
100
AcDbArc
 50
141.3654814678
 51
149.1342340338
  0
ARC
  5
113
330
1F
100
AcDbEntity
  8
0
  6
Continuous
 62
     7
370
    25
100
AcDbCircle
 10
18.4713690044
 20
71.3599370538
 30
0.0
 40
0.5890486225480932
100
AcDbArc
 50
255.6
 51
329.1342340338
  0
LINE
  5
114
330
1F
100
AcDbEntity
  8
0
  6
Continuous
 62
     7
370
    25
100
AcDbLine
 10
18.0448373757
 20
70.8612968344
 30
0.0
 11
18.324878569
 21
70.7893944769
 31
0.0
  0
ARC
  5
115
330
1F
100
AcDbEntity
  8
0
  6
Continuous
 62
     7
370
    25
100
AcDbCircle
 10
18.1913278112
 20
71.4318394113
 30
0.0
 40
0.5890486225480819
100
AcDbArc
 50
182.0657659662
 51
255.6
  0
ARC
  5
116
330
1F
100
AcDbEntity
  8
0
  6
Continuous
 62
     7
370
    25
100
AcDbCircle
 10
-5.4804690893
 20
70.5779965503
 30
0.0
 40
23.09814234910549
100
AcDbArc
 50
2.0657659662
 51
9.8345185322
  0
ARC
  5
117
330
1F
100
AcDbEntity
  8
0
  6
Continuous
 62
     7
370
    25
100
AcDbCircle
 10
0.0
 20
0.0
 30
0.0
 40
76.5
100
AcDbArc
 50
76.9465762786
 51
77.8534237214
  0
ARC
  5
118
330
1F
100
AcDbEntity
  8
0
  6
Continuous
 62
     7
370
    25
100
AcDbCircle
 10
35.0095260635
 20
61.5274103413
 30
0.0
 40
23.09814234910549
100
AcDbArc
 50
144.9654814678
 51
152.7342340338
  0
ARC
  5
119
330
1F
100
AcDbEntity
  8
0
  6
Continuous
 62
     7
370
    25
100
AcDbCircle
 10
13.9541924559
 20
72.3789513749
 30
0.0
 40
0.5890486225480857
100
AcDbArc
 50
259.2
 51
332.7342340338
  0
LINE
  5
11A
330
1F
100
AcDbEntity
  8
0
  6
Continuous
 62
     7
370
    25
100
AcDbLine
 10
13.5598123683
 20
71.8545129655
 30
0.0
 11
13.8438157507
 21
71.8003364229
 31
0.0
  0
ARC
  5
11B
330
1F
100
AcDbEntity
  8
0
  6
Continuous
 62
     7
370
    25
100
AcDbCircle
 10
13.6701890736
 20
72.4331279175
 30
0.0
 40
0.5890486225480923
100
AcDbArc
 50
185.6657659662
 51
259.2
  0
ARC
  5
11C
330
1F
100
AcDbEntity
  8
0
  6
Continuous
 62
     7
370
    25
100
AcDbCircle
 10
-9.9012837061
 20
70.0946054948
 30
0.0
 40
23.09814234910549
100
AcDbArc
 50
5.6657659662
 51
13.4345185322
  0
ARC
  5
11D
330
1F
100
AcDbEntity
  8
0
  6
Continuous
 62
     7
370
    25
100
AcDbCircle
 10
0.0
 20
0.0
 30
0.0
 40
76.49999999999999
100
AcDbArc
 50
80.5465762786
 51
81.4534237214
  0
ARC
  5
11E
330
1F
100
AcDbEntity
  8
0
  6
Continuous
 62
     7
370
    25
100
AcDbCircle
 10
31.0771047003
 20
63.6042663816
 30
0.0
 40
23.09814234910549
100
AcDbArc
 50
148.5654814678
 51
156.3342340338
  0
ARC
  5
11F
330
1F
100
AcDbEntity
  8
0
  6
Continuous
 62
     7
370
    25
100
AcDbCircle
 10
9.3819450848
 20
73.1123190416
 30
0.0
 40
0.5890486225480872
100
AcDbArc
 50
262.8
 51
336.3342340338
  0
LINE
  5
120
330
1F
100
AcDbEntity
  8
0
  6
Continuous
 62
     7
370
    25
100
AcDbLine
 10
9.0212729765
 20
72.5641521611
 30
0.0
 11
9.3081177162
 21
72.5279152434
 31
0.0
  0
ARC
  5
121
330
1F
100
AcDbEntity
  8
0
  6
Continuous
 62
     7
370
    25
100
AcDbCircle
 10
9.095100345
 20
73.1485559593
 30
0.0
 40
0.589048622548091
100
AcDbArc
 50
189.2657659662
 51
262.8
  0
ARC
  5
122
330
1F
100
AcDbEntity
  8
0
  6
Continuous
 62
     7
370
    25
100
AcDbCircle
 10
-14.2830224797
 20
69.3345830545
 30
0.0
 40
23.09814234910548
100
AcDbArc
 50
9.2657659662
 51
17.0345185322
  0
ARC
  5
123
330
1F
100
AcDbEntity
  8
0
  6
Continuous
 62
     7
370
    25
100
AcDbCircle
 10
0.0
 20
0.0
 30
0.0
 40
76.49999999999997
100
AcDbArc
 50
84.1465762786
 51
85.0534237214
  0
ARC
  5
124
330
1F
100
AcDbEntity
  8
0
  6
Continuous
 62
     7
370
    25
100
AcDbCircle
 10
27.0220362027
 20
65.4301054405
 30
0.0
 40
23.09814234910549
100
AcDbArc
 50
152.1654814678
 51
159.9342340338
  0
ARC
  5
125
330
1F
100
AcDbEntity
  8
0
  6
Continuous
 62
     7
370
    25
100
AcDbCircle
 10
4.7726714627
 20
73.557145787
 30
0.0
 40
0.5890486225480853
100
AcDbArc
 50
266.4
 51
339.9342340338
  0
LINE
  5
126
330
1F
100
AcDbEntity
  8
0
  6
Continuous
 62
     7
370
    25
100
AcDbLine
 10
4.4471307415
 20
72.9874137995
 30
0.0
 11
4.7356847936
 21
72.9692595173
 31
0.0
  0
ARC
  5
127
330
1F
100
AcDbEntity
  8
0
  6
Continuous
 62
     7
370
    25
100
AcDbCircle
 10
4.4841174106
 20
73.5753000692
 30
0.0
 40
0.5890486225480991
100
AcDbArc
 50
192.8657659662
 51
266.4
  0
ARC
  5
128
330
1F
100
AcDbEntity
  8
0
  6
Continuous
 62
     7
370
    25
100
AcDbCircle
 10
-18.6083926888
 20
68.3009286909
 30
0.0
 40
23.09814234910548
100
AcDbArc
 50
12.8657659662
 51
20.6345185322
  0
ARC
  5
129
330
1F
100
AcDbEntity
  8
0
  6
Continuous
 62
     7
370
    25
100
AcDbCircle
 10
0.0
 20
0.0
 30
0.0
 40
76.49999999999997
100
AcDbArc
 50
87.7465762786
 51
88.6534237214
  0
ARC
  5
12A
330
1F
100
AcDbEntity
  8
0
  6
Continuous
 62
     7
370
    25
100
AcDbCircle
 10
22.8603240734
 20
66.9977217654
 30
0.0
 40
23.09814234910548
100
AcDbArc
 50
155.7654814678
 51
163.5342340338
  0
ARC
  5
12B
330
1F
100
AcDbEntity
  8
0
  6
Continuous
 62
     7
370
    25
100
AcDbCircle
 10
0.1445622867
 20
73.711676083
 30
0.0
 40
0.5890486225480913
100
AcDbArc
 50
270.0
 51
343.5342340338
  0
LINE
  5
12C
330
1F
100
AcDbEntity
  8
0
  6
Continuous
 62
     7
370
    25
100
AcDbLine
 10
-0.1445622867
 20
73.1226274605
 30
0.0
 11
0.1445622867
 21
73.1226274605
 31
0.0
  0
ARC
  5
12D
330
1F
100
AcDbEntity
  8
0
  6
Continuous
 62
     7
370
    25
100
AcDbCircle
 10
-0.1445622867
 20
73.711676083
 30
0.0
 40
0.5890486225480913
100
AcDbArc
 50
196.4657659662
 51
270.0
  0
ARC
  5
12E
330
1F
100
AcDbEntity
  8
0
  6
Continuous
 62
     7
370
    25
100
AcDbCircle
 10
-22.8603240734
 20
66.9977217654
 30
0.0
 40
23.09814234910548
100
AcDbArc
 50
16.4657659662
 51
24.2345185322
  0
ARC
  5
12F
330
1F
100
AcDbEntity
  8
0
  6
Continuous
 62
     7
370
    25
100
AcDbCircle
 10
0.0
 20
0.0
 30
0.0
 40
76.5
100
AcDbArc
 50
91.3465762786
 51
92.2534237214
  0
ARC
  5
130
330
1F
100
AcDbEntity
  8
0
  6
Continuous
 62
     7
370
    25
100
AcDbCircle
 10
18.6083926888
 20
68.3009286909
 30
0.0
 40
23.09814234910549
100
AcDbArc
 50
159.3654814678
 51
167.1342340338
  0
ARC
  5
131
330
1F
100
AcDbEntity
  8
0
  6
Continuous
 62
     7
370
    25
100
AcDbCircle
 10
-4.4841174106
 20
73.5753000692
 30
0.0
 40
0.5890486225480855
100
AcDbArc
 50
273.6
 51
347.1342340338
  0
LINE
  5
132
330
1F
100
AcDbEntity
  8
0
  6
Continuous
 62
     7
370
    25
100
AcDbLine
 10
-4.7356847936
 20
72.9692595173
 30
0.0
 11
-4.4471307415
 21
72.9874137995
 31
0.0
  0
ARC
  5
133
330
1F
100
AcDbEntity
  8
0
  6
Continuous
 62
     7
370
    25
100
AcDbCircle
 10
-4.7726714627
 20
73.557145787
 30
0.0
 40
0.5890486225480853
100
AcDbArc
 50
200.0657659662
 51
273.6
  0
ARC
  5
134
330
1F
100
AcDbEntity
  8
0
  6
Continuous
 62
     7
370
    25
100
AcDbCircle
 10
-27.0220362027
 20
65.4301054405
 30
0.0
 40
23.09814234910549
100
AcDbArc
 50
20.0657659662
 51
27.8345185322
  0
ARC
  5
135
330
1F
100
AcDbEntity
  8
0
  6
Continuous
 62
     7
370
    25
100
AcDbCircle
 10
0.0
 20
0.0
 30
0.0
 40
76.49999999999999
100
AcDbArc
 50
94.9465762786
 51
95.8534237214
  0
ARC
  5
136
330
1F
100
AcDbEntity
  8
0
  6
Continuous
 62
     7
370
    25
100
AcDbCircle
 10
14.2830224797
 20
69.3345830545
 30
0.0
 40
23.09814234910549
100
AcDbArc
 50
162.9654814678
 51
170.7342340338
  0
ARC
  5
137
330
1F
100
AcDbEntity
  8
0
  6
Continuous
 62
     7
370
    25
100
AcDbCircle
 10
-9.095100345
 20
73.1485559593
 30
0.0
 40
0.589048622548088
100
AcDbArc
 50
277.2
 51
350.7342340338
  0
LINE
  5
138
330
1F
100
AcDbEntity
  8
0
  6
Continuous
 62
     7
370
    25
100
AcDbLine
 10
-9.3081177162
 20
72.5279152434
 30
0.0
 11
-9.0212729764
 21
72.5641521611
 31
0.0
  0
ARC
  5
139
330
1F
100
AcDbEntity
  8
0
  6
Continuous
 62
     7
370
    25
100
AcDbCircle
 10
-9.3819450848
 20
73.1123190416
 30
0.0
 40
0.5890486225480879
100
AcDbArc
 50
203.6657659662
 51
277.2
  0
ARC
  5
13A
330
1F
100
AcDbEntity
  8
0
  6
Continuous
 62
     7
370
    25
100
AcDbCircle
 10
-31.0771047003
 20
63.6042663816
 30
0.0
 40
23.09814234910549
100
AcDbArc
 50
23.6657659662
 51
31.4345185322
  0
ARC
  5
13B
330
1F
100
AcDbEntity
  8
0
  6
Continuous
 62
     7
370
    25
100
AcDbCircle
 10
0.0
 20
0.0
 30
0.0
 40
76.5
100
AcDbArc
 50
98.5465762786
 51
99.4534237214
  0
ARC
  5
13C
330
1F
100
AcDbEntity
  8
0
  6
Continuous
 62
     7
370
    25
100
AcDbCircle
 10
9.9012837061
 20
70.0946054948
 30
0.0
 40
23.09814234910549
100
AcDbArc
 50
166.5654814678
 51
174.3342340338
  0
ARC
  5
13D
330
1F
100
AcDbEntity
  8
0
  6
Continuous
 62
     7
370
    25
100
AcDbCircle
 10
-13.6701890736
 20
72.4331279175
 30
0.0
 40
0.5890486225480893
100
AcDbArc
 50
280.8
 51
354.3342340338
  0
LINE
  5
13E
330
1F
100
AcDbEntity
  8
0
  6
Continuous
 62
     7
370
    25
100
AcDbLine
 10
-13.8438157507
 20
71.8003364229
 30
0.0
 11
-13.5598123683
 21
71.8545129655
 31
0.0
  0
ARC
  5
13F
330
1F
100
AcDbEntity
  8
0
  6
Continuous
 62
     7
370
    25
100
AcDbCircle
 10
-13.9541924559
 20
72.3789513749
 30
0.0
 40
0.58904862254809
100
AcDbArc
 50
207.2657659662
 51
280.8
  0
ARC
  5
140
330
1F
100
AcDbEntity
  8
0
  6
Continuous
 62
     7
370
    25
100
AcDbCircle
 10
-35.0095260635
 20
61.5274103413
 30
0.0
 40
23.09814234910549
100
AcDbArc
 50
27.2657659662
 51
35.0345185322
  0
ARC
  5
141
330
1F
100
AcDbEntity
  8
0
  6
Continuous
 62
     7
370
    25
100
AcDbCircle
 10
0.0
 20
0.0
 30
0.0
 40
76.49999999999999
100
AcDbArc
 50
102.1465762786
 51
103.0534237214
  0
ARC
  5
142
330
1F
100
AcDbEntity
  8
0
  6
Continuous
 62
     7
370
    25
100
AcDbCircle
 10
5.4804690893
 20
70.5779965503
 30
0.0
 40
23.09814234910549
100
AcDbArc
 50
170.1654814678
 51
177.9342340338
  0
ARC
  5
143
330
1F
100
AcDbEntity
  8
0
  6
Continuous
 62
     7
370
    25
100
AcDbCircle
 10
-18.1913278112
 20
71.4318394113
 30
0.0
 40
0.5890486225480905
100
AcDbArc
 50
284.4
 51
357.9342340338
  0
LINE
  5
144
330
1F
100
AcDbEntity
  8
0
  6
Continuous
 62
     7
370
    25
100
AcDbLine
 10
-18.324878569
 20
70.7893944769
 30
0.0
 11
-18.0448373757
 21
70.8612968344
 31
0.0
  0
ARC
  5
145
330
1F
100
AcDbEntity
  8
0
  6
Continuous
 62
     7
370
    25
100
AcDbCircle
 10
-18.4713690044
 20
71.3599370538
 30
0.0
 40
0.5890486225480891
100
AcDbArc
 50
210.8657659662
 51
284.4
  0
ARC
  5
146
330
1F
100
AcDbEntity
  8
0
  6
Continuous
 62
     7
370
    25
100
AcDbCircle
 10
-38.8037808216
 20
59.2077337216
 30
0.0
 40
23.09814234910549
100
AcDbArc
 50
30.8657659662
 51
38.6345185322
  0
ARC
  5
147
330
1F
100
AcDbEntity
  8
0
  6
Continuous
 62
     7
370
    25
100
AcDbCircle
 10
0.0
 20
0.0
 30
0.0
 40
76.49999999999997
100
AcDbArc
 50
105.7465762786
 51
106.6534237214
  0
ARC
  5
148
330
1F
100
AcDbEntity
  8
0
  6
Continuous
 62
     7
370
    25
100
AcDbCircle
 10
1.0380255647
 20
70.7828484975
 30
0.0
 40
23.09814234910549
100
AcDbArc
 50
173.7654814678
 51
181.5342340338
  0
ARC
  5
149
330
1F
100
AcDbEntity
  8
0
  6
Continuous
 62
     7
370
    25
100
AcDbCircle
 10
-22.6406736887
 20
70.1486420691
 30
0.0
 40
0.5890486225480849
100
AcDbArc
 50
288.0
 51
1.5342340338
  0
LINE
  5
14A
330
1F
100
AcDbEntity
  8
0
  6
Continuous
 62
     7
370
    25
100
AcDbLine
 10
-22.7336214634
 20
69.4990791316
 30
0.0
 11
-22.4586476539
 21
69.5884235382
 31
0.0
  0
ARC
  5
14B
330
1F
100
AcDbEntity
  8
0
  6
Continuous
 62
     7
370
    25
100
AcDbCircle
 10
-22.9156474983
 20
70.0592976624
 30
0.0
 40
0.5890486225480884
100
AcDbArc
 50
214.4657659662
 51
288.0
  0
ARC
  5
14C
330
1F
100
AcDbEntity
  8
0
  6
Continuous
 62
     7
370
    25
100
AcDbCircle
 10
-42.4448947845
 20
56.6543912263
 30
0.0
 40
23.09814234910549
100
AcDbArc
 50
34.4657659662
 51
42.2345185322
  0
ARC
  5
14D
330
1F
100
AcDbEntity
  8
0
  6
Continuous
 62
     7
370
    25
100
AcDbCircle
 10
0.0
 20
0.0
 30
0.0
 40
76.5
100
AcDbArc
 50
109.3465762786
 51
110.2534237214
  0
ARC
  5
14E
330
1F
100
AcDbEntity
  8
0
  6
Continuous
 62
     7
370
    25
100
AcDbCircle
 10
-3.4085145726
 20
70.7083528793
 30
0.0
 40
23.09814234910549
100
AcDbArc
 50
177.3654814678
 51
185.1342340338
  0
ARC
  5
14F
330
1F
100
AcDbEntity
  8
0
  6
Continuous
 62
     7
370
    25
100
AcDbCircle
 10
-27.0006671708
 20
68.5886000845
 30
0.0
 40
0.5890486225480965
100
AcDbArc
 50
291.6
 51
5.1342340338
  0
LINE
  5
150
330
1F
100
AcDbEntity
  8
0
  6
Continuous
 62
     7
370
    25
100
AcDbLine
 10
-27.0526451399
 20
67.934482672
 30
0.0
 11
-26.7838239101
 21
68.0409165262
 31
0.0
  0
ARC
  5
151
330
1F
100
AcDbEntity
  8
0
  6
Continuous
 62
     7
370
    25
100
AcDbCircle
 10
-27.2694884006
 20
68.4821662303
 30
0.0
 40
0.5890486225480833
100
AcDbArc
 50
218.0657659662
 51
291.6
  0
ARC
  5
152
330
1F
100
AcDbEntity
  8
0
  6
Continuous
 62
     7
370
    25
100
AcDbCircle
 10
-45.918498139
 20
53.8774597318
 30
0.0
 40
23.09814234910549
100
AcDbArc
 50
38.0657659662
 51
45.8345185322
  0
ARC
  5
153
330
1F
100
AcDbEntity
  8
0
  6
Continuous
 62
     7
370
    25
100
AcDbCircle
 10
0.0
 20
0.0
 30
0.0
 40
76.49999999999999
100
AcDbArc
 50
112.9465762786
 51
113.8534237214
  0
ARC
  5
154
330
1F
100
AcDbEntity
  8
0
  6
Continuous
 62
     7
370
    25
100
AcDbCircle
 10
-7.84160286
 20
70.3548036959
 30
0.0
 40
23.09814234910548
100
AcDbArc
 50
180.9654814678
 51
188.7342340338
  0
ARC
  5
155
330
1F
100
AcDbEntity
  8
0
  6
Continuous
 62
     7
370
    25
100
AcDbCircle
 10
-31.2541013549
 20
66.7578702305
 30
0.0
 40
0.5890486225480881
100
AcDbArc
 50
295.2
 51
8.7342340338
  0
LINE
  5
156
330
1F
100
AcDbEntity
  8
0
  6
Continuous
 62
     7
370
    25
100
AcDbLine
 10
-31.2649043853
 20
66.1017798456
 30
0.0
 11
-31.0032966497
 21
66.2248831016
 31
0.0
  0
ARC
  5
157
330
1F
100
AcDbEntity
  8
0
  6
Continuous
 62
     7
370
    25
100
AcDbCircle
 10
-31.5157090905
 20
66.6347669745
 30
0.0
 40
0.589048622548081
100
AcDbArc
 50
221.6657659662
 51
295.2
  0
ARC
  5
158
330
1F
100
AcDbEntity
  8
0
  6
Continuous
 62
     7
370
    25
100
AcDbCircle
 10
-49.2108821595
 20
50.887898518
 30
0.0
 40
23.09814234910549
100
AcDbArc
 50
41.6657659662
 51
49.4345185322
  0
ARC
  5
159
330
1F
100
AcDbEntity
  8
0
  6
Continuous
 62
     7
370
    25
100
AcDbCircle
 10
0.0
 20
0.0
 30
0.0
 40
76.49999999999999
100
AcDbArc
 50
116.5465762786
 51
117.4534237214
  0
ARC
  5
15A
330
1F
100
AcDbEntity
  8
0
  6
Continuous
 62
     7
370
    25
100
AcDbCircle
 10
-12.2437439235
 20
69.7235962443
 30
0.0
 40
23.09814234910549
100
AcDbArc
 50
184.5654814678
 51
192.3342340338
  0
ARC
  5
15B
330
1F
100
AcDbEntity
  8
0
  6
Continuous
 62
     7
370
    25
100
AcDbCircle
 10
-35.3841898797
 20
64.6636775615
 30
0.0
 40
0.589048622548075
100
AcDbArc
 50
298.8
 51
12.3342340338
  0
LINE
  5
15C
330
1F
100
AcDbEntity
  8
0
  6
Continuous
 62
     7
370
    25
100
AcDbLine
 10
-35.3537753366
 20
64.0082034932
 30
0.0
 11
-35.1004135415
 21
64.1474903187
 31
0.0
  0
ARC
  5
15D
330
1F
100
AcDbEntity
  8
0
  6
Continuous
 62
     7
370
    25
100
AcDbCircle
 10
-35.6375516747
 20
64.524390736
 30
0.0
 40
0.5890486225480916
100
AcDbArc
 50
225.2657659662
 51
298.8
  0
ARC
  5
15E
330
1F
100
AcDbEntity
  8
0
  6
Continuous
 62
     7
370
    25
100
AcDbCircle
 10
-52.3090533104
 20
47.6975060173
 30
0.0
 40
23.09814234910549
100
AcDbArc
 50
45.2657659662
 51
53.0345185322
  0
ARC
  5
15F
330
1F
100
AcDbEntity
  8
0
  6
Continuous
 62
     7
370
    25
100
AcDbCircle
 10
0.0
 20
0.0
 30
0.0
 40
76.49999999999999
100
AcDbArc
 50
120.1465762786
 51
121.0534237214
  0
ARC
  5
160
330
1F
100
AcDbEntity
  8
0
  6
Continuous
 62
     7
370
    25
100
AcDbCircle
 10
-16.5975645233
 20
68.817221612
 30
0.0
 40
23.09814234910549
100
AcDbArc
 50
188.1654814678
 51
195.9342340338
  0
ARC
  5
161
330
1F
100
AcDbEntity
  8
0
  6
Continuous
 62
     7
370
    25
100
AcDbCircle
 10
-39.3746331725
 20
62.3142868992
 30
0.0
 40
0.5890486225480844
100
AcDbArc
 50
302.4
 51
15.9342340338
  0
LINE
  5
162
330
1F
100
AcDbEntity
  8
0
  6
Continuous
 62
     7
370
    25
100
AcDbLine
 10
-39.3031210882
 20
61.6620160042
 30
0.0
 11
-39.0590051369
 21
61.8169366977
 31
0.0
  0
ARC
  5
163
330
1F
100
AcDbEntity
  8
0
  6
Continuous
 62
     7
370
    25
100
AcDbCircle
 10
-39.6187491237
 20
62.1593662057
 30
0.0
 40
0.5890486225480873
100
AcDbArc
 50
228.8657659662
 51
302.4
  0
ARC
  5
164
330
1F
100
AcDbEntity
  8
0
  6
Continuous
 62
     7
370
    25
100
AcDbCircle
 10
-55.2007845256
 20
44.3188732511
 30
0.0
 40
23.0981423491055
100
AcDbArc
 50
48.8657659662
 51
56.6345185322
  0
ARC
  5
165
330
1F
100
AcDbEntity
  8
0
  6
Continuous
 62
     7
370
    25
100
AcDbCircle
 10
0.0
 20
0.0
 30
0.0
 40
76.49999999999999
100
AcDbArc
 50
123.7465762786
 51
124.6534237214
  0
ARC
  5
166
330
1F
100
AcDbEntity
  8
0
  6
Continuous
 62
     7
370
    25
100
AcDbCircle
 10
-20.8858821186
 20
67.6392568456
 30
0.0
 40
23.09814234910549
100
AcDbArc
 50
191.7654814678
 51
199.5342340338
  0
ARC
  5
167
330
1F
100
AcDbEntity
  8
0
  6
Continuous
 62
     7
370
    25
100
AcDbCircle
 10
-43.2096827767
 20
59.7189702152
 30
0.0
 40
0.5890486225480929
100
AcDbArc
 50
306.0
 51
19.5342340338
  0
LINE
  5
168
330
1F
100
AcDbEntity
  8
0
  6
Continuous
 62
     7
370
    25
100
AcDbLine
 10
-43.0973553768
 20
59.0724767087
 30
0.0
 11
-42.8634486834
 21
59.242419869
 31
0.0
  0
ARC
  5
169
330
1F
100
AcDbEntity
  8
0
  6
Continuous
 62
     7
370
    25
100
AcDbCircle
 10
-43.44358947
 20
59.5490270549
 30
0.0
 40
0.5890486225480891
100
AcDbArc
 50
232.4657659662
 51
306.0
  0
ARC
  5
16A
330
1F
100
AcDbEntity
  8
0
  6
Continuous
 62
     7
370
    25
100
AcDbCircle
 10
-57.8746634632
 20
40.7653341397
 30
0.0
 40
23.09814234910548
100
AcDbArc
 50
52.4657659662
 51
60.2345185322
  0
ARC
  5
16B
330
1F
100
AcDbEntity
  8
0
  6
Continuous
 62
     7
370
    25
100
AcDbCircle
 10
0.0
 20
0.0
 30
0.0
 40
76.49999999999999
100
AcDbArc
 50
127.3465762786
 51
128.2534237214
  0
ARC
  5
16C
330
1F
100
AcDbEntity
  8
0
  6
Continuous
 62
     7
370
    25
100
AcDbCircle
 10
-25.0917726791
 20
66.1943508339
 30
0.0
 40
23.09814234910549
100
AcDbArc
 50
195.3654814678
 51
203.1342340338
  0
ARC
  5
16D
330
1F
100
AcDbEntity
  8
0
  6
Continuous
 62
     7
370
    25
100
AcDbCircle
 10
-46.8742035036
 20
56.8879700387
 30
0.0
 40
0.5890486225480966
100
AcDbArc
 50
309.6
 51
23.1342340338
  0
LINE
  5
16E
330
1F
100
AcDbEntity
  8
0
  6
Continuous
 62
     7
370
    25
100
AcDbLine
 10
-46.7215040931
 20
56.2498053353
 30
0.0
 11
-46.4987297804
 21
56.4341002744
 31
0.0
  0
ARC
  5
16F
330
1F
100
AcDbEntity
  8
0
  6
Continuous
 62
     7
370
    25
100
AcDbCircle
 10
-47.0969778162
 20
56.7036750996
 30
0.0
 40
0.5890486225480862
100
AcDbArc
 50
236.0657659662
 51
309.6
  0
ARC
  5
170
330
1F
100
AcDbEntity
  8
0
  6
Continuous
 62
     7
370
    25
100
AcDbCircle
 10
-60.3201375445
 20
37.0509128783
 30
0.0
 40
23.09814234910549
100
AcDbArc
 50
56.0657659662
 51
63.8345185322
  0
ARC
  5
171
330
1F
100
AcDbEntity
  8
0
  6
Continuous
 62
     7
370
    25
100
AcDbCircle
 10
0.0
 20
0.0
 30
0.0
 40
76.49999999999999
100
AcDbArc
 50
130.9465762786
 51
131.8534237214
  0
ARC
  5
172
330
1F
100
AcDbEntity
  8
0
  6
Continuous
 62
     7
370
    25
100
AcDbCircle
 10
-29.1986374762
 20
64.4882059607
 30
0.0
 40
23.09814234910548
100
AcDbArc
 50
198.9654814678
 51
206.7342340338
  0
ARC
  5
173
330
1F
100
AcDbEntity
  8
0
  6
Continuous
 62
     7
370
    25
100
AcDbCircle
 10
-50.3537331641
 20
53.8324590341
 30
0.0
 40
0.5890486225480863
100
AcDbArc
 50
313.2
 51
26.7342340338
  0
LINE
  5
174
330
1F
100
AcDbEntity
  8
0
  6
Continuous
 62
     7
370
    25
100
AcDbLine
 10
-50.1612643777
 20
53.2051416783
 30
0.0
 11
-49.9505016342
 21
53.4030610683
 31
0.0
  0
ARC
  5
175
330
1F
100
AcDbEntity
  8
0
  6
Continuous
 62
     7
370
    25
100
AcDbCircle
 10
-50.5644959075
 20
53.6345396442
 30
0.0
 40
0.5890486225480877
100
AcDbArc
 50
239.6657659662
 51
313.2
  0
ARC
  5
176
330
1F
100
AcDbEntity
  8
0
  6
Continuous
 62
     7
370
    25
100
AcDbCircle
 10
-62.5275556005
 20
33.1902685907
 30
0.0
 40
23.09814234910549
100
AcDbArc
 50
59.6657659662
 51
67.4345185322
  0
ARC
  5
177
330
1F
100
AcDbEntity
  8
0
  6
Continuous
 62
     7
370
    25
100
AcDbCircle
 10
0.0
 20
0.0
 30
0.0
 40
76.49999999999999
100
AcDbArc
 50
134.5465762786
 51
135.4534237214
  0
ARC
  5
178
330
1F
100
AcDbEntity
  8
0
  6
Continuous
 62
     7
370
    25
100
AcDbCircle
 10
-33.1902685907
 20
62.5275556005
 30
0.0
 40
23.09814234910549
100
AcDbArc
 50
202.5654814678
 51
210.3342340338
  0
ARC
  5
179
330
1F
100
AcDbEntity
  8
0
  6
Continuous
 62
     7
370
    25
100
AcDbCircle
 10
-53.6345396442
 20
50.5644959075
 30
0.0
 40
0.5890486225480863
100
AcDbArc
 50
316.8
 51
30.3342340338
  0
LINE
  5
17A
330
1F
100
AcDbEntity
  8
0
  6
Continuous
 62
     7
370
    25
100
AcDbLine
 10
-53.4030610683
 20
49.9505016342
 30
0.0
 11
-53.2051416783
 21
50.1612643777
 31
0.0
  0
ARC
  5
17B
330
1F
100
AcDbEntity
  8
0
  6
Continuous
 62
     7
370
    25
100
AcDbCircle
 10
-53.8324590341
 20
50.3537331641
 30
0.0
 40
0.589048622548086
100
AcDbArc
 50
243.2657659662
 51
316.8
  0
ARC
  5
17C
330
1F
100
AcDbEntity
  8
0
  6
Continuous
 62
     7
370
    25
100
AcDbCircle
 10
-64.4882059607
 20
29.1986374762
 30
0.0
 40
23.09814234910549
100
AcDbArc
 50
63.2657659662
 51
71.0345185322
  0
ARC
  5
17D
330
1F
100
AcDbEntity
  8
0
  6
Continuous
 62
     7
370
    25
100
AcDbCircle
 10
0.0
 20
0.0
 30
0.0
 40
76.49999999999997
100
AcDbArc
 50
138.1465762786
 51
139.0534237214
  0
ARC
  5
17E
330
1F
100
AcDbEntity
  8
0
  6
Continuous
 62
     7
370
    25
100
AcDbCircle
 10
-37.0509128783
 20
60.3201375445
 30
0.0
 40
23.09814234910549
100
AcDbArc
 50
206.1654814678
 51
213.9342340338
  0
ARC
  5
17F
330
1F
100
AcDbEntity
  8
0
  6
Continuous
 62
     7
370
    25
100
AcDbCircle
 10
-56.7036750996
 20
47.0969778162
 30
0.0
 40
0.5890486225480841
100
AcDbArc
 50
320.4
 51
33.9342340338
  0
LINE
  5
180
330
1F
100
AcDbEntity
  8
0
  6
Continuous
 62
     7
370
    25
100
AcDbLine
 10
-56.4341002744
 20
46.4987297804
 30
0.0
 11
-56.2498053353
 21
46.7215040931
 31
0.0
  0
ARC
  5
181
330
1F
100
AcDbEntity
  8
0
  6
Continuous
 62
     7
370
    25
100
AcDbCircle
 10
-56.8879700387
 20
46.8742035036
 30
0.0
 40
0.5890486225480864
100
AcDbArc
 50
246.8657659662
 51
320.4
  0
ARC
  5
182
330
1F
100
AcDbEntity
  8
0
  6
Continuous
 62
     7
370
    25
100
AcDbCircle
 10
-66.1943508339
 20
25.0917726791
 30
0.0
 40
23.09814234910548
100
AcDbArc
 50
66.8657659662
 51
74.6345185322
  0
ARC
  5
183
330
1F
100
AcDbEntity
  8
0
  6
Continuous
 62
     7
370
    25
100
AcDbCircle
 10
0.0
 20
0.0
 30
0.0
 40
76.49999999999997
100
AcDbArc
 50
141.7465762786
 51
142.6534237214
  0
ARC
  5
184
330
1F
100
AcDbEntity
  8
0
  6
Continuous
 62
     7
370
    25
100
AcDbCircle
 10
-40.7653341397
 20
57.8746634632
 30
0.0
 40
23.09814234910548
100
AcDbArc
 50
209.7654814678
 51
217.5342340338
  0
ARC
  5
185
330
1F
100
AcDbEntity
  8
0
  6
Continuous
 62
     7
370
    25
100
AcDbCircle
 10
-59.5490270549
 20
43.44358947
 30
0.0
 40
0.5890486225480848
100
AcDbArc
 50
324.0
 51
37.5342340338
  0
LINE
  5
186
330
1F
100
AcDbEntity
  8
0
  6
Continuous
 62
     7
370
    25
100
AcDbLine
 10
-59.242419869
 20
42.8634486834
 30
0.0
 11
-59.0724767087
 21
43.0973553768
 31
0.0
  0
ARC
  5
187
330
1F
100
AcDbEntity
  8
0
  6
Continuous
 62
     7
370
    25
100
AcDbCircle
 10
-59.7189702152
 20
43.2096827767
 30
0.0
 40
0.5890486225480862
100
AcDbArc
 50
250.4657659662
 51
324.0
  0
ARC
  5
188
330
1F
100
AcDbEntity
  8
0
  6
Continuous
 62
     7
370
    25
100
AcDbCircle
 10
-67.6392568456
 20
20.8858821186
 30
0.0
 40
23.09814234910548
100
AcDbArc
 50
70.4657659662
 51
78.2345185322
  0
ARC
  5
189
330
1F
100
AcDbEntity
  8
0
  6
Continuous
 62
     7
370
    25
100
AcDbCircle
 10
0.0
 20
0.0
 30
0.0
 40
76.49999999999999
100
AcDbArc
 50
145.3465762786
 51
146.2534237214
  0
ARC
  5
18A
330
1F
100
AcDbEntity
  8
0
  6
Continuous
 62
     7
370
    25
100
AcDbCircle
 10
-44.3188732511
 20
55.2007845256
 30
0.0
 40
23.09814234910549
100
AcDbArc
 50
213.3654814678
 51
221.1342340338
  0
ARC
  5
18B
330
1F
100
AcDbEntity
  8
0
  6
Continuous
 62
     7
370
    25
100
AcDbCircle
 10
-62.1593662057
 20
39.6187491237
 30
0.0
 40
0.5890486225480988
100
AcDbArc
 50
327.6
 51
41.1342340338
  0
LINE
  5
18C
330
1F
100
AcDbEntity
  8
0
  6
Continuous
 62
     7
370
    25
100
AcDbLine
 10
-61.8169366977
 20
39.0590051369
 30
0.0
 11
-61.6620160042
 21
39.3031210882
 31
0.0
  0
ARC
  5
18D
330
1F
100
AcDbEntity
  8
0
  6
Continuous
 62
     7
370
    25
100
AcDbCircle
 10
-62.3142868992
 20
39.3746331725
 30
0.0
 40
0.5890486225480907
100
AcDbArc
 50
254.0657659662
 51
327.6
  0
ARC
  5
18E
330
1F
100
AcDbEntity
  8
0
  6
Continuous
 62
     7
370
    25
100
AcDbCircle
 10
-68.817221612
 20
16.5975645233
 30
0.0
 40
23.09814234910549
100
AcDbArc
 50
74.0657659662
 51
81.8345185322
  0
ARC
  5
18F
330
1F
100
AcDbEntity
  8
0
  6
Continuous
 62
     7
370
    25
100
AcDbCircle
 10
0.0
 20
0.0
 30
0.0
 40
76.5
100
AcDbArc
 50
148.9465762786
 51
149.8534237214
  0
ARC
  5
190
330
1F
100
AcDbEntity
  8
0
  6
Continuous
 62
     7
370
    25
100
AcDbCircle
 10
-47.6975060173
 20
52.3090533104
 30
0.0
 40
23.09814234910548
100
AcDbArc
 50
216.9654814678
 51
224.7342340338
  0
ARC
  5
191
330
1F
100
AcDbEntity
  8
0
  6
Continuous
 62
     7
370
    25
100
AcDbCircle
 10
-64.524390736
 20
35.6375516747
 30
0.0
 40
0.5890486225481035
100
AcDbArc
 50
331.2
 51
44.7342340338
  0
LINE
  5
192
330
1F
100
AcDbEntity
  8
0
  6
Continuous
 62
     7
370
    25
100
AcDbLine
 10
-64.1474903187
 20
35.1004135415
 30
0.0
 11
-64.0082034932
 21
35.3537753366
 31
0.0
  0
ARC
  5
193
330
1F
100
AcDbEntity
  8
0
  6
Continuous
 62
     7
370
    25
100
AcDbCircle
 10
-64.6636775615
 20
35.3841898797
 30
0.0
 40
0.5890486225481035
100
AcDbArc
 50
257.6657659662
 51
331.2
  0
ARC
  5
194
330
1F
100
AcDbEntity
  8
0
  6
Continuous
 62
     7
370
    25
100
AcDbCircle
 10
-69.7235962443
 20
12.2437439235
 30
0.0
 40
23.09814234910549
100
AcDbArc
 50
77.6657659662
 51
85.4345185322
  0
ARC
  5
195
330
1F
100
AcDbEntity
  8
0
  6
Continuous
 62
     7
370
    25
100
AcDbCircle
 10
0.0
 20
0.0
 30
0.0
 40
76.49999999999999
100
AcDbArc
 50
152.5465762786
 51
153.4534237214
  0
ARC
  5
196
330
1F
100
AcDbEntity
  8
0
  6
Continuous
 62
     7
370
    25
100
AcDbCircle
 10
-50.887898518
 20
49.2108821595
 30
0.0
 40
23.09814234910548
100
AcDbArc
 50
220.5654814678
 51
228.3342340338
  0
ARC
  5
197
330
1F
100
AcDbEntity
  8
0
  6
Continuous
 62
     7
370
    25
100
AcDbCircle
 10
-66.6347669745
 20
31.5157090905
 30
0.0
 40
0.589048622548084
100
AcDbArc
 50
334.8
 51
48.3342340338
  0
LINE
  5
198
330
1F
100
AcDbEntity
  8
0
  6
Continuous
 62
     7
370
    25
100
AcDbLine
 10
-66.2248831016
 20
31.0032966497
 30
0.0
 11
-66.1017798456
 21
31.2649043853
 31
0.0
  0
ARC
  5
199
330
1F
100
AcDbEntity
  8
0
  6
Continuous
 62
     7
370
    25
100
AcDbCircle
 10
-66.7578702305
 20
31.2541013549
 30
0.0
 40
0.5890486225480868
100
AcDbArc
 50
261.2657659662
 51
334.8
  0
ARC
  5
19A
330
1F
100
AcDbEntity
  8
0
  6
Continuous
 62
     7
370
    25
100
AcDbCircle
 10
-70.3548036959
 20
7.84160286
 30
0.0
 40
23.09814234910549
100
AcDbArc
 50
81.2657659662
 51
89.0345185322
  0
ARC
  5
19B
330
1F
100
AcDbEntity
  8
0
  6
Continuous
 62
     7
370
    25
100
AcDbCircle
 10
0.0
 20
0.0
 30
0.0
 40
76.5
100
AcDbArc
 50
156.1465762786
 51
157.0534237214
  0
ARC
  5
19C
330
1F
100
AcDbEntity
  8
0
  6
Continuous
 62
     7
370
    25
100
AcDbCircle
 10
-53.8774597318
 20
45.918498139
 30
0.0
 40
23.09814234910549
100
AcDbArc
 50
224.1654814678
 51
231.9342340338
  0
ARC
  5
19D
330
1F
100
AcDbEntity
  8
0
  6
Continuous
 62
     7
370
    25
100
AcDbCircle
 10
-68.4821662303
 20
27.2694884006
 30
0.0
 40
0.5890486225480931
100
AcDbArc
 50
338.4
 51
51.9342340338
  0
LINE
  5
19E
330
1F
100
AcDbEntity
  8
0
  6
Continuous
 62
     7
370
    25
100
AcDbLine
 10
-68.0409165262
 20
26.7838239101
 30
0.0
 11
-67.934482672
 21
27.0526451399
 31
0.0
  0
ARC
  5
19F
330
1F
100
AcDbEntity
  8
0
  6
Continuous
 62
     7
370
    25
100
AcDbCircle
 10
-68.5886000845
 20
27.0006671708
 30
0.0
 40
0.5890486225480885
100
AcDbArc
 50
264.8657659662
 51
338.4
  0
ARC
  5
1A0
330
1F
100
AcDbEntity
  8
0
  6
Continuous
 62
     7
370
    25
100
AcDbCircle
 10
-70.7083528793
 20
3.4085145726
 30
0.0
 40
23.09814234910549
100
AcDbArc
 50
84.8657659662
 51
92.6345185322
  0
ARC
  5
1A1
330
1F
100
AcDbEntity
  8
0
  6
Continuous
 62
     7
370
    25
100
AcDbCircle
 10
0.0
 20
0.0
 30
0.0
 40
76.49999999999999
100
AcDbArc
 50
159.7465762786
 51
160.6534237214
  0
ARC
  5
1A2
330
1F
100
AcDbEntity
  8
0
  6
Continuous
 62
     7
370
    25
100
AcDbCircle
 10
-56.6543912263
 20
42.4448947845
 30
0.0
 40
23.09814234910549
100
AcDbArc
 50
227.7654814678
 51
235.5342340338
  0
ARC
  5
1A3
330
1F
100
AcDbEntity
  8
0
  6
Continuous
 62
     7
370
    25
100
AcDbCircle
 10
-70.0592976624
 20
22.9156474983
 30
0.0
 40
0.589048622548097
100
AcDbArc
 50
342.0
 51
55.5342340338
  0
LINE
  5
1A4
330
1F
100
AcDbEntity
  8
0
  6
Continuous
 62
     7
370
    25
100
AcDbLine
 10
-69.5884235382
 20
22.4586476539
 30
0.0
 11
-69.4990791316
 21
22.7336214634
 31
0.0
  0
ARC
  5
1A5
330
1F
100
AcDbEntity
  8
0
  6
Continuous
 62
     7
370
    25
100
AcDbCircle
 10
-70.1486420691
 20
22.6406736887
 30
0.0
 40
0.5890486225481063
100
AcDbArc
 50
268.4657659662
 51
342.0
  0
ARC
  5
1A6
330
1F
100
AcDbEntity
  8
0
  6
Continuous
 62
     7
370
    25
100
AcDbCircle
 10
-70.7828484975
 20
-1.0380255647
 30
0.0
 40
23.09814234910549
100
AcDbArc
 50
88.4657659662
 51
96.2345185322
  0
ARC
  5
1A7
330
1F
100
AcDbEntity
  8
0
  6
Continuous
 62
     7
370
    25
100
AcDbCircle
 10
0.0
 20
0.0
 30
0.0
 40
76.49999999999999
100
AcDbArc
 50
163.3465762786
 51
164.2534237214
  0
ARC
  5
1A8
330
1F
100
AcDbEntity
  8
0
  6
Continuous
 62
     7
370
    25
100
AcDbCircle
 10
-59.2077337216
 20
38.8037808216
 30
0.0
 40
23.09814234910549
100
AcDbArc
 50
231.3654814678
 51
239.1342340338
  0
ARC
  5
1A9
330
1F
100
AcDbEntity
  8
0
  6
Continuous
 62
     7
370
    25
100
AcDbCircle
 10
-71.3599370538
 20
18.4713690044
 30
0.0
 40
0.5890486225480941
100
AcDbArc
 50
345.6
 51
59.1342340338
  0
LINE
  5
1AA
330
1F
100
AcDbEntity
  8
0
  6
Continuous
 62
     7
370
    25
100
AcDbLine
 10
-70.8612968344
 20
18.0448373757
 30
0.0
 11
-70.7893944769
 21
18.324878569
 31
0.0
  0
ARC
  5
1AB
330
1F
100
AcDbEntity
  8
0
  6
Continuous
 62
     7
370
    25
100
AcDbCircle
 10
-71.4318394113
 20
18.1913278112
 30
0.0
 40
0.5890486225480819
100
AcDbArc
 50
272.0657659662
 51
345.6
  0
ARC
  5
1AC
330
1F
100
AcDbEntity
  8
0
  6
Continuous
 62
     7
370
    25
100
AcDbCircle
 10
-70.5779965503
 20
-5.4804690893
 30
0.0
 40
23.09814234910549
100
AcDbArc
 50
92.0657659662
 51
99.8345185322
  0
ARC
  5
1AD
330
1F
100
AcDbEntity
  8
0
  6
Continuous
 62
     7
370
    25
100
AcDbCircle
 10
0.0
 20
0.0
 30
0.0
 40
76.49999999999999
100
AcDbArc
 50
166.9465762786
 51
167.8534237214
  0
ARC
  5
1AE
330
1F
100
AcDbEntity
  8
0
  6
Continuous
 62
     7
370
    25
100
AcDbCircle
 10
-61.5274103413
 20
35.0095260635
 30
0.0
 40
23.09814234910549
100
AcDbArc
 50
234.9654814678
 51
242.7342340338
  0
ARC
  5
1AF
330
1F
100
AcDbEntity
  8
0
  6
Continuous
 62
     7
370
    25
100
AcDbCircle
 10
-72.3789513749
 20
13.9541924559
 30
0.0
 40
0.5890486225480841
100
AcDbArc
 50
349.2
 51
62.7342340338
  0
LINE
  5
1B0
330
1F
100
AcDbEntity
  8
0
  6
Continuous
 62
     7
370
    25
100
AcDbLine
 10
-71.8545129655
 20
13.5598123683
 30
0.0
 11
-71.8003364229
 21
13.8438157507
 31
0.0
  0
ARC
  5
1B1
330
1F
100
AcDbEntity
  8
0
  6
Continuous
 62
     7
370
    25
100
AcDbCircle
 10
-72.4331279175
 20
13.6701890736
 30
0.0
 40
0.589048622548092
100
AcDbArc
 50
275.6657659662
 51
349.2
  0
ARC
  5
1B2
330
1F
100
AcDbEntity
  8
0
  6
Continuous
 62
     7
370
    25
100
AcDbCircle
 10
-70.0946054948
 20
-9.9012837061
 30
0.0
 40
23.09814234910549
100
AcDbArc
 50
95.6657659662
 51
103.4345185322
  0
ARC
  5
1B3
330
1F
100
AcDbEntity
  8
0
  6
Continuous
 62
     7
370
    25
100
AcDbCircle
 10
0.0
 20
0.0
 30
0.0
 40
76.49999999999999
100
AcDbArc
 50
170.5465762786
 51
171.4534237214
  0
ARC
  5
1B4
330
1F
100
AcDbEntity
  8
0
  6
Continuous
 62
     7
370
    25
100
AcDbCircle
 10
-63.6042663816
 20
31.0771047003
 30
0.0
 40
23.09814234910549
100
AcDbArc
 50
238.5654814678
 51
246.3342340338
  0
ARC
  5
1B5
330
1F
100
AcDbEntity
  8
0
  6
Continuous
 62
     7
370
    25
100
AcDbCircle
 10
-73.1123190416
 20
9.3819450848
 30
0.0
 40
0.5890486225480878
100
AcDbArc
 50
352.8
 51
66.3342340338
  0
LINE
  5
1B6
330
1F
100
AcDbEntity
  8
0
  6
Continuous
 62
     7
370
    25
100
AcDbLine
 10
-72.5641521611
 20
9.0212729765
 30
0.0
 11
-72.5279152434
 21
9.3081177162
 31
0.0
  0
ARC
  5
1B7
330
1F
100
AcDbEntity
  8
0
  6
Continuous
 62
     7
370
    25
100
AcDbCircle
 10
-73.1485559593
 20
9.095100345
 30
0.0
 40
0.589048622548084
100
AcDbArc
 50
279.2657659662
 51
352.8
  0
ARC
  5
1B8
330
1F
100
AcDbEntity
  8
0
  6
Continuous
 62
     7
370
    25
100
AcDbCircle
 10
-69.3345830545
 20
-14.2830224797
 30
0.0
 40
23.09814234910549
100
AcDbArc
 50
99.2657659662
 51
107.0345185322
  0
ARC
  5
1B9
330
1F
100
AcDbEntity
  8
0
  6
Continuous
 62
     7
370
    25
100
AcDbCircle
 10
0.0
 20
0.0
 30
0.0
 40
76.49999999999999
100
AcDbArc
 50
174.1465762786
 51
175.0534237214
  0
ARC
  5
1BA
330
1F
100
AcDbEntity
  8
0
  6
Continuous
 62
     7
370
    25
100
AcDbCircle
 10
-65.4301054405
 20
27.0220362027
 30
0.0
 40
23.09814234910549
100
AcDbArc
 50
242.1654814678
 51
249.9342340338
  0
ARC
  5
1BB
330
1F
100
AcDbEntity
  8
0
  6
Continuous
 62
     7
370
    25
100
AcDbCircle
 10
-73.557145787
 20
4.7726714627
 30
0.0
 40
0.5890486225480853
100
AcDbArc
 50
356.4
 51
69.9342340338
  0
LINE
  5
1BC
330
1F
100
AcDbEntity
  8
0
  6
Continuous
 62
     7
370
    25
100
AcDbLine
 10
-72.9874137995
 20
4.4471307415
 30
0.0
 11
-72.9692595173
 21
4.7356847936
 31
0.0
  0
ARC
  5
1BD
330
1F
100
AcDbEntity
  8
0
  6
Continuous
 62
     7
370
    25
100
AcDbCircle
 10
-73.5753000692
 20
4.4841174106
 30
0.0
 40
0.5890486225480824
100
AcDbArc
 50
282.8657659662
 51
356.4
  0
ARC
  5
1BE
330
1F
100
AcDbEntity
  8
0
  6
Continuous
 62
     7
370
    25
100
AcDbCircle
 10
-68.3009286909
 20
-18.6083926888
 30
0.0
 40
23.09814234910549
100
AcDbArc
 50
102.8657659662
 51
110.6345185322
  0
ARC
  5
1BF
330
1F
100
AcDbEntity
  8
0
  6
Continuous
 62
     7
370
    25
100
AcDbCircle
 10
0.0
 20
0.0
 30
0.0
 40
76.49999999999997
100
AcDbArc
 50
177.7465762786
 51
178.6534237214
  0
ARC
  5
1C0
330
1F
100
AcDbEntity
  8
0
  6
Continuous
 62
     7
370
    25
100
AcDbCircle
 10
-66.9977217654
 20
22.8603240734
 30
0.0
 40
23.09814234910549
100
AcDbArc
 50
245.7654814678
 51
253.5342340338
  0
ARC
  5
1C1
330
1F
100
AcDbEntity
  8
0
  6
Continuous
 62
     7
370
    25
100
AcDbCircle
 10
-73.711676083
 20
0.1445622867
 30
0.0
 40
0.5890486225480913
100
AcDbArc
 50
0.0
 51
73.5342340338
  0
LINE
  5
1C2
330
1F
100
AcDbEntity
  8
0
  6
Continuous
 62
     7
370
    25
100
AcDbLine
 10
-73.1226274605
 20
-0.1445622867
 30
0.0
 11
-73.1226274605
 21
0.1445622867
 31
0.0
  0
ARC
  5
1C3
330
1F
100
AcDbEntity
  8
0
  6
Continuous
 62
     7
370
    25
100
AcDbCircle
 10
-73.711676083
 20
-0.1445622867
 30
0.0
 40
0.5890486225480913
100
AcDbArc
 50
286.4657659662
 51
0.0
  0
ARC
  5
1C4
330
1F
100
AcDbEntity
  8
0
  6
Continuous
 62
     7
370
    25
100
AcDbCircle
 10
-66.9977217654
 20
-22.8603240734
 30
0.0
 40
23.09814234910549
100
AcDbArc
 50
106.4657659662
 51
114.2345185322
  0
ARC
  5
1C5
330
1F
100
AcDbEntity
  8
0
  6
Continuous
 62
     7
370
    25
100
AcDbCircle
 10
0.0
 20
0.0
 30
0.0
 40
76.49999999999997
100
AcDbArc
 50
181.3465762786
 51
182.2534237214
  0
ARC
  5
1C6
330
1F
100
AcDbEntity
  8
0
  6
Continuous
 62
     7
370
    25
100
AcDbCircle
 10
-68.3009286909
 20
18.6083926888
 30
0.0
 40
23.09814234910549
100
AcDbArc
 50
249.3654814678
 51
257.1342340338
  0
ARC
  5
1C7
330
1F
100
AcDbEntity
  8
0
  6
Continuous
 62
     7
370
    25
100
AcDbCircle
 10
-73.5753000692
 20
-4.4841174106
 30
0.0
 40
0.5890486225480858
100
AcDbArc
 50
3.6
 51
77.1342340338
  0
LINE
  5
1C8
330
1F
100
AcDbEntity
  8
0
  6
Continuous
 62
     7
370
    25
100
AcDbLine
 10
-72.9692595173
 20
-4.7356847936
 30
0.0
 11
-72.9874137995
 21
-4.4471307415
 31
0.0
  0
ARC
  5
1C9
330
1F
100
AcDbEntity
  8
0
  6
Continuous
 62
     7
370
    25
100
AcDbCircle
 10
-73.557145787
 20
-4.7726714627
 30
0.0
 40
0.5890486225480887
100
AcDbArc
 50
290.0657659662
 51
3.6
  0
ARC
  5
1CA
330
1F
100
AcDbEntity
  8
0
  6
Continuous
 62
     7
370
    25
100
AcDbCircle
 10
-65.4301054405
 20
-27.0220362027
 30
0.0
 40
23.09814234910548
100
AcDbArc
 50
110.0657659662
 51
117.8345185322
  0
ARC
  5
1CB
330
1F
100
AcDbEntity
  8
0
  6
Continuous
 62
     7
370
    25
100
AcDbCircle
 10
0.0
 20
0.0
 30
0.0
 40
76.49999999999997
100
AcDbArc
 50
184.9465762786
 51
185.8534237214
  0
ARC
  5
1CC
330
1F
100
AcDbEntity
  8
0
  6
Continuous
 62
     7
370
    25
100
AcDbCircle
 10
-69.3345830545
 20
14.2830224797
 30
0.0
 40
23.09814234910549
100
AcDbArc
 50
252.9654814678
 51
260.7342340338
  0
ARC
  5
1CD
330
1F
100
AcDbEntity
  8
0
  6
Continuous
 62
     7
370
    25
100
AcDbCircle
 10
-73.1485559593
 20
-9.095100345
 30
0.0
 40
0.589048622548088
100
AcDbArc
 50
7.2
 51
80.7342340338
  0
LINE
  5
1CE
330
1F
100
AcDbEntity
  8
0
  6
Continuous
 62
     7
370
    25
100
AcDbLine
 10
-72.5279152434
 20
-9.3081177162
 30
0.0
 11
-72.5641521611
 21
-9.0212729764
 31
0.0
  0
ARC
  5
1CF
330
1F
100
AcDbEntity
  8
0
  6
Continuous
 62
     7
370
    25
100
AcDbCircle
 10
-73.1123190416
 20
-9.3819450848
 30
0.0
 40
0.5890486225480879
100
AcDbArc
 50
293.6657659662
 51
7.2
  0
ARC
  5
1D0
330
1F
100
AcDbEntity
  8
0
  6
Continuous
 62
     7
370
    25
100
AcDbCircle
 10
-63.6042663816
 20
-31.0771047003
 30
0.0
 40
23.09814234910549
100
AcDbArc
 50
113.6657659662
 51
121.4345185322
  0
ARC
  5
1D1
330
1F
100
AcDbEntity
  8
0
  6
Continuous
 62
     7
370
    25
100
AcDbCircle
 10
0.0
 20
0.0
 30
0.0
 40
76.49999999999999
100
AcDbArc
 50
188.5465762786
 51
189.4534237214
  0
ARC
  5
1D2
330
1F
100
AcDbEntity
  8
0
  6
Continuous
 62
     7
370
    25
100
AcDbCircle
 10
-70.0946054948
 20
9.9012837061
 30
0.0
 40
23.09814234910549
100
AcDbArc
 50
256.5654814678
 51
264.3342340338
  0
ARC
  5
1D3
330
1F
100
AcDbEntity
  8
0
  6
Continuous
 62
     7
370
    25
100
AcDbCircle
 10
-72.4331279175
 20
-13.6701890736
 30
0.0
 40
0.5890486225481036
100
AcDbArc
 50
10.8
 51
84.3342340338
  0
LINE
  5
1D4
330
1F
100
AcDbEntity
  8
0
  6
Continuous
 62
     7
370
    25
100
AcDbLine
 10
-71.8003364229
 20
-13.8438157507
 30
0.0
 11
-71.8545129655
 21
-13.5598123683
 31
0.0
  0
ARC
  5
1D5
330
1F
100
AcDbEntity
  8
0
  6
Continuous
 62
     7
370
    25
100
AcDbCircle
 10
-72.3789513749
 20
-13.9541924559
 30
0.0
 40
0.5890486225480839
100
AcDbArc
 50
297.2657659662
 51
10.8
  0
ARC
  5
1D6
330
1F
100
AcDbEntity
  8
0
  6
Continuous
 62
     7
370
    25
100
AcDbCircle
 10
-61.5274103413
 20
-35.0095260635
 30
0.0
 40
23.09814234910549
100
AcDbArc
 50
117.2657659662
 51
125.0345185322
  0
ARC
  5
1D7
330
1F
100
AcDbEntity
  8
0
  6
Continuous
 62
     7
370
    25
100
AcDbCircle
 10
0.0
 20
0.0
 30
0.0
 40
76.49999999999997
100
AcDbArc
 50
192.1465762786
 51
193.0534237214
  0
ARC
  5
1D8
330
1F
100
AcDbEntity
  8
0
  6
Continuous
 62
     7
370
    25
100
AcDbCircle
 10
-70.5779965503
 20
5.4804690893
 30
0.0
 40
23.09814234910548
100
AcDbArc
 50
260.1654814678
 51
267.9342340338
  0
ARC
  5
1D9
330
1F
100
AcDbEntity
  8
0
  6
Continuous
 62
     7
370
    25
100
AcDbCircle
 10
-71.4318394113
 20
-18.1913278112
 30
0.0
 40
0.5890486225480923
100
AcDbArc
 50
14.4
 51
87.9342340338
  0
LINE
  5
1DA
330
1F
100
AcDbEntity
  8
0
  6
Continuous
 62
     7
370
    25
100
AcDbLine
 10
-70.7893944769
 20
-18.324878569
 30
0.0
 11
-70.8612968344
 21
-18.0448373757
 31
0.0
  0
ARC
  5
1DB
330
1F
100
AcDbEntity
  8
0
  6
Continuous
 62
     7
370
    25
100
AcDbCircle
 10
-71.3599370538
 20
-18.4713690044
 30
0.0
 40
0.5890486225480818
100
AcDbArc
 50
300.8657659662
 51
14.4
  0
ARC
  5
1DC
330
1F
100
AcDbEntity
  8
0
  6
Continuous
 62
     7
370
    25
100
AcDbCircle
 10
-59.2077337216
 20
-38.8037808216
 30
0.0
 40
23.09814234910549
100
AcDbArc
 50
120.8657659662
 51
128.6345185322
  0
ARC
  5
1DD
330
1F
100
AcDbEntity
  8
0
  6
Continuous
 62
     7
370
    25
100
AcDbCircle
 10
0.0
 20
0.0
 30
0.0
 40
76.49999999999999
100
AcDbArc
 50
195.7465762786
 51
196.6534237214
  0
ARC
  5
1DE
330
1F
100
AcDbEntity
  8
0
  6
Continuous
 62
     7
370
    25
100
AcDbCircle
 10
-70.7828484975
 20
1.0380255647
 30
0.0
 40
23.09814234910549
100
AcDbArc
 50
263.7654814678
 51
271.5342340338
  0
ARC
  5
1DF
330
1F
100
AcDbEntity
  8
0
  6
Continuous
 62
     7
370
    25
100
AcDbCircle
 10
-70.1486420691
 20
-22.6406736887
 30
0.0
 40
0.5890486225480778
100
AcDbArc
 50
18.0
 51
91.5342340338
  0
LINE
  5
1E0
330
1F
100
AcDbEntity
  8
0
  6
Continuous
 62
     7
370
    25
100
AcDbLine
 10
-69.4990791316
 20
-22.7336214634
 30
0.0
 11
-69.5884235382
 21
-22.4586476539
 31
0.0
  0
ARC
  5
1E1
330
1F
100
AcDbEntity
  8
0
  6
Continuous
 62
     7
370
    25
100
AcDbCircle
 10
-70.0592976624
 20
-22.9156474983
 30
0.0
 40
0.5890486225480872
100
AcDbArc
 50
304.4657659662
 51
18.0
  0
ARC
  5
1E2
330
1F
100
AcDbEntity
  8
0
  6
Continuous
 62
     7
370
    25
100
AcDbCircle
 10
-56.6543912263
 20
-42.4448947845
 30
0.0
 40
23.09814234910549
100
AcDbArc
 50
124.4657659662
 51
132.2345185322
  0
ARC
  5
1E3
330
1F
100
AcDbEntity
  8
0
  6
Continuous
 62
     7
370
    25
100
AcDbCircle
 10
0.0
 20
0.0
 30
0.0
 40
76.49999999999999
100
AcDbArc
 50
199.3465762786
 51
200.2534237214
  0
ARC
  5
1E4
330
1F
100
AcDbEntity
  8
0
  6
Continuous
 62
     7
370
    25
100
AcDbCircle
 10
-70.7083528793
 20
-3.4085145726
 30
0.0
 40
23.09814234910549
100
AcDbArc
 50
267.3654814678
 51
275.1342340338
  0
ARC
  5
1E5
330
1F
100
AcDbEntity
  8
0
  6
Continuous
 62
     7
370
    25
100
AcDbCircle
 10
-68.5886000845
 20
-27.0006671708
 30
0.0
 40
0.5890486225480848
100
AcDbArc
 50
21.6
 51
95.1342340338
  0
LINE
  5
1E6
330
1F
100
AcDbEntity
  8
0
  6
Continuous
 62
     7
370
    25
100
AcDbLine
 10
-67.934482672
 20
-27.0526451399
 30
0.0
 11
-68.0409165262
 21
-26.7838239101
 31
0.0
  0
ARC
  5
1E7
330
1F
100
AcDbEntity
  8
0
  6
Continuous
 62
     7
370
    25
100
AcDbCircle
 10
-68.4821662303
 20
-27.2694884006
 30
0.0
 40
0.5890486225480815
100
AcDbArc
 50
308.0657659662
 51
21.6
  0
ARC
  5
1E8
330
1F
100
AcDbEntity
  8
0
  6
Continuous
 62
     7
370
    25
100
AcDbCircle
 10
-53.8774597318
 20
-45.918498139
 30
0.0
 40
23.09814234910548
100
AcDbArc
 50
128.0657659662
 51
135.8345185322
  0
ARC
  5
1E9
330
1F
100
AcDbEntity
  8
0
  6
Continuous
 62
     7
370
    25
100
AcDbCircle
 10
0.0
 20
0.0
 30
0.0
 40
76.49999999999999
100
AcDbArc
 50
202.9465762786
 51
203.8534237214
  0
ARC
  5
1EA
330
1F
100
AcDbEntity
  8
0
  6
Continuous
 62
     7
370
    25
100
AcDbCircle
 10
-70.3548036959
 20
-7.84160286
 30
0.0
 40
23.09814234910549
100
AcDbArc
 50
270.9654814678
 51
278.7342340338
  0
ARC
  5
1EB
330
1F
100
AcDbEntity
  8
0
  6
Continuous
 62
     7
370
    25
100
AcDbCircle
 10
-66.7578702305
 20
-31.2541013549
 30
0.0
 40
0.5890486225480811
100
AcDbArc
 50
25.2
 51
98.7342340338
  0
LINE
  5
1EC
330
1F
100
AcDbEntity
  8
0
  6
Continuous
 62
     7
370
    25
100
AcDbLine
 10
-66.1017798456
 20
-31.2649043853
 30
0.0
 11
-66.2248831016
 21
-31.0032966497
 31
0.0
  0
ARC
  5
1ED
330
1F
100
AcDbEntity
  8
0
  6
Continuous
 62
     7
370
    25
100
AcDbCircle
 10
-66.6347669745
 20
-31.5157090905
 30
0.0
 40
0.5890486225480903
100
AcDbArc
 50
311.6657659662
 51
25.2
  0
ARC
  5
1EE
330
1F
100
AcDbEntity
  8
0
  6
Continuous
 62
     7
370
    25
100
AcDbCircle
 10
-50.887898518
 20
-49.2108821595
 30
0.0
 40
23.09814234910549
100
AcDbArc
 50
131.6657659662
 51
139.4345185322
  0
ARC
  5
1EF
330
1F
100
AcDbEntity
  8
0
  6
Continuous
 62
     7
370
    25
100
AcDbCircle
 10
0.0
 20
0.0
 30
0.0
 40
76.5
100
AcDbArc
 50
206.5465762786
 51
207.4534237214
  0
ARC
  5
1F0
330
1F
100
AcDbEntity
  8
0
  6
Continuous
 62
     7
370
    25
100
AcDbCircle
 10
-69.7235962443
 20
-12.2437439235
 30
0.0
 40
23.09814234910549
100
AcDbArc
 50
274.5654814678
 51
282.3342340338
  0
ARC
  5
1F1
330
1F
100
AcDbEntity
  8
0
  6
Continuous
 62
     7
370
    25
100
AcDbCircle
 10
-64.6636775615
 20
-35.3841898797
 30
0.0
 40
0.5890486225480966
100
AcDbArc
 50
28.8
 51
102.3342340338
  0
LINE
  5
1F2
330
1F
100
AcDbEntity
  8
0
  6
Continuous
 62
     7
370
    25
100
AcDbLine
 10
-64.0082034932
 20
-35.3537753366
 30
0.0
 11
-64.1474903187
 21
-35.1004135415
 31
0.0
  0
ARC
  5
1F3
330
1F
100
AcDbEntity
  8
0
  6
Continuous
 62
     7
370
    25
100
AcDbCircle
 10
-64.524390736
 20
-35.6375516747
 30
0.0
 40
0.5890486225480867
100
AcDbArc
 50
315.2657659662
 51
28.8
  0
ARC
  5
1F4
330
1F
100
AcDbEntity
  8
0
  6
Continuous
 62
     7
370
    25
100
AcDbCircle
 10
-47.6975060173
 20
-52.3090533104
 30
0.0
 40
23.09814234910549
100
AcDbArc
 50
135.2657659662
 51
143.0345185322
  0
ARC
  5
1F5
330
1F
100
AcDbEntity
  8
0
  6
Continuous
 62
     7
370
    25
100
AcDbCircle
 10
0.0
 20
0.0
 30
0.0
 40
76.5
100
AcDbArc
 50
210.1465762786
 51
211.0534237214
  0
ARC
  5
1F6
330
1F
100
AcDbEntity
  8
0
  6
Continuous
 62
     7
370
    25
100
AcDbCircle
 10
-68.817221612
 20
-16.5975645233
 30
0.0
 40
23.09814234910549
100
AcDbArc
 50
278.1654814678
 51
285.9342340338
  0
ARC
  5
1F7
330
1F
100
AcDbEntity
  8
0
  6
Continuous
 62
     7
370
    25
100
AcDbCircle
 10
-62.3142868992
 20
-39.3746331725
 30
0.0
 40
0.5890486225480844
100
AcDbArc
 50
32.4
 51
105.9342340338
  0
LINE
  5
1F8
330
1F
100
AcDbEntity
  8
0
  6
Continuous
 62
     7
370
    25
100
AcDbLine
 10
-61.6620160042
 20
-39.3031210882
 30
0.0
 11
-61.8169366977
 21
-39.0590051369
 31
0.0
  0
ARC
  5
1F9
330
1F
100
AcDbEntity
  8
0
  6
Continuous
 62
     7
370
    25
100
AcDbCircle
 10
-62.1593662057
 20
-39.6187491237
 30
0.0
 40
0.589048622548092
100
AcDbArc
 50
318.8657659662
 51
32.4
  0
ARC
  5
1FA
330
1F
100
AcDbEntity
  8
0
  6
Continuous
 62
     7
370
    25
100
AcDbCircle
 10
-44.3188732511
 20
-55.2007845256
 30
0.0
 40
23.09814234910548
100
AcDbArc
 50
138.8657659662
 51
146.6345185322
  0
ARC
  5
1FB
330
1F
100
AcDbEntity
  8
0
  6
Continuous
 62
     7
370
    25
100
AcDbCircle
 10
0.0
 20
0.0
 30
0.0
 40
76.49999999999997
100
AcDbArc
 50
213.7465762786
 51
214.6534237214
  0
ARC
  5
1FC
330
1F
100
AcDbEntity
  8
0
  6
Continuous
 62
     7
370
    25
100
AcDbCircle
 10
-67.6392568456
 20
-20.8858821186
 30
0.0
 40
23.09814234910549
100
AcDbArc
 50
281.7654814678
 51
289.5342340338
  0
ARC
  5
1FD
330
1F
100
AcDbEntity
  8
0
  6
Continuous
 62
     7
370
    25
100
AcDbCircle
 10
-59.7189702152
 20
-43.2096827767
 30
0.0
 40
0.5890486225480922
100
AcDbArc
 50
36.0
 51
109.5342340338
  0
LINE
  5
1FE
330
1F
100
AcDbEntity
  8
0
  6
Continuous
 62
     7
370
    25
100
AcDbLine
 10
-59.0724767087
 20
-43.0973553768
 30
0.0
 11
-59.242419869
 21
-42.8634486834
 31
0.0
  0
ARC
  5
1FF
330
1F
100
AcDbEntity
  8
0
  6
Continuous
 62
     7
370
    25
100
AcDbCircle
 10
-59.5490270549
 20
-43.44358947
 30
0.0
 40
0.5890486225480891
100
AcDbArc
 50
322.4657659662
 51
36.0
  0
ARC
  5
200
330
1F
100
AcDbEntity
  8
0
  6
Continuous
 62
     7
370
    25
100
AcDbCircle
 10
-40.7653341397
 20
-57.8746634632
 30
0.0
 40
23.09814234910549
100
AcDbArc
 50
142.4657659662
 51
150.2345185322
  0
ARC
  5
201
330
1F
100
AcDbEntity
  8
0
  6
Continuous
 62
     7
370
    25
100
AcDbCircle
 10
0.0
 20
0.0
 30
0.0
 40
76.49999999999997
100
AcDbArc
 50
217.3465762786
 51
218.2534237214
  0
ARC
  5
202
330
1F
100
AcDbEntity
  8
0
  6
Continuous
 62
     7
370
    25
100
AcDbCircle
 10
-66.1943508339
 20
-25.0917726791
 30
0.0
 40
23.09814234910549
100
AcDbArc
 50
285.3654814678
 51
293.1342340338
  0
ARC
  5
203
330
1F
100
AcDbEntity
  8
0
  6
Continuous
 62
     7
370
    25
100
AcDbCircle
 10
-56.8879700387
 20
-46.8742035036
 30
0.0
 40
0.5890486225480874
100
AcDbArc
 50
39.6
 51
113.1342340338
  0
LINE
  5
204
330
1F
100
AcDbEntity
  8
0
  6
Continuous
 62
     7
370
    25
100
AcDbLine
 10
-56.2498053353
 20
-46.7215040931
 30
0.0
 11
-56.4341002744
 21
-46.4987297804
 31
0.0
  0
ARC
  5
205
330
1F
100
AcDbEntity
  8
0
  6
Continuous
 62
     7
370
    25
100
AcDbCircle
 10
-56.7036750996
 20
-47.0969778162
 30
0.0
 40
0.5890486225480829
100
AcDbArc
 50
326.0657659662
 51
39.6
  0
ARC
  5
206
330
1F
100
AcDbEntity
  8
0
  6
Continuous
 62
     7
370
    25
100
AcDbCircle
 10
-37.0509128783
 20
-60.3201375445
 30
0.0
 40
23.09814234910549
100
AcDbArc
 50
146.0657659662
 51
153.8345185322
  0
ARC
  5
207
330
1F
100
AcDbEntity
  8
0
  6
Continuous
 62
     7
370
    25
100
AcDbCircle
 10
0.0
 20
0.0
 30
0.0
 40
76.49999999999999
100
AcDbArc
 50
220.9465762786
 51
221.8534237214
  0
ARC
  5
208
330
1F
100
AcDbEntity
  8
0
  6
Continuous
 62
     7
370
    25
100
AcDbCircle
 10
-64.4882059607
 20
-29.1986374762
 30
0.0
 40
23.09814234910549
100
AcDbArc
 50
288.9654814678
 51
296.7342340338
  0
ARC
  5
209
330
1F
100
AcDbEntity
  8
0
  6
Continuous
 62
     7
370
    25
100
AcDbCircle
 10
-53.8324590341
 20
-50.3537331641
 30
0.0
 40
0.5890486225480814
100
AcDbArc
 50
43.2
 51
116.7342340338
  0
LINE
  5
20A
330
1F
100
AcDbEntity
  8
0
  6
Continuous
 62
     7
370
    25
100
AcDbLine
 10
-53.2051416783
 20
-50.1612643777
 30
0.0
 11
-53.4030610683
 21
-49.9505016342
 31
0.0
  0
ARC
  5
20B
330
1F
100
AcDbEntity
  8
0
  6
Continuous
 62
     7
370
    25
100
AcDbCircle
 10
-53.6345396442
 20
-50.5644959075
 30
0.0
 40
0.5890486225480863
100
AcDbArc
 50
329.6657659662
 51
43.2
  0
ARC
  5
20C
330
1F
100
AcDbEntity
  8
0
  6
Continuous
 62
     7
370
    25
100
AcDbCircle
 10
-33.1902685907
 20
-62.5275556005
 30
0.0
 40
23.09814234910548
100
AcDbArc
 50
149.6657659662
 51
157.4345185322
  0
ARC
  5
20D
330
1F
100
AcDbEntity
  8
0
  6
Continuous
 62
     7
370
    25
100
AcDbCircle
 10
0.0
 20
0.0
 30
0.0
 40
76.49999999999999
100
AcDbArc
 50
224.5465762786
 51
225.4534237214
  0
ARC
  5
20E
330
1F
100
AcDbEntity
  8
0
  6
Continuous
 62
     7
370
    25
100
AcDbCircle
 10
-62.5275556005
 20
-33.1902685907
 30
0.0
 40
23.09814234910549
100
AcDbArc
 50
292.5654814678
 51
300.3342340338
  0
ARC
  5
20F
330
1F
100
AcDbEntity
  8
0
  6
Continuous
 62
     7
370
    25
100
AcDbCircle
 10
-50.5644959075
 20
-53.6345396442
 30
0.0
 40
0.5890486225480891
100
AcDbArc
 50
46.8
 51
120.3342340338
  0
LINE
  5
210
330
1F
100
AcDbEntity
  8
0
  6
Continuous
 62
     7
370
    25
100
AcDbLine
 10
-49.9505016342
 20
-53.4030610683
 30
0.0
 11
-50.1612643777
 21
-53.2051416783
 31
0.0
  0
ARC
  5
211
330
1F
100
AcDbEntity
  8
0
  6
Continuous
 62
     7
370
    25
100
AcDbCircle
 10
-50.3537331641
 20
-53.8324590341
 30
0.0
 40
0.5890486225480863
100
AcDbArc
 50
333.2657659662
 51
46.8
  0
ARC
  5
212
330
1F
100
AcDbEntity
  8
0
  6
Continuous
 62
     7
370
    25
100
AcDbCircle
 10
-29.1986374762
 20
-64.4882059607
 30
0.0
 40
23.09814234910549
100
AcDbArc
 50
153.2657659662
 51
161.0345185322
  0
ARC
  5
213
330
1F
100
AcDbEntity
  8
0
  6
Continuous
 62
     7
370
    25
100
AcDbCircle
 10
0.0
 20
0.0
 30
0.0
 40
76.49999999999999
100
AcDbArc
 50
228.1465762786
 51
229.0534237214
  0
ARC
  5
214
330
1F
100
AcDbEntity
  8
0
  6
Continuous
 62
     7
370
    25
100
AcDbCircle
 10
-60.3201375445
 20
-37.0509128783
 30
0.0
 40
23.09814234910548
100
AcDbArc
 50
296.1654814678
 51
303.9342340338
  0
ARC
  5
215
330
1F
100
AcDbEntity
  8
0
  6
Continuous
 62
     7
370
    25
100
AcDbCircle
 10
-47.0969778162
 20
-56.7036750996
 30
0.0
 40
0.5890486225480974
100
AcDbArc
 50
50.4
 51
123.9342340338
  0
LINE
  5
216
330
1F
100
AcDbEntity
  8
0
  6
Continuous
 62
     7
370
    25
100
AcDbLine
 10
-46.4987297804
 20
-56.4341002744
 30
0.0
 11
-46.7215040931
 21
-56.2498053353
 31
0.0
  0
ARC
  5
217
330
1F
100
AcDbEntity
  8
0
  6
Continuous
 62
     7
370
    25
100
AcDbCircle
 10
-46.8742035036
 20
-56.8879700387
 30
0.0
 40
0.5890486225480874
100
AcDbArc
 50
336.8657659662
 51
50.4
  0
ARC
  5
218
330
1F
100
AcDbEntity
  8
0
  6
Continuous
 62
     7
370
    25
100
AcDbCircle
 10
-25.0917726791
 20
-66.1943508339
 30
0.0
 40
23.09814234910549
100
AcDbArc
 50
156.8657659662
 51
164.6345185322
  0
ARC
  5
219
330
1F
100
AcDbEntity
  8
0
  6
Continuous
 62
     7
370
    25
100
AcDbCircle
 10
0.0
 20
0.0
 30
0.0
 40
76.49999999999999
100
AcDbArc
 50
231.7465762786
 51
232.6534237214
  0
ARC
  5
21A
330
1F
100
AcDbEntity
  8
0
  6
Continuous
 62
     7
370
    25
100
AcDbCircle
 10
-57.8746634632
 20
-40.7653341397
 30
0.0
 40
23.09814234910549
100
AcDbArc
 50
299.7654814678
 51
307.5342340338
  0
ARC
  5
21B
330
1F
100
AcDbEntity
  8
0
  6
Continuous
 62
     7
370
    25
100
AcDbCircle
 10
-43.44358947
 20
-59.5490270549
 30
0.0
 40
0.5890486225480922
100
AcDbArc
 50
54.0
 51
127.5342340338
  0
LINE
  5
21C
330
1F
100
AcDbEntity
  8
0
  6
Continuous
 62
     7
370
    25
100
AcDbLine
 10
-42.8634486834
 20
-59.242419869
 30
0.0
 11
-43.0973553768
 21
-59.0724767087
 31
0.0
  0
ARC
  5
21D
330
1F
100
AcDbEntity
  8
0
  6
Continuous
 62
     7
370
    25
100
AcDbCircle
 10
-43.2096827767
 20
-59.7189702152
 30
0.0
 40
0.5890486225480864
100
AcDbArc
 50
340.4657659662
 51
54.0
  0
ARC
  5
21E
330
1F
100
AcDbEntity
  8
0
  6
Continuous
 62
     7
370
    25
100
AcDbCircle
 10
-20.8858821186
 20
-67.6392568456
 30
0.0
 40
23.09814234910549
100
AcDbArc
 50
160.4657659662
 51
168.2345185322
  0
ARC
  5
21F
330
1F
100
AcDbEntity
  8
0
  6
Continuous
 62
     7
370
    25
100
AcDbCircle
 10
0.0
 20
0.0
 30
0.0
 40
76.5
100
AcDbArc
 50
235.3465762786
 51
236.2534237214
  0
ARC
  5
220
330
1F
100
AcDbEntity
  8
0
  6
Continuous
 62
     7
370
    25
100
AcDbCircle
 10
-55.2007845256
 20
-44.3188732511
 30
0.0
 40
23.09814234910549
100
AcDbArc
 50
303.3654814678
 51
311.1342340338
  0
ARC
  5
221
330
1F
100
AcDbEntity
  8
0
  6
Continuous
 62
     7
370
    25
100
AcDbCircle
 10
-39.6187491237
 20
-62.1593662057
 30
0.0
 40
0.5890486225480873
100
AcDbArc
 50
57.6
 51
131.1342340338
  0
LINE
  5
222
330
1F
100
AcDbEntity
  8
0
  6
Continuous
 62
     7
370
    25
100
AcDbLine
 10
-39.0590051369
 20
-61.8169366977
 30
0.0
 11
-39.3031210882
 21
-61.6620160042
 31
0.0
  0
ARC
  5
223
330
1F
100
AcDbEntity
  8
0
  6
Continuous
 62
     7
370
    25
100
AcDbCircle
 10
-39.3746331725
 20
-62.3142868992
 30
0.0
 40
0.589048622548083
100
AcDbArc
 50
344.0657659662
 51
57.6
  0
ARC
  5
224
330
1F
100
AcDbEntity
  8
0
  6
Continuous
 62
     7
370
    25
100
AcDbCircle
 10
-16.5975645233
 20
-68.817221612
 30
0.0
 40
23.09814234910549
100
AcDbArc
 50
164.0657659662
 51
171.8345185322
  0
ARC
  5
225
330
1F
100
AcDbEntity
  8
0
  6
Continuous
 62
     7
370
    25
100
AcDbCircle
 10
0.0
 20
0.0
 30
0.0
 40
76.49999999999999
100
AcDbArc
 50
238.9465762786
 51
239.8534237214
  0
ARC
  5
226
330
1F
100
AcDbEntity
  8
0
  6
Continuous
 62
     7
370
    25
100
AcDbCircle
 10
-52.3090533104
 20
-47.6975060173
 30
0.0
 40
23.09814234910549
100
AcDbArc
 50
306.9654814678
 51
314.7342340338
  0
ARC
  5
227
330
1F
100
AcDbEntity
  8
0
  6
Continuous
 62
     7
370
    25
100
AcDbCircle
 10
-35.6375516747
 20
-64.524390736
 30
0.0
 40
0.5890486225480877
100
AcDbArc
 50
61.2
 51
134.7342340338
  0
LINE
  5
228
330
1F
100
AcDbEntity
  8
0
  6
Continuous
 62
     7
370
    25
100
AcDbLine
 10
-35.1004135415
 20
-64.1474903187
 30
0.0
 11
-35.3537753366
 21
-64.0082034932
 31
0.0
  0
ARC
  5
229
330
1F
100
AcDbEntity
  8
0
  6
Continuous
 62
     7
370
    25
100
AcDbCircle
 10
-35.3841898797
 20
-64.6636775615
 30
0.0
 40
0.5890486225480877
100
AcDbArc
 50
347.6657659662
 51
61.2
  0
ARC
  5
22A
330
1F
100
AcDbEntity
  8
0
  6
Continuous
 62
     7
370
    25
100
AcDbCircle
 10
-12.2437439235
 20
-69.7235962443
 30
0.0
 40
23.09814234910549
100
AcDbArc
 50
167.6657659662
 51
175.4345185322
  0
ARC
  5
22B
330
1F
100
AcDbEntity
  8
0
  6
Continuous
 62
     7
370
    25
100
AcDbCircle
 10
0.0
 20
0.0
 30
0.0
 40
76.5
100
AcDbArc
 50
242.5465762786
 51
243.4534237214
  0
ARC
  5
22C
330
1F
100
AcDbEntity
  8
0
  6
Continuous
 62
     7
370
    25
100
AcDbCircle
 10
-49.2108821595
 20
-50.887898518
 30
0.0
 40
23.09814234910549
100
AcDbArc
 50
310.5654814678
 51
318.3342340338
  0
ARC
  5
22D
330
1F
100
AcDbEntity
  8
0
  6
Continuous
 62
     7
370
    25
100
AcDbCircle
 10
-31.5157090905
 20
-66.6347669745
 30
0.0
 40
0.5890486225480929
100
AcDbArc
 50
64.8
 51
138.3342340338
  0
LINE
  5
22E
330
1F
100
AcDbEntity
  8
0
  6
Continuous
 62
     7
370
    25
100
AcDbLine
 10
-31.0032966497
 20
-66.2248831016
 30
0.0
 11
-31.2649043853
 21
-66.1017798456
 31
0.0
  0
ARC
  5
22F
330
1F
100
AcDbEntity
  8
0
  6
Continuous
 62
     7
370
    25
100
AcDbCircle
 10
-31.2541013549
 20
-66.7578702305
 30
0.0
 40
0.5890486225480868
100
AcDbArc
 50
351.2657659662
 51
64.8
  0
ARC
  5
230
330
1F
100
AcDbEntity
  8
0
  6
Continuous
 62
     7
370
    25
100
AcDbCircle
 10
-7.84160286
 20
-70.3548036959
 30
0.0
 40
23.09814234910549
100
AcDbArc
 50
171.2657659662
 51
179.0345185322
  0
ARC
  5
231
330
1F
100
AcDbEntity
  8
0
  6
Continuous
 62
     7
370
    25
100
AcDbCircle
 10
0.0
 20
0.0
 30
0.0
 40
76.49999999999997
100
AcDbArc
 50
246.1465762786
 51
247.0534237214
  0
ARC
  5
232
330
1F
100
AcDbEntity
  8
0
  6
Continuous
 62
     7
370
    25
100
AcDbCircle
 10
-45.918498139
 20
-53.8774597318
 30
0.0
 40
23.09814234910548
100
AcDbArc
 50
314.1654814678
 51
321.9342340338
  0
ARC
  5
233
330
1F
100
AcDbEntity
  8
0
  6
Continuous
 62
     7
370
    25
100
AcDbCircle
 10
-27.2694884006
 20
-68.4821662303
 30
0.0
 40
0.5890486225480931
100
AcDbArc
 50
68.4
 51
141.9342340338
  0
LINE
  5
234
330
1F
100
AcDbEntity
  8
0
  6
Continuous
 62
     7
370
    25
100
AcDbLine
 10
-26.7838239101
 20
-68.0409165262
 30
0.0
 11
-27.0526451399
 21
-67.934482672
 31
0.0
  0
ARC
  5
235
330
1F
100
AcDbEntity
  8
0
  6
Continuous
 62
     7
370
    25
100
AcDbCircle
 10
-27.0006671708
 20
-68.5886000845
 30
0.0
 40
0.5890486225480911
100
AcDbArc
 50
354.8657659662
 51
68.4
  0
ARC
  5
236
330
1F
100
AcDbEntity
  8
0
  6
Continuous
 62
     7
370
    25
100
AcDbCircle
 10
-3.4085145726
 20
-70.7083528793
 30
0.0
 40
23.09814234910549
100
AcDbArc
 50
174.8657659662
 51
182.6345185322
  0
ARC
  5
237
330
1F
100
AcDbEntity
  8
0
  6
Continuous
 62
     7
370
    25
100
AcDbCircle
 10
0.0
 20
0.0
 30
0.0
 40
76.49999999999999
100
AcDbArc
 50
249.7465762786
 51
250.6534237214
  0
ARC
  5
238
330
1F
100
AcDbEntity
  8
0
  6
Continuous
 62
     7
370
    25
100
AcDbCircle
 10
-42.4448947845
 20
-56.6543912263
 30
0.0
 40
23.09814234910549
100
AcDbArc
 50
317.7654814678
 51
325.5342340338
  0
ARC
  5
239
330
1F
100
AcDbEntity
  8
0
  6
Continuous
 62
     7
370
    25
100
AcDbCircle
 10
-22.9156474983
 20
-70.0592976624
 30
0.0
 40
0.589048622548081
100
AcDbArc
 50
72.0
 51
145.5342340338
  0
LINE
  5
23A
330
1F
100
AcDbEntity
  8
0
  6
Continuous
 62
     7
370
    25
100
AcDbLine
 10
-22.4586476539
 20
-69.5884235382
 30
0.0
 11
-22.7336214634
 21
-69.4990791316
 31
0.0
  0
ARC
  5
23B
330
1F
100
AcDbEntity
  8
0
  6
Continuous
 62
     7
370
    25
100
AcDbCircle
 10
-22.6406736887
 20
-70.1486420691
 30
0.0
 40
0.5890486225480894
100
AcDbArc
 50
358.4657659662
 51
72.0
  0
ARC
  5
23C
330
1F
100
AcDbEntity
  8
0
  6
Continuous
 62
     7
370
    25
100
AcDbCircle
 10
1.0380255647
 20
-70.7828484975
 30
0.0
 40
23.0981423491055
100
AcDbArc
 50
178.4657659662
 51
186.2345185322
  0
ARC
  5
23D
330
1F
100
AcDbEntity
  8
0
  6
Continuous
 62
     7
370
    25
100
AcDbCircle
 10
0.0
 20
0.0
 30
0.0
 40
76.5
100
AcDbArc
 50
253.3465762786
 51
254.2534237214
  0
ARC
  5
23E
330
1F
100
AcDbEntity
  8
0
  6
Continuous
 62
     7
370
    25
100
AcDbCircle
 10
-38.8037808216
 20
-59.2077337216
 30
0.0
 40
23.09814234910549
100
AcDbArc
 50
321.3654814678
 51
329.1342340338
  0
ARC
  5
23F
330
1F
100
AcDbEntity
  8
0
  6
Continuous
 62
     7
370
    25
100
AcDbCircle
 10
-18.4713690044
 20
-71.3599370538
 30
0.0
 40
0.589048622548083
100
AcDbArc
 50
75.6
 51
149.1342340338
  0
LINE
  5
240
330
1F
100
AcDbEntity
  8
0
  6
Continuous
 62
     7
370
    25
100
AcDbLine
 10
-18.0448373757
 20
-70.8612968344
 30
0.0
 11
-18.324878569
 21
-70.7893944769
 31
0.0
  0
ARC
  5
241
330
1F
100
AcDbEntity
  8
0
  6
Continuous
 62
     7
370
    25
100
AcDbCircle
 10
-18.1913278112
 20
-71.4318394113
 30
0.0
 40
0.5890486225480854
100
AcDbArc
 50
2.0657659662
 51
75.6
  0
ARC
  5
242
330
1F
100
AcDbEntity
  8
0
  6
Continuous
 62
     7
370
    25
100
AcDbCircle
 10
5.4804690893
 20
-70.5779965503
 30
0.0
 40
23.0981423491055
100
AcDbArc
 50
182.0657659662
 51
189.8345185322
  0
ARC
  5
243
330
1F
100
AcDbEntity
  8
0
  6
Continuous
 62
     7
370
    25
100
AcDbCircle
 10
0.0
 20
0.0
 30
0.0
 40
76.5
100
AcDbArc
 50
256.9465762786
 51
257.8534237214
  0
ARC
  5
244
330
1F
100
AcDbEntity
  8
0
  6
Continuous
 62
     7
370
    25
100
AcDbCircle
 10
-35.0095260635
 20
-61.5274103413
 30
0.0
 40
23.09814234910548
100
AcDbArc
 50
324.9654814678
 51
332.7342340338
  0
ARC
  5
245
330
1F
100
AcDbEntity
  8
0
  6
Continuous
 62
     7
370
    25
100
AcDbCircle
 10
-13.9541924559
 20
-72.3789513749
 30
0.0
 40
0.5890486225480905
100
AcDbArc
 50
79.2
 51
152.7342340338
  0
LINE
  5
246
330
1F
100
AcDbEntity
  8
0
  6
Continuous
 62
     7
370
    25
100
AcDbLine
 10
-13.5598123683
 20
-71.8545129655
 30
0.0
 11
-13.8438157507
 21
-71.8003364229
 31
0.0
  0
ARC
  5
247
330
1F
100
AcDbEntity
  8
0
  6
Continuous
 62
     7
370
    25
100
AcDbCircle
 10
-13.6701890736
 20
-72.4331279175
 30
0.0
 40
0.5890486225480916
100
AcDbArc
 50
5.6657659662
 51
79.2
  0
ARC
  5
248
330
1F
100
AcDbEntity
  8
0
  6
Continuous
 62
     7
370
    25
100
AcDbCircle
 10
9.9012837061
 20
-70.0946054948
 30
0.0
 40
23.09814234910548
100
AcDbArc
 50
185.6657659662
 51
193.4345185322
  0
ARC
  5
249
330
1F
100
AcDbEntity
  8
0
  6
Continuous
 62
     7
370
    25
100
AcDbCircle
 10
0.0
 20
0.0
 30
0.0
 40
76.49999999999999
100
AcDbArc
 50
260.5465762786
 51
261.4534237214
  0
ARC
  5
24A
330
1F
100
AcDbEntity
  8
0
  6
Continuous
 62
     7
370
    25
100
AcDbCircle
 10
-31.0771047003
 20
-63.6042663816
 30
0.0
 40
23.09814234910549
100
AcDbArc
 50
328.5654814678
 51
336.3342340338
  0
ARC
  5
24B
330
1F
100
AcDbEntity
  8
0
  6
Continuous
 62
     7
370
    25
100
AcDbCircle
 10
-9.3819450848
 20
-73.1123190416
 30
0.0
 40
0.5890486225480875
100
AcDbArc
 50
82.8
 51
156.3342340338
  0
LINE
  5
24C
330
1F
100
AcDbEntity
  8
0
  6
Continuous
 62
     7
370
    25
100
AcDbLine
 10
-9.0212729764
 20
-72.5641521611
 30
0.0
 11
-9.3081177162
 21
-72.5279152434
 31
0.0
  0
ARC
  5
24D
330
1F
100
AcDbEntity
  8
0
  6
Continuous
 62
     7
370
    25
100
AcDbCircle
 10
-9.095100345
 20
-73.1485559593
 30
0.0
 40
0.5890486225480892
100
AcDbArc
 50
9.2657659662
 51
82.8
  0
ARC
  5
24E
330
1F
100
AcDbEntity
  8
0
  6
Continuous
 62
     7
370
    25
100
AcDbCircle
 10
14.2830224797
 20
-69.3345830545
 30
0.0
 40
23.0981423491055
100
AcDbArc
 50
189.2657659662
 51
197.0345185322
  0
ARC
  5
24F
330
1F
100
AcDbEntity
  8
0
  6
Continuous
 62
     7
370
    25
100
AcDbCircle
 10
0.0
 20
0.0
 30
0.0
 40
76.5
100
AcDbArc
 50
264.1465762786
 51
265.0534237214
  0
ARC
  5
250
330
1F
100
AcDbEntity
  8
0
  6
Continuous
 62
     7
370
    25
100
AcDbCircle
 10
-27.0220362027
 20
-65.4301054405
 30
0.0
 40
23.09814234910548
100
AcDbArc
 50
332.1654814678
 51
339.9342340338
  0
ARC
  5
251
330
1F
100
AcDbEntity
  8
0
  6
Continuous
 62
     7
370
    25
100
AcDbCircle
 10
-4.7726714627
 20
-73.557145787
 30
0.0
 40
0.589048622548092
100
AcDbArc
 50
86.4
 51
159.9342340338
  0
LINE
  5
252
330
1F
100
AcDbEntity
  8
0
  6
Continuous
 62
     7
370
    25
100
AcDbLine
 10
-4.4471307415
 20
-72.9874137995
 30
0.0
 11
-4.7356847936
 21
-72.9692595173
 31
0.0
  0
ARC
  5
253
330
1F
100
AcDbEntity
  8
0
  6
Continuous
 62
     7
370
    25
100
AcDbCircle
 10
-4.4841174106
 20
-73.5753000692
 30
0.0
 40
0.5890486225480894
100
AcDbArc
 50
12.8657659662
 51
86.4
  0
ARC
  5
254
330
1F
100
AcDbEntity
  8
0
  6
Continuous
 62
     7
370
    25
100
AcDbCircle
 10
18.6083926888
 20
-68.3009286909
 30
0.0
 40
23.09814234910549
100
AcDbArc
 50
192.8657659662
 51
200.6345185322
  0
ARC
  5
255
330
1F
100
AcDbEntity
  8
0
  6
Continuous
 62
     7
370
    25
100
AcDbCircle
 10
0.0
 20
0.0
 30
0.0
 40
76.49999999999997
100
AcDbArc
 50
267.7465762786
 51
268.6534237214
  0
ARC
  5
256
330
1F
100
AcDbEntity
  8
0
  6
Continuous
 62
     7
370
    25
100
AcDbCircle
 10
-22.8603240734
 20
-66.9977217654
 30
0.0
 40
23.09814234910549
100
AcDbArc
 50
335.7654814678
 51
343.5342340338
  0
ARC
  5
257
330
1F
100
AcDbEntity
  8
0
  6
Continuous
 62
     7
370
    25
100
AcDbCircle
 10
-0.1445622867
 20
-73.711676083
 30
0.0
 40
0.5890486225480913
100
AcDbArc
 50
90.0
 51
163.5342340338
  0
LINE
  5
258
330
1F
100
AcDbEntity
  8
0
  6
Continuous
 62
     7
370
    25
100
AcDbLine
 10
0.1445622867
 20
-73.1226274605
 30
0.0
 11
-0.1445622867
 21
-73.1226274605
 31
0.0
  0
ARC
  5
259
330
1F
100
AcDbEntity
  8
0
  6
Continuous
 62
     7
370
    25
100
AcDbCircle
 10
0.1445622867
 20
-73.711676083
 30
0.0
 40
0.5890486225480913
100
AcDbArc
 50
16.4657659662
 51
90.0
  0
ARC
  5
25A
330
1F
100
AcDbEntity
  8
0
  6
Continuous
 62
     7
370
    25
100
AcDbCircle
 10
22.8603240734
 20
-66.9977217654
 30
0.0
 40
23.09814234910548
100
AcDbArc
 50
196.4657659662
 51
204.2345185322
  0
ARC
  5
25B
330
1F
100
AcDbEntity
  8
0
  6
Continuous
 62
     7
370
    25
100
AcDbCircle
 10
0.0
 20
0.0
 30
0.0
 40
76.49999999999997
100
AcDbArc
 50
271.3465762786
 51
272.2534237214
  0
ARC
  5
25C
330
1F
100
AcDbEntity
  8
0
  6
Continuous
 62
     7
370
    25
100
AcDbCircle
 10
-18.6083926888
 20
-68.3009286909
 30
0.0
 40
23.09814234910549
100
AcDbArc
 50
339.3654814678
 51
347.1342340338
  0
ARC
  5
25D
330
1F
100
AcDbEntity
  8
0
  6
Continuous
 62
     7
370
    25
100
AcDbCircle
 10
4.4841174106
 20
-73.5753000692
 30
0.0
 40
0.5890486225480832
100
AcDbArc
 50
93.6
 51
167.1342340338
  0
LINE
  5
25E
330
1F
100
AcDbEntity
  8
0
  6
Continuous
 62
     7
370
    25
100
AcDbLine
 10
4.7356847936
 20
-72.9692595173
 30
0.0
 11
4.4471307415
 21
-72.9874137995
 31
0.0
  0
ARC
  5
25F
330
1F
100
AcDbEntity
  8
0
  6
Continuous
 62
     7
370
    25
100
AcDbCircle
 10
4.7726714627
 20
-73.557145787
 30
0.0
 40
0.5890486225480985
100
AcDbArc
 50
20.0657659662
 51
93.6
  0
ARC
  5
260
330
1F
100
AcDbEntity
  8
0
  6
Continuous
 62
     7
370
    25
100
AcDbCircle
 10
27.0220362027
 20
-65.4301054405
 30
0.0
 40
23.09814234910548
100
AcDbArc
 50
200.0657659662
 51
207.8345185322
  0
ARC
  5
261
330
1F
100
AcDbEntity
  8
0
  6
Continuous
 62
     7
370
    25
100
AcDbCircle
 10
0.0
 20
0.0
 30
0.0
 40
76.5
100
AcDbArc
 50
274.9465762786
 51
275.8534237214
  0
ARC
  5
262
330
1F
100
AcDbEntity
  8
0
  6
Continuous
 62
     7
370
    25
100
AcDbCircle
 10
-14.2830224797
 20
-69.3345830545
 30
0.0
 40
23.09814234910549
100
AcDbArc
 50
342.9654814678
 51
350.7342340338
  0
ARC
  5
263
330
1F
100
AcDbEntity
  8
0
  6
Continuous
 62
     7
370
    25
100
AcDbCircle
 10
9.095100345
 20
-73.1485559593
 30
0.0
 40
0.589048622548084
100
AcDbArc
 50
97.2
 51
170.7342340338
  0
LINE
  5
264
330
1F
100
AcDbEntity
  8
0
  6
Continuous
 62
     7
370
    25
100
AcDbLine
 10
9.3081177162
 20
-72.5279152434
 30
0.0
 11
9.0212729764
 21
-72.5641521611
 31
0.0
  0
ARC
  5
265
330
1F
100
AcDbEntity
  8
0
  6
Continuous
 62
     7
370
    25
100
AcDbCircle
 10
9.3819450848
 20
-73.1123190416
 30
0.0
 40
0.5890486225480872
100
AcDbArc
 50
23.6657659662
 51
97.2
  0
ARC
  5
266
330
1F
100
AcDbEntity
  8
0
  6
Continuous
 62
     7
370
    25
100
AcDbCircle
 10
31.0771047003
 20
-63.6042663816
 30
0.0
 40
23.09814234910549
100
AcDbArc
 50
203.6657659662
 51
211.4345185322
  0
ARC
  5
267
330
1F
100
AcDbEntity
  8
0
  6
Continuous
 62
     7
370
    25
100
AcDbCircle
 10
0.0
 20
0.0
 30
0.0
 40
76.5
100
AcDbArc
 50
278.5465762786
 51
279.4534237214
  0
ARC
  5
268
330
1F
100
AcDbEntity
  8
0
  6
Continuous
 62
     7
370
    25
100
AcDbCircle
 10
-9.9012837061
 20
-70.0946054948
 30
0.0
 40
23.09814234910549
100
AcDbArc
 50
346.5654814678
 51
354.3342340338
  0
ARC
  5
269
330
1F
100
AcDbEntity
  8
0
  6
Continuous
 62
     7
370
    25
100
AcDbCircle
 10
13.6701890736
 20
-72.4331279175
 30
0.0
 40
0.5890486225480882
100
AcDbArc
 50
100.8
 51
174.3342340338
  0
LINE
  5
26A
330
1F
100
AcDbEntity
  8
0
  6
Continuous
 62
     7
370
    25
100
AcDbLine
 10
13.8438157507
 20
-71.8003364229
 30
0.0
 11
13.5598123683
 21
-71.8545129655
 31
0.0
  0
ARC
  5
26B
330
1F
100
AcDbEntity
  8
0
  6
Continuous
 62
     7
370
    25
100
AcDbCircle
 10
13.9541924559
 20
-72.3789513749
 30
0.0
 40
0.5890486225480913
100
AcDbArc
 50
27.2657659662
 51
100.8
  0
ARC
  5
26C
330
1F
100
AcDbEntity
  8
0
  6
Continuous
 62
     7
370
    25
100
AcDbCircle
 10
35.0095260635
 20
-61.5274103413
 30
0.0
 40
23.0981423491055
100
AcDbArc
 50
207.2657659662
 51
215.0345185322
  0
ARC
  5
26D
330
1F
100
AcDbEntity
  8
0
  6
Continuous
 62
     7
370
    25
100
AcDbCircle
 10
0.0
 20
0.0
 30
0.0
 40
76.49999999999999
100
AcDbArc
 50
282.1465762786
 51
283.0534237214
  0
ARC
  5
26E
330
1F
100
AcDbEntity
  8
0
  6
Continuous
 62
     7
370
    25
100
AcDbCircle
 10
-5.4804690893
 20
-70.5779965503
 30
0.0
 40
23.09814234910548
100
AcDbArc
 50
350.1654814678
 51
357.9342340338
  0
ARC
  5
26F
330
1F
100
AcDbEntity
  8
0
  6
Continuous
 62
     7
370
    25
100
AcDbCircle
 10
18.1913278112
 20
-71.4318394113
 30
0.0
 40
0.5890486225480894
100
AcDbArc
 50
104.4
 51
177.9342340338
  0
LINE
  5
270
330
1F
100
AcDbEntity
  8
0
  6
Continuous
 62
     7
370
    25
100
AcDbLine
 10
18.324878569
 20
-70.7893944769
 30
0.0
 11
18.0448373757
 21
-70.8612968344
 31
0.0
  0
ARC
  5
271
330
1F
100
AcDbEntity
  8
0
  6
Continuous
 62
     7
370
    25
100
AcDbCircle
 10
18.4713690044
 20
-71.3599370538
 30
0.0
 40
0.5890486225480922
100
AcDbArc
 50
30.8657659662
 51
104.4
  0
ARC
  5
272
330
1F
100
AcDbEntity
  8
0
  6
Continuous
 62
     7
370
    25
100
AcDbCircle
 10
38.8037808216
 20
-59.2077337216
 30
0.0
 40
23.09814234910549
100
AcDbArc
 50
210.8657659662
 51
218.6345185322
  0
ARC
  5
273
330
1F
100
AcDbEntity
  8
0
  6
Continuous
 62
     7
370
    25
100
AcDbCircle
 10
0.0
 20
0.0
 30
0.0
 40
76.5
100
AcDbArc
 50
285.7465762786
 51
286.6534237214
  0
ARC
  5
274
330
1F
100
AcDbEntity
  8
0
  6
Continuous
 62
     7
370
    25
100
AcDbCircle
 10
-1.0380255647
 20
-70.7828484975
 30
0.0
 40
23.09814234910549
100
AcDbArc
 50
353.7654814678
 51
1.5342340338
  0
ARC
  5
275
330
1F
100
AcDbEntity
  8
0
  6
Continuous
 62
     7
370
    25
100
AcDbCircle
 10
22.6406736887
 20
-70.1486420691
 30
0.0
 40
0.5890486225480905
100
AcDbArc
 50
108.0
 51
181.5342340338
  0
LINE
  5
276
330
1F
100
AcDbEntity
  8
0
  6
Continuous
 62
     7
370
    25
100
AcDbLine
 10
22.7336214634
 20
-69.4990791316
 30
0.0
 11
22.4586476539
 21
-69.5884235382
 31
0.0
  0
ARC
  5
277
330
1F
100
AcDbEntity
  8
0
  6
Continuous
 62
     7
370
    25
100
AcDbCircle
 10
22.9156474983
 20
-70.0592976624
 30
0.0
 40
0.5890486225480905
100
AcDbArc
 50
34.4657659662
 51
108.0
  0
ARC
  5
278
330
1F
100
AcDbEntity
  8
0
  6
Continuous
 62
     7
370
    25
100
AcDbCircle
 10
42.4448947845
 20
-56.6543912263
 30
0.0
 40
23.0981423491055
100
AcDbArc
 50
214.4657659662
 51
222.2345185322
  0
ARC
  5
279
330
1F
100
AcDbEntity
  8
0
  6
Continuous
 62
     7
370
    25
100
AcDbCircle
 10
0.0
 20
0.0
 30
0.0
 40
76.5
100
AcDbArc
 50
289.3465762786
 51
290.2534237214
  0
ARC
  5
27A
330
1F
100
AcDbEntity
  8
0
  6
Continuous
 62
     7
370
    25
100
AcDbCircle
 10
3.4085145726
 20
-70.7083528793
 30
0.0
 40
23.09814234910549
100
AcDbArc
 50
357.3654814678
 51
5.1342340338
  0
ARC
  5
27B
330
1F
100
AcDbEntity
  8
0
  6
Continuous
 62
     7
370
    25
100
AcDbCircle
 10
27.0006671708
 20
-68.5886000845
 30
0.0
 40
0.5890486225480859
100
AcDbArc
 50
111.6
 51
185.1342340338
  0
LINE
  5
27C
330
1F
100
AcDbEntity
  8
0
  6
Continuous
 62
     7
370
    25
100
AcDbLine
 10
27.0526451399
 20
-67.934482672
 30
0.0
 11
26.7838239101
 21
-68.0409165262
 31
0.0
  0
ARC
  5
27D
330
1F
100
AcDbEntity
  8
0
  6
Continuous
 62
     7
370
    25
100
AcDbCircle
 10
27.2694884006
 20
-68.4821662303
 30
0.0
 40
0.5890486225480848
100
AcDbArc
 50
38.0657659662
 51
111.6
  0
ARC
  5
27E
330
1F
100
AcDbEntity
  8
0
  6
Continuous
 62
     7
370
    25
100
AcDbCircle
 10
45.918498139
 20
-53.8774597318
 30
0.0
 40
23.09814234910549
100
AcDbArc
 50
218.0657659662
 51
225.8345185322
  0
ARC
  5
27F
330
1F
100
AcDbEntity
  8
0
  6
Continuous
 62
     7
370
    25
100
AcDbCircle
 10
0.0
 20
0.0
 30
0.0
 40
76.49999999999997
100
AcDbArc
 50
292.9465762786
 51
293.8534237214
  0
ARC
  5
280
330
1F
100
AcDbEntity
  8
0
  6
Continuous
 62
     7
370
    25
100
AcDbCircle
 10
7.84160286
 20
-70.3548036959
 30
0.0
 40
23.09814234910548
100
AcDbArc
 50
0.9654814678
 51
8.7342340338
  0
ARC
  5
281
330
1F
100
AcDbEntity
  8
0
  6
Continuous
 62
     7
370
    25
100
AcDbCircle
 10
31.2541013549
 20
-66.7578702305
 30
0.0
 40
0.5890486225480832
100
AcDbArc
 50
115.2
 51
188.7342340338
  0
LINE
  5
282
330
1F
100
AcDbEntity
  8
0
  6
Continuous
 62
     7
370
    25
100
AcDbLine
 10
31.2649043853
 20
-66.1017798456
 30
0.0
 11
31.0032966497
 21
-66.2248831016
 31
0.0
  0
ARC
  5
283
330
1F
100
AcDbEntity
  8
0
  6
Continuous
 62
     7
370
    25
100
AcDbCircle
 10
31.5157090905
 20
-66.6347669745
 30
0.0
 40
0.5890486225480877
100
AcDbArc
 50
41.6657659662
 51
115.2
  0
ARC
  5
284
330
1F
100
AcDbEntity
  8
0
  6
Continuous
 62
     7
370
    25
100
AcDbCircle
 10
49.2108821595
 20
-50.887898518
 30
0.0
 40
23.09814234910549
100
AcDbArc
 50
221.6657659662
 51
229.4345185322
  0
ARC
  5
285
330
1F
100
AcDbEntity
  8
0
  6
Continuous
 62
     7
370
    25
100
AcDbCircle
 10
0.0
 20
0.0
 30
0.0
 40
76.49999999999997
100
AcDbArc
 50
296.5465762786
 51
297.4534237214
  0
ARC
  5
286
330
1F
100
AcDbEntity
  8
0
  6
Continuous
 62
     7
370
    25
100
AcDbCircle
 10
12.2437439235
 20
-69.7235962443
 30
0.0
 40
23.09814234910549
100
AcDbArc
 50
4.5654814678
 51
12.3342340338
  0
ARC
  5
287
330
1F
100
AcDbEntity
  8
0
  6
Continuous
 62
     7
370
    25
100
AcDbCircle
 10
35.3841898797
 20
-64.6636775615
 30
0.0
 40
0.5890486225480842
100
AcDbArc
 50
118.8
 51
192.3342340338
  0
LINE
  5
288
330
1F
100
AcDbEntity
  8
0
  6
Continuous
 62
     7
370
    25
100
AcDbLine
 10
35.3537753366
 20
-64.0082034932
 30
0.0
 11
35.1004135415
 21
-64.1474903187
 31
0.0
  0
ARC
  5
289
330
1F
100
AcDbEntity
  8
0
  6
Continuous
 62
     7
370
    25
100
AcDbCircle
 10
35.6375516747
 20
-64.524390736
 30
0.0
 40
0.5890486225480966
100
AcDbArc
 50
45.2657659662
 51
118.8
  0
ARC
  5
28A
330
1F
100
AcDbEntity
  8
0
  6
Continuous
 62
     7
370
    25
100
AcDbCircle
 10
52.3090533104
 20
-47.6975060173
 30
0.0
 40
23.0981423491055
100
AcDbArc
 50
225.2657659662
 51
233.0345185322
  0
ARC
  5
28B
330
1F
100
AcDbEntity
  8
0
  6
Continuous
 62
     7
370
    25
100
AcDbCircle
 10
0.0
 20
0.0
 30
0.0
 40
76.49999999999999
100
AcDbArc
 50
300.1465762786
 51
301.0534237214
  0
ARC
  5
28C
330
1F
100
AcDbEntity
  8
0
  6
Continuous
 62
     7
370
    25
100
AcDbCircle
 10
16.5975645233
 20
-68.817221612
 30
0.0
 40
23.09814234910549
100
AcDbArc
 50
8.1654814678
 51
15.9342340338
  0
ARC
  5
28D
330
1F
100
AcDbEntity
  8
0
  6
Continuous
 62
     7
370
    25
100
AcDbCircle
 10
39.3746331725
 20
-62.3142868992
 30
0.0
 40
0.5890486225480913
100
AcDbArc
 50
122.4
 51
195.9342340338
  0
LINE
  5
28E
330
1F
100
AcDbEntity
  8
0
  6
Continuous
 62
     7
370
    25
100
AcDbLine
 10
39.3031210882
 20
-61.6620160042
 30
0.0
 11
39.0590051369
 21
-61.8169366977
 31
0.0
  0
ARC
  5
28F
330
1F
100
AcDbEntity
  8
0
  6
Continuous
 62
     7
370
    25
100
AcDbCircle
 10
39.6187491237
 20
-62.1593662057
 30
0.0
 40
0.589048622548092
100
AcDbArc
 50
48.8657659662
 51
122.4
  0
ARC
  5
290
330
1F
100
AcDbEntity
  8
0
  6
Continuous
 62
     7
370
    25
100
AcDbCircle
 10
55.2007845256
 20
-44.3188732511
 30
0.0
 40
23.0981423491055
100
AcDbArc
 50
228.8657659662
 51
236.6345185322
  0
ARC
  5
291
330
1F
100
AcDbEntity
  8
0
  6
Continuous
 62
     7
370
    25
100
AcDbCircle
 10
0.0
 20
0.0
 30
0.0
 40
76.5
100
AcDbArc
 50
303.7465762786
 51
304.6534237214
  0
ARC
  5
292
330
1F
100
AcDbEntity
  8
0
  6
Continuous
 62
     7
370
    25
100
AcDbCircle
 10
20.8858821186
 20
-67.6392568456
 30
0.0
 40
23.09814234910548
100
AcDbArc
 50
11.7654814678
 51
19.5342340338
  0
ARC
  5
293
330
1F
100
AcDbEntity
  8
0
  6
Continuous
 62
     7
370
    25
100
AcDbCircle
 10
43.2096827767
 20
-59.7189702152
 30
0.0
 40
0.5890486225480862
100
AcDbArc
 50
126.0
 51
199.5342340338
  0
LINE
  5
294
330
1F
100
AcDbEntity
  8
0
  6
Continuous
 62
     7
370
    25
100
AcDbLine
 10
43.0973553768
 20
-59.0724767087
 30
0.0
 11
42.8634486834
 21
-59.242419869
 31
0.0
  0
ARC
  5
295
330
1F
100
AcDbEntity
  8
0
  6
Continuous
 62
     7
370
    25
100
AcDbCircle
 10
43.44358947
 20
-59.5490270549
 30
0.0
 40
0.5890486225480922
100
AcDbArc
 50
52.4657659662
 51
126.0
  0
ARC
  5
296
330
1F
100
AcDbEntity
  8
0
  6
Continuous
 62
     7
370
    25
100
AcDbCircle
 10
57.8746634632
 20
-40.7653341397
 30
0.0
 40
23.09814234910549
100
AcDbArc
 50
232.4657659662
 51
240.2345185322
  0
ARC
  5
297
330
1F
100
AcDbEntity
  8
0
  6
Continuous
 62
     7
370
    25
100
AcDbCircle
 10
0.0
 20
0.0
 30
0.0
 40
76.49999999999997
100
AcDbArc
 50
307.3465762786
 51
308.2534237214
  0
ARC
  5
298
330
1F
100
AcDbEntity
  8
0
  6
Continuous
 62
     7
370
    25
100
AcDbCircle
 10
25.0917726791
 20
-66.1943508339
 30
0.0
 40
23.09814234910549
100
AcDbArc
 50
15.3654814678
 51
23.1342340338
  0
ARC
  5
299
330
1F
100
AcDbEntity
  8
0
  6
Continuous
 62
     7
370
    25
100
AcDbCircle
 10
46.8742035036
 20
-56.8879700387
 30
0.0
 40
0.5890486225480864
100
AcDbArc
 50
129.6
 51
203.1342340338
  0
LINE
  5
29A
330
1F
100
AcDbEntity
  8
0
  6
Continuous
 62
     7
370
    25
100
AcDbLine
 10
46.7215040931
 20
-56.2498053353
 30
0.0
 11
46.4987297804
 21
-56.4341002744
 31
0.0
  0
ARC
  5
29B
330
1F
100
AcDbEntity
  8
0
  6
Continuous
 62
     7
370
    25
100
AcDbCircle
 10
47.0969778162
 20
-56.7036750996
 30
0.0
 40
0.589048622548094
100
AcDbArc
 50
56.0657659662
 51
129.6
  0
ARC
  5
29C
330
1F
100
AcDbEntity
  8
0
  6
Continuous
 62
     7
370
    25
100
AcDbCircle
 10
60.3201375445
 20
-37.0509128783
 30
0.0
 40
23.09814234910549
100
AcDbArc
 50
236.0657659662
 51
243.8345185322
  0
ARC
  5
29D
330
1F
100
AcDbEntity
  8
0
  6
Continuous
 62
     7
370
    25
100
AcDbCircle
 10
0.0
 20
0.0
 30
0.0
 40
76.49999999999999
100
AcDbArc
 50
310.9465762786
 51
311.8534237214
  0
ARC
  5
29E
330
1F
100
AcDbEntity
  8
0
  6
Continuous
 62
     7
370
    25
100
AcDbCircle
 10
29.1986374762
 20
-64.4882059607
 30
0.0
 40
23.09814234910549
100
AcDbArc
 50
18.9654814678
 51
26.7342340338
  0
ARC
  5
29F
330
1F
100
AcDbEntity
  8
0
  6
Continuous
 62
     7
370
    25
100
AcDbCircle
 10
50.3537331641
 20
-53.8324590341
 30
0.0
 40
0.5890486225480867
100
AcDbArc
 50
133.2
 51
206.7342340338
  0
LINE
  5
2A0
330
1F
100
AcDbEntity
  8
0
  6
Continuous
 62
     7
370
    25
100
AcDbLine
 10
50.1612643777
 20
-53.2051416783
 30
0.0
 11
49.9505016342
 21
-53.4030610683
 31
0.0
  0
ARC
  5
2A1
330
1F
100
AcDbEntity
  8
0
  6
Continuous
 62
     7
370
    25
100
AcDbCircle
 10
50.5644959075
 20
-53.6345396442
 30
0.0
 40
0.589048622548083
100
AcDbArc
 50
59.6657659662
 51
133.2
  0
ARC
  5
2A2
330
1F
100
AcDbEntity
  8
0
  6
Continuous
 62
     7
370
    25
100
AcDbCircle
 10
62.5275556005
 20
-33.1902685907
 30
0.0
 40
23.09814234910549
100
AcDbArc
 50
239.6657659662
 51
247.4345185322
  0
ARC
  5
2A3
330
1F
100
AcDbEntity
  8
0
  6
Continuous
 62
     7
370
    25
100
AcDbCircle
 10
0.0
 20
0.0
 30
0.0
 40
76.49999999999999
100
AcDbArc
 50
314.5465762786
 51
315.4534237214
  0
ARC
  5
2A4
330
1F
100
AcDbEntity
  8
0
  6
Continuous
 62
     7
370
    25
100
AcDbCircle
 10
33.1902685907
 20
-62.5275556005
 30
0.0
 40
23.09814234910548
100
AcDbArc
 50
22.5654814678
 51
30.3342340338
  0
ARC
  5
2A5
330
1F
100
AcDbEntity
  8
0
  6
Continuous
 62
     7
370
    25
100
AcDbCircle
 10
53.6345396442
 20
-50.5644959075
 30
0.0
 40
0.5890486225480926
100
AcDbArc
 50
136.8
 51
210.3342340338
  0
LINE
  5
2A6
330
1F
100
AcDbEntity
  8
0
  6
Continuous
 62
     7
370
    25
100
AcDbLine
 10
53.4030610683
 20
-49.9505016342
 30
0.0
 11
53.2051416783
 21
-50.1612643777
 31
0.0
  0
ARC
  5
2A7
330
1F
100
AcDbEntity
  8
0
  6
Continuous
 62
     7
370
    25
100
AcDbCircle
 10
53.8324590341
 20
-50.3537331641
 30
0.0
 40
0.5890486225480863
100
AcDbArc
 50
63.2657659662
 51
136.8
  0
ARC
  5
2A8
330
1F
100
AcDbEntity
  8
0
  6
Continuous
 62
     7
370
    25
100
AcDbCircle
 10
64.4882059607
 20
-29.1986374762
 30
0.0
 40
23.09814234910548
100
AcDbArc
 50
243.2657659662
 51
251.0345185322
  0
ARC
  5
2A9
330
1F
100
AcDbEntity
  8
0
  6
Continuous
 62
     7
370
    25
100
AcDbCircle
 10
0.0
 20
0.0
 30
0.0
 40
76.49999999999997
100
AcDbArc
 50
318.1465762786
 51
319.0534237214
  0
ARC
  5
2AA
330
1F
100
AcDbEntity
  8
0
  6
Continuous
 62
     7
370
    25
100
AcDbCircle
 10
37.0509128783
 20
-60.3201375445
 30
0.0
 40
23.09814234910549
100
AcDbArc
 50
26.1654814678
 51
33.9342340338
  0
ARC
  5
2AB
330
1F
100
AcDbEntity
  8
0
  6
Continuous
 62
     7
370
    25
100
AcDbCircle
 10
56.7036750996
 20
-47.0969778162
 30
0.0
 40
0.5890486225480829
100
AcDbArc
 50
140.4
 51
213.9342340338
  0
LINE
  5
2AC
330
1F
100
AcDbEntity
  8
0
  6
Continuous
 62
     7
370
    25
100
AcDbLine
 10
56.4341002744
 20
-46.4987297804
 30
0.0
 11
56.2498053353
 21
-46.7215040931
 31
0.0
  0
ARC
  5
2AD
330
1F
100
AcDbEntity
  8
0
  6
Continuous
 62
     7
370
    25
100
AcDbCircle
 10
56.8879700387
 20
-46.8742035036
 30
0.0
 40
0.5890486225480865
100
AcDbArc
 50
66.8657659662
 51
140.4
  0
ARC
  5
2AE
330
1F
100
AcDbEntity
  8
0
  6
Continuous
 62
     7
370
    25
100
AcDbCircle
 10
66.1943508339
 20
-25.0917726791
 30
0.0
 40
23.09814234910548
100
AcDbArc
 50
246.8657659662
 51
254.6345185322
  0
ARC
  5
2AF
330
1F
100
AcDbEntity
  8
0
  6
Continuous
 62
     7
370
    25
100
AcDbCircle
 10
0.0
 20
0.0
 30
0.0
 40
76.49999999999999
100
AcDbArc
 50
321.7465762786
 51
322.6534237214
  0
ARC
  5
2B0
330
1F
100
AcDbEntity
  8
0
  6
Continuous
 62
     7
370
    25
100
AcDbCircle
 10
40.7653341397
 20
-57.8746634632
 30
0.0
 40
23.09814234910549
100
AcDbArc
 50
29.7654814678
 51
37.5342340338
  0
ARC
  5
2B1
330
1F
100
AcDbEntity
  8
0
  6
Continuous
 62
     7
370
    25
100
AcDbCircle
 10
59.5490270549
 20
-43.44358947
 30
0.0
 40
0.5890486225480864
100
AcDbArc
 50
144.0
 51
217.5342340338
  0
LINE
  5
2B2
330
1F
100
AcDbEntity
  8
0
  6
Continuous
 62
     7
370
    25
100
AcDbLine
 10
59.242419869
 20
-42.8634486834
 30
0.0
 11
59.0724767087
 21
-43.0973553768
 31
0.0
  0
ARC
  5
2B3
330
1F
100
AcDbEntity
  8
0
  6
Continuous
 62
     7
370
    25
100
AcDbCircle
 10
59.7189702152
 20
-43.2096827767
 30
0.0
 40
0.5890486225480864
100
AcDbArc
 50
70.4657659662
 51
144.0
  0
ARC
  5
2B4
330
1F
100
AcDbEntity
  8
0
  6
Continuous
 62
     7
370
    25
100
AcDbCircle
 10
67.6392568456
 20
-20.8858821186
 30
0.0
 40
23.09814234910549
100
AcDbArc
 50
250.4657659662
 51
258.2345185322
  0
ARC
  5
2B5
330
1F
100
AcDbEntity
  8
0
  6
Continuous
 62
     7
370
    25
100
AcDbCircle
 10
0.0
 20
0.0
 30
0.0
 40
76.5
100
AcDbArc
 50
325.3465762786
 51
326.2534237214
  0
ARC
  5
2B6
330
1F
100
AcDbEntity
  8
0
  6
Continuous
 62
     7
370
    25
100
AcDbCircle
 10
44.3188732511
 20
-55.2007845256
 30
0.0
 40
23.09814234910549
100
AcDbArc
 50
33.3654814678
 51
41.1342340338
  0
ARC
  5
2B7
330
1F
100
AcDbEntity
  8
0
  6
Continuous
 62
     7
370
    25
100
AcDbCircle
 10
62.1593662057
 20
-39.6187491237
 30
0.0
 40
0.589048622548089
100
AcDbArc
 50
147.6
 51
221.1342340338
  0
LINE
  5
2B8
330
1F
100
AcDbEntity
  8
0
  6
Continuous
 62
     7
370
    25
100
AcDbLine
 10
61.8169366977
 20
-39.0590051369
 30
0.0
 11
61.6620160042
 21
-39.3031210882
 31
0.0
  0
ARC
  5
2B9
330
1F
100
AcDbEntity
  8
0
  6
Continuous
 62
     7
370
    25
100
AcDbCircle
 10
62.3142868992
 20
-39.3746331725
 30
0.0
 40
0.5890486225480844
100
AcDbArc
 50
74.0657659662
 51
147.6
  0
ARC
  5
2BA
330
1F
100
AcDbEntity
  8
0
  6
Continuous
 62
     7
370
    25
100
AcDbCircle
 10
68.817221612
 20
-16.5975645233
 30
0.0
 40
23.09814234910549
100
AcDbArc
 50
254.0657659662
 51
261.8345185322
  0
ARC
  5
2BB
330
1F
100
AcDbEntity
  8
0
  6
Continuous
 62
     7
370
    25
100
AcDbCircle
 10
0.0
 20
0.0
 30
0.0
 40
76.49999999999997
100
AcDbArc
 50
328.9465762786
 51
329.8534237214
  0
ARC
  5
2BC
330
1F
100
AcDbEntity
  8
0
  6
Continuous
 62
     7
370
    25
100
AcDbCircle
 10
47.6975060173
 20
-52.3090533104
 30
0.0
 40
23.09814234910549
100
AcDbArc
 50
36.9654814678
 51
44.7342340338
  0
ARC
  5
2BD
330
1F
100
AcDbEntity
  8
0
  6
Continuous
 62
     7
370
    25
100
AcDbCircle
 10
64.524390736
 20
-35.6375516747
 30
0.0
 40
0.5890486225480867
100
AcDbArc
 50
151.2
 51
224.7342340338
  0
LINE
  5
2BE
330
1F
100
AcDbEntity
  8
0
  6
Continuous
 62
     7
370
    25
100
AcDbLine
 10
64.1474903187
 20
-35.1004135415
 30
0.0
 11
64.0082034932
 21
-35.3537753366
 31
0.0
  0
ARC
  5
2BF
330
1F
100
AcDbEntity
  8
0
  6
Continuous
 62
     7
370
    25
100
AcDbCircle
 10
64.6636775615
 20
-35.3841898797
 30
0.0
 40
0.589048622548092
100
AcDbArc
 50
77.6657659662
 51
151.2
  0
ARC
  5
2C0
330
1F
100
AcDbEntity
  8
0
  6
Continuous
 62
     7
370
    25
100
AcDbCircle
 10
69.7235962443
 20
-12.2437439235
 30
0.0
 40
23.09814234910548
100
AcDbArc
 50
257.6657659662
 51
265.4345185322
  0
ARC
  5
2C1
330
1F
100
AcDbEntity
  8
0
  6
Continuous
 62
     7
370
    25
100
AcDbCircle
 10
0.0
 20
0.0
 30
0.0
 40
76.49999999999999
100
AcDbArc
 50
332.5465762786
 51
333.4534237214
  0
ARC
  5
2C2
330
1F
100
AcDbEntity
  8
0
  6
Continuous
 62
     7
370
    25
100
AcDbCircle
 10
50.887898518
 20
-49.2108821595
 30
0.0
 40
23.09814234910549
100
AcDbArc
 50
40.5654814678
 51
48.3342340338
  0
ARC
  5
2C3
330
1F
100
AcDbEntity
  8
0
  6
Continuous
 62
     7
370
    25
100
AcDbCircle
 10
66.6347669745
 20
-31.5157090905
 30
0.0
 40
0.589048622548081
100
AcDbArc
 50
154.8
 51
228.3342340338
  0
LINE
  5
2C4
330
1F
100
AcDbEntity
  8
0
  6
Continuous
 62
     7
370
    25
100
AcDbLine
 10
66.2248831016
 20
-31.0032966497
 30
0.0
 11
66.1017798456
 21
-31.2649043853
 31
0.0
  0
ARC
  5
2C5
330
1F
100
AcDbEntity
  8
0
  6
Continuous
 62
     7
370
    25
100
AcDbCircle
 10
66.7578702305
 20
-31.2541013549
 30
0.0
 40
0.589048622548081
100
AcDbArc
 50
81.2657659662
 51
154.8
  0
ARC
  5
2C6
330
1F
100
AcDbEntity
  8
0
  6
Continuous
 62
     7
370
    25
100
AcDbCircle
 10
70.3548036959
 20
-7.84160286
 30
0.0
 40
23.09814234910549
100
AcDbArc
 50
261.2657659662
 51
269.0345185322
  0
ARC
  5
2C7
330
1F
100
AcDbEntity
  8
0
  6
Continuous
 62
     7
370
    25
100
AcDbCircle
 10
0.0
 20
0.0
 30
0.0
 40
76.49999999999999
100
AcDbArc
 50
336.1465762786
 51
337.0534237214
  0
ARC
  5
2C8
330
1F
100
AcDbEntity
  8
0
  6
Continuous
 62
     7
370
    25
100
AcDbCircle
 10
53.8774597318
 20
-45.918498139
 30
0.0
 40
23.09814234910549
100
AcDbArc
 50
44.1654814678
 51
51.9342340338
  0
ARC
  5
2C9
330
1F
100
AcDbEntity
  8
0
  6
Continuous
 62
     7
370
    25
100
AcDbCircle
 10
68.4821662303
 20
-27.2694884006
 30
0.0
 40
0.5890486225480872
100
AcDbArc
 50
158.4
 51
231.9342340338
  0
LINE
  5
2CA
330
1F
100
AcDbEntity
  8
0
  6
Continuous
 62
     7
370
    25
100
AcDbLine
 10
68.0409165262
 20
-26.7838239101
 30
0.0
 11
67.934482672
 21
-27.0526451399
 31
0.0
  0
ARC
  5
2CB
330
1F
100
AcDbEntity
  8
0
  6
Continuous
 62
     7
370
    25
100
AcDbCircle
 10
68.5886000845
 20
-27.0006671708
 30
0.0
 40
0.5890486225480824
100
AcDbArc
 50
84.8657659662
 51
158.4
  0
ARC
  5
2CC
330
1F
100
AcDbEntity
  8
0
  6
Continuous
 62
     7
370
    25
100
AcDbCircle
 10
70.7083528793
 20
-3.4085145726
 30
0.0
 40
23.09814234910549
100
AcDbArc
 50
264.8657659662
 51
272.6345185322
  0
ARC
  5
2CD
330
1F
100
AcDbEntity
  8
0
  6
Continuous
 62
     7
370
    25
100
AcDbCircle
 10
0.0
 20
0.0
 30
0.0
 40
76.5
100
AcDbArc
 50
339.7465762786
 51
340.6534237214
  0
ARC
  5
2CE
330
1F
100
AcDbEntity
  8
0
  6
Continuous
 62
     7
370
    25
100
AcDbCircle
 10
56.6543912263
 20
-42.4448947845
 30
0.0
 40
23.09814234910549
100
AcDbArc
 50
47.7654814678
 51
55.5342340338
  0
ARC
  5
2CF
330
1F
100
AcDbEntity
  8
0
  6
Continuous
 62
     7
370
    25
100
AcDbCircle
 10
70.0592976624
 20
-22.9156474983
 30
0.0
 40
0.5890486225480905
100
AcDbArc
 50
162.0
 51
235.5342340338
  0
LINE
  5
2D0
330
1F
100
AcDbEntity
  8
0
  6
Continuous
 62
     7
370
    25
100
AcDbLine
 10
69.5884235382
 20
-22.4586476539
 30
0.0
 11
69.4990791316
 21
-22.7336214634
 31
0.0
  0
ARC
  5
2D1
330
1F
100
AcDbEntity
  8
0
  6
Continuous
 62
     7
370
    25
100
AcDbCircle
 10
70.1486420691
 20
-22.6406736887
 30
0.0
 40
0.5890486225481052
100
AcDbArc
 50
88.4657659662
 51
162.0
  0
ARC
  5
2D2
330
1F
100
AcDbEntity
  8
0
  6
Continuous
 62
     7
370
    25
100
AcDbCircle
 10
70.7828484975
 20
1.0380255647
 30
0.0
 40
23.09814234910549
100
AcDbArc
 50
268.4657659662
 51
276.2345185322
  0
ARC
  5
2D3
330
1F
100
AcDbEntity
  8
0
  6
Continuous
 62
     7
370
    25
100
AcDbCircle
 10
0.0
 20
0.0
 30
0.0
 40
76.5
100
AcDbArc
 50
343.3465762786
 51
344.2534237214
  0
ARC
  5
2D4
330
1F
100
AcDbEntity
  8
0
  6
Continuous
 62
     7
370
    25
100
AcDbCircle
 10
59.2077337216
 20
-38.8037808216
 30
0.0
 40
23.09814234910549
100
AcDbArc
 50
51.3654814678
 51
59.1342340338
  0
ARC
  5
2D5
330
1F
100
AcDbEntity
  8
0
  6
Continuous
 62
     7
370
    25
100
AcDbCircle
 10
71.3599370538
 20
-18.4713690044
 30
0.0
 40
0.5890486225480861
100
AcDbArc
 50
165.6
 51
239.1342340338
  0
LINE
  5
2D6
330
1F
100
AcDbEntity
  8
0
  6
Continuous
 62
     7
370
    25
100
AcDbLine
 10
70.8612968344
 20
-18.0448373757
 30
0.0
 11
70.7893944769
 21
-18.324878569
 31
0.0
  0
ARC
  5
2D7
330
1F
100
AcDbEntity
  8
0
  6
Continuous
 62
     7
370
    25
100
AcDbCircle
 10
71.4318394113
 20
-18.1913278112
 30
0.0
 40
0.5890486225480854
100
AcDbArc
 50
92.0657659662
 51
165.6
  0
ARC
  5
2D8
330
1F
100
AcDbEntity
  8
0
  6
Continuous
 62
     7
370
    25
100
AcDbCircle
 10
70.5779965503
 20
5.4804690893
 30
0.0
 40
23.09814234910548
100
AcDbArc
 50
272.0657659662
 51
279.8345185322
  0
ARC
  5
2D9
330
1F
100
AcDbEntity
  8
0
  6
Continuous
 62
     7
370
    25
100
AcDbCircle
 10
0.0
 20
0.0
 30
0.0
 40
76.49999999999999
100
AcDbArc
 50
346.9465762786
 51
347.8534237214
  0
ARC
  5
2DA
330
1F
100
AcDbEntity
  8
0
  6
Continuous
 62
     7
370
    25
100
AcDbCircle
 10
61.5274103413
 20
-35.0095260635
 30
0.0
 40
23.09814234910549
100
AcDbArc
 50
54.9654814678
 51
62.7342340338
  0
ARC
  5
2DB
330
1F
100
AcDbEntity
  8
0
  6
Continuous
 62
     7
370
    25
100
AcDbCircle
 10
72.3789513749
 20
-13.9541924559
 30
0.0
 40
0.5890486225480913
100
AcDbArc
 50
169.2
 51
242.7342340338
  0
LINE
  5
2DC
330
1F
100
AcDbEntity
  8
0
  6
Continuous
 62
     7
370
    25
100
AcDbLine
 10
71.8545129655
 20
-13.5598123683
 30
0.0
 11
71.8003364229
 21
-13.8438157507
 31
0.0
  0
ARC
  5
2DD
330
1F
100
AcDbEntity
  8
0
  6
Continuous
 62
     7
370
    25
100
AcDbCircle
 10
72.4331279175
 20
-13.6701890736
 30
0.0
 40
0.5890486225480913
100
AcDbArc
 50
95.6657659662
 51
169.2
  0
ARC
  5
2DE
330
1F
100
AcDbEntity
  8
0
  6
Continuous
 62
     7
370
    25
100
AcDbCircle
 10
70.0946054948
 20
9.9012837061
 30
0.0
 40
23.09814234910549
100
AcDbArc
 50
275.6657659662
 51
283.4345185322
  0
ARC
  5
2DF
330
1F
100
AcDbEntity
  8
0
  6
Continuous
 62
     7
370
    25
100
AcDbCircle
 10
0.0
 20
0.0
 30
0.0
 40
76.5
100
AcDbArc
 50
350.5465762786
 51
351.4534237214
  0
ARC
  5
2E0
330
1F
100
AcDbEntity
  8
0
  6
Continuous
 62
     7
370
    25
100
AcDbCircle
 10
63.6042663816
 20
-31.0771047003
 30
0.0
 40
23.09814234910549
100
AcDbArc
 50
58.5654814678
 51
66.3342340338
  0
ARC
  5
2E1
330
1F
100
AcDbEntity
  8
0
  6
Continuous
 62
     7
370
    25
100
AcDbCircle
 10
73.1123190416
 20
-9.3819450848
 30
0.0
 40
0.5890486225480873
100
AcDbArc
 50
172.8
 51
246.3342340338
  0
LINE
  5
2E2
330
1F
100
AcDbEntity
  8
0
  6
Continuous
 62
     7
370
    25
100
AcDbLine
 10
72.5641521611
 20
-9.0212729764
 30
0.0
 11
72.5279152434
 21
-9.3081177162
 31
0.0
  0
ARC
  5
2E3
330
1F
100
AcDbEntity
  8
0
  6
Continuous
 62
     7
370
    25
100
AcDbCircle
 10
73.1485559593
 20
-9.095100345
 30
0.0
 40
0.5890486225481018
100
AcDbArc
 50
99.2657659662
 51
172.8
  0
MTEXT
  5
2E5
330
1F
100
AcDbEntity
  8
0
  6
Continuous
 62
     7
100
AcDbMText
 10
-76.4788734733
 20
-77.498439865
 30
0.0
 40
4.83362
 41
0.0
 71
     1
 72
     1
  1
SOLIDWORKS Educational Product.
  7
SLDTEXTSTYLE0
 73
     1
 44
1.0
  0
MTEXT
  5
2E6
330
1F
100
AcDbEntity
  8
0
  6
Continuous
 62
     7
100
AcDbMText
 10
-76.4788734733
 20
-84.748869865
 30
0.0
 40
4.83362
 41
0.0
 71
     1
 72
     1
  1
For Instructional Use Only.
  7
SLDTEXTSTYLE0
 73
     1
 44
1.0
  0
ENDSEC
  0
SECTION
  2
OBJECTS
  0
DICTIONARY
  5
C
330
0
100
AcDbDictionary
281
     1
  3
ACAD_GROUP
350
D
  3
ACAD_LAYOUT
350
1A
  3
ACAD_MLINESTYLE
350
17
  3
ACAD_PLOTSETTINGS
350
19
  3
ACAD_PLOTSTYLENAME
350
E
  3
ACAD_SCALELIST
350
47
  3
DWGPROPS
350
2E7
  0
DICTIONARY
  5
D
102
{ACAD_REACTORS
330
C
102
}
330
C
100
AcDbDictionary
281
     1
  0
DICTIONARY
  5
1A
102
{ACAD_REACTORS
330
C
102
}
330
C
100
AcDbDictionary
281
     1
  3
Layout1
350
1E
  3
Layout2
350
26
  3
Model
350
22
  0
DICTIONARY
  5
17
102
{ACAD_REACTORS
330
C
102
}
330
C
100
AcDbDictionary
281
     1
  3
Standard
350
18
  0
DICTIONARY
  5
19
102
{ACAD_REACTORS
330
C
102
}
330
C
100
AcDbDictionary
281
     1
  0
ACDBDICTIONARYWDFLT
  5
E
102
{ACAD_REACTORS
330
C
102
}
330
C
100
AcDbDictionary
281
     1
  3
Normal
350
F
100
AcDbDictionaryWithDefault
340
F
  0
DICTIONARY
  5
47
102
{ACAD_REACTORS
330
C
102
}
330
C
100
AcDbDictionary
281
     1
  3
A0
350
48
  3
A1
350
49
  3
A2
350
4A
  3
A3
350
4B
  3
A4
350
4C
  3
A5
350
4D
  3
A6
350
4E
  3
A7
350
4F
  3
A8
350
50
  3
A9
350
51
  3
B0
350
52
  3
B1
350
53
  3
B2
350
54
  3
B3
350
55
  3
B4
350
56
  3
B5
350
57
  3
B6
350
58
  0
XRECORD
  5
2E7
102
{ACAD_REACTORS
330
C
102
}
330
C
100
AcDbXrecord
280
     1
  1
DWGPROPS COOKIE
  2

  3

  4

  6

  7

  8
kevin
  9

300
=
301
=
302
=
303
=
304
=
305
=
306
=
307
=
308
=
309
=
 40
0.0
 41
2460502.234961378
 42
2460502.234986169
  1

 90
        0
  0
LAYOUT
  5
1E
102
{ACAD_REACTORS
330
1A
102
}
330
1A
100
AcDbPlotSettings
  1

  2
none_device
  4

  6

 40
0.0
 41
0.0
 42
0.0
 43
0.0
 44
0.0
 45
0.0
 46
0.0
 47
0.0
 48
0.0
 49
0.0
140
0.0
141
0.0
142
1.0
143
1.0
 70
   688
 72
     1
 73
     0
 74
     5
  7

 75
    16
147
1.0
148
0.0
149
0.0
100
AcDbLayout
  1
Layout1
 70
     1
 71
     1
 10
0.0
 20
0.0
 11
420.0
 21
297.0
 12
0.0
 22
0.0
 32
0.0
 14
1.0000000000E+20
 24
1.0000000000E+20
 34
1.0000000000E+20
 15
-1.0000000000E+20
 25
-1.0000000000E+20
 35
-1.0000000000E+20
146
0.0
 13
0.0
 23
0.0
 33
0.0
 16
1.0
 26
0.0
 36
0.0
 17
0.0
 27
1.0
 37
0.0
 76
     0
330
1B
  0
LAYOUT
  5
26
102
{ACAD_REACTORS
330
1A
102
}
330
1A
100
AcDbPlotSettings
  1

  2
none_device
  4

  6

 40
0.0
 41
0.0
 42
0.0
 43
0.0
 44
0.0
 45
0.0
 46
0.0
 47
0.0
 48
0.0
 49
0.0
140
0.0
141
0.0
142
1.0
143
1.0
 70
   688
 72
     1
 73
     0
 74
     5
  7

 75
    16
147
1.0
148
0.0
149
0.0
100
AcDbLayout
  1
Layout2
 70
     1
 71
     2
 10
0.0
 20
0.0
 11
0.0
 21
0.0
 12
0.0
 22
0.0
 32
0.0
 14
0.0
 24
0.0
 34
0.0
 15
0.0
 25
0.0
 35
0.0
146
0.0
 13
0.0
 23
0.0
 33
0.0
 16
1.0
 26
0.0
 36
0.0
 17
0.0
 27
1.0
 37
0.0
 76
     0
330
23
  0
LAYOUT
  5
22
102
{ACAD_REACTORS
330
1A
102
}
330
1A
100
AcDbPlotSettings
  1

  2
none_device
  4
ANSI_A_(11.00_x_8.50_Inches)
  6

 40
6.35
 41
19.05
 42
6.35000508
 43
19.05000254
 44
279.4
 45
215.9
 46
133.34999746
 47
88.89999873
 48
0.0
 49
0.0
140
0.0
141
0.0
142
0.0550151932
143
1.0
 70
  1696
 72
     0
 73
     0
 74
     0
  7

 75
     0
147
0.0179189148
148
-1300.4909072572
149
0.0
100
AcDbLayout
  1
Model
 70
     1
 71
     0
 10
0.0
 20
0.0
 11
420.0
 21
297.0
 12
0.0
 22
0.0
 32
0.0
 14
-76.4788734733
 24
-76.4788734733
 34
0.0
 15
76.4788734733
 25
76.4788734733
 35
0.0
146
0.0
 13
0.0
 23
0.0
 33
0.0
 16
1.0
 26
0.0
 36
0.0
 17
0.0
 27
1.0
 37
0.0
 76
     0
330
1F
331
29
  0
MLINESTYLE
  5
18
102
{ACAD_REACTORS
330
17
102
}
330
17
100
AcDbMlineStyle
  2
Standard
 70
     0
  3

 62
   256
 51
90.0
 52
90.0
 71
     2
 49
0.5
 62
   256
  6
BYLAYER
 49
-0.5
 62
   256
  6
BYLAYER
  0
ACDBPLACEHOLDER
  5
F
102
{ACAD_REACTORS
330
E
102
}
330
E
  0
SCALE
  5
48
102
{ACAD_REACTORS
330
47
102
}
330
47
100
AcDbScale
 70
     0
300
1:1
140
1.0
141
1.0
290
     1
  0
SCALE
  5
49
102
{ACAD_REACTORS
330
47
102
}
330
47
100
AcDbScale
 70
     0
300
1:2
140
1.0
141
2.0
290
     0
  0
SCALE
  5
4A
102
{ACAD_REACTORS
330
47
102
}
330
47
100
AcDbScale
 70
     0
300
1:4
140
1.0
141
4.0
290
     0
  0
SCALE
  5
4B
102
{ACAD_REACTORS
330
47
102
}
330
47
100
AcDbScale
 70
     0
300
1:5
140
1.0
141
5.0
290
     0
  0
SCALE
  5
4C
102
{ACAD_REACTORS
330
47
102
}
330
47
100
AcDbScale
 70
     0
300
1:8
140
1.0
141
8.0
290
     0
  0
SCALE
  5
4D
102
{ACAD_REACTORS
330
47
102
}
330
47
100
AcDbScale
 70
     0
300
1:10
140
1.0
141
10.0
290
     0
  0
SCALE
  5
4E
102
{ACAD_REACTORS
330
47
102
}
330
47
100
AcDbScale
 70
     0
300
1:16
140
1.0
141
16.0
290
     0
  0
SCALE
  5
4F
102
{ACAD_REACTORS
330
47
102
}
330
47
100
AcDbScale
 70
     0
300
1:20
140
1.0
141
20.0
290
     0
  0
SCALE
  5
50
102
{ACAD_REACTORS
330
47
102
}
330
47
100
AcDbScale
 70
     0
300
1:30
140
1.0
141
30.0
290
     0
  0
SCALE
  5
51
102
{ACAD_REACTORS
330
47
102
}
330
47
100
AcDbScale
 70
     0
300
1:40
140
1.0
141
40.0
290
     0
  0
SCALE
  5
52
102
{ACAD_REACTORS
330
47
102
}
330
47
100
AcDbScale
 70
     0
300
1:50
140
1.0
141
50.0
290
     0
  0
SCALE
  5
53
102
{ACAD_REACTORS
330
47
102
}
330
47
100
AcDbScale
 70
     0
300
1:100
140
1.0
141
100.0
290
     0
  0
SCALE
  5
54
102
{ACAD_REACTORS
330
47
102
}
330
47
100
AcDbScale
 70
     0
300
2:1
140
2.0
141
1.0
290
     0
  0
SCALE
  5
55
102
{ACAD_REACTORS
330
47
102
}
330
47
100
AcDbScale
 70
     0
300
4:1
140
4.0
141
1.0
290
     0
  0
SCALE
  5
56
102
{ACAD_REACTORS
330
47
102
}
330
47
100
AcDbScale
 70
     0
300
8:1
140
8.0
141
1.0
290
     0
  0
SCALE
  5
57
102
{ACAD_REACTORS
330
47
102
}
330
47
100
AcDbScale
 70
     0
300
10:1
140
10.0
141
1.0
290
     0
  0
SCALE
  5
58
102
{ACAD_REACTORS
330
47
102
}
330
47
100
AcDbScale
 70
     0
300
100:1
140
100.0
141
1.0
290
     0
  0
ENDSEC
  0
EOF
